<?xml version="1.0" encoding="UTF-8" standalone="no"?>
<svg width="94px" height="19px" viewBox="0 0 94 19" version="1.1" xmlns="http://www.w3.org/2000/svg" xmlns:xlink="http://www.w3.org/1999/xlink" xmlns:sketch="http://www.bohemiancoding.com/sketch/ns">
    <!-- Generator: Sketch 3.3.3 (12072) - http://www.bohemiancoding.com/sketch -->
    <title>Untitled 2</title>
    <desc>Created with Sketch.</desc>
    <defs></defs>
    <g id="Page-1" stroke="none" stroke-width="1" fill="none" fill-rule="evenodd" sketch:type="MSPage">
        <g id="Логотип_adconsult" sketch:type="MSLayerGroup">
            <path d="M9.18564391,0.766784307 C4.15473187,0.766784307 0.0766666667,4.8289163 0.0766666667,9.83975769 C0.0766666667,14.8504135 4.15473187,18.9125455 9.18564391,18.9125455 C14.2161832,18.9125455 18.2946212,14.8504135 18.2946212,9.83975769 C18.2946212,4.8289163 14.2161832,0.766784307 9.18564391,0.766784307 L9.18564391,0.766784307 Z M9.18564391,14.8324082 C6.41711416,14.8324082 4.17243585,12.597159 4.17243585,9.83975769 C4.17243585,7.08217074 6.41711416,4.84673592 9.18564391,4.84673592 C11.9539873,4.84673592 14.1982929,7.08217074 14.1982929,9.83975769 C14.1982929,12.597159 11.9539873,14.8324082 9.18564391,14.8324082 L9.18564391,14.8324082 Z" id="Fill-1" fill="#E27F3D" sketch:type="MSShapeGroup"></path>
            <path d="M21.9343731,13.6002554 L24.9550448,6.07907436 L26.4652875,6.07907436 L29.4803684,13.5956149 L27.8745243,13.6002554 L27.4216751,12.4471772 L23.9984708,12.4471772 L23.5454353,13.6002554 L21.9343731,13.6002554 L21.9343731,13.6002554 Z M25.7506057,8.08452464 L24.6026424,10.9429038 L26.8678201,10.9429038 L25.7506057,8.08452464 L25.7506057,8.08452464 Z" id="Fill-2" fill="#757575" sketch:type="MSShapeGroup"></path>
            <path d="M31.0921761,13.6026685 L31.0921761,6.07647566 L34.0017786,6.07647566 C36.3504445,6.07647566 37.5258024,7.33201673 37.5258024,9.84198514 C37.5258024,12.348798 36.3504445,13.6026685 34.0017786,13.6026685 L31.0921761,13.6026685 L31.0921761,13.6026685 Z M34.0017786,12.1035925 C35.3405722,12.0998801 36.0116462,11.3462585 36.0153734,9.84198514 C36.0116462,8.33789743 35.3405722,7.58576076 34.0017786,7.58576076 L32.6022324,7.58576076 L32.6022324,12.1035925 L34.0017786,12.1035925 L34.0017786,12.1035925 Z" id="Fill-3" fill="#757575" sketch:type="MSShapeGroup"></path>
            <path d="M39.9698834,12.5199406 C39.2464429,11.8028864 38.884909,10.9044803 38.884909,9.82453676 C38.8882634,8.76816712 39.2507291,7.8799702 39.9724924,7.15938911 C40.6942557,6.4393649 41.5882135,6.07907436 42.6552976,6.07907436 C43.7328178,6.07907436 44.6573382,6.41337794 45.4292318,7.0817995 L44.4221548,8.17993388 C43.9089258,7.77862108 43.3196628,7.5781503 42.6552976,7.5781503 C41.9773284,7.58186272 41.4313004,7.79217142 41.0166545,8.2100045 C40.6018223,8.62765196 40.3951516,9.16279757 40.3951516,9.81469884 C40.3986924,10.5133766 40.6083448,11.0680125 41.0242952,11.4791632 C41.4404319,11.8906851 41.9873917,12.0959821 42.6655473,12.0959821 C43.3429575,12.0959821 43.9288661,11.8973675 44.4221548,11.4997671 L45.4292318,12.5977159 C44.6605063,13.2657662 43.7359859,13.6002554 42.6552976,13.6002554 C41.5882135,13.5969142 40.6927649,13.2368093 39.9698834,12.5199406" id="Fill-4" fill="#757575" sketch:type="MSShapeGroup"></path>
            <path d="M47.8660449,12.5199406 C47.1442815,11.7991739 46.7836794,10.9059652 46.7836794,9.83957207 C46.7836794,8.77020896 47.1442815,7.87570091 47.8660449,7.15716166 C48.5870627,6.43825117 49.4847477,6.07907436 50.5589134,6.07907436 C51.6328927,6.07907436 52.5309504,6.43825117 53.2519683,7.15716166 C53.9741043,7.87570091 54.3347064,8.77020896 54.3347064,9.83957207 C54.3347064,10.909492 53.9741043,11.8036289 53.2519683,12.5223537 C52.5309504,13.2410786 51.6328927,13.6002554 50.5589134,13.6002554 C49.4847477,13.6002554 48.5870627,13.2399649 47.8660449,12.5199406 L47.8660449,12.5199406 Z M50.563945,12.1962175 C51.231851,12.1962175 51.7756427,11.9706878 52.1949475,11.5196286 C52.614625,11.0680125 52.8242774,10.5081792 52.8242774,9.83957207 C52.8242774,9.17115052 52.614625,8.61113168 52.1949475,8.16007242 C51.7756427,7.70864193 51.2288693,7.48292668 50.5536954,7.48292668 C49.8861621,7.48292668 49.3423704,7.70864193 48.9226929,8.16007242 C48.5030154,8.61113168 48.2941085,9.17115052 48.2941085,9.83957207 C48.2941085,10.5081792 48.5030154,11.0680125 48.9226929,11.5196286 C49.3423704,11.9706878 49.8895166,12.1962175 50.563945,12.1962175 L50.563945,12.1962175 Z" id="Fill-5" fill="#757575" sketch:type="MSShapeGroup"></path>
            <path d="M56.1269083,13.6002554 L56.1269083,6.07907436 L56.6304467,6.07907436 L61.3624411,10.7923651 L61.3624411,6.07907436 L62.8726837,6.07907436 L62.8726837,13.6002554 L62.3186423,13.6002554 L57.6375237,8.9368967 L57.6375237,13.6002554 L56.1269083,13.6002554" id="Fill-6" fill="#757575" sketch:type="MSShapeGroup"></path>
            <path d="M69.5687017,6.32966283 C69.9546484,6.49690743 70.3152506,6.74768153 70.6512535,7.0817995 L69.6438038,8.08452464 C69.3085464,7.68358308 68.8385523,7.48292668 68.2343807,7.48292668 C67.6305818,7.48292668 67.2448214,7.62511244 67.0765404,7.90911271 C66.9088185,8.19348422 66.9088185,8.43553413 67.0765404,8.63619053 C67.2448214,8.83684693 67.6305818,8.98738563 68.2343807,9.0874354 C68.8720967,9.15444462 69.4512963,9.36308273 69.9714206,9.71427783 C70.4919177,10.0652873 70.7517003,10.6253062 70.7517003,11.3943343 C70.7517003,11.9957467 70.4736546,12.5136295 69.9184951,12.948911 C69.3627764,13.3830787 68.7159289,13.6002554 67.9781388,13.6002554 C67.2765022,13.6002554 66.6911527,13.50002 66.2209722,13.2997349 C65.7517236,13.0988928 65.3480729,12.8317841 65.0124427,12.496738 L66.0193332,11.4945697 C66.3551498,11.8956969 66.9255906,12.1295795 67.7310286,12.1962175 C68.4022889,12.1962175 68.8208483,12.0544029 68.9870794,11.7704027 C69.1534968,11.4860312 69.1534968,11.2022165 68.9870794,10.9174738 C68.8208483,10.6338447 68.4022889,10.4580616 67.7310286,10.3910523 C67.1268569,10.3244144 66.5731883,10.1404639 66.0698362,9.83957207 C65.5668568,9.5388659 65.3152739,9.02061181 65.3152739,8.28555228 C65.3152739,7.62028629 65.6005875,7.08606878 66.172892,6.68345663 C66.7453828,6.28065886 67.3335276,6.07907436 67.9376992,6.07907436 C68.6384041,6.07907436 69.1825686,6.16278947 69.5687017,6.32966283" id="Fill-7" fill="#757575" sketch:type="MSShapeGroup"></path>
            <path d="M74.1650276,6.07907436 L74.1650276,10.44117 C74.1650276,11.0097274 74.3333086,11.4277461 74.6689388,11.6952261 C75.0040099,11.9623349 75.4236874,12.0959821 75.9272259,12.0959821 C76.430578,12.0959821 76.8502555,11.9623349 77.1856993,11.6952261 C77.5209568,11.4277461 77.6892378,11.0097274 77.6892378,10.44117 L77.6892378,6.07907436 L79.1996668,6.07907436 L79.1996668,10.8426685 C79.1996668,11.6116966 78.8888222,12.2634123 78.2678784,12.798001 C77.6469346,13.332961 76.866655,13.6002554 75.9272259,13.6002554 C74.9876104,13.6002554 74.2069581,13.332961 73.586387,12.798001 C72.9658159,12.2634123 72.655344,11.6116966 72.655344,10.8426685 L72.655344,6.07907436 L74.1650276,6.07907436" id="Fill-8" fill="#757575" sketch:type="MSShapeGroup"></path>
            <path d="M83.0254037,6.07907436 L83.0254037,12.1962175 L87.052966,12.1962175 L87.052966,13.6002554 L81.5157201,13.6002554 L81.5157201,6.07907436 L83.0254037,6.07907436" id="Fill-9" fill="#757575" sketch:type="MSShapeGroup"></path>
            <path d="M93.8237134,6.07907436 L93.8237134,7.48292668 L91.3063938,7.48292668 L91.3063938,13.6002554 L89.7965238,13.6002554 L89.7965238,7.48292668 L87.2793906,7.48292668 L87.2793906,6.07907436 L93.8237134,6.07907436" id="Fill-10" fill="#757575" sketch:type="MSShapeGroup"></path>
        </g>
    </g>
</svg>