<?xml version="1.0" encoding="UTF-8" standalone="no"?>
<svg width="12px" height="14px" viewBox="0 0 12 14" version="1.1" xmlns="http://www.w3.org/2000/svg" xmlns:xlink="http://www.w3.org/1999/xlink" xmlns:sketch="http://www.bohemiancoding.com/sketch/ns">
    <!-- Generator: Sketch 3.3.1 (12002) - http://www.bohemiancoding.com/sketch -->
    <title>Shape Copy 4</title>
    <desc>Created with Sketch.</desc>
    <defs></defs>
    <g id="Создание-задачи" stroke="none" stroke-width="1" fill="none" fill-rule="evenodd" sketch:type="MSPage">
        <g id="Действие-" sketch:type="MSLayerGroup" transform="translate(-1007.000000, -24.000000)" fill-opacity="0.54" fill="#000000">
            <path d="M1016.33333,30 L1009.66667,30 L1009.66667,31.3333333 L1016.33333,31.3333333 L1016.33333,30 L1016.33333,30 Z M1017.66667,25.3333333 L1017,25.3333333 L1017,24 L1015.66667,24 L1015.66667,25.3333333 L1010.33333,25.3333333 L1010.33333,24 L1009,24 L1009,25.3333333 L1008.33333,25.3333333 C1007.59333,25.3333333 1007.00667,25.9333333 1007.00667,26.6666667 L1007,36 C1007,36.7333333 1007.59333,37.3333333 1008.33333,37.3333333 L1017.66667,37.3333333 C1018.4,37.3333333 1019,36.7333333 1019,36 L1019,26.6666667 C1019,25.9333333 1018.4,25.3333333 1017.66667,25.3333333 L1017.66667,25.3333333 Z M1017.66667,36 L1008.33333,36 L1008.33333,28.6666667 L1017.66667,28.6666667 L1017.66667,36 L1017.66667,36 Z M1014.33333,32.6666667 L1009.66667,32.6666667 L1009.66667,34 L1014.33333,34 L1014.33333,32.6666667 L1014.33333,32.6666667 Z" id="Shape-Copy-4" sketch:type="MSShapeGroup"></path>
        </g>
    </g>
</svg>