<?xml version="1.0" encoding="UTF-8" standalone="no"?>
<svg width="88px" height="22px" viewBox="0 0 88 22" version="1.1" xmlns="http://www.w3.org/2000/svg" xmlns:xlink="http://www.w3.org/1999/xlink" xmlns:sketch="http://www.bohemiancoding.com/sketch/ns">
    <!-- Generator: Sketch 3.3.3 (12072) - http://www.bohemiancoding.com/sketch -->
    <title>Untitled</title>
    <desc>Created with Sketch.</desc>
    <defs></defs>
    <g id="Page-1" stroke="none" stroke-width="1" fill="none" fill-rule="evenodd" sketch:type="MSPage">
        <g id="Логотип-" sketch:type="MSLayerGroup" fill="#00BCD4">
            <path d="M15.2725318,11.51897 C15.2725318,9.26170006 12.746799,6.66963222 8.37067368,6.66963222 C3.43655592,6.66963222 0,10.0975737 0,14.2500388 C0,18.4305282 3.58343748,21.8584697 7.98870287,21.8584697 C12.3947558,21.8584697 15.0965102,18.2354785 15.0965102,17.2041815 C15.0965102,17.0928313 15.0374425,17.0091319 14.9496286,16.9534568 C14.8909547,16.9258061 14.8614209,16.8977817 14.8027471,16.8977817 C14.7145394,16.8977817 14.6558655,16.9258061 14.5676578,16.9811075 C13.0697022,17.7893305 11.6308142,18.2074541 10.1919262,18.2074541 C8.04777052,18.2074541 6.6376288,17.3992312 6.05049636,15.8108096 C6.87271805,15.9501842 7.75361362,16.0058593 8.66443679,16.0058593 C11.9537174,16.0058593 15.2725318,14.9745623 15.2725318,11.51897 L15.2725318,11.51897 Z M5.81540711,13.35849 C5.96268245,11.6859953 6.46160721,10.5993969 7.34250277,10.0975737 C7.57759202,9.95819918 7.81268127,9.87449972 8.04777052,9.846849 L8.13558443,9.846849 C8.16511825,9.846849 8.13558443,9.81882463 8.22379212,9.81882463 C9.10508147,9.81882463 9.72174774,10.4043472 9.72174774,11.1565214 C9.72174774,12.5498934 8.63529675,13.3861407 6.57895494,13.3861407 C6.34386569,13.3861407 6.0796364,13.3861407 5.81540711,13.35849 L5.81540711,13.35849 Z" id="Fill-1-Copy-2" sketch:type="MSShapeGroup"></path>
            <path d="M33.0319507,15.3863012 L33.0319507,10.899412 C33.0319507,10.4256132 33.0319507,9.58936585 33.0614845,8.33536849 L33.1197646,4.82372751 C33.1197646,3.73675543 33.1496922,3.15160648 33.1496922,3.09593139 C33.1496922,1.28443581 31.3871135,0.559912303 29.9773656,0.559912303 L29.9482256,0.559912303 C28.5093376,0.559912303 26.8054328,1.28443581 26.8054328,3.09593139 C26.8054328,3.12395576 26.8054328,3.98785382 26.8349666,5.71564994 C26.8641066,7.44344606 26.8936404,8.53041814 26.8936404,8.97619253 L26.8349666,8.97619253 C25.8067957,7.27642079 24.3679077,6.44017344 22.5175151,6.44017344 C18.7871961,6.44017344 16.6434341,9.97946515 16.6434341,13.9925556 C16.6434341,17.8946696 18.8167299,21.6013602 22.3706335,21.6013602 C24.2501662,21.6013602 25.7776556,20.5700632 26.9818481,18.5078429 L27.040522,18.5078429 C27.4807729,20.4306886 29.0082623,21.6013602 31.0051427,21.6013602 C32.5030983,21.6013602 34.5594402,20.4859901 34.5594402,19.4830911 C34.5594402,18.981268 33.0319507,19.5107418 33.0319507,15.3863012 L33.0319507,15.3863012 Z M24.8668325,17.755295 C23.4574783,17.755295 22.6348628,16.1388491 22.6348628,13.9925556 C22.6348628,11.7909607 23.4574783,10.2025392 24.8668325,10.2025392 C26.2474403,10.2025392 27.069662,11.7909607 27.069662,13.9925556 C27.069662,16.1945241 26.2474403,17.755295 24.8668325,17.755295 L24.8668325,17.755295 Z" id="Fill-2-Copy-2" sketch:type="MSShapeGroup"></path>
            <path d="M47.0101554,6.52387291 C45.1892967,6.52387291 43.7204811,7.44381972 42.6048901,9.31099039 L42.4875423,9.31099039 C42.5166824,7.36012025 42.5166824,5.96674834 42.5166824,5.24222484 L42.5166824,4.65670223 C42.5166824,4.40597749 42.5753562,4.21092785 42.5753562,2.84520665 C42.5753562,1.25678509 40.930519,0.615587394 39.5207711,0.559912303 L39.4912373,0.559912303 C38.0814894,0.615587394 36.4366522,1.22913437 36.4366522,2.95655683 C36.4366522,12.8502821 36.4075121,18.2294674 36.4075121,19.1486669 C36.4075121,21.1275614 38.3461124,21.6850597 39.4329572,21.6850597 L39.4620973,21.6850597 C40.8718452,21.6570353 42.3406608,20.9881869 42.4875423,19.4277897 L42.4875423,19.2047157 L42.6048901,19.2047157 C43.6326672,20.8488123 45.0424151,21.6850597 46.8632739,21.6850597 C50.5935929,21.6850597 52.7377486,18.0340441 52.7377486,14.1323038 C52.7377486,10.2585879 50.5345253,6.52387291 47.0101554,6.52387291 L47.0101554,6.52387291 Z M44.5135627,17.9223203 C43.8382226,17.9223203 43.2802302,17.560619 42.8986532,16.8633726 C42.5166824,16.1388491 42.3107332,15.2192759 42.3107332,14.1323038 C42.3107332,11.986384 43.1333486,10.3699381 44.5135627,10.3699381 C45.8941706,10.3699381 46.7167861,11.986384 46.7167861,14.1323038 C46.7167861,16.2229222 45.9233107,17.9223203 44.5135627,17.9223203 L44.5135627,17.9223203 Z" id="Fill-3-Copy-2" sketch:type="MSShapeGroup"></path>
            <path d="M62.285813,6.66963222 C57.4690429,6.66963222 54.0911609,10.1252245 54.0911609,14.3613889 C54.0911609,18.5142276 57.6745984,21.8304453 62.285813,21.8304453 C67.0143753,21.8304453 70.4800713,18.4862032 70.5387451,14.2500388 C70.4800713,10.0418986 66.9553077,6.66963222 62.285813,6.66963222 L62.285813,6.66963222 Z M62.285813,18.6812529 C60.6409758,18.6812529 59.877428,16.7860578 59.877428,14.2500388 C59.877428,11.6859953 60.611442,9.81882463 62.285813,9.81882463 C63.8715825,9.81882463 64.7528719,11.6583446 64.7528719,14.2500388 C64.7528719,17.2041815 63.8715825,18.6812529 62.285813,18.6812529 L62.285813,18.6812529 Z" id="Fill-4-Copy-2" sketch:type="MSShapeGroup"></path>
            <path d="M82.6887062,14.3060875 C85.4786682,13.7205649 87.3877347,12.1878184 87.3877347,10.1532488 C87.3877347,8.23040306 85.8019651,6.72530731 83.481394,6.72530731 C81.8956245,6.72530731 80.4268089,7.7566043 80.4268089,8.67617745 C80.4268089,8.84357638 81.5427937,9.81882463 81.5427937,10.8501216 C81.5427937,11.2682453 81.3667721,11.686369 80.8969874,12.0764683 L78.283047,8.31410253 C77.5194992,7.22713045 76.3444467,6.66963222 74.7582834,6.66963222 C72.6728015,6.66963222 71.3807951,7.50587956 71.3807951,8.50915218 C71.3807951,8.81555201 71.4981428,9.17800059 71.7623721,9.48440042 L75.4044835,13.8322887 C72.0852753,14.5568123 70.734595,15.9501842 70.734595,18.3468287 C70.734595,20.437447 72.2321569,21.9141448 74.6704695,21.9141448 C76.256239,21.9141448 77.7246608,20.8832214 77.7246608,19.9356239 C77.7246608,19.7402006 76.5500021,18.8210011 76.5500021,17.7336554 C76.5500021,17.2602303 76.7846976,16.7584071 77.4017576,16.256584 L80.1039058,20.2700481 C80.8379198,21.3846709 82.0425061,21.9141448 83.5991356,21.9141448 C85.6842236,21.9141448 86.9766238,21.0782711 86.9766238,20.0749985 C86.9766238,19.768225 86.8588823,19.4338008 86.5950468,19.0997502 L82.6887062,14.3060875" id="Fill-5-Copy-2" sketch:type="MSShapeGroup"></path>
        </g>
    </g>
</svg>
