<?xml version="1.0" encoding="UTF-8" standalone="no"?>
<svg width="47px" height="12px" viewBox="0 0 47 12" version="1.1" xmlns="http://www.w3.org/2000/svg" xmlns:xlink="http://www.w3.org/1999/xlink" xmlns:sketch="http://www.bohemiancoding.com/sketch/ns">
    <!-- Generator: Sketch 3.3.3 (12072) - http://www.bohemiancoding.com/sketch -->
    <title>Untitled</title>
    <desc>Created with Sketch.</desc>
    <defs></defs>
    <g id="Page-1" stroke="none" stroke-width="1" fill="none" fill-rule="evenodd" sketch:type="MSPage">
        <g id="Логотип-" sketch:type="MSLayerGroup" fill-opacity="0.26" fill="#000000">
            <path d="M8.15692038,6.21762587 C8.15692038,4.9992131 6.80794948,3.60008557 4.47070071,3.60008557 C1.83543328,3.60008557 0,5.45039492 0,7.69178229 C0,9.94829645 1.91388138,11.7986058 4.26669358,11.7986058 C6.61992641,11.7986058 8.06290884,9.84301397 8.06290884,9.28634798 C8.06290884,9.22624419 8.03136135,9.1810655 7.98446074,9.1510136 C7.95312356,9.1360885 7.93734981,9.12096171 7.90601263,9.12096171 C7.85890171,9.12096171 7.82756453,9.1360885 7.7804536,9.1659387 C6.98040912,9.60219542 6.21191214,9.82788718 5.44341515,9.82788718 C4.29824107,9.82788718 3.5450972,9.39163046 3.2315151,8.53424382 C3.67065623,8.60947441 4.14113455,8.6395263 4.62759692,8.6395263 C6.38437178,8.6395263 8.15692038,8.08286031 8.15692038,6.21762587 L8.15692038,6.21762587 Z M3.10595607,7.21054857 C3.18461449,6.30778155 3.45108567,5.72126536 3.92156398,5.45039492 C4.04712301,5.37516433 4.17268204,5.32998564 4.29824107,5.31506054 L4.34514168,5.31506054 C4.36091543,5.31506054 4.34514168,5.29993375 4.39225261,5.29993375 C4.86294124,5.29993375 5.19229709,5.61598288 5.19229709,6.02198601 C5.19229709,6.77409017 4.61203349,7.22547367 3.51376002,7.22547367 C3.38820099,7.22547367 3.24707853,7.22547367 3.10595607,7.21054857 L3.10595607,7.21054857 Z" id="Fill-1-Copy-2" sketch:type="MSShapeGroup"></path>
            <path d="M17.6420646,8.30510575 L17.6420646,5.88320532 C17.6420646,5.62746167 17.6420646,5.17607816 17.6578383,4.49920458 L17.6889652,2.60371655 C17.6889652,2.01699867 17.7049493,1.70115123 17.7049493,1.67109933 C17.7049493,0.693303418 16.763572,0.302225391 16.0106384,0.302225391 L15.995075,0.302225391 C15.226578,0.302225391 14.3165379,0.693303418 14.3165379,1.67109933 C14.3165379,1.68622612 14.3165379,2.15253473 14.3323117,3.08515196 C14.3478751,4.01776918 14.3636489,4.60448706 14.3636489,4.84510392 L14.3323117,4.84510392 C13.783175,3.92761349 13.014678,3.47622998 12.0264001,3.47622998 C10.0340706,3.47622998 8.88910686,5.38664312 8.88910686,7.5527999 C8.88910686,9.65905459 10.0498444,11.6598251 11.947952,11.6598251 C12.9517933,11.6598251 13.7676115,11.1031591 14.4107598,9.99002882 L14.442097,9.99002882 C14.677231,11.0279285 15.4930492,11.6598251 16.5595649,11.6598251 C17.3596093,11.6598251 18.4578828,11.0577787 18.4578828,10.5164412 C18.4578828,10.2455708 17.6420646,10.5313663 17.6420646,8.30510575 L17.6420646,8.30510575 Z M13.2811492,9.583824 C12.5284259,9.583824 12.0890745,8.71131057 12.0890745,7.5527999 C12.0890745,6.36443903 12.5284259,5.50705239 13.2811492,5.50705239 C14.0185193,5.50705239 14.4576604,6.36443903 14.4576604,7.5527999 C14.4576604,8.74136247 14.0185193,9.583824 13.2811492,9.583824 L13.2811492,9.583824 Z" id="Fill-2-Copy-2" sketch:type="MSShapeGroup"></path>
            <path d="M25.1076967,3.52140867 C24.1351925,3.52140867 23.3507115,4.01797087 22.7548845,5.02581868 L22.6922101,5.02581868 C22.7077735,3.97279218 22.7077735,3.22068802 22.7077735,2.82961 L22.7077735,2.51356086 C22.7077735,2.37822649 22.7391107,2.27294401 22.7391107,1.53576495 C22.7391107,0.678378315 21.8606181,0.332277287 21.1076846,0.302225391 L21.0919108,0.302225391 C20.3389773,0.332277287 19.4604847,0.663453212 19.4604847,1.59586874 C19.4604847,6.93623181 19.4449213,9.83976934 19.4449213,10.3359282 C19.4449213,11.4040814 20.4803101,11.7050038 21.060784,11.7050038 L21.0763474,11.7050038 C21.829281,11.689877 22.613762,11.3288509 22.6922101,10.486591 L22.6922101,10.3661817 L22.7548845,10.3661817 C23.3038109,11.2536203 24.0567444,11.7050038 25.0292486,11.7050038 C27.021578,11.7050038 28.1667521,9.73428517 28.1667521,7.62823218 C28.1667521,5.53730598 26.9900305,3.52140867 25.1076967,3.52140867 L25.1076967,3.52140867 Z M23.7742892,9.67397969 C23.4135962,9.67397969 23.1155775,9.47874321 22.9117807,9.1023886 C22.7077735,8.71131057 22.5977779,8.21495006 22.5977779,7.62823218 C22.5977779,6.4699232 23.0371294,5.59740977 23.7742892,5.59740977 C24.5116593,5.59740977 24.9510108,6.4699232 24.9510108,7.62823218 C24.9510108,8.75669095 24.5272227,9.67397969 23.7742892,9.67397969 L23.7742892,9.67397969 Z" id="Fill-3-Copy-2" sketch:type="MSShapeGroup"></path>
            <path d="M33.2662865,3.60008557 C30.6936934,3.60008557 28.8895973,5.46532002 28.8895973,7.75188608 C28.8895973,9.99347514 30.8034787,11.783479 33.2662865,11.783479 C35.7917686,11.783479 37.6427653,9.97834834 37.6741025,7.69178229 C37.6427653,5.42034302 35.7602211,3.60008557 33.2662865,3.60008557 L33.2662865,3.60008557 Z M33.2662865,10.0836308 C32.3877939,10.0836308 31.9799899,9.06065622 31.9799899,7.69178229 C31.9799899,6.30778155 32.3720201,5.29993375 33.2662865,5.29993375 C34.1132316,5.29993375 34.5839202,6.29285645 34.5839202,7.69178229 C34.5839202,9.28634798 34.1132316,10.0836308 33.2662865,10.0836308 L33.2662865,10.0836308 Z" id="Fill-4-Copy-2" sketch:type="MSShapeGroup"></path>
            <path d="M44.1632863,7.72203587 C45.6533796,7.40598674 46.6729947,6.578652 46.6729947,5.48044681 C46.6729947,4.44254711 45.8260496,3.63013747 44.5866536,3.63013747 C43.7397085,3.63013747 42.9552275,4.18680346 42.9552275,4.68316397 C42.9552275,4.77352134 43.5512648,5.29993375 43.5512648,5.85659974 C43.5512648,6.08229149 43.4572533,6.30798324 43.2063456,6.51854821 L41.8102637,4.4877258 C41.4024598,3.90100791 40.7748749,3.60008557 39.9277195,3.60008557 C38.8138826,3.60008557 38.1238338,4.05146908 38.1238338,4.59300828 C38.1238338,4.75839455 38.1865081,4.95403441 38.3276306,5.11942068 L40.2728491,7.46629222 C38.5000902,7.85737025 37.7787042,8.60947441 37.7787042,9.90311776 C37.7787042,11.0315765 38.5785383,11.8286577 39.8808189,11.8286577 C40.727764,11.8286577 41.5120347,11.2721934 41.5120347,10.7607061 C41.5120347,10.6552219 40.8846602,10.1590631 40.8846602,9.57214352 C40.8846602,9.31660157 41.0100089,9.04573112 41.3395751,8.77486068 L42.7827679,10.9412192 C43.1747981,11.5428621 43.8181567,11.8286577 44.6495383,11.8286577 C45.7631649,11.8286577 46.4534241,11.3774759 46.4534241,10.8359367 C46.4534241,10.6703487 46.3905394,10.4898356 46.2496273,10.3095243 L44.1632863,7.72203587" id="Fill-5-Copy-2" sketch:type="MSShapeGroup"></path>
        </g>
    </g>
</svg>