<?xml version="1.0" encoding="UTF-8" standalone="no"?>
<svg width="32px" height="32px" viewBox="0 0 32 32" version="1.1" xmlns="http://www.w3.org/2000/svg" xmlns:xlink="http://www.w3.org/1999/xlink" xmlns:sketch="http://www.bohemiancoding.com/sketch/ns">
    <!-- Generator: Sketch Beta 3.4 (15575) - http://www.bohemiancoding.com/sketch -->
    <title>Slice 1</title>
    <desc>Created with Sketch Beta.</desc>
    <defs>
        <path id="path-1" d="M0,0.0821368078 L31.9580977,0.0821368078 L31.9580977,32 L0,32 L0,0.0821368078 Z"></path>
    </defs>
    <g id="Page-1" stroke="none" stroke-width="1" fill="none" fill-rule="evenodd" sketch:type="MSPage">
        <g id="Logo" sketch:type="MSLayerGroup">
            <path d="M30.7491857,26.9203909 L18.966202,26.9203909 L18.9469186,24.7638827 L21.7850163,24.7638827 L21.7850163,22.2529772 L18.9247166,22.2529772 L18.9114788,20.7682606 L21.7850163,20.7682606 L21.7850163,18.257355 L18.8890684,18.257355 L18.8759349,16.7726384 L21.7850163,16.7726384 L21.7850163,14.2617329 L18.8664495,14.2617329 L18.8664495,12.7770163 L21.7850163,12.7770163 L21.7850163,10.2661107 L18.8664495,10.2661107 L18.8664495,8.78139414 L21.7850163,8.78139414 L21.7850163,6.2704886 L18.8664495,6.2704886 L18.8664495,3.98910749 L30.7491857,3.98910749 L30.7491857,26.9203909 Z M30.5664625,2.80750489 L19.0052899,2.80750489 L19.0052899,0.0821889251 L0,3.01597394 L0,28.7270879 L19.0052899,31.9999479 L19.0052899,27.9627362 L30.5664625,27.9627362 C31.3350879,27.9627362 31.9580977,27.402684 31.9580977,26.7119218 L31.9580977,4.05831922 C31.9580977,3.36745277 31.3350879,2.80750489 30.5664625,2.80750489 L30.5664625,2.80750489 Z" id="Fill-1" fill="#20744A" sketch:type="MSShapeGroup"></path>
            <mask id="mask-2" sketch:name="Clip 4" fill="white">
                <use xlink:href="#path-1"></use>
            </mask>
            <g id="Clip-4"></g>
            <path d="M23.3832443,8.78134202 L28.3169772,8.78134202 L28.3169772,6.27043648 L23.3832443,6.27043648 L23.3832443,8.78134202 Z" id="Fill-3" fill="#20744A" sketch:type="MSShapeGroup" mask="url(#mask-2)"></path>
            <path d="M23.3832443,12.7769642 L28.3169772,12.7769642 L28.3169772,10.2660586 L23.3832443,10.2660586 L23.3832443,12.7769642 Z" id="Fill-5" fill="#20744A" sketch:type="MSShapeGroup" mask="url(#mask-2)"></path>
            <path d="M23.3832443,16.7725863 L28.3169772,16.7725863 L28.3169772,14.2616808 L23.3832443,14.2616808 L23.3832443,16.7725863 Z" id="Fill-6" fill="#20744A" sketch:type="MSShapeGroup" mask="url(#mask-2)"></path>
            <path d="M23.3832443,20.7682085 L28.3169772,20.7682085 L28.3169772,18.2573029 L23.3832443,18.2573029 L23.3832443,20.7682085 Z" id="Fill-7" fill="#20744A" sketch:type="MSShapeGroup" mask="url(#mask-2)"></path>
            <path d="M23.3832443,24.7638306 L28.3169772,24.7638306 L28.3169772,22.2529251 L23.3832443,22.2529251 L23.3832443,24.7638306 Z" id="Fill-8" fill="#20744A" sketch:type="MSShapeGroup" mask="url(#mask-2)"></path>
            <path d="M4.9618241,9.96059935 L7.4110228,9.82061238 L8.95056678,14.054202 L10.7699805,9.64570684 L13.2191792,9.50571987 L10.2451596,15.5162997 L13.2191792,21.541785 L10.6299935,21.3668795 L8.88062541,16.773785 L7.13115309,21.1918697 L4.75189577,20.9819414 L7.51598697,15.6596221 L4.9618241,9.96059935 Z" id="Fill-9" fill="#FEFEFE" sketch:type="MSShapeGroup" mask="url(#mask-2)"></path>
        </g>
    </g>
</svg>