<?xml version="1.0" encoding="UTF-8" standalone="no"?>
<svg width="122px" height="24px" viewBox="0 0 122 24" version="1.1" xmlns="http://www.w3.org/2000/svg" xmlns:xlink="http://www.w3.org/1999/xlink" xmlns:sketch="http://www.bohemiancoding.com/sketch/ns">
    <!-- Generator: Sketch 3.3.2 (12043) - http://www.bohemiancoding.com/sketch -->
    <title>Untitled</title>
    <desc>Created with Sketch.</desc>
    <defs></defs>
    <g id="Page-1" stroke="none" stroke-width="1" fill="none" fill-rule="evenodd" sketch:type="MSPage">
        <g id="Imported-Layers" sketch:type="MSLayerGroup">
            <path d="M11.9334881,0.184727273 C5.39874206,0.184727273 0.101666667,5.48993939 0.101666667,12.0341818 C0.101666667,18.5781818 5.39874206,23.8833939 11.9334881,23.8833939 C18.46775,23.8833939 23.7653095,18.5781818 23.7653095,12.0341818 C23.7653095,5.48993939 18.46775,0.184727273 11.9334881,0.184727273 L11.9334881,0.184727273 Z M11.9334881,18.5546667 C8.33739286,18.5546667 5.4217381,15.6353939 5.4217381,12.0341818 C5.4217381,8.43272727 8.33739286,5.51321212 11.9334881,5.51321212 C15.5293413,5.51321212 18.4445119,8.43272727 18.4445119,12.0341818 C18.4445119,15.6353939 15.5293413,18.5546667 11.9334881,18.5546667 L11.9334881,18.5546667 Z" id="Fill-1" fill="#E27F3D" sketch:type="MSShapeGroup"></path>
            <path d="M28.4930516,16.9454545 L32.4166587,7.12266667 L34.3783413,7.12266667 L38.2946865,16.9393939 L36.2088254,16.9454545 L35.6206111,15.4395152 L31.1741468,15.4395152 L30.5856905,16.9454545 L28.4930516,16.9454545 L28.4930516,16.9454545 Z M33.4500278,9.74181818 L31.9589167,13.4749091 L34.9011984,13.4749091 L33.4500278,9.74181818 L33.4500278,9.74181818 Z" id="Fill-2" fill="#FFFFFF" sketch:type="MSShapeGroup"></path>
            <path d="M40.3882937,16.9486061 L40.3882937,7.11927273 L44.167631,7.11927273 C47.2183571,7.11927273 48.7450516,8.7590303 48.7450516,12.0370909 C48.7450516,15.3110303 47.2183571,16.9486061 44.167631,16.9486061 L40.3882937,16.9486061 L40.3882937,16.9486061 Z M44.167631,14.9907879 C45.9066151,14.9859394 46.7782857,14.001697 46.783127,12.0370909 C46.7782857,10.0727273 45.9066151,9.09042424 44.167631,9.09042424 L42.3497341,9.09042424 L42.3497341,14.9907879 L44.167631,14.9907879 L44.167631,14.9907879 Z" id="Fill-3" fill="#FFFFFF" sketch:type="MSShapeGroup"></path>
            <path d="M51.9197143,15.5345455 C50.9800238,14.5980606 50.5104206,13.4247273 50.5104206,12.014303 C50.5147778,10.6346667 50.9855913,9.47466667 51.9231032,8.53357576 C52.8606151,7.59321212 54.0217937,7.12266667 55.4078492,7.12266667 C56.8074603,7.12266667 58.0083373,7.55927273 59.0109643,8.43224242 L57.7028532,9.86642424 C57.0362103,9.34230303 56.2708056,9.08048485 55.4078492,9.08048485 C54.5272222,9.08533333 53.8179762,9.36 53.2793849,9.90569697 C52.7405516,10.4511515 52.4721032,11.1500606 52.4721032,12.0014545 C52.4767024,12.9139394 52.7490238,13.638303 53.2893095,14.1752727 C53.8298373,14.7127273 54.5402937,14.9808485 55.4211627,14.9808485 C56.3010635,14.9808485 57.0621111,14.7214545 57.7028532,14.2021818 L59.0109643,15.6361212 C58.0124524,16.5086061 56.8115754,16.9454545 55.4078492,16.9454545 C54.0217937,16.9410909 52.8586786,16.4707879 51.9197143,15.5345455" id="Fill-4" fill="#FFFFFF" sketch:type="MSShapeGroup"></path>
            <path d="M62.1761865,15.5345455 C61.2386746,14.5932121 60.7702817,13.4266667 60.7702817,12.0339394 C60.7702817,10.6373333 61.2386746,9.46909091 62.1761865,8.53066667 C63.1127302,7.59175758 64.27875,7.12266667 65.674004,7.12266667 C67.0690159,7.12266667 68.2355198,7.59175758 69.1720635,8.53066667 C70.1100595,9.46909091 70.5784524,10.6373333 70.5784524,12.0339394 C70.5784524,13.4312727 70.1100595,14.5990303 69.1720635,15.537697 C68.2355198,16.4763636 67.0690159,16.9454545 65.674004,16.9454545 C64.27875,16.9454545 63.1127302,16.4749091 62.1761865,15.5345455 L62.1761865,15.5345455 Z M65.6805397,15.1117576 C66.5480952,15.1117576 67.2544365,14.8172121 67.7990794,14.2281212 C68.3442063,13.638303 68.6165278,12.9071515 68.6165278,12.0339394 C68.6165278,11.1609697 68.3442063,10.4295758 67.7990794,9.84048485 C67.2544365,9.25090909 66.5442222,8.95612121 65.6672262,8.95612121 C64.8001548,8.95612121 64.0938135,9.25090909 63.5486865,9.84048485 C63.0035595,10.4295758 62.7322063,11.1609697 62.7322063,12.0339394 C62.7322063,12.9071515 63.0035595,13.638303 63.5486865,14.2281212 C64.0938135,14.8172121 64.8045119,15.1117576 65.6805397,15.1117576 L65.6805397,15.1117576 Z" id="Fill-5" fill="#FFFFFF" sketch:type="MSShapeGroup"></path>
            <path d="M72.906377,16.9454545 L72.906377,7.12266667 L73.5604325,7.12266667 L79.7069087,13.278303 L79.7069087,7.12266667 L81.6685913,7.12266667 L81.6685913,16.9454545 L80.9489365,16.9454545 L74.8685437,10.8550303 L74.8685437,16.9454545 L72.906377,16.9454545" id="Fill-6" fill="#FFFFFF" sketch:type="MSShapeGroup"></path>
            <path d="M90.3661746,7.44993939 C90.8674881,7.66836364 91.335881,7.99587879 91.7723214,8.43224242 L90.4637262,9.74181818 C90.028254,9.21818182 89.4177698,8.95612121 88.633,8.95612121 C87.8487143,8.95612121 87.3476429,9.14181818 87.1290595,9.51272727 C86.9112024,9.88412121 86.9112024,10.2002424 87.1290595,10.462303 C87.3476429,10.7243636 87.8487143,10.9209697 88.633,11.0516364 C89.4613413,11.1391515 90.2136746,11.4116364 90.8892738,11.870303 C91.5653571,12.3287273 91.9027937,13.0601212 91.9027937,14.0644848 C91.9027937,14.8499394 91.5416349,15.526303 90.8205278,16.0947879 C90.0986944,16.6618182 89.2584921,16.9454545 88.3001627,16.9454545 C87.3887937,16.9454545 86.6284722,16.8145455 86.017746,16.5529697 C85.4082302,16.2906667 84.8839206,15.9418182 84.4479643,15.5042424 L85.7558333,14.1953939 C86.1920317,14.7192727 86.9329881,15.0247273 87.9791865,15.1117576 C88.8510992,15.1117576 89.3947738,14.9265455 89.6106944,14.5556364 C89.8268571,14.1842424 89.8268571,13.8135758 89.6106944,13.441697 C89.3947738,13.0712727 88.8510992,12.841697 87.9791865,12.7541818 C87.1944167,12.6671515 86.475246,12.4269091 85.8214325,12.0339394 C85.1681032,11.6412121 84.8413175,10.9643636 84.8413175,10.0043636 C84.8413175,9.13551515 85.2119167,8.43781818 85.9552937,7.912 C86.6989127,7.38593939 87.4628651,7.12266667 88.2476349,7.12266667 C89.1577937,7.12266667 89.864619,7.232 90.3661746,7.44993939" id="Fill-7" fill="#FFFFFF" sketch:type="MSShapeGroup"></path>
            <path d="M96.3364286,7.12266667 L96.3364286,12.8196364 C96.3364286,13.5621818 96.5550119,14.1081212 96.9909683,14.4574545 C97.4261984,14.806303 97.9713254,14.9808485 98.625381,14.9808485 C99.2791944,14.9808485 99.8243214,14.806303 100.260036,14.4574545 C100.695508,14.1081212 100.914091,13.5621818 100.914091,12.8196364 L100.914091,7.12266667 L102.876016,7.12266667 L102.876016,13.344 C102.876016,14.3483636 102.472254,15.1995152 101.665698,15.897697 C100.859143,16.5963636 99.845623,16.9454545 98.625381,16.9454545 C97.4048968,16.9454545 96.3908929,16.5963636 95.5848214,15.897697 C94.77875,15.1995152 94.3754722,14.3483636 94.3754722,13.344 L94.3754722,7.12266667 L96.3364286,7.12266667" id="Fill-8" fill="#FFFFFF" sketch:type="MSShapeGroup"></path>
            <path d="M107.845337,7.12266667 L107.845337,15.1117576 L113.076813,15.1117576 L113.076813,16.9454545 L105.884381,16.9454545 L105.884381,7.12266667 L107.845337,7.12266667" id="Fill-9" fill="#FFFFFF" sketch:type="MSShapeGroup"></path>
            <path d="M121.871464,7.12266667 L121.871464,8.95612121 L118.601671,8.95612121 L118.601671,16.9454545 L116.640472,16.9454545 L116.640472,8.95612121 L113.370921,8.95612121 L113.370921,7.12266667 L121.871464,7.12266667" id="Fill-10" fill="#FFFFFF" sketch:type="MSShapeGroup"></path>
        </g>
    </g>
</svg>