<svg id="Layer_1" data-name="Layer 1" xmlns="http://www.w3.org/2000/svg" xmlns:xlink="http://www.w3.org/1999/xlink" viewBox="0 0 168 40"><defs><style>.cls-1{fill:none;}.cls-2{font-size:18.68px;fill:#030919;font-family:PragmaticaSlab-Bold, Pragmatica Slabserif;font-weight:700;}.cls-3,.cls-5{fill:#1f4fdb;}.cls-3{fill-rule:evenodd;}.cls-4{clip-path:url(#clip-path);}</style><clipPath id="clip-path"><rect class="cls-1" x="1" y="-19.72" width="156.54" height="128.44"/></clipPath></defs><title>Logo</title><text class="cls-2" transform="translate(52.11 26.34)">Н</text><text class="cls-2" transform="translate(67.29 26.34)">а</text><text class="cls-2" transform="translate(78.6 26.34)">у</text><text class="cls-2" transform="translate(90.09 26.34)">к</text><text class="cls-2" transform="translate(101.27 26.34)">а</text><text class="cls-2" transform="translate(112.7 26.34)">сити </text><polygon class="cls-3" points="19.59 21.36 26.61 21.36 26.61 25.76 24.91 25.76 24.91 29.32 32.7 29.32 32.7 25.76 30.94 25.76 30.94 14.54 32.7 14.54 32.7 10.98 24.91 10.98 24.91 14.54 26.61 14.54 26.61 18 19.59 18 19.59 14.54 21.29 14.54 21.29 10.98 13.51 10.98 13.51 14.54 15.26 14.54 15.26 25.76 13.51 25.76 13.51 29.32 21.29 29.32 21.29 25.76 19.59 25.76 19.59 21.36"/><g class="cls-4"><path class="cls-5" d="M34.45,1.55a117.18,117.18,0,0,0-22.7,0A108.89,108.89,0,0,0,1,20.15a107.77,107.77,0,0,0,10.75,18.6,117.2,117.2,0,0,0,22.7,0l.42-.58a106.18,106.18,0,0,0,10.33-18A109.34,109.34,0,0,0,34.45,1.55m-1.83,34c-3.15.26-6.35.39-9.53.39s-6.38-.13-9.52-.39A101.43,101.43,0,0,1,4.66,20.16,101.51,101.51,0,0,1,13.57,4.72c3.14-.26,6.35-.39,9.52-.39s6.38.13,9.53.39a101.44,101.44,0,0,1,8.92,15.44A101.44,101.44,0,0,1,32.62,35.6"/></g></svg>