<?xml version="1.0" encoding="UTF-8" standalone="no"?>
<svg width="71px" height="18px" viewBox="0 0 71 18" version="1.1" xmlns="http://www.w3.org/2000/svg" xmlns:xlink="http://www.w3.org/1999/xlink" xmlns:sketch="http://www.bohemiancoding.com/sketch/ns">
    <!-- Generator: Sketch 3.3.2 (12043) - http://www.bohemiancoding.com/sketch -->
    <title>Untitled</title>
    <desc>Created with Sketch.</desc>
    <defs></defs>
    <g id="Page-1" stroke="none" stroke-width="1" fill="none" fill-rule="evenodd" sketch:type="MSPage">
        <g id="Logo-1" sketch:type="MSLayerGroup" fill="#FFFFFF">
            <g id="Group" sketch:type="MSShapeGroup">
                <path d="M12.2848164,9.3264388 C12.2848164,7.49881965 10.2531845,5.40012836 6.73314623,5.40012836 C2.76427375,5.40012836 0,8.17559237 0,11.5376734 C0,14.9224447 2.88242135,17.6979087 6.42589912,17.6979087 C9.97001038,17.6979087 12.1432294,14.764521 12.1432294,13.929522 C12.1432294,13.8393663 12.0957169,13.7715982 12.0250818,13.7265204 C11.9778861,13.7041327 11.9541299,13.6814426 11.9069342,13.6814426 C11.8359823,13.6814426 11.7887866,13.7041327 11.7178347,13.7489081 C10.5129192,14.4032931 9.35551616,14.7418308 8.19811312,14.7418308 C6.47341156,14.7418308 5.33913124,14.0874457 4.86685759,12.8013657 C5.52823075,12.9142116 6.23679961,12.9592895 6.96944143,12.9592895 C9.61525083,12.9592895 12.2848164,12.1242905 12.2848164,9.3264388 L12.2848164,9.3264388 Z M4.67775808,10.8158229 C4.79622243,9.46167233 5.19754417,8.58189804 5.90611302,8.17559237 C6.09521253,8.0627465 6.28431205,7.99497846 6.47341156,7.97259081 L6.54404672,7.97259081 C6.56780294,7.97259081 6.54404672,7.94990062 6.61499863,7.94990062 C7.32388423,7.94990062 7.8199141,8.42397432 7.8199141,9.03297901 C7.8199141,10.1611352 6.94600196,10.8382105 5.29193555,10.8382105 C5.10283604,10.8382105 4.89029706,10.8382105 4.67775808,10.8158229 L4.67775808,10.8158229 Z" id="Fill-1-Copy"></path>
                <path d="M26.5700185,12.4576586 L26.5700185,8.82480797 C26.5700185,8.4411925 26.5700185,7.76411724 26.5937747,6.74880688 L26.6406536,3.90557483 C26.6406536,3.025498 26.6647266,2.55172684 26.6647266,2.50664899 C26.6647266,1.03995513 25.2469554,0.453338086 24.1129918,0.453338086 L24.0895524,0.453338086 C22.9321493,0.453338086 21.5615738,1.03995513 21.5615738,2.50664899 C21.5615738,2.52933918 21.5615738,3.2288021 21.58533,4.62772794 C21.6087695,6.02665377 21.6325257,6.9067306 21.6325257,7.26765588 L21.58533,7.26765588 C20.7582968,5.89142024 19.6008938,5.21434498 18.1124874,5.21434498 C15.1119185,5.21434498 13.3875337,8.07996468 13.3875337,11.3291999 C13.3875337,14.4885819 15.1356747,17.4897376 17.9943398,17.4897376 C19.5061857,17.4897376 20.7348574,16.6547387 21.7034776,14.9850432 L21.7506733,14.9850432 C22.1047994,16.5418928 23.3334711,17.4897376 24.9397083,17.4897376 C26.1446238,17.4897376 27.7986902,16.5866681 27.7986902,15.7746618 C27.7986902,15.3683562 26.5700185,15.7970495 26.5700185,12.4576586 L26.5700185,12.4576586 Z M20.0022155,14.375736 C18.8685687,14.375736 18.2068788,13.0669659 18.2068788,11.3291999 C18.2068788,9.54665854 18.8685687,8.26057859 20.0022155,8.26057859 C21.1127396,8.26057859 21.7741128,9.54665854 21.7741128,11.3291999 C21.7741128,13.1120437 21.1127396,14.375736 20.0022155,14.375736 L20.0022155,14.375736 Z" id="Fill-2-Copy"></path>
                <path d="M37.8137128,5.28211301 C36.3490627,5.28211301 35.1675867,6.02695631 34.2702351,7.53872802 L34.1758437,7.53872802 C34.1992832,5.95918827 34.1992832,4.83103204 34.1992832,4.244415 L34.1992832,3.7703413 C34.1992832,3.56733973 34.2464789,3.40941601 34.2464789,2.30364743 C34.2464789,1.01756747 32.9234158,0.49841593 31.7894522,0.453338086 L31.765696,0.453338086 C30.6317324,0.49841593 29.3086694,0.995179818 29.3086694,2.39380312 C29.3086694,10.4043477 29.2852299,14.759654 29.2852299,15.5038922 C29.2852299,17.1061222 30.8445882,17.5575057 31.7188171,17.5575057 L31.7422565,17.5575057 C32.8762201,17.5348155 34.0576961,16.9932763 34.1758437,15.7298865 L34.1758437,15.5492726 L34.2702351,15.5492726 C35.0969515,16.8804304 36.2309151,17.5575057 37.6955652,17.5575057 C40.6961342,17.5575057 42.4208358,14.6014278 42.4208358,11.4423483 C42.4208358,8.30595897 40.6486218,5.28211301 37.8137128,5.28211301 L37.8137128,5.28211301 Z M35.8055204,14.5109695 C35.2622948,14.5109695 34.8134606,14.2181148 34.5065303,13.6535829 C34.1992832,13.0669659 34.0336231,12.3224251 34.0336231,11.4423483 C34.0336231,9.7048848 34.695313,8.39611465 35.8055204,8.39611465 C36.9160445,8.39611465 37.5777344,9.7048848 37.5777344,11.4423483 C37.5777344,13.1350364 36.939484,14.5109695 35.8055204,14.5109695 L35.8055204,14.5109695 Z" id="Fill-3-Copy"></path>
                <path d="M50.1010436,5.40012836 C46.2265625,5.40012836 43.5094844,8.19798003 43.5094844,11.6278291 C43.5094844,14.9902127 46.3919058,17.6752185 50.1010436,17.6752185 C53.9045728,17.6752185 56.692286,14.9675225 56.7394817,11.5376734 C56.692286,8.13051453 53.8570603,5.40012836 50.1010436,5.40012836 L50.1010436,5.40012836 Z M50.1010436,15.1254462 C48.7779805,15.1254462 48.163803,13.5909843 48.163803,11.5376734 C48.163803,9.46167233 48.7542243,7.94990062 50.1010436,7.94990062 C51.3765942,7.94990062 52.0854798,9.43928468 52.0854798,11.5376734 C52.0854798,13.929522 51.3765942,15.1254462 50.1010436,15.1254462 L50.1010436,15.1254462 Z" id="Fill-4-Copy"></path>
                <path d="M66.5125857,11.5830538 C68.7567566,11.1089801 70.2923586,9.867978 70.2923586,8.22067022 C70.2923586,6.66382066 69.016808,5.4452062 67.1502026,5.4452062 C65.874652,5.4452062 64.693176,6.28020519 64.693176,7.02474595 C64.693176,7.16028202 65.5908443,7.94990062 65.5908443,8.7848996 C65.5908443,9.12343724 65.4492573,9.46197487 65.071375,9.77782231 L62.9687911,6.7315887 C62.3546137,5.85151187 61.4094329,5.40012836 60.1335655,5.40012836 C58.4560596,5.40012836 57.4168042,6.07720362 57.4168042,6.88951242 C57.4168042,7.13759183 57.5111956,7.43105161 57.7237345,7.67913102 L60.6533516,11.1994383 C57.9834692,11.7860554 56.8970181,12.9142116 56.8970181,14.8546766 C56.8970181,16.5473648 58.1016168,17.7429865 60.0629303,17.7429865 C61.338481,17.7429865 62.5196402,16.9082901 62.5196402,16.1410591 C62.5196402,15.9828329 61.5747762,15.2385947 61.5747762,14.3582153 C61.5747762,13.9749023 61.7635589,13.5685967 62.2599055,13.162291 L64.4334413,16.4118287 C65.0238625,17.3142932 65.9927996,17.7429865 67.2449107,17.7429865 C68.9220999,17.7429865 69.961672,17.0662138 69.961672,16.253905 C69.961672,16.0055231 69.8669639,15.7347535 69.6547417,15.4642864 L66.5125857,11.5830538" id="Fill-5-Copy"></path>
            </g>
        </g>
    </g>
</svg>