<?xml version="1.0" encoding="UTF-8" standalone="no"?>
<svg width="200px" height="40px" viewBox="0 0 200 40" version="1.1" xmlns="http://www.w3.org/2000/svg" xmlns:xlink="http://www.w3.org/1999/xlink" xmlns:sketch="http://www.bohemiancoding.com/sketch/ns">
    <!-- Generator: Sketch 3.3.2 (12043) - http://www.bohemiancoding.com/sketch -->
    <title>Untitled</title>
    <desc>Created with Sketch.</desc>
    <defs></defs>
    <g id="Page-1" stroke="none" stroke-width="1" fill="none" fill-rule="evenodd" sketch:type="MSPage">
        <g id="Imported-Layers" sketch:type="MSLayerGroup">
            <path d="M19.5630952,0.302831595 C8.85039683,0.302831595 0.166666667,8.99990065 0.166666667,19.7281669 C0.166666667,30.4560358 8.85039683,39.1531048 19.5630952,39.1531048 C30.275,39.1531048 38.9595238,30.4560358 38.9595238,19.7281669 C38.9595238,8.99990065 30.275,0.302831595 19.5630952,0.302831595 L19.5630952,0.302831595 Z M19.5630952,30.4174863 C13.6678571,30.4174863 8.88809524,25.6317933 8.88809524,19.7281669 C8.88809524,13.8241431 13.6678571,9.03805266 19.5630952,9.03805266 C25.4579365,9.03805266 30.2369048,13.8241431 30.2369048,19.7281669 C30.2369048,25.6317933 25.4579365,30.4174863 19.5630952,30.4174863 L19.5630952,30.4174863 Z" id="Fill-1" fill="#E27F3D" sketch:type="MSShapeGroup"></path>
            <path d="M46.7099206,27.7794337 L53.1420635,11.6765027 L56.3579365,11.6765027 L62.7781746,27.7694983 L59.3587302,27.7794337 L58.3944444,25.3106806 L51.1051587,25.3106806 L50.1404762,27.7794337 L46.7099206,27.7794337 L46.7099206,27.7794337 Z M54.8361111,15.9701937 L52.3916667,22.0900149 L57.2150794,22.0900149 L54.8361111,15.9701937 L54.8361111,15.9701937 Z" id="Fill-2" fill="#FFFFFF" sketch:type="MSShapeGroup"></path>
            <path d="M66.2103175,27.7846001 L66.2103175,11.6709389 L72.4059524,11.6709389 C77.4071429,11.6709389 79.9099206,14.3590661 79.9099206,19.7329359 C79.9099206,25.1000497 77.4071429,27.7846001 72.4059524,27.7846001 L66.2103175,27.7846001 L66.2103175,27.7846001 Z M72.4059524,24.5750621 C75.256746,24.5671138 76.6857143,22.9536016 76.6936508,19.7329359 C76.6857143,16.5126677 75.256746,14.9023348 72.4059524,14.9023348 L69.4257937,14.9023348 L69.4257937,24.5750621 L72.4059524,24.5750621 L72.4059524,24.5750621 Z" id="Fill-3" fill="#FFFFFF" sketch:type="MSShapeGroup"></path>
            <path d="M85.1142857,25.466468 C83.5738095,23.9312469 82.8039683,22.0077496 82.8039683,19.6955787 C82.8111111,17.4338798 83.5829365,15.5322404 85.1198413,13.9894685 C86.656746,12.4478887 88.5603175,11.6765027 90.8325397,11.6765027 C93.1269841,11.6765027 95.0956349,12.3922504 96.7392857,13.8233482 L94.5948413,16.174466 C93.5019841,15.3152509 92.2472222,14.8860407 90.8325397,14.8860407 C89.3888889,14.8939891 88.2261905,15.3442623 87.343254,16.2388475 C86.4599206,17.1330353 86.0198413,18.2787879 86.0198413,19.6745156 C86.027381,21.1703924 86.4738095,22.3578738 87.3595238,23.238152 C88.2456349,24.119225 89.4103175,24.558768 90.8543651,24.558768 C92.2968254,24.558768 93.5444444,24.133532 94.5948413,23.2822653 L96.7392857,25.6329856 C95.102381,27.0632886 93.1337302,27.7794337 90.8325397,27.7794337 C88.5603175,27.7722802 86.6535714,27.0012916 85.1142857,25.466468" id="Fill-4" fill="#FFFFFF" sketch:type="MSShapeGroup"></path>
            <path d="M101.928175,25.466468 C100.39127,23.9232986 99.6234127,22.010929 99.6234127,19.7277695 C99.6234127,17.4382514 100.39127,15.5230999 101.928175,13.9846995 C103.463492,12.4455042 105.375,11.6765027 107.662302,11.6765027 C109.949206,11.6765027 111.861508,12.4455042 113.396825,13.9846995 C114.934524,15.5230999 115.702381,17.4382514 115.702381,19.7277695 C115.702381,22.0184799 114.934524,23.9328366 113.396825,25.4716344 C111.861508,27.0104322 109.949206,27.7794337 107.662302,27.7794337 C105.375,27.7794337 103.463492,27.0080477 101.928175,25.466468 L101.928175,25.466468 Z M107.673016,24.7733731 C109.095238,24.7733731 110.253175,24.2905117 111.146032,23.3247889 C112.039683,22.3578738 112.486111,21.1592648 112.486111,19.7277695 C112.486111,18.2966716 112.039683,17.0976652 111.146032,16.1319424 C110.253175,15.1654247 109.088889,14.6821659 107.65119,14.6821659 C106.229762,14.6821659 105.071825,15.1654247 104.178175,16.1319424 C103.284524,17.0976652 102.839683,18.2966716 102.839683,19.7277695 C102.839683,21.1592648 103.284524,22.3578738 104.178175,23.3247889 C105.071825,24.2905117 106.236905,24.7733731 107.673016,24.7733731 L107.673016,24.7733731 Z" id="Fill-5" fill="#FFFFFF" sketch:type="MSShapeGroup"></path>
            <path d="M119.518651,27.7794337 L119.518651,11.6765027 L120.590873,11.6765027 L130.667063,21.7677099 L130.667063,11.6765027 L133.882937,11.6765027 L133.882937,27.7794337 L132.703175,27.7794337 L122.735317,17.7951316 L122.735317,27.7794337 L119.518651,27.7794337" id="Fill-6" fill="#FFFFFF" sketch:type="MSShapeGroup"></path>
            <path d="M148.14127,12.2130154 C148.963095,12.5710879 149.730952,13.107998 150.446429,13.8233482 L148.30119,15.9701937 C147.587302,15.1117735 146.586508,14.6821659 145.3,14.6821659 C144.014286,14.6821659 143.192857,14.9865872 142.834524,15.5946349 C142.477381,16.2034774 142.477381,16.7217089 142.834524,17.1513164 C143.192857,17.580924 144.014286,17.903229 145.3,18.1174367 C146.657937,18.2609041 147.89127,18.7076006 148.99881,19.4595132 C150.107143,20.2110283 150.660317,21.4100348 150.660317,23.0565325 C150.660317,24.3441629 150.068254,25.4529558 148.886111,26.3848982 C147.702778,27.314456 146.325397,27.7794337 144.754365,27.7794337 C143.260317,27.7794337 142.013889,27.5648286 141.012698,27.1360159 C140.013492,26.7060109 139.153968,26.1341282 138.439286,25.4167909 L140.583333,23.2711376 C141.298413,24.1299553 142.513095,24.6307004 144.228175,24.7733731 C145.65754,24.7733731 146.54881,24.4697466 146.902778,23.861699 C147.257143,23.2528564 147.257143,22.6452062 146.902778,22.0355688 C146.54881,21.4283159 145.65754,21.0519622 144.228175,20.9084948 C142.941667,20.7658222 141.762698,20.3719821 140.690873,19.7277695 C139.619841,19.0839543 139.084127,17.9743666 139.084127,16.4005961 C139.084127,14.9762543 139.691667,13.8324888 140.910317,12.9704918 C142.129365,12.1080974 143.381746,11.6765027 144.668254,11.6765027 C146.160317,11.6765027 147.319048,11.8557377 148.14127,12.2130154" id="Fill-7" fill="#FFFFFF" sketch:type="MSShapeGroup"></path>
            <path d="M157.928571,11.6765027 L157.928571,21.0157973 C157.928571,22.2330849 158.286905,23.1280676 159.001587,23.7007452 C159.715079,24.2726279 160.60873,24.558768 161.680952,24.558768 C162.752778,24.558768 163.646429,24.2726279 164.360714,23.7007452 C165.074603,23.1280676 165.432937,22.2330849 165.432937,21.0157973 L165.432937,11.6765027 L168.649206,11.6765027 L168.649206,21.8754098 C168.649206,23.5219076 167.987302,24.917238 166.665079,26.0617983 C165.342857,27.2071535 163.681349,27.7794337 161.680952,27.7794337 C159.680159,27.7794337 158.017857,27.2071535 156.696429,26.0617983 C155.375,24.917238 154.713889,23.5219076 154.713889,21.8754098 L154.713889,11.6765027 L157.928571,11.6765027" id="Fill-8" fill="#FFFFFF" sketch:type="MSShapeGroup"></path>
            <path d="M176.795635,11.6765027 L176.795635,24.7733731 L185.371825,24.7733731 L185.371825,27.7794337 L173.580952,27.7794337 L173.580952,11.6765027 L176.795635,11.6765027" id="Fill-9" fill="#FFFFFF" sketch:type="MSShapeGroup"></path>
            <path d="M199.789286,11.6765027 L199.789286,14.6821659 L194.428968,14.6821659 L194.428968,27.7794337 L191.213889,27.7794337 L191.213889,14.6821659 L185.853968,14.6821659 L185.853968,11.6765027 L199.789286,11.6765027" id="Fill-10" fill="#FFFFFF" sketch:type="MSShapeGroup"></path>
        </g>
    </g>
</svg>