<?xml version="1.0" encoding="UTF-8" standalone="no"?>
<svg width="82px" height="21px" viewBox="0 0 82 21" version="1.1" xmlns="http://www.w3.org/2000/svg" xmlns:xlink="http://www.w3.org/1999/xlink" xmlns:sketch="http://www.bohemiancoding.com/sketch/ns">
    <!-- Generator: Sketch 3.3.2 (12043) - http://www.bohemiancoding.com/sketch -->
    <title>Untitled</title>
    <desc>Created with Sketch.</desc>
    <defs></defs>
    <g id="Page-1" stroke="none" stroke-width="1" fill="none" fill-rule="evenodd" sketch:type="MSPage">
        <g id="Edbox-логотип" sketch:type="MSLayerGroup" fill="#FFFFFF">
            <path d="M14.6820967,10.7622522 C14.6820967,8.54551882 12.2540086,6 8.04706396,6 C3.30369888,6 0,9.36638167 0,13.4442757 C0,17.5496908 3.44490201,20.9160724 7.67986012,20.9160724 C11.9155753,20.9160724 14.51288,17.3581439 14.51288,16.3453672 C14.51288,16.2360166 14.4560959,16.1538203 14.3716769,16.099145 C14.3152714,16.0719908 14.2868793,16.0444697 14.2304738,16.0444697 C14.1456762,16.0444697 14.0892707,16.0719908 14.0044731,16.1262992 C12.5644283,16.9200079 11.1811677,17.3306228 9.79790701,17.3306228 C7.73664422,17.3306228 6.38101849,16.5369141 5.81658455,14.9770178 C6.6070192,15.1138894 7.4538594,15.1685647 8.32947021,15.1685647 C11.4915874,15.1685647 14.6820967,14.155788 14.6820967,10.7622522 L14.6820967,10.7622522 Z M5.59058383,12.5687375 C5.73216552,10.9262779 6.21180188,9.85919294 7.05864207,9.36638167 C7.28464279,9.22951003 7.5106435,9.14731366 7.73664422,9.12015951 L7.82106324,9.12015951 C7.84945529,9.12015951 7.82106324,9.0926384 7.90586083,9.0926384 C8.75307959,9.0926384 9.34590558,9.66764604 9.34590558,10.4063125 C9.34590558,11.7746619 8.30145672,12.5958917 6.32461295,12.5958917 C6.09861224,12.5958917 5.84459803,12.5958917 5.59058383,12.5687375 L5.59058383,12.5687375 Z" id="Fill-1-Copy" sketch:type="MSShapeGroup"></path>
            <path d="M30.7549376,14.5601328 L30.7549376,10.1538203 C30.7549376,9.6885301 30.7549376,8.8673003 30.7833296,7.63582255 L30.8393566,4.18724452 C30.8393566,3.11979256 30.8681272,2.54515187 30.8681272,2.49047661 C30.8681272,0.711512323 29.1736897,0 27.8184425,0 L27.790429,0 C26.4071684,0 24.7691364,0.711512323 24.7691364,2.49047661 C24.7691364,2.51799771 24.7691364,3.36638167 24.7975285,5.06314958 C24.8255419,6.75991749 24.853934,7.82736945 24.853934,8.26513851 L24.7975285,8.26513851 C23.8091066,6.5958917 22.4258459,5.7746619 20.6469894,5.7746619 C17.0608842,5.7746619 15,9.2503941 15,13.1914165 C15,17.0234552 17.0892763,20.6635802 20.5057862,20.6635802 C22.3126563,20.6635802 23.7810931,19.6508035 24.9387316,17.625617 L24.9951371,17.625617 C25.4183679,19.5139318 26.8868047,20.6635802 28.8064858,20.6635802 C30.2465306,20.6635802 32.2233744,19.5682402 32.2233744,18.5833515 C32.2233744,18.0905402 30.7549376,18.6105057 30.7549376,14.5601328 L30.7549376,14.5601328 Z M22.9054823,16.8865836 C21.5506137,16.8865836 20.7598004,15.2991662 20.7598004,13.1914165 C20.7598004,11.0293584 21.5506137,9.4694621 22.9054823,9.4694621 C24.2327159,9.4694621 25.0231506,11.0293584 25.0231506,13.1914165 C25.0231506,15.3538415 24.2327159,16.8865836 22.9054823,16.8865836 L22.9054823,16.8865836 Z" id="Fill-2-Copy" sketch:type="MSShapeGroup"></path>
            <path d="M43.1927458,5.85685827 C41.4422813,5.85685827 40.03025,6.76028444 38.9577877,8.59392399 L38.8449766,8.59392399 C38.8729901,6.67808807 38.8729901,5.30973869 38.8729901,4.59822636 L38.8729901,4.02321873 C38.8729901,3.77699657 38.9293956,3.58544967 38.9293956,2.24425444 C38.9293956,0.684358165 37.3481477,0.0546752636 35.9929006,0 L35.9645085,0 C34.6092614,0.0546752636 33.0280135,0.657204008 33.0280135,2.35360497 C33.0280135,12.0696562 33,17.3522407 33,18.254933 C33,20.19829 34.8636541,20.7457765 35.9084816,20.7457765 L35.936495,20.7457765 C37.2917422,20.7182554 38.7037735,20.0614184 38.8449766,18.5290432 L38.8449766,18.3099752 L38.9577877,18.3099752 C39.945831,19.9245467 41.3010782,20.7457765 43.0515427,20.7457765 C46.6376478,20.7457765 48.6989106,17.1603269 48.6989106,13.328655 C48.6989106,9.52450431 46.5808637,5.85685827 43.1927458,5.85685827 L43.1927458,5.85685827 Z M40.7926712,17.0506094 C40.1434397,17.0506094 39.6070192,16.6954037 39.2401939,16.0106785 C38.8729901,15.2991662 38.6750029,14.396107 38.6750029,13.328655 C38.6750029,11.2212722 39.4658161,9.63385484 40.7926712,9.63385484 C42.1199049,9.63385484 42.9107181,11.2212722 42.9107181,13.328655 C42.9107181,15.3817295 42.1479184,17.0506094 40.7926712,17.0506094 L40.7926712,17.0506094 Z" id="Fill-3-Copy" sketch:type="MSShapeGroup"></path>
            <path d="M57.8778473,6 C53.2472933,6 50,9.39353582 50,13.5536262 C50,17.6318871 53.444902,20.8885513 57.8778473,20.8885513 C62.4236038,20.8885513 65.7553161,17.604366 65.8117217,13.4442757 C65.7553161,9.3117064 62.3668197,6 57.8778473,6 L57.8778473,6 Z M57.8778473,17.7959129 C56.2965995,17.7959129 55.5625703,15.9347523 55.5625703,13.4442757 C55.5625703,10.9262779 56.2682074,9.0926384 57.8778473,9.0926384 C59.4023111,9.0926384 60.2495299,10.8991238 60.2495299,13.4442757 C60.2495299,16.3453672 59.4023111,17.7959129 57.8778473,17.7959129 L57.8778473,17.7959129 Z" id="Fill-4-Copy" sketch:type="MSShapeGroup"></path>
            <path d="M76.491966,13.4993179 C79.1740682,12.9243102 81.0093303,11.4190892 81.0093303,9.42105693 C81.0093303,7.53274212 79.4848665,6.05467526 77.2540086,6.05467526 C75.7295448,6.05467526 74.3175135,7.06745196 74.3175135,7.97051118 C74.3175135,8.13490392 75.3903544,9.0926384 75.3903544,10.1054151 C75.3903544,10.51603 75.2211378,10.9266449 74.769515,11.3097387 L72.2566293,7.61493849 C71.5226002,6.54748653 70.3929752,6 68.8681328,6 C66.8632756,6 65.621218,6.8212298 65.621218,7.80648539 C65.621218,8.10738281 65.7340291,8.46332245 65.9880433,8.76421987 L69.4893509,13.0340277 C66.2984631,13.74554 65,15.1138894 65,17.4674944 C65,19.5205689 66.4396662,20.9707477 68.7837138,20.9707477 C70.3081776,20.9707477 71.7198303,19.9583379 71.7198303,19.0277576 C71.7198303,18.8358438 70.5905838,17.9331515 70.5905838,16.8653326 C70.5905838,16.4004094 70.816206,15.9075981 71.4094105,15.4147868 L74.0070938,19.3561761 C74.7127309,20.4507823 75.8707479,20.9707477 77.3671982,20.9707477 C79.3716769,20.9707477 80.614113,20.1498848 80.614113,19.1646292 C80.614113,18.8633649 80.5009234,18.5349463 80.2472877,18.2068948 L76.491966,13.4993179" id="Fill-5-Copy" sketch:type="MSShapeGroup"></path>
        </g>
    </g>
</svg>