<?xml version="1.0" encoding="UTF-8" standalone="no"?>
<svg width="107px" height="19px" viewBox="0 0 107 19" version="1.1" xmlns="http://www.w3.org/2000/svg" xmlns:xlink="http://www.w3.org/1999/xlink" xmlns:sketch="http://www.bohemiancoding.com/sketch/ns">
    <!-- Generator: Sketch Beta 3.3 (11920) - http://www.bohemiancoding.com/sketch -->
    <title>Slice 1</title>
    <desc>Created with Sketch Beta.</desc>
    <defs></defs>
    <g id="Page-1" stroke="none" stroke-width="1" fill="none" fill-rule="evenodd" sketch:type="MSPage">
        <g id="Лого" sketch:type="MSLayerGroup" fill-opacity="0.54" fill="#000000">
            <path d="M2.71145964,4.11722097 C3.03502197,4.11701068 3.29704464,3.85824295 3.29715111,3.53870003 C3.29704464,3.2191571 3.03502197,2.96038937 2.71145964,2.96028423 C2.38779084,2.96038937 2.12576817,3.2191571 2.1256617,3.53870003 C2.12576817,3.85824295 2.38779084,4.11701068 2.71145964,4.11722097" id="Fill-1" sketch:type="MSShapeGroup"></path>
            <path d="M17.0084642,10.6094415 C17.0086771,8.17380734 16.0204226,5.96161137 14.4228402,4.36347616 C13.6238894,3.56383025 12.6719411,2.91601717 11.6133099,2.46777384 C10.5547851,2.01953051 9.38915158,1.77159297 8.16943126,1.77169811 C7.72470607,1.77169811 7.28743378,1.80534528 6.85963732,1.86895945 L6.85963732,1.27582301 C6.85963732,0.898343879 6.54980962,0.59236497 6.16758232,0.59236497 C6.15874531,0.59236497 6.15012124,0.593416444 6.1413907,0.593731886 C6.11221792,0.59236497 6.0828322,0.592259823 6.05291413,0.594678213 C5.07637128,0.672907872 4.15870635,0.965953652 3.35251551,1.42502716 C3.32653683,1.43985295 3.30236814,1.45646623 3.27915768,1.47402585 C3.07888761,1.41388154 2.86690584,1.38086526 2.64779058,1.38097041 C2.05028094,1.38076011 1.50440925,1.62165279 1.11334494,2.00870033 C0.721535338,2.39480155 0.477506097,2.93389223 0.477825507,3.52397939 C0.477612567,3.86991431 0.563320917,4.19713299 0.711527158,4.48744494 C0.664573887,4.54485542 0.625712337,4.61036224 0.598775427,4.68364997 C0.348145047,5.36542566 0.211544037,6.10177284 0.211650507,6.86672011 C0.211650507,6.87702456 0.212821677,6.88711871 0.213247557,6.897318 C0.212821677,6.90762245 0.211650507,6.91761145 0.211650507,6.92802104 C0.211650507,7.30550018 0.521478207,7.61147909 0.903705508,7.61147909 L4.90836162,7.61147909 C3.79149132,8.49513776 3.06717591,9.69234596 2.80792146,11.2185604 C2.16686559,14.9925105 4.82936088,18.1226432 8.08840759,18.7600467 C8.26429603,18.7944299 9.35092885,19.1899944 11.5175934,18.5822425 C12.7446601,18.2380951 13.7108754,17.6126784 14.5670006,16.7074645 L14.5671071,16.7075696 C14.5697688,16.7048358 14.5722177,16.7019968 14.5748794,16.699263 C14.6169351,16.6546805 14.8472297,16.3984363 14.8553214,16.3890782 C14.9788266,16.2461829 15.098073,16.0995023 15.2124218,15.9489312 C15.2207264,15.9382062 15.2291376,15.928112 15.2373357,15.9172818 L15.2369099,15.9171767 C15.8866963,15.0533909 16.3822077,14.0667929 16.6817078,12.9978645 C16.8947542,12.2375437 17.0084642,11.4359 17.0084642,10.6094415 L17.0084642,10.6094415 Z M1.86619431,2.75219754 C2.06795496,2.55378441 2.34083757,2.43275976 2.64779058,2.43244432 C2.95463712,2.43275976 3.2276262,2.55378441 3.42928038,2.75219754 C3.63018927,2.9513467 3.75273624,3.22094461 3.75305565,3.52397939 C3.75305565,3.5901171 3.74709333,3.65436216 3.73591398,3.71660941 C3.68459544,4.00250517 3.87762555,4.27536265 4.16722395,4.32604369 C4.45671588,4.37682988 4.73300553,4.18609252 4.78432407,3.90019676 C4.80636336,3.77780519 4.81775565,3.65194377 4.81775565,3.52397939 C4.81796859,3.10717513 4.69435692,2.71707831 4.48482396,2.3871258 C4.79933634,2.24633344 5.13077745,2.1370853 5.47552731,2.06158947 L5.47552731,6.244563 L1.63504794,6.244563 C1.66720188,5.98684674 1.71926571,5.73564962 1.7892165,5.49181282 C2.05304916,5.60411024 2.34349932,5.66709352 2.64779058,5.66698838 C2.84231127,5.66698838 3.03214728,5.64154271 3.21282687,5.59349035 C3.49667589,5.51799452 3.66489849,5.22957523 3.58845303,4.94925228 C3.51200757,4.66882419 3.21996036,4.50269131 2.93611134,4.57818714 C2.84465361,4.60247619 2.74840473,4.61551446 2.64779058,4.61551446 C2.34083757,4.61530417 2.06795496,4.49417437 1.86619431,4.29586639 C1.66539189,4.09661209 1.54273845,3.82711932 1.54252551,3.52397939 C1.54273845,3.22094461 1.66539189,2.9513467 1.86619431,2.75219754 L1.86619431,2.75219754 Z M15.3477451,12.6333185 C15.0476062,13.7045601 14.514298,14.6781198 13.8069113,15.4967974 L13.8065919,15.4966923 C12.963243,16.418204 11.8006971,17.1431953 10.5141136,17.3785151 C8.58210898,17.7317052 6.89807299,17.2223713 5.5486722,15.8006734 C4.43446365,14.6267028 3.96514389,13.2137321 4.17190863,11.6061336 C4.41466023,9.71936884 5.95432291,8.10030931 7.85630299,7.72472283 C9.3759493,7.42463217 10.6919185,7.81777827 11.7599191,8.92739869 C12.5069126,9.70338644 12.8858393,10.6481358 12.844529,11.7236884 C12.7779852,13.4565174 11.5150381,14.771701 9.8997817,15.0167996 C8.27664655,15.2629496 6.79437121,14.1687859 6.60315109,12.5533013 C6.42630442,11.0589466 7.67306812,9.96657036 8.89992193,10.0690891 C9.65979832,10.1325981 10.285416,10.6997631 10.3905019,11.4441015 C10.4668409,11.9847694 10.1285857,12.4932622 9.60826684,12.6146023 C9.53842252,12.6309001 9.46421293,12.6293229 9.38212456,12.6189133 C9.5974069,12.485271 9.74689078,12.3129344 9.80417164,12.0708851 C9.93033859,11.5382084 9.558013,11.0290848 9.00074902,10.9746184 C8.13046324,10.8895542 7.46342869,11.6016123 7.58033275,12.4580378 C7.7395054,13.6249636 8.99180554,14.3738233 10.2379304,13.8987674 C11.471066,13.4286534 12.1153159,12.0646814 11.7055129,10.8019664 C11.1611318,9.12507579 9.37946281,8.23920901 7.6830763,8.82246159 C6.33761491,9.28511012 5.48915547,10.2268102 5.23703451,11.6023483 C4.94168673,13.2133115 5.5284429,14.5460547 6.80927701,15.5563108 C8.28867766,16.7231314 10.3466363,16.7278631 11.9254799,15.7524107 C13.19407,14.9686421 13.9631028,13.8394642 14.2059609,12.3865376 C14.4183685,11.1161468 14.155707,9.91809741 13.4667396,8.82698293 C12.5823998,7.42652483 11.3063569,6.5749361 9.6570301,6.2927205 C8.69709658,6.12858543 7.75856353,6.21007465 6.85963732,6.52919699 L6.85963732,3.25532781 C7.28466556,3.17983198 7.72172491,3.1386142 8.16943126,3.1386142 C9.19942204,3.13871935 10.1770296,3.34712148 11.0679705,3.72407488 C12.4039561,4.28955755 13.5441433,5.23651496 14.349163,6.42941211 C15.1541827,7.62262471 15.6240348,9.0578866 15.6243542,10.6094415 C15.6243542,11.3120364 15.5277859,11.9902371 15.3477451,12.6333185 L15.3477451,12.6333185 Z" id="Fill-2" sketch:type="MSShapeGroup"></path>
        </g>
        <g id="Надпись" sketch:type="MSLayerGroup" transform="translate(29.000000, 4.000000)" fill-opacity="0.54" fill="#000000">
            <path d="M9.09505595,1.91402239 C9.07494685,1.8928158 9.05468425,1.87455847 9.02858847,1.85545849 L9.02920249,1.85489673 C8.12905165,1.1514277 6.88581809,0.661850331 5.51978087,0.661288567 C4.00668626,0.661148126 2.63573689,1.21827762 1.64532536,2.12145377 C0.654606825,3.02420859 0.0416630517,4.27567845 0.0419700609,5.66028639 C0.04227707,8.41854787 2.49036805,10.671643 5.51978087,10.6720643 C6.88244099,10.6722048 8.1037234,10.2067833 9.03104455,9.4641312 L9.03733823,9.45921577 L9.0430179,9.45401945 C9.07218377,9.42691433 9.12084472,9.37846219 9.16474703,9.30782036 C9.20834233,9.23759985 9.24856053,9.1415382 9.24856053,9.02609569 L9.24856053,8.21322311 C9.24779301,8.14862024 9.23842923,8.08345561 9.19345239,8.01435864 C9.17088721,7.98051235 9.1369627,7.94638519 9.09198586,7.92194845 C9.04746954,7.89723083 8.99343592,7.88473158 8.94492848,7.88501246 C8.86925072,7.88543379 8.80984445,7.90987052 8.7645606,7.9375374 C8.71881624,7.96576605 8.68381719,7.99933145 8.65326978,8.03640787 L8.65280927,8.03711008 C7.9426971,8.9141642 6.81827608,9.4884275 5.51978087,9.48870838 C4.38400051,9.48856794 3.35337078,9.05362212 2.60365443,8.35619206 C1.85439859,7.65848111 1.39066127,6.70109473 1.39066127,5.66028639 C1.39066127,4.61947805 1.85424509,3.6656027 2.60334742,2.97112189 C3.35275676,2.27678153 4.38353999,1.84464453 5.51978087,1.84464453 C6.82011813,1.84506586 7.94346462,2.40739167 8.65280927,3.2834627 L8.65326978,3.28402447 C8.68304967,3.32039869 8.7174347,3.35340233 8.76256504,3.38163097 C8.80723487,3.40901697 8.86633413,3.43387503 8.94277941,3.43443679 C8.99358943,3.43485811 9.05007911,3.42081401 9.09551647,3.39413022 C9.16474703,3.35396409 9.20250916,3.29610239 9.22231125,3.24568407 C9.24242035,3.19428266 9.24825352,3.14526875 9.24856053,3.09470998 L9.24856053,2.28169696 C9.24794651,2.16836107 9.20788182,2.07679353 9.16474703,2.00629214 C9.14264237,1.970901 9.11915617,1.94056575 9.09505595,1.91402239" id="Fill-1" sketch:type="MSShapeGroup"></path>
            <path d="M15.9181809,4.3905592 C15.4512199,4.06445517 14.8241538,3.84845689 14.0443505,3.84929954 C13.4487527,3.84887822 12.955389,4.05350077 12.6086222,4.34716293 L12.6086222,3.01845051 L12.6086222,1.91570769 L12.6086222,1.41798474 C12.6086222,1.25605625 12.5406197,1.10522261 12.4250307,0.99469553 C12.3102093,0.883887571 12.1438103,0.813245742 11.9619074,0.813667065 L11.9064923,0.813667065 C11.5414584,0.814790593 11.2468831,1.0842969 11.2456551,1.41798474 L11.2456551,9.90258804 C11.2468831,10.2362759 11.5414584,10.5057822 11.9064923,10.5069057 L11.9619074,10.5069057 C12.1438103,10.507327 12.3102093,10.4366852 12.4250307,10.3258773 C12.5406197,10.2153502 12.6086222,10.0643761 12.6086222,9.90258804 L12.6086222,8.12909894 L12.6086222,6.26994082 C12.6090827,6.04046021 12.6732476,5.8578869 12.7753282,5.70241869 C12.9276047,5.4702697 13.1759751,5.29907211 13.4277226,5.18868547 C13.5531359,5.13349216 13.6783956,5.09374735 13.7875373,5.06832753 C13.8962186,5.0429077 13.9907774,5.03237463 14.0443505,5.03265551 C14.3707012,5.03293639 14.6258258,5.09908411 14.8325965,5.2007634 C15.1419082,5.35300146 15.3489859,5.59259382 15.4805393,5.83653986 C15.5459323,5.95816178 15.5916766,6.07992414 15.620382,6.18736151 C15.6492408,6.29465844 15.6606002,6.38875392 15.6604467,6.44773915 L15.6604467,6.44858179 L15.6742621,9.90329025 L15.6742621,9.90258804 C15.6756436,10.2364163 15.9702189,10.5056417 16.3349458,10.5069057 L16.376699,10.5069057 C16.7414259,10.5056417 17.0356942,10.2362759 17.0370757,9.90258804 L17.0370757,6.39703994 C17.0369222,6.14017333 16.9813536,5.85718469 16.8663786,5.57279164 C16.693993,5.14697449 16.3859093,4.71666323 15.9181809,4.3905592" id="Fill-2" sketch:type="MSShapeGroup"></path>
            <path d="M25.8034151,4.00167804 L25.7754772,4.00167804 C25.4107504,4.00294201 25.1163286,4.27230787 25.1151005,4.60613615 L25.1151005,4.67691842 C24.8503052,4.44392679 24.5313226,4.25798289 24.1827138,4.1217551 C23.7257306,3.94339502 23.2176305,3.84929954 22.7075348,3.84929954 C21.6730674,3.84901866 20.7357685,4.23186086 20.0597343,4.8507844 C19.3830862,5.46942706 18.9647862,6.32695988 18.9649397,7.27339186 C18.9646327,8.22080692 19.3913754,9.07300298 20.0753918,9.68476403 C20.7591012,10.2969464 21.7020798,10.6720643 22.7351656,10.6720643 C23.6402286,10.6723452 24.4864993,10.3786831 25.114947,9.84893958 C25.1151005,9.8877013 25.1151005,9.91522773 25.1151005,9.91522773 C25.1163286,10.2489156 25.4107504,10.5182814 25.7754772,10.5195454 L25.8034151,10.5195454 C26.1682954,10.5182814 26.4624102,10.2489156 26.4637918,9.91522773 L26.4637918,4.60613615 C26.4624102,4.27230787 26.1682954,4.00294201 25.8034151,4.00167804 L25.8034151,4.00167804 Z M22.7351656,9.48870838 C22.0706443,9.48870838 21.4662968,9.23717853 21.0257386,8.83298929 C20.585641,8.42865962 20.3137844,7.87518159 20.3137844,7.27339186 C20.3136309,6.67019771 20.5804219,6.10885498 21.0143793,5.69890767 C21.4486437,5.28896036 22.044702,5.03279595 22.7075348,5.03265551 C23.3628458,5.03265551 23.9595181,5.28881991 24.3956246,5.69918855 C24.8314241,6.10941675 25.1011316,6.67075947 25.1009781,7.27339186 C25.1009781,7.87728821 24.8375643,8.43146844 24.40944,8.83495547 C23.9808552,9.23816161 23.3918582,9.4884275 22.7351656,9.48870838 L22.7351656,9.48870838 Z" id="Fill-3" sketch:type="MSShapeGroup"></path>
            <path d="M36.5924842,4.07667354 C36.1378037,3.89831345 35.6868072,3.84958042 35.3693597,3.84929954 C34.9005568,3.84901866 34.5000633,3.93833914 34.1703355,4.09731837 C33.8614843,4.2460454 33.6197146,4.45628559 33.4376582,4.69742281 C33.1578193,4.33705118 32.7797375,4.12245731 32.4136291,4.00294201 C32.0355474,3.87921348 31.6677504,3.84943998 31.3988104,3.84929954 C31.0951783,3.84845689 30.8188701,3.90013919 30.563899,4.02695742 C30.4041007,4.10602571 30.2548943,4.21416529 30.1053808,4.34632028 C30.0958635,4.32539457 30.0852717,4.30531151 30.0729914,4.28663285 C30.0080589,4.18804326 29.9144211,4.11978893 29.8132616,4.07330296 C29.7114881,4.0272383 29.5994297,4.00195892 29.4830733,4.00167804 L29.44132,4.00167804 C29.0762861,4.00280157 28.7818644,4.27230787 28.7806363,4.60613615 L28.7806363,9.91522773 C28.7801758,10.0816503 28.8573886,10.2338884 28.9783502,10.3389383 C29.0991583,10.4448308 29.2643292,10.5070462 29.44132,10.5069057 L29.4830733,10.5069057 C29.660064,10.5070462 29.8250815,10.4446903 29.9457361,10.3389383 C30.0666977,10.2338884 30.1439105,10.0816503 30.14345,9.91522773 C30.1436035,9.91522773 30.14345,6.56205813 30.14345,6.40967963 C30.1428359,5.96083016 30.247219,5.61197468 30.4410953,5.3890948 C30.5384172,5.27660155 30.6576903,5.19093253 30.8125764,5.12955981 C30.9674625,5.06860841 31.1599573,5.03265551 31.3988104,5.03265551 C31.4838519,5.03237463 31.6206245,5.04936799 31.7681424,5.09374735 C31.9908775,5.16017595 32.2387874,5.28601109 32.4283656,5.49330203 C32.6176367,5.70129517 32.7590144,5.99046321 32.7651546,6.42442594 L32.7651546,9.91522773 C32.7646941,10.0816503 32.8419069,10.2338884 32.9628685,10.3389383 C33.0835231,10.4446903 33.2485405,10.5070462 33.4255313,10.5069057 L33.4672845,10.5069057 C33.6442753,10.5070462 33.8091392,10.4446903 33.9299473,10.3389383 C34.0509089,10.2338884 34.1281217,10.0816503 34.1276612,9.91522773 L34.1276612,6.40967963 C34.1272007,5.96083016 34.2314303,5.61155336 34.4242321,5.38853303 C34.52094,5.27589934 34.6391385,5.19051121 34.7918755,5.12927892 C34.9447661,5.06846797 35.1343442,5.03279595 35.3693597,5.03265551 C35.4585459,5.03237463 35.5986956,5.04950843 35.7491301,5.09430911 C35.9763168,5.16143992 36.2269898,5.28853903 36.4173355,5.49863879 C36.6072207,5.70958119 36.7479843,6.00394555 36.7493659,6.44773915 L36.7493659,9.91522773 C36.7489054,10.0816503 36.8261182,10.2338884 36.9470798,10.3389383 C37.0678879,10.4448308 37.2330588,10.5070462 37.4100496,10.5069057 L37.4376804,10.5069057 C37.6146712,10.5070462 37.7796886,10.4448308 37.9004967,10.3390787 C38.0214583,10.2340288 38.0988246,10.0817908 38.0983641,9.91522773 L38.0983641,6.39703994 C38.0986711,5.86799865 37.9843102,5.4360021 37.7924295,5.08995544 C37.5047619,4.56948105 37.0459367,4.25405054 36.5924842,4.07667354" id="Fill-4" sketch:type="MSShapeGroup"></path>
            <path id="Fill-5" sketch:type="MSShapeGroup" d="M46.5415763,9.65779936 L46.5414228,9.65779936 L46.5414228,9.6579398 L46.5415763,9.65779936"></path>
            <path d="M47.4816383,6.58368605 C47.3787903,5.90774345 47.0624173,5.31353753 46.5414228,4.83814471 C46.1751609,4.50277157 45.7696018,4.25334833 45.3265876,4.09001544 C44.8835734,3.92640166 44.4047926,3.84901866 43.8937759,3.84929954 C43.3829127,3.84901866 42.9041319,3.92640166 42.4611177,4.09001544 C42.0181035,4.25334833 41.6123909,4.50277157 41.2458219,4.83814471 C40.8869282,5.16635535 40.611541,5.53304683 40.427489,5.93625298 C40.2432836,6.33959957 40.1511808,6.77833729 40.1513343,7.24797203 C40.1511808,7.71746634 40.2432836,8.1563445 40.4273355,8.56081461 C40.611234,8.96556561 40.8861607,9.33478503 41.2441334,9.66903464 L41.2458219,9.67057949 L41.2475105,9.6719839 C41.6128514,9.99963278 42.0165684,10.2510222 42.4588151,10.419411 C42.9010618,10.5876593 43.3806101,10.6722048 43.8937759,10.6720643 C44.4070952,10.6722048 44.8869505,10.5876593 45.3296577,10.4174448 C45.7723649,10.2473707 46.1760819,9.99218941 46.5414228,9.65779936 C46.5936144,9.61004941 46.6528671,9.55527742 46.7135014,9.48744441 L46.7136549,9.48744441 C46.713962,9.48716353 46.714269,9.48674221 46.714576,9.48646132 C46.7181066,9.48238853 46.7216372,9.47929883 46.7251678,9.47522604 L46.7245538,9.47480472 C46.849046,9.34756516 46.9205791,9.18942858 46.9204256,9.02764054 C46.9205791,8.93073624 46.8950974,8.83312974 46.8433663,8.74507322 C46.7917888,8.65715715 46.7144225,8.57949327 46.6177146,8.52064848 L46.61357,8.51826099 L46.6095788,8.51601393 C46.4904593,8.44944489 46.362897,8.40534641 46.2268919,8.40534641 C46.1493721,8.40520597 46.0727733,8.4203736 46.0038498,8.44621475 C45.8996202,8.48539779 45.8124296,8.5453661 45.7292301,8.61600793 C45.6460306,8.68707108 45.5657477,8.77063349 45.4791711,8.86697602 C45.3517623,9.01050673 45.1119882,9.17327787 44.8257022,9.29166964 C44.5394161,9.41132538 44.2069252,9.48898926 43.8937759,9.48870838 C43.5700347,9.4884275 43.2733104,9.41820699 42.9954671,9.29405714 C42.7177773,9.17004772 42.4597361,8.99126632 42.2242601,8.77554892 L42.2216505,8.77330186 C41.8061136,8.40267803 41.5810759,7.94048666 41.5273493,7.34599986 C41.5268888,7.34052266 41.5270423,7.33659031 41.5267353,7.33153443 L46.8367656,7.33153443 C46.9498985,7.33181532 47.0555096,7.31117049 47.1465379,7.26988083 C47.2842315,7.20822723 47.3763342,7.10191338 47.4249952,6.99840835 C47.4745771,6.8937798 47.4893136,6.78999389 47.4896206,6.69758371 C47.4896206,6.65826022 47.4868575,6.62090291 47.4819454,6.58551178 L47.4816383,6.58368605 L47.4816383,6.58368605 Z M42.9884059,5.21199868 C43.2670167,5.09557308 43.5654296,5.03293639 43.8937759,5.03265551 C44.2146004,5.03293639 44.5096362,5.0952922 44.786712,5.21185824 C45.0636343,5.32842428 45.32275,5.5000432 45.5634452,5.7202547 L45.5663617,5.72292308 L45.5695853,5.7257319 C45.7192523,5.8531119 45.827473,5.97655955 45.9085234,6.09733882 L41.8618358,6.09733882 C41.951943,5.98063234 42.0635408,5.85437587 42.2099842,5.72039514 C42.4509864,5.5000432 42.7099486,5.32856472 42.9884059,5.21199868 L42.9884059,5.21199868 Z" id="Fill-6" sketch:type="MSShapeGroup"></path>
            <path d="M50.2109497,0.813667065 L50.1833189,0.813667065 C49.818592,0.814931034 49.5240167,1.08401601 49.5224817,1.41798474 L49.5224817,9.90258804 C49.5240167,10.2364163 49.818592,10.5056417 50.1833189,10.5069057 L50.2109497,10.5069057 C50.5756766,10.5056417 50.8702519,10.2364163 50.8716334,9.90258804 L50.8716334,1.41798474 C50.8702519,1.08401601 50.5756766,0.814931034 50.2109497,0.813667065" id="Fill-7" sketch:type="MSShapeGroup"></path>
            <path id="Fill-8" sketch:type="MSShapeGroup" d="M59.3142316,9.65779936 L59.3140781,9.65779936 L59.3140781,9.6579398 L59.3142316,9.65779936"></path>
            <path d="M60.2542936,6.58368605 C60.1514456,5.90774345 59.8350726,5.31353753 59.3140781,4.83814471 C58.9478162,4.50277157 58.5422571,4.25334833 58.0992429,4.09001544 C57.6562287,3.92640166 57.1774479,3.84901866 56.6665847,3.84929954 C56.1555679,3.84901866 55.6769407,3.92640166 55.233773,4.09001544 C54.7907587,4.25334833 54.3850461,4.50277157 54.0186307,4.83814471 C53.6595835,5.16635535 53.3841963,5.53304683 53.2001443,5.93625298 C53.0159388,6.33959957 52.9238361,6.77833729 52.9239896,7.24797203 C52.9238361,7.71746634 53.0159388,8.1563445 53.1999908,8.56081461 C53.3838893,8.96556561 53.658816,9.33478503 54.0169422,9.66903464 L54.0184772,9.67057949 L54.0203193,9.6719839 C54.3855067,9.99963278 54.7892237,10.2510222 55.2314704,10.419411 C55.6737171,10.5876593 56.1532654,10.6722048 56.6665847,10.6720643 C57.179597,10.6722048 57.6597593,10.5876593 58.102313,10.4174448 C58.5450202,10.2473707 58.9487372,9.99218941 59.3140781,9.65779936 C59.3664232,9.61004941 59.4255224,9.55527742 59.4861567,9.48744441 L59.4863102,9.48744441 C59.4866172,9.48716353 59.4869242,9.48674221 59.4872313,9.48646132 C59.4909154,9.48238853 59.4942925,9.47929883 59.4979766,9.47522604 L59.4972091,9.47480472 C59.6218548,9.34756516 59.6932344,9.18942858 59.6930809,9.02764054 C59.6932344,8.93073624 59.6675991,8.83312974 59.6160216,8.74507322 C59.5645976,8.65715715 59.4870778,8.57949327 59.3903699,8.52064848 L59.3863788,8.51826099 L59.3822341,8.51601393 C59.2631146,8.44944489 59.1355523,8.40534641 58.9995472,8.40534641 C58.9220274,8.40520597 58.8454286,8.4203736 58.7765051,8.44621475 C58.672429,8.48539779 58.5850849,8.5453661 58.5018854,8.61600793 C58.4186859,8.68707108 58.338403,8.77063349 58.2516729,8.86697602 C58.1244176,9.01050673 57.8846435,9.17327787 57.5983574,9.29166964 C57.3120714,9.41132538 56.979734,9.48898926 56.6665847,9.48870838 C56.34269,9.4884275 56.0459657,9.41820699 55.7681224,9.29405714 C55.4904326,9.17004772 55.2325449,8.99126632 54.9969154,8.77554892 L54.9943058,8.77330186 C54.5787689,8.40267803 54.3537312,7.94048666 54.3000046,7.34599986 C54.2995441,7.34052266 54.2996976,7.33659031 54.2993906,7.33153443 L59.6095744,7.33153443 C59.7225538,7.33181532 59.8281649,7.31117049 59.9191931,7.26988083 C60.0567332,7.20822723 60.149143,7.10191338 60.1976504,6.99840835 C60.2472324,6.8937798 60.2619689,6.78999389 60.2624294,6.69758371 C60.2624294,6.65826022 60.2595128,6.62090291 60.2546006,6.58551178 L60.2542936,6.58368605 L60.2542936,6.58368605 Z M55.7610612,5.21199868 C56.039672,5.09557308 56.3380849,5.03293639 56.6665847,5.03265551 C56.9872557,5.03293639 57.282138,5.0952922 57.5593673,5.21185824 C57.8362895,5.32842428 58.0954053,5.5000432 58.3361004,5.7202547 L58.339017,5.72292308 L58.3422406,5.7257319 C58.4919076,5.8531119 58.6001283,5.97655955 58.6811787,6.09733882 L54.6344911,6.09733882 C54.7245983,5.98063234 54.8361961,5.85437587 54.982793,5.72039514 C55.2236417,5.5000432 55.4826039,5.32856472 55.7610612,5.21199868 L55.7610612,5.21199868 Z" id="Fill-9" sketch:type="MSShapeGroup"></path>
            <path d="M65.7601958,3.84929954 C63.7027739,3.84958042 62.0317231,5.37842128 62.0314161,7.26061172 C62.0317231,9.14280217 63.7027739,10.671643 65.7601958,10.6720643 C67.830205,10.6720643 69.5024838,9.14294261 69.5026373,7.26061172 C69.5024838,5.37828084 67.830205,3.84929954 65.7601958,3.84929954 L65.7601958,3.84929954 Z M65.7601958,9.48870838 C65.1116389,9.48870838 64.5178832,9.23549324 64.0836188,8.8282143 C63.6496613,8.42093537 63.3801073,7.86310367 63.3802608,7.26061172 C63.3801073,6.65811978 63.6496613,6.10028808 64.0836188,5.69300915 C64.5178832,5.28587065 65.1116389,5.03265551 65.7601958,5.03265551 C66.4161208,5.03279595 67.008802,5.28601109 67.4412244,5.69272827 C67.8733398,6.09972632 68.1398237,6.65741758 68.1398237,7.26061172 C68.1398237,7.86380587 67.8733398,8.42163757 67.4412244,8.82849518 C67.008802,9.23535279 66.4159673,9.48856794 65.7601958,9.48870838 L65.7601958,9.48870838 Z" id="Fill-10" sketch:type="MSShapeGroup"></path>
            <path d="M77.3976847,5.26016995 C77.1149293,4.71933161 76.6507314,4.36050482 76.1417103,4.14548964 C75.6319216,3.92935092 75.076542,3.84958042 74.5759636,3.84929954 C74.2856864,3.84943998 73.9384591,3.8827245 73.5919993,3.98285894 C73.3367211,4.0570118 73.080215,4.16894328 72.8544098,4.33382103 C72.8187967,4.26514538 72.7709033,4.20419398 72.712725,4.15658448 C72.5891539,4.05420298 72.4315047,4.00195892 72.2715529,4.00167804 L72.2161377,4.00167804 C72.0389935,4.00167804 71.8741295,4.06389341 71.7531679,4.16950505 C71.6322063,4.27455493 71.55484,4.42679298 71.5553005,4.59335602 L71.5553005,4.59391779 L71.569423,9.90300937 L71.569423,9.90258804 C71.570651,10.2362759 71.8650728,10.5056417 72.2297996,10.5069057 L72.2715529,10.5069057 C72.6362798,10.5056417 72.930548,10.2362759 72.9319296,9.90258804 C72.9320831,9.90258804 72.9319296,6.54941844 72.9319296,6.39703994 C72.9319296,6.15197037 72.9676961,5.94580297 73.0337031,5.77713331 C73.1344021,5.52419905 73.2934329,5.35215881 73.5387332,5.22702587 C73.7843405,5.10287601 74.1274232,5.03237463 74.5759636,5.03265551 C75.0082325,5.03223419 75.4566193,5.15750757 75.7861937,5.41325065 C75.9515181,5.54119241 76.0893652,5.70115473 76.1874546,5.9000192 C76.2855441,6.09888367 76.3446433,6.33777383 76.3447968,6.62553747 L76.3447968,9.90258804 C76.3461784,10.2364163 76.6407536,10.5056417 77.005634,10.5069057 L77.0332648,10.5069057 C77.3981452,10.5057822 77.692567,10.2362759 77.6939485,9.90258804 L77.6939485,6.57483826 C77.694102,6.05633005 77.5864953,5.61997982 77.3976847,5.26016995" id="Fill-11" sketch:type="MSShapeGroup"></path>
        </g>
    </g>
</svg>