<?xml version="1.0" encoding="UTF-8" standalone="no"?>
<svg width="1280px" height="720px" viewBox="0 0 1280 720" version="1.1" xmlns="http://www.w3.org/2000/svg" xmlns:xlink="http://www.w3.org/1999/xlink" xmlns:sketch="http://www.bohemiancoding.com/sketch/ns">
    <!-- Generator: Sketch Beta 3.4 (15009) - http://www.bohemiancoding.com/sketch -->
    <title>3 copy 2</title>
    <desc>Created with Sketch Beta.</desc>
    <defs>
        <rect id="path-1" x="0" y="0" width="1280" height="720"></rect>
    </defs>
    <g id="Page-1" stroke="none" stroke-width="1" fill="none" fill-rule="evenodd" sketch:type="MSPage">
        <g id="3-copy-2" sketch:type="MSLayerGroup">
            <mask id="mask-2" sketch:name="Mask" fill="white">
                <use xlink:href="#path-1"></use>
            </mask>
            <use id="Mask" fill="#29293B" sketch:type="MSShapeGroup" xlink:href="#path-1"></use>
            <g id="Group" mask="url(#mask-2)" sketch:type="MSShapeGroup">
                <g transform="translate(-1117.405405, -567.692308)">
                    <path d="M3091.66192,575.016297 C3091.66192,575.016297 3318.53339,108.942134 2931.72342,15.6777105 C2544.91344,-77.5867134 2288.6917,277.703048 1663.78267,230.737856 C1038.87365,183.772664 1008.38657,658.472278 559.084734,379.576995 C109.782898,100.681712 11.5266673,277.703042 11.5266673,277.703042 L0,1557.94464 L3091.66192,1557.94464 L3091.66192,575.016297 Z" id="Rectangle-23-Copy-2" fill="#F37000"></path>
                    <path d="M3306.09214,784.043204 C3306.09214,784.043204 3532.96361,317.969042 3146.15364,224.704618 C2759.34366,131.440194 2503.12192,486.729956 1878.21289,439.764764 C1253.30387,392.799571 1222.81679,867.499186 773.514953,588.603903 C324.213116,309.70862 225.956886,486.72995 225.956886,486.72995 L214.430219,1766.97155 L3306.09214,1766.97155 L3306.09214,784.043204 Z" id="Rectangle-23-Copy" fill="#F37D00"></path>
                    <path d="M3467.79362,974.03452 C3241.16894,707.453193 3064.8473,707.781042 2427.19514,660.871159 C1789.54298,613.961277 1639.82662,959.962113 993.356218,791.998648 C337.795733,621.673431 387.658362,744.478938 387.658362,744.478938 L376.131695,1732.95356 L3467.79362,1732.95356 C3467.79362,1732.95356 3694.41829,1240.61585 3467.79362,974.03452 Z" id="Rectangle-23-Copy" fill="#F48400"></path>
                    <path d="M4255.86045,1105.77282 C4255.86045,1105.77282 4686.40452,765.076462 4060.92852,869.59613 C3435.45251,974.115797 3878.1591,1342.76344 3257.80199,1086.75395 C2836.85277,913.036276 2038.90103,1128.9907 1538.46648,927.617993 C1038.03194,726.245285 616.484777,907.019506 616.484777,907.019506 L602.865287,1762.85846 L4255.86045,1762.85846 L4255.86045,1105.77282 Z" id="Rectangle-23" fill="#F98D12"></path>
                    <path d="M427.102813,1316.32999 C427.102813,1316.32999 448.389549,1128.88267 913.35312,1206.80498 C1684.26515,1336.00057 1771.90244,1120.37564 2237.33121,1108.83337 C2799.98404,1094.88003 3154.68517,1340.4263 3507.23807,1181.11589 C3859.79097,1021.80548 3518.76474,1763.35267 3518.76474,1763.35267 L427.102813,1763.35267 L427.102813,1316.32999 Z" id="Rectangle-23" fill="#FF9E2E"></path>
                </g>
            </g>
        </g>
    </g>
</svg>