<?xml version="1.0" encoding="UTF-8" standalone="no"?>
<svg width="14px" height="14px" viewBox="0 0 14 14" version="1.1" xmlns="http://www.w3.org/2000/svg" xmlns:xlink="http://www.w3.org/1999/xlink" xmlns:sketch="http://www.bohemiancoding.com/sketch/ns">
    <!-- Generator: Sketch 3.3.1 (12002) - http://www.bohemiancoding.com/sketch -->
    <title>plus</title>
    <desc>Created with Sketch.</desc>
    <defs></defs>
    <g id="Page-1" stroke="none" stroke-width="1" fill="none" fill-rule="evenodd" sketch:type="MSPage">
        <g id="plus" sketch:type="MSLayerGroup" fill-opacity="0.54" fill="#000000">
            <g id="Page-1" sketch:type="MSShapeGroup">
                <g id="ic_add_circle_outline-copy">
                    <path d="M7.67083334,3.66666667 L6.32916666,3.66666667 L6.32916666,6.33333333 L3.64583334,6.33333333 L3.64583334,7.66666667 L6.32916666,7.66666667 L6.32916666,10.3333333 L7.67083334,10.3333333 L7.67083334,7.66666667 L10.3541666,7.66666667 L10.3541666,6.33333333 L7.67083334,6.33333333 L7.67083334,3.66666667 L7.67083334,3.66666667 Z M7,0.33333333 C3.297,0.33333333 0.291666664,3.32 0.291666664,7 C0.291666664,10.68 3.297,13.6666667 7,13.6666667 C10.703,13.6666667 13.7083334,10.68 13.7083334,7 C13.7083334,3.32 10.703,0.33333333 7,0.33333333 L7,0.33333333 L7,0.33333333 Z M7,12.3333333 C4.041625,12.3333333 1.63333334,9.94 1.63333334,7 C1.63333334,4.06 4.041625,1.66666667 7,1.66666667 C9.958375,1.66666667 12.3666666,4.06 12.3666666,7 C12.3666666,9.94 9.958375,12.3333333 7,12.3333333 L7,12.3333333 L7,12.3333333 Z" id="Shape"></path>
                </g>
            </g>
        </g>
    </g>
</svg>