<?xml version="1.0" encoding="UTF-8" standalone="no"?>
<svg width="16px" height="14px" viewBox="0 0 16 14" version="1.1" xmlns="http://www.w3.org/2000/svg" xmlns:xlink="http://www.w3.org/1999/xlink" xmlns:sketch="http://www.bohemiancoding.com/sketch/ns">
    <!-- Generator: Sketch Beta 3.4 (15575) - http://www.bohemiancoding.com/sketch -->
    <title>Slice 1</title>
    <desc>Created with Sketch Beta.</desc>
    <defs></defs>
    <g id="Page-1" stroke="none" stroke-width="1" fill="none" fill-rule="evenodd" sketch:type="MSPage">
        <g id="ic_add_circle_outline-copy" sketch:type="MSLayerGroup" transform="translate(-1.000000, -1.000000)" fill-opacity="0.54" fill="#000000">
            <path d="M9.76666667,4.66666667 L8.23333333,4.66666667 L8.23333333,7.33333333 L5.16666667,7.33333333 L5.16666667,8.66666667 L8.23333333,8.66666667 L8.23333333,11.3333333 L9.76666667,11.3333333 L9.76666667,8.66666667 L12.8333333,8.66666667 L12.8333333,7.33333333 L9.76666667,7.33333333 L9.76666667,4.66666667 L9.76666667,4.66666667 Z M9,1.33333333 C4.768,1.33333333 1.33333333,4.32 1.33333333,8 C1.33333333,11.68 4.768,14.6666667 9,14.6666667 C13.232,14.6666667 16.6666667,11.68 16.6666667,8 C16.6666667,4.32 13.232,1.33333333 9,1.33333333 L9,1.33333333 Z M9,13.3333333 C5.619,13.3333333 2.86666667,10.94 2.86666667,8 C2.86666667,5.06 5.619,2.66666667 9,2.66666667 C12.381,2.66666667 15.1333333,5.06 15.1333333,8 C15.1333333,10.94 12.381,13.3333333 9,13.3333333 L9,13.3333333 Z" id="Shape" sketch:type="MSShapeGroup"></path>
        </g>
    </g>
</svg>