<?xml version="1.0" encoding="UTF-8"?>
<svg width="120px" height="140px" viewBox="0 0 120 140" version="1.1" xmlns="http://www.w3.org/2000/svg" xmlns:xlink="http://www.w3.org/1999/xlink" xmlns:sketch="http://www.bohemiancoding.com/sketch/ns">
    <!-- Generator: Sketch 3.4.2 (15855) - http://www.bohemiancoding.com/sketch -->
    <title>Знак</title>
    <desc>Created with Sketch.</desc>
    <defs></defs>
    <g id="Page-1" stroke="none" stroke-width="1" fill="none" fill-rule="evenodd" sketch:type="MSPage">
        <g id="Знак" sketch:type="MSLayerGroup">
            <rect id="Rectangle-1" fill="#FFFFFF" sketch:type="MSShapeGroup" x="0" y="0" width="120" height="140"></rect>
            <path d="M50.3234783,73.1930435 L69.6069565,73.1930435 L69.6069565,85.2556522 L64.9321739,85.2556522 L64.9321739,95.0226087 L86.2886957,95.0226087 L86.2886957,85.2556522 L81.4747826,85.2556522 L81.4747826,54.5356522 L86.2886957,54.5356522 L86.2886957,44.7686957 L64.9321739,44.7686957 L64.9321739,54.5356522 L69.6069565,54.5356522 L69.6069565,64.0104348 L50.3234783,64.0104348 L50.3234783,54.5356522 L54.9982609,54.5356522 L54.9982609,44.7686957 L33.6417391,44.7686957 L33.6417391,54.5356522 L38.4556522,54.5356522 L38.4556522,85.2556522 L33.6417391,85.2556522 L33.6417391,95.0226087 L54.9982609,95.0226087 L54.9982609,85.2556522 L50.3234783,85.2556522 L50.3234783,73.1930435 L50.3234783,73.1930435 Z" id="Shape" fill="#1F4FDB" sketch:type="MSShapeGroup"></path>
            <path d="M9.3773913,69.8678261 C16.2535541,84.6671822 24.4391876,98.822089 33.8365217,112.163478 C51.2212799,113.602663 68.6952419,113.602663 86.08,112.163478 C95.4806987,98.821695 103.670921,84.6669042 110.553043,69.8678261 C103.672165,55.0725134 95.4818584,40.9222344 86.08,27.586087 C68.6951634,26.148803 51.2213584,26.148803 33.8365217,27.586087 C24.4398435,40.9230021 16.2542227,55.0732305 9.3773913,69.8678261 M29.1617391,19.6528529 C49.6491777,17.6627796 70.2812571,17.6627796 90.7686957,19.6528529 C102.120608,35.4471722 111.88839,52.3217615 119.930435,70.0319833 C112.207284,87.1934353 102.817284,103.554869 91.8956522,118.880679 L90.7686957,120.452853 C70.2812571,122.442926 49.6491777,122.442926 29.1617391,120.452853 C17.7847873,104.659957 8.01560602,87.7689684 1.05919414e-14,70.0319833 C8.05172415,52.306602 17.8385875,35.4219325 29.2173913,19.6250268" id="Shape" fill="#1F4FDB" sketch:type="MSShapeGroup"></path>
        </g>
    </g>
</svg>