<?xml version="1.0" encoding="UTF-8" standalone="no"?>
<svg width="264px" height="264px" viewBox="0 0 264 264" version="1.1" xmlns="http://www.w3.org/2000/svg" xmlns:xlink="http://www.w3.org/1999/xlink" xmlns:sketch="http://www.bohemiancoding.com/sketch/ns">
    <!-- Generator: Sketch Beta 3.4 (14672) - http://www.bohemiancoding.com/sketch -->
    <title>Slice 1</title>
    <desc>Created with Sketch Beta.</desc>
    <defs>
        <path id="path-1" d="M0,0.495 L203.145,0.495 L203.145,240 L0,240 L0,0.495 Z"></path>
        <path id="path-3" d="M0,0.495 L203.145,0.495 L203.145,240 L0,240 L0,0.495 Z"></path>
    </defs>
    <g id="Page-1" stroke="none" stroke-width="1" fill="none" fill-rule="evenodd" sketch:type="MSPage">
        <rect id="Rectangle-112-Copy-3" fill="#FFFFFF" sketch:type="MSShapeGroup" x="0" y="0" width="264" height="264"></rect>
        <g id="Иконка_2" sketch:type="MSLayerGroup" transform="translate(32.000000, 22.000000)">
            <path d="M142.905,164.17185 C145.122,164.17635 146.916,165.97035 146.9205,168.18735 C146.916,170.40435 145.122,172.19985 142.905,172.20285 C140.688,172.19985 138.894,170.40435 138.8895,168.18735 C138.894,165.97035 140.688,164.17635 142.905,164.17185 M135.8895,168.18735 C135.891,172.06335 139.029,175.20285 142.905,175.20285 C146.7795,175.20285 149.919,172.06335 149.9205,168.18735 C149.919,164.31285 146.7795,161.17335 142.905,161.17185 C139.029,161.17335 135.891,164.31285 135.8895,168.18735" id="Fill-1" fill="#FD9348" sketch:type="MSShapeGroup"></path>
            <g id="Group-5">
                <mask id="mask-2" sketch:name="Clip 4" fill="white">
                    <use xlink:href="#path-1"></use>
                </mask>
                <g id="Clip-4"></g>
                <path d="M156.0969,183.55335 L156.0954,183.63135 L156.0939,183.68535 L156.0504,204.63135 C156.0489,205.06785 155.8719,205.45785 155.5794,205.75335 C155.2839,206.04585 154.8924,206.22135 154.4559,206.22135 L154.4514,206.22135 C153.6504,206.22585 152.9679,205.58835 152.8854,204.78735 C152.8839,204.76035 152.8674,204.73785 152.8629,204.71235 L152.8629,190.89885 C152.8629,190.06935 152.1909,189.39885 151.3629,189.39885 C150.5349,189.39885 149.8629,190.06935 149.8629,190.89885 L149.8629,205.64835 C149.8629,205.70385 149.8884,205.75035 149.8944,205.80285 L149.8944,235.49985 C149.8944,235.91085 149.7294,236.27985 149.4519,236.55885 C149.1729,236.83485 148.8054,236.99985 148.3944,236.99985 L144.2334,236.99985 L144.2334,207.28185 C144.2334,206.45235 143.5614,205.78185 142.7334,205.78185 C141.9039,205.78185 141.2334,206.45235 141.2334,207.28185 L141.2334,236.99985 L137.2689,236.99985 C136.8579,236.99985 136.4904,236.83485 136.2114,236.55885 C135.9339,236.27985 135.7689,235.91085 135.7689,235.49985 L135.7689,204.92985 C135.7689,204.90135 135.7554,204.87735 135.7539,204.84885 L135.7539,190.89885 C135.7539,190.06935 135.0819,189.39885 134.2539,189.39885 C133.4244,189.39885 132.7539,190.06935 132.7539,190.89885 L132.7539,204.85935 C132.6369,205.62585 131.9829,206.22735 131.2059,206.22135 L131.2029,206.22135 C130.7649,206.21985 130.3749,206.04435 130.0809,205.75185 C129.7869,205.45635 129.6129,205.06485 129.6129,204.62835 L129.6129,204.62535 L129.6579,182.87835 L129.6579,182.86635 L129.6579,182.86635 C129.6579,182.83485 129.6609,182.30235 129.7434,181.69635 C129.8124,181.09485 130.0164,180.40635 130.1679,180.20685 C130.4544,179.77185 130.9164,179.49885 131.4324,179.50035 L131.4369,179.50035 L153.5424,179.43735 C154.0809,179.43585 154.5024,179.48235 154.8024,179.59185 C155.1054,179.70735 155.3289,179.84085 155.6319,180.24585 C155.7009,180.29985 155.9199,180.91635 155.9919,181.56135 C156.0804,182.21085 156.0999,182.90685 156.0999,183.29985 L156.0969,183.55335 Z M124.6194,190.64085 L124.6194,160.92135 C124.6194,160.09335 123.9474,159.42135 123.1194,159.42135 C122.2899,159.42135 121.6194,160.09335 121.6194,160.92135 L121.6194,190.64085 L117.6549,190.64085 C117.2439,190.64085 116.8749,190.47585 116.5974,190.19835 C116.3199,189.91935 116.1549,189.55185 116.1549,189.14085 L116.1549,158.56935 C116.1549,158.54235 116.1414,158.51835 116.1399,158.48985 L116.1399,144.53985 C116.1399,143.71035 115.4679,143.03985 114.6399,143.03985 C113.8104,143.03985 113.1399,143.71035 113.1399,144.53985 L113.1399,158.50035 C113.0229,159.26685 112.3689,159.86835 111.5919,159.86235 L111.5874,159.86235 C111.1509,159.86085 110.7609,159.68535 110.4654,159.39135 C110.1729,159.09585 109.9989,158.70585 109.9974,158.26935 L109.9974,158.26485 L110.0439,136.51935 L110.0439,136.50735 L110.0439,136.50735 C110.0439,136.47435 110.0469,135.94335 110.1294,135.33585 C110.1984,134.73435 110.4024,134.04735 110.5539,133.84635 C110.8404,133.41135 111.3024,133.13985 111.8184,133.13985 L111.8229,133.13985 L116.0979,133.12785 L133.9284,133.07835 C134.4669,133.07685 134.8869,133.12185 135.1884,133.23135 C135.4899,133.34685 135.7149,133.48185 136.0164,133.88535 C136.0854,133.94085 136.3059,134.55735 136.3779,135.20235 C136.4664,135.85185 136.4859,136.54635 136.4859,136.94085 L136.4829,137.19435 L136.4814,137.27235 L136.4799,137.32485 L136.4349,158.27235 C136.4334,158.70885 136.2579,159.09885 135.9654,159.39435 C135.6684,159.68685 135.2784,159.86235 134.8419,159.86235 L134.8374,159.86235 C134.0349,159.86685 133.3539,159.22935 133.2714,158.42835 C133.2684,158.40135 133.2534,158.37885 133.2489,158.35185 L133.2489,144.53985 C133.2489,143.71035 132.5769,143.03985 131.7489,143.03985 C130.9209,143.03985 130.2489,143.71035 130.2489,144.53985 L130.2489,159.28935 C130.2489,159.34335 130.2744,159.38985 130.2804,159.44385 L130.2804,176.65185 C129.1779,176.94735 128.2494,177.65235 127.6554,178.56735 C127.0644,179.50185 126.8919,180.47835 126.7704,181.29435 C126.6609,182.10735 126.6579,182.74785 126.6579,182.86635 L126.6579,182.87385 L126.6414,190.64085 L124.6194,190.64085 Z M108.5304,171.14085 C108.5289,171.55185 108.3639,171.91935 108.0879,172.19835 C107.8089,172.47585 107.4414,172.64085 107.0304,172.64085 L106.2144,172.64085 L106.2189,170.45835 C106.2204,170.41035 106.2249,170.27685 106.2249,170.05035 C106.2234,169.57035 106.2054,168.76785 106.0884,167.90535 C105.9534,167.03685 105.7974,166.12485 105.1884,165.23835 L103.9719,166.11735 L105.1884,165.23835 C104.5764,164.37735 103.7514,163.79685 102.9324,163.51485 C102.9099,163.50735 102.8904,163.50285 102.8694,163.49685 L102.8694,142.92135 C102.8694,142.09335 102.1974,141.42135 101.3694,141.42135 C100.5399,141.42135 99.8694,142.09335 99.8694,142.92135 L99.8694,163.18935 L94.4049,163.20585 L94.4049,160.38135 C96.0024,159.09585 97.0449,157.14885 97.0449,154.93785 C97.0449,152.72685 96.0024,150.77985 94.4049,149.49435 L94.4049,140.56935 C94.4049,140.54235 94.3914,140.51835 94.3899,140.48985 L94.3899,126.53985 C94.3899,125.71035 93.7179,125.03985 92.8899,125.03985 C92.0604,125.03985 91.3899,125.71035 91.3899,126.53985 L91.3899,140.50035 C91.2729,141.26685 90.6189,141.86835 89.8419,141.86235 L89.8374,141.86235 C89.4009,141.86085 89.0109,141.68535 88.7154,141.39135 C88.4229,141.09585 88.2489,140.70585 88.2474,140.26935 L88.2474,140.26485 L88.2939,118.51935 L88.2939,118.50735 L88.2939,118.50735 C88.2939,118.47435 88.2969,117.94335 88.3794,117.33585 C88.4484,116.73435 88.6524,116.04735 88.8039,115.84635 C89.0904,115.41135 89.5524,115.13985 90.0684,115.13985 L90.0729,115.13985 L112.1784,115.07835 C112.7169,115.07685 113.1369,115.12185 113.4384,115.23135 C113.7399,115.34685 113.9649,115.48185 114.2664,115.88535 C114.3354,115.94085 114.5559,116.55735 114.6279,117.20235 C114.7164,117.85185 114.7359,118.54635 114.7359,118.94085 L114.7329,119.19435 L114.7314,119.27235 L114.7299,119.32485 L114.7074,130.13235 L111.8139,130.14135 L111.8184,130.14135 C111.7074,130.14135 111.6069,130.17435 111.4989,130.18335 L111.4989,126.53985 C111.4989,125.71035 110.8269,125.03985 109.9989,125.03985 C109.1709,125.03985 108.4989,125.71035 108.4989,126.53985 L108.4989,131.65935 C108.3384,131.83785 108.1704,132.00735 108.0399,132.20835 C107.4504,133.14285 107.2779,134.11785 107.1564,134.93535 C107.0469,135.74685 107.0439,136.38735 107.0439,136.50735 L107.0439,136.51335 L106.9974,158.25885 L106.9974,158.26935 C107.0004,159.62235 107.5974,160.82535 108.5304,161.66685 L108.5304,171.14085 Z M103.2219,170.30385 L103.2204,170.38185 L103.2189,170.43435 L103.1754,191.38185 C103.1739,191.81835 102.9969,192.20835 102.7044,192.50385 C102.4089,192.79635 102.0174,192.97185 101.5809,192.97185 L101.5749,192.97185 L101.5779,192.97185 C100.7754,192.97635 100.0929,192.33885 100.0104,191.53785 C100.0089,191.51085 99.9924,191.48835 99.9879,191.46135 L99.9879,177.64785 C99.9879,176.81985 99.3159,176.14785 98.4879,176.14785 C97.6599,176.14785 96.9879,176.81985 96.9879,177.64785 L96.9879,192.39885 C96.9879,192.45285 97.0134,192.49935 97.0194,192.55335 L97.0194,222.25035 C97.0194,222.66135 96.8544,223.02885 96.5769,223.30785 C96.2979,223.58535 95.9304,223.75035 95.5194,223.75035 L91.3584,223.75035 L91.3584,194.03085 C91.3584,193.20285 90.6864,192.53085 89.8584,192.53085 C89.0289,192.53085 88.3584,193.20285 88.3584,194.03085 L88.3584,223.75035 L84.3939,223.75035 C83.9829,223.75035 83.6154,223.58535 83.3364,223.30785 C83.0589,223.02885 82.8939,222.66135 82.8939,222.25035 L82.8939,191.67885 C82.8939,191.65035 82.8804,191.62785 82.8789,191.59935 L82.8789,177.64785 C82.8789,176.81985 82.2069,176.14785 81.3789,176.14785 C80.5494,176.14785 79.8789,176.81985 79.8789,177.64785 L79.8789,191.60985 C79.7619,192.37485 79.1079,192.97785 78.3309,192.97185 L78.3249,192.97185 L78.3279,192.97185 C77.8914,192.97035 77.4999,192.79485 77.2059,192.50085 C76.9119,192.20535 76.7379,191.81535 76.7379,191.37885 L76.7379,191.37435 L76.7829,169.62885 L76.7829,169.61685 L76.7829,169.61685 C76.7829,169.58385 76.7859,169.05285 76.8684,168.44685 C76.9374,167.84535 77.1414,167.15685 77.2929,166.95585 C77.5794,166.52085 78.0414,166.24935 78.5574,166.24935 L78.5619,166.24935 L100.6674,166.18785 C101.2059,166.18485 101.6274,166.23135 101.9274,166.34085 C102.2304,166.45635 102.4539,166.59135 102.7569,166.99485 C102.8259,167.05035 103.0449,167.66685 103.1169,168.31185 C103.2054,168.96135 103.2249,169.65585 103.2249,170.05035 L103.2219,170.30385 Z M86.0139,154.93785 C86.0184,152.72085 87.8124,150.92535 90.0294,150.92235 C92.2464,150.92535 94.0419,152.72085 94.0449,154.93785 C94.0419,157.15485 92.2464,158.94885 90.0294,158.95335 C87.8124,158.94885 86.0184,157.15485 86.0139,154.93785 L86.0139,154.93785 Z M50.2239,136.26885 L50.2239,125.09085 L85.2804,125.09085 L85.2564,136.26885 L50.2239,136.26885 Z M43.4589,31.39635 L48.4974,3.49485 L54.7539,3.49485 L54.7539,33.82485 C53.6259,35.51835 51.7509,36.63735 49.5834,36.63735 C46.4859,36.63885 43.9524,34.36785 43.4589,31.39635 L43.4589,31.39635 Z M131.2404,15.47535 C131.8479,18.79935 132.4614,22.14585 132.9309,24.70485 C133.1664,25.98435 133.3644,27.06585 133.5099,27.85185 C133.6554,28.64235 133.7424,29.10885 133.7664,29.23185 C133.8414,29.60535 133.8819,29.98635 133.8819,30.37935 C133.8819,30.43785 133.8684,30.69735 133.8519,30.89985 C133.8474,30.96435 133.8429,31.01385 133.8384,31.06785 C133.8264,31.11885 133.7979,31.16235 133.7904,31.21485 C133.3749,34.27785 130.7859,36.63885 127.6239,36.63735 C125.5179,36.63585 123.6714,35.59185 122.5284,33.98535 C122.5209,33.97635 122.5119,33.96885 122.5044,33.95985 L122.5044,3.49485 L129.0489,3.49485 C129.4509,5.69835 130.3404,10.55835 131.2404,15.47535 L131.2404,15.47535 Z M123.2904,125.84385 C121.0734,125.83935 119.2794,124.04535 119.2749,121.82835 C119.2794,119.61135 121.0734,117.81585 123.2904,117.81285 C125.5074,117.81585 127.3029,119.61135 127.3059,121.82835 C127.3029,124.04535 125.5074,125.83935 123.2904,125.84385 L123.2904,125.84385 Z M100.1784,72.32835 C100.7169,72.32685 101.1369,72.37185 101.4384,72.48135 C101.7399,72.59685 101.9649,72.73185 102.2664,73.13535 C102.3354,73.19085 102.5559,73.80735 102.6279,74.45235 C102.7164,75.10185 102.7359,75.79785 102.7359,76.19085 L102.7329,76.44435 L102.7314,76.52085 L102.7299,76.57485 L102.6954,92.57835 L99.4989,92.57835 L99.4989,83.78985 C99.4989,82.96035 98.8269,82.28985 97.9989,82.28985 C97.1709,82.28985 96.4989,82.96035 96.4989,83.78985 L96.4989,92.57835 L82.3899,92.57835 L82.3899,83.78985 C82.3899,82.96035 81.7179,82.28985 80.8899,82.28985 C80.0604,82.28985 79.3899,82.96035 79.3899,83.78985 L79.3899,92.57835 L76.2579,92.57835 L76.2939,75.76935 L76.2939,75.75735 L76.2939,75.75735 C76.2924,75.72435 76.2969,75.19335 76.3794,74.58585 C76.4484,73.98435 76.6524,73.29735 76.8039,73.09635 C77.0904,72.66135 77.5524,72.38985 78.0684,72.38985 L78.0729,72.38985 L100.1784,72.32835 Z M108.5559,103.82835 C108.5559,99.95235 105.4164,96.81285 101.5404,96.81285 C97.6659,96.81285 94.5264,99.95235 94.5249,103.82835 C94.5249,104.91285 94.7919,105.92835 95.2314,106.84485 L50.2239,106.84485 L50.2239,95.66685 L126.9354,95.66685 L126.9354,106.84485 L107.8494,106.84485 C108.2889,105.92835 108.5559,104.91285 108.5559,103.82835 L108.5559,103.82835 Z M97.5249,103.82835 C97.5294,101.61135 99.3234,99.81585 101.5404,99.81285 C103.7574,99.81585 105.5529,101.61135 105.5559,103.82835 C105.5529,106.04535 103.7574,107.83935 101.5404,107.84385 C99.3234,107.83935 97.5294,106.04535 97.5249,103.82835 L97.5249,103.82835 Z M68.0049,34.00635 C66.8604,35.60085 65.0214,36.63585 62.9244,36.63735 C60.7584,36.63735 58.8834,35.51835 57.7539,33.82485 L57.7539,3.49485 L68.0049,3.49485 L68.0049,34.00635 Z M81.0039,33.43635 C80.9844,33.46635 80.9574,33.48885 80.9394,33.52035 C79.8414,35.38785 77.8614,36.63735 75.5634,36.63735 C73.7289,36.63585 72.0909,35.84235 70.9434,34.57635 C70.9644,34.47735 71.0049,34.38435 71.0049,34.27785 L71.0049,3.49485 L81.0039,3.49485 L81.0039,33.43635 Z M93.5589,34.54635 C92.4099,35.83035 90.7569,36.63585 88.9044,36.63735 C86.9079,36.63735 85.1514,35.69085 84.0039,34.21635 L84.0039,3.49485 L93.5049,3.49485 L93.5049,34.27785 C93.5049,34.37385 93.5409,34.45635 93.5589,34.54635 L93.5589,34.54635 Z M106.7544,33.91335 C105.6189,35.55735 103.7724,36.63735 101.6439,36.63735 C99.5124,36.63585 97.6434,35.57085 96.5064,33.93735 C96.5064,33.93585 96.5049,33.93585 96.5049,33.93435 L96.5049,3.49485 L106.7544,3.49485 L106.7544,33.91335 Z M119.5719,34.60935 C118.4259,35.85585 116.8029,36.63585 114.9849,36.63735 C112.7799,36.63735 110.8764,35.47935 109.7544,33.73485 L109.7544,3.49485 L119.5044,3.49485 L119.5044,34.27785 C119.5044,34.39485 119.5464,34.49985 119.5719,34.60935 L119.5719,34.60935 Z M56.2539,36.74235 C57.9279,38.51085 60.2859,39.63735 62.9244,39.63735 C65.3769,39.63735 67.5939,38.66535 69.2439,37.10985 C70.8939,38.66535 73.1109,39.63735 75.5634,39.63735 C78.2034,39.63735 80.5599,38.51085 82.2339,36.74235 C83.9079,38.51085 86.2659,39.63735 88.9044,39.63735 C91.3794,39.63735 93.6174,38.65035 95.2749,37.06935 C96.9309,38.65035 99.1704,39.63735 101.6439,39.63735 C104.2839,39.63735 106.6404,38.51085 108.3144,36.74235 C109.9884,38.51085 112.3449,39.63735 114.9849,39.63735 C117.4374,39.63735 119.6544,38.66385 121.3044,37.10985 C122.7984,38.51685 124.7589,39.43185 126.9354,39.59385 L126.9354,92.66685 L105.6954,92.66685 L105.7299,76.59735 C105.7314,76.54635 105.7359,76.41585 105.7359,76.19085 C105.7344,75.71085 105.7164,74.90835 105.5994,74.04585 C105.4644,73.17735 105.3084,72.26535 104.6994,71.38035 C104.0874,70.51785 103.2624,69.93735 102.4419,69.65535 C101.6214,69.36585 100.8474,69.32985 100.1784,69.32835 L100.1739,69.32835 L78.0639,69.39135 L78.0684,69.39135 C76.4709,69.39135 75.0834,70.23735 74.2899,71.45835 C73.7004,72.39285 73.5279,73.36785 73.4064,74.18535 C73.2969,74.99685 73.2939,75.63735 73.2939,75.75735 L73.2939,75.76335 L73.2579,92.66685 L50.2239,92.66685 L50.2239,39.59235 C52.6014,39.42735 54.7179,38.36535 56.2539,36.74235 L56.2539,36.74235 Z M117.6864,117.64785 C117.6654,117.37635 117.6399,117.09285 117.5994,116.79585 C117.4644,115.92735 117.3084,115.01535 116.6994,114.13035 C116.0874,113.26785 115.2624,112.68735 114.4419,112.40535 C113.6214,112.11585 112.8474,112.07985 112.1784,112.07835 L112.1739,112.07835 L90.0639,112.14135 L90.0684,112.14135 C88.4709,112.14135 87.0834,112.98735 86.2899,114.20835 C85.7004,115.14285 85.5279,116.11785 85.4064,116.93535 C85.2969,117.74685 85.2939,118.38735 85.2939,118.50735 L85.2939,118.51335 L85.2864,122.09085 L50.2239,122.09085 L50.2239,109.84485 L97.7184,109.84485 C97.7874,109.84485 97.8459,109.81485 97.9119,109.80435 C98.9739,110.45085 100.2069,110.84385 101.5404,110.84385 C102.8859,110.84385 104.1294,110.44635 105.1974,109.78935 C105.2889,109.80735 105.3714,109.84485 105.4674,109.84485 L126.9354,109.84485 L126.9354,115.85985 C125.8704,115.20885 124.6314,114.81285 123.2904,114.81285 C120.9879,114.81285 118.9644,115.93635 117.6864,117.64785 L117.6864,117.64785 Z M158.9634,181.15485 C158.8284,180.28785 158.6724,179.37435 158.0634,178.48935 C157.4514,177.62835 156.6264,177.04635 155.8074,176.76435 C154.9854,176.47485 154.2114,176.43885 153.5424,176.43735 L153.5379,176.43735 L133.2804,176.49435 L133.2804,162.57435 C133.7649,162.75285 134.2839,162.85935 134.8314,162.86235 L134.8359,162.86235 L134.8359,162.86235 L134.8539,162.86235 L134.8539,162.86085 C137.3799,162.84885 139.4244,160.80735 139.4349,158.27835 L139.4799,137.34735 C139.4814,137.29635 139.4844,137.16585 139.4844,136.94085 C139.4844,136.46085 139.4664,135.65835 139.3494,134.79585 C139.2144,133.92735 139.0584,133.01535 138.4494,132.13035 C137.8374,131.26785 137.0124,130.68735 136.1919,130.40535 C135.3714,130.11585 134.5974,130.07985 133.9284,130.07835 L133.9239,130.07835 L117.7074,130.12335 L117.7149,126.04335 C118.9959,127.73385 121.0059,128.84385 123.2904,128.84385 C127.1664,128.84235 130.3059,125.70285 130.3059,121.82835 C130.3059,121.02285 130.1424,120.26235 129.8934,119.54235 C129.9039,119.46885 129.9354,119.40435 129.9354,119.32785 L129.9354,39.30585 C133.3779,38.41035 136.0044,35.59635 136.6599,32.06685 C136.7379,31.90935 136.7919,31.73685 136.8084,31.55385 C136.8084,31.54785 136.8264,31.36035 136.8429,31.12635 C136.8609,30.88635 136.8804,30.62835 136.8819,30.37935 C136.8819,29.78235 136.8204,29.20035 136.7079,28.64085 C136.6974,28.58985 136.6029,28.08435 136.4604,27.30735 C135.9534,24.56535 134.7819,18.16785 133.7379,12.45885 C133.2159,9.60285 132.7239,6.91935 132.3639,4.94985 C132.0039,2.98035 131.7744,1.72785 131.7744,1.72485 C131.6439,1.01235 131.0229,0.49485 130.2984,0.49485 L47.2434,0.49485 C46.5189,0.49485 45.8964,1.01535 45.7674,1.72785 L40.4544,31.14885 C40.4274,31.30035 40.4244,31.46385 40.4439,31.61685 C40.9449,35.34285 43.6584,38.34285 47.2239,39.29235 L47.2239,139.64085 C47.2239,140.46885 47.8959,141.14085 48.7239,141.14085 C49.5519,141.14085 50.2239,140.46885 50.2239,139.64085 L50.2239,139.26885 L85.2504,139.26885 L85.2474,140.25885 L85.2474,140.26935 C85.2534,142.80135 87.2994,144.85185 89.8314,144.86235 L89.8359,144.86235 L89.8359,144.86235 L89.8539,144.86235 L89.8539,144.86085 C90.4014,144.85785 90.9204,144.75135 91.4049,144.57435 L91.4049,148.06035 C90.9594,147.97185 90.5004,147.92235 90.0294,147.92235 C86.1549,147.92235 83.0154,151.06185 83.0139,154.93785 C83.0154,158.81235 86.1549,161.95185 90.0294,161.95335 C90.5004,161.95335 90.9594,161.90235 91.4049,161.81385 L91.4049,163.21335 L78.5544,163.24935 L78.5574,163.24935 C76.9599,163.25085 75.5724,164.09685 74.7804,165.31785 C74.1894,166.25235 74.0169,167.22735 73.8954,168.04485 C73.7859,168.85635 73.7829,169.49685 73.7829,169.61685 L73.7829,169.62285 L73.7379,191.36835 L73.7379,191.37735 C73.7424,193.91085 75.7884,195.95985 78.3204,195.97185 L78.3249,195.97185 L78.3249,195.97185 L78.3429,195.97185 L78.3429,195.97035 C78.8904,195.96735 79.4094,195.86085 79.8939,195.68385 L79.8939,222.25035 C79.8999,224.73435 81.9084,226.74435 84.3939,226.75035 L95.5194,226.75035 C98.0034,226.74435 100.0134,224.73435 100.0194,222.25035 L100.0194,195.68385 C100.5039,195.86235 101.0229,195.96885 101.5719,195.97185 L101.5749,195.97185 L101.5749,195.97185 L101.5929,195.97185 L101.5929,195.97035 C104.1204,195.95835 106.1634,193.91685 106.1754,191.38785 L106.2084,175.64085 L107.0304,175.64085 C109.5144,175.63485 111.5244,173.62635 111.5304,171.14085 L111.5304,162.85635 C111.5469,162.85785 111.5634,162.86235 111.5814,162.86235 L111.5859,162.86235 L111.5859,162.86235 L111.6039,162.86235 L111.6039,162.86085 C112.1514,162.85785 112.6704,162.75135 113.1549,162.57435 L113.1549,189.14085 C113.1609,191.62635 115.1694,193.63485 117.6549,193.64085 L126.6354,193.64085 L126.6129,204.61785 L126.6129,204.62835 C126.6174,207.16035 128.6634,209.21085 131.1954,209.22135 L131.1999,209.22135 L131.1999,209.22135 L131.2179,209.22135 L131.2179,209.22135 C131.7654,209.21835 132.2844,209.11185 132.7689,208.93335 L132.7689,235.49985 C132.7749,237.98535 134.7834,239.99385 137.2689,239.99985 L148.3944,239.99985 C150.8784,239.99385 152.8884,237.98535 152.8944,235.49985 L152.8944,208.93335 C153.3789,209.11185 153.8979,209.21985 154.4469,209.22135 L154.4499,209.22135 L154.4499,209.22135 L154.4679,209.22135 L154.4679,209.21985 C156.9954,209.20785 159.0384,207.16635 159.0504,204.63735 L159.0939,183.70935 C159.0954,183.65985 159.0999,183.52785 159.0999,183.29985 C159.0984,182.81985 159.0804,182.01885 158.9634,181.15485 L158.9634,181.15485 Z" id="Fill-3" fill="#FD9348" sketch:type="MSShapeGroup" mask="url(#mask-2)"></path>
            </g>
            <path d="M19.2327,99.0993 L19.3362,99.0978 C21.5037,99.0963 23.2947,100.8303 23.3472,103.0128 L23.3487,103.1163 C23.3502,105.2853 21.6162,107.0748 19.4337,107.1273 L19.3302,107.1288 C17.1612,107.1303 15.3717,105.3963 15.3192,103.2138 L15.3177,103.1103 C15.3162,100.9428 17.0502,99.1518 19.2327,99.0993 M19.3302,110.1288 L19.5072,110.1273 L19.5087,110.1273 L19.5087,110.1273 C23.3232,110.0298 26.3472,106.9113 26.3487,103.1163 L26.3472,102.9393 C26.2497,99.1233 23.1312,96.0993 19.3362,96.0978 L19.1577,96.1008 C15.3432,96.1968 12.3177,99.3153 12.3177,103.1103 L12.3192,103.2903 C12.4167,107.1033 15.5352,110.1288 19.3302,110.1288" id="Fill-6" fill="#FD9348" sketch:type="MSShapeGroup"></path>
            <path d="M26.3571,178.37295 C26.4786,178.60695 26.5341,178.85145 26.5356,179.09895 C26.5341,179.68095 26.2176,180.24495 25.6791,180.52245 L25.0866,180.82995 C24.8526,180.95145 24.6081,181.00695 24.3606,181.00845 C23.8116,181.00695 23.2881,180.71895 22.9971,180.23445 L14.4306,148.17045 C14.3241,147.66045 14.2101,147.14445 14.1231,146.71245 C14.0331,146.28045 13.9791,145.88895 13.9821,145.84845 L13.6731,133.94295 C13.6551,133.24545 13.1586,132.65295 12.4746,132.51195 C11.7906,132.37245 11.1006,132.72345 10.8096,133.35795 L6.0411,143.76345 C5.7801,144.34245 5.1921,144.69195 4.5831,144.69195 C4.3626,144.69195 4.1436,144.64695 3.9276,144.54945 C3.3501,144.28695 3.0006,143.69895 3.0006,143.09145 C3.0006,142.87095 3.0456,142.65195 3.1431,142.43595 L14.5191,118.44645 L14.5281,118.42845 C14.5641,118.34745 14.6661,118.13745 14.7651,117.95295 L14.8986,117.70995 L14.9376,117.64545 L14.9406,117.64245 L14.9361,117.63945 L15.1176,117.34245 C15.5796,116.29845 16.0806,115.53495 16.6206,115.07145 C17.1666,114.61245 17.7351,114.35595 18.7266,114.31995 L18.7281,114.31995 L18.9006,114.31695 C20.1681,114.32145 21.2091,114.66045 22.0221,115.31745 C22.8291,115.97895 23.4801,116.99595 23.8026,118.62795 L23.9871,119.62695 L26.9316,138.43995 L26.9406,138.49245 L26.9691,138.79395 C26.9721,139.53195 26.4291,140.22195 25.6791,140.36145 L25.3836,140.38845 C24.8901,140.39295 24.4191,140.13045 24.1206,139.72695 L24.3216,131.82345 C24.3426,130.99545 23.6871,130.30695 22.8591,130.28595 C22.0311,130.26495 21.3426,130.91895 21.3216,131.74695 L21.0696,141.66345 C21.0681,141.70245 21.0876,141.73545 21.0891,141.77445 L20.9376,146.35995 L20.9376,146.45295 C20.9436,146.62395 20.9631,146.89245 21.0051,147.34695 C21.0456,147.79095 21.1086,148.38345 21.1986,149.07945 L21.2091,149.14395 L26.2101,177.93795 C26.2356,178.08945 26.2866,178.23645 26.3571,178.37295 L26.3571,178.37295 Z M9.0726,173.68395 L9.0636,173.70195 C8.9841,173.88195 8.7951,174.08895 8.4621,174.26145 C8.1366,174.43095 7.6911,174.53895 7.2771,174.53595 C6.9426,174.53745 6.6366,174.46995 6.4251,174.37095 C5.8461,174.10995 5.4966,173.52195 5.4966,172.91295 C5.4966,172.69245 5.5416,172.47345 5.6391,172.25895 L13.2966,155.55345 L14.8761,161.46045 L9.0726,173.68395 Z M25.3836,143.38845 C25.6701,143.38845 25.9596,143.36145 26.2491,143.30595 C28.4466,142.87395 29.9661,140.95545 29.9691,138.79395 C29.9691,138.52245 29.9406,138.24945 29.8911,137.97645 L29.8956,137.97495 L26.9466,119.13945 L26.9406,119.09895 L26.7501,118.07145 L26.7471,118.05945 C26.3331,115.88295 25.3356,114.13695 23.9121,112.98795 C22.4901,111.83295 20.7141,111.31395 18.9006,111.31695 L18.6516,111.32145 C17.0751,111.34845 15.6816,111.89895 14.6541,112.80645 C13.6641,113.67045 12.9981,114.77595 12.4506,115.96995 C12.3996,116.04645 12.3561,116.11695 12.3126,116.18895 C12.1086,116.53995 11.9166,116.92845 11.8086,117.16095 L11.8086,117.16095 L0.4251,141.16845 L0.4161,141.18645 C0.1341,141.79995 -0.0009,142.45245 0.0006,143.09145 C-0.0009,144.83145 0.9921,146.49945 2.6781,147.27645 C3.2931,147.55845 3.9456,147.69345 4.5831,147.69195 C6.3231,147.69345 7.9911,146.70045 8.7681,145.01445 L10.8426,140.48745 L10.9836,145.93095 L10.9836,145.93695 C11.0031,146.39145 11.0856,146.79945 11.1816,147.30045 C11.2791,147.79095 11.3991,148.32645 11.5026,148.82595 L11.5221,148.90845 L12.1161,151.12995 C12.0246,151.23495 11.9301,151.33695 11.8686,151.46895 L11.8686,151.46895 L2.9121,171.00795 C2.6301,171.62295 2.4966,172.27545 2.4966,172.91295 C2.4951,174.65295 3.4881,176.32095 5.1741,177.09795 C5.8506,177.40695 6.5676,177.53445 7.2771,177.53595 C8.1576,177.53445 9.0351,177.33795 9.8346,176.92995 C10.6221,176.52495 11.3541,175.88295 11.7816,174.96945 L11.7831,174.97095 L16.0716,165.93645 L20.1576,181.23195 L20.2761,181.53645 C21.0981,183.10995 22.7046,184.00995 24.3606,184.00845 C25.0716,184.00845 25.8006,183.84045 26.4711,183.49245 L27.0636,183.18345 C28.6371,182.36295 29.5356,180.75495 29.5356,179.09895 C29.5356,178.50945 29.3901,177.91545 29.1516,177.34545 L24.1716,148.66995 C24.0876,148.02345 24.0291,147.47295 23.9916,147.06795 C23.9601,146.72745 23.9421,146.47695 23.9376,146.39895 L24.0441,143.18145 C24.4701,143.31345 24.9201,143.38845 25.3836,143.38845 L25.3836,143.38845 Z" id="Fill-8" fill="#FD9348" sketch:type="MSShapeGroup"></path>
            <path d="M18.6507,111.32085 L18.6507,111.32085 L18.6522,111.32085 L18.6507,111.32085 Z" id="Fill-10" fill="#FD9348" sketch:type="MSShapeGroup"></path>
            <path d="M183.75225,150.90885 C183.99825,148.87335 185.73675,147.37935 187.73175,147.37935 C187.89375,147.37935 188.05875,147.38985 188.22525,147.40935 C190.26075,147.65535 191.75475,149.39535 191.75475,151.38885 C191.75475,151.55235 191.74425,151.71735 191.72475,151.88385 C191.47875,153.91935 189.73875,155.41335 187.74525,155.41185 C187.58175,155.41185 187.41675,155.40285 187.25025,155.38185 C185.21475,155.13585 183.72225,153.39735 183.72225,151.40235 C183.72225,151.24035 183.73125,151.07535 183.75225,150.90885 M186.88725,158.35935 L186.88725,158.35935 L186.88725,158.35935 C187.17525,158.39535 187.46175,158.41185 187.74525,158.41185 C191.24625,158.41185 194.26425,155.80485 194.70225,152.24685 C194.73675,151.95885 194.75475,151.67235 194.75475,151.38885 C194.75325,147.88785 192.14625,144.86985 188.58975,144.43185 C188.30175,144.39735 188.01525,144.37935 187.73175,144.37935 C184.23075,144.38085 181.21275,146.98785 180.77475,150.54435 C180.73875,150.83235 180.72225,151.11885 180.72225,151.40235 C180.72225,154.90335 183.32925,157.92135 186.88725,158.35935" id="Fill-12" fill="#FD9348" sketch:type="MSShapeGroup"></path>
            <g id="Group-16">
                <mask id="mask-4" sketch:name="Clip 15" fill="white">
                    <use xlink:href="#path-3"></use>
                </mask>
                <g id="Clip-15"></g>
                <path d="M199.07295,194.12445 C198.90045,194.18445 198.72945,194.21145 198.55845,194.21145 C197.89995,194.21145 197.26545,193.78995 197.04645,193.13895 L193.30245,182.32095 C193.07445,181.66095 192.42195,181.24545 191.72745,181.31895 C191.03445,181.39245 190.48245,181.93545 190.39695,182.62845 L188.93895,194.45295 L188.94045,194.44695 C188.94045,194.48595 188.84745,194.87145 188.71695,195.29445 C188.58945,195.71595 188.42595,196.21845 188.26995,196.71645 L176.64945,227.80695 C176.34345,228.21645 175.86945,228.44745 175.37295,228.44895 C175.07295,228.44895 174.78045,228.36795 174.51195,228.19545 L173.95245,227.83095 C173.48745,227.53095 173.23245,227.01795 173.23095,226.48695 C173.23095,226.18695 173.31195,225.89445 173.48445,225.62595 C173.56845,225.49695 173.63295,225.35595 173.67345,225.20745 L181.42995,197.03145 L181.44645,196.96695 C181.60245,196.28295 181.72245,195.69945 181.80645,195.26145 C181.89195,194.81295 181.93695,194.54745 181.95945,194.37795 L181.96845,194.28495 L182.25945,189.70695 C182.26545,189.66795 182.28795,189.63645 182.28945,189.59745 L182.99595,179.70345 C183.05445,178.87845 182.43345,178.15995 181.60695,178.10145 C180.78045,178.04295 180.06195,178.66395 180.00345,179.49045 L179.44095,187.38195 C179.13645,187.71495 178.70595,187.92345 178.26645,187.92045 C178.12245,187.92045 177.97695,187.90095 177.82845,187.85745 C177.14445,187.65945 176.68695,187.00695 176.68695,186.32295 C176.68695,186.17445 176.70795,186.02745 176.75295,185.87745 L176.76645,185.82345 L181.51395,167.37945 L181.79295,166.40745 C182.22945,164.94645 182.89695,164.02545 183.66795,163.43745 C184.44345,162.85095 185.37045,162.56295 186.47295,162.55845 C186.72795,162.55845 186.99045,162.57495 187.25895,162.60795 C188.24445,162.73995 188.78445,163.05045 189.28395,163.56045 C189.77595,164.07345 190.20195,164.88045 190.56045,165.96495 L190.71195,166.27845 L190.70895,166.28145 L190.71045,166.28295 C190.73295,166.32345 190.81545,166.50945 190.88295,166.67895 C190.95195,166.84995 191.01795,167.02995 191.04345,167.10345 L191.04945,167.12145 L200.05845,192.09795 C200.11695,192.27045 200.14545,192.43995 200.14545,192.61095 C200.14545,193.27095 199.72395,193.90395 199.07295,194.12445 L199.07295,194.12445 Z M194.69595,221.53995 C194.75595,221.71095 194.78295,221.88195 194.78295,222.05295 C194.78295,222.71295 194.36145,223.34595 193.71045,223.56645 C193.54545,223.62345 193.32945,223.66095 193.09095,223.66095 C192.65595,223.66395 192.15495,223.53195 191.79045,223.31895 C191.41695,223.10595 191.21445,222.84945 191.14845,222.64695 L191.14095,222.62745 L186.54495,209.90145 L188.68695,204.17295 L194.69595,221.53995 Z M202.89345,191.11695 L202.88745,191.09745 L193.87245,166.10445 L193.87245,166.10445 C193.81545,165.94395 193.72995,165.71595 193.62945,165.46995 L193.46445,165.08745 C193.42845,165.01095 193.39095,164.93745 193.34745,164.85645 C192.91845,163.61445 192.36195,162.45045 191.46045,161.49495 C190.52445,160.49295 189.19095,159.81045 187.62345,159.63045 C187.23945,159.58395 186.85545,159.55845 186.47295,159.55845 C184.82745,159.55545 183.19845,160.02345 181.85445,161.04645 C180.50595,162.06645 179.48895,163.60695 178.91595,165.55695 L178.91295,165.56895 L178.62495,166.57245 L178.61295,166.61295 L173.86245,185.07645 L173.86395,185.07645 C173.74695,185.49045 173.68695,185.91045 173.68695,186.32295 C173.68845,188.30895 174.97695,190.13595 176.97645,190.73295 C177.40395,190.86045 177.83895,190.92045 178.26645,190.92045 C178.57995,190.92045 178.88295,190.86495 179.18445,190.80345 L178.97895,194.03445 C178.96695,194.10945 178.92495,194.35845 178.86045,194.69595 C178.78395,195.09495 178.67145,195.63795 178.52745,196.27245 L170.82345,224.25795 C170.43195,224.95845 170.22945,225.72795 170.23095,226.48695 C170.22945,227.98545 170.96445,229.46595 172.31895,230.34645 L172.87695,230.70945 C173.64495,231.20895 174.51795,231.45045 175.37295,231.44895 C176.87145,231.45045 178.35195,230.71545 179.23245,229.36245 L179.37945,229.06995 L184.92345,214.24095 L188.31945,223.64595 L188.32095,223.64595 C188.69445,224.69445 189.46095,225.44445 190.30245,225.92445 C191.15745,226.40895 192.11745,226.65795 193.09095,226.66095 C193.62495,226.65945 194.16495,226.58295 194.69145,226.40145 C196.59345,225.73845 197.78295,223.95945 197.78295,222.05295 C197.78295,221.55645 197.70195,221.04945 197.53095,220.55895 L190.50195,200.24595 C190.45395,200.10795 190.36995,199.99845 190.28895,199.88445 L191.09445,197.73045 L191.12145,197.65095 C191.27295,197.16345 191.44245,196.64145 191.58795,196.16295 C191.73195,195.67395 191.85345,195.27495 191.91645,194.82495 L191.91645,194.81895 L192.58245,189.41595 L194.20995,194.11995 C194.87295,196.02195 196.65195,197.20995 198.55845,197.21145 C199.05495,197.21145 199.56195,197.13045 200.05395,196.95945 C201.95595,196.29645 203.14395,194.51745 203.14545,192.61095 C203.14545,192.11445 203.06295,191.60745 202.89345,191.11695 L202.89345,191.11695 Z" id="Fill-14" fill="#FD9348" sketch:type="MSShapeGroup" mask="url(#mask-4)"></path>
            </g>
            <path d="M89.5407,57.06255 C91.7577,57.06705 93.5517,58.86105 93.5562,61.07805 C93.5517,63.29505 91.7577,65.09055 89.5407,65.09355 C87.3237,65.09055 85.5297,63.29505 85.5252,61.07805 C85.5297,58.86105 87.3237,57.06705 89.5407,57.06255 M89.5407,68.09355 C93.4152,68.09355 96.5547,64.95405 96.5562,61.07805 C96.5547,57.20355 93.4152,54.06405 89.5407,54.06255 C85.6662,54.06405 82.5267,57.20355 82.5252,61.07805 C82.5267,64.95405 85.6662,68.09355 89.5407,68.09355" id="Fill-17" fill="#FD9348" sketch:type="MSShapeGroup"></path>
            <path d="M139.29045,65.5569 C139.28745,64.3314 138.29595,63.3399 137.07045,63.3369 L137.06595,63.3369 C135.84045,63.3399 134.84895,64.3314 134.84595,65.5569 L134.84595,65.5614 C134.84895,66.7869 135.84045,67.7784 137.06595,67.7799 L137.07045,67.7799 C138.29595,67.7784 139.28745,66.7869 139.29045,65.5614 L139.29045,65.5569 Z" id="Fill-19" fill="#FD9348" sketch:type="MSShapeGroup"></path>
            <path d="M148.0086,65.5569 C148.0056,64.3314 147.0141,63.3399 145.7886,63.3369 L145.7841,63.3369 C144.5586,63.3399 143.5671,64.3314 143.5641,65.5569 L143.5641,65.5614 C143.5671,66.7869 144.5586,67.7784 145.7841,67.7799 L145.7886,67.7799 C147.0141,67.7784 148.0056,66.7869 148.0086,65.5614 L148.0086,65.5569 Z" id="Fill-21" fill="#FD9348" sketch:type="MSShapeGroup"></path>
            <path d="M139.29045,72.8598 C139.28745,71.6343 138.29595,70.6428 137.07045,70.6398 L137.06595,70.6398 C135.84045,70.6428 134.84895,71.6343 134.84595,72.8598 L134.84595,72.8643 C134.84895,74.0898 135.84045,75.0813 137.06595,75.0828 L137.07045,75.0828 C138.29595,75.0813 139.28745,74.0898 139.29045,72.8643 L139.29045,72.8598 Z" id="Fill-23" fill="#FD9348" sketch:type="MSShapeGroup"></path>
            <path d="M148.0086,72.8598 C148.0056,71.6343 147.0141,70.6428 145.7886,70.6398 L145.7841,70.6398 C144.5586,70.6428 143.5671,71.6343 143.5641,72.8598 L143.5641,72.8643 C143.5671,74.0898 144.5586,75.0813 145.7841,75.0828 L145.7886,75.0828 C147.0141,75.0813 148.0056,74.0898 148.0086,72.8643 L148.0086,72.8598 Z" id="Fill-25" fill="#FD9348" sketch:type="MSShapeGroup"></path>
            <path d="M137.06655,82.8393 L137.07105,82.8393 C138.29655,82.8363 139.28805,81.8448 139.29105,80.6193 L139.29105,80.6163 C139.28805,79.3893 138.29655,78.3978 137.07105,78.3963 L137.06655,78.3963 C135.84105,78.3978 134.84955,79.3893 134.84655,80.6163 L134.84655,80.6193 C134.84955,81.8448 135.84105,82.8363 137.06655,82.8393" id="Fill-27" fill="#FD9348" sketch:type="MSShapeGroup"></path>
            <path d="M145.7886,78.39555 L145.7841,78.39555 C144.5586,78.39855 143.5671,79.39005 143.5641,80.61555 L143.5641,80.62005 C143.5671,81.84555 144.5586,82.83705 145.7841,82.83855 L145.7886,82.83855 C147.0141,82.83705 148.0056,81.84555 148.0086,80.62005 L148.0086,80.61555 C148.0056,79.39005 147.0141,78.39855 145.7886,78.39555" id="Fill-29" fill="#FD9348" sketch:type="MSShapeGroup"></path>
            <path d="M153.5973,75.08355 L153.6018,75.08355 C154.8273,75.08055 155.8188,74.08905 155.8203,72.86355 L155.8203,72.86055 C155.8188,71.63355 154.8273,70.64205 153.6018,70.64055 L153.5973,70.64055 C152.3718,70.64205 151.3803,71.63355 151.3773,72.86055 L151.3773,72.86355 C151.3803,74.08905 152.3718,75.08055 153.5973,75.08355" id="Fill-31" fill="#FD9348" sketch:type="MSShapeGroup"></path>
            <path d="M153.5973,82.8393 L153.6018,82.8393 C154.8273,82.8363 155.8188,81.8448 155.8203,80.6193 L155.8203,80.6163 C155.8188,79.3893 154.8273,78.3978 153.6018,78.3963 L153.5973,78.3963 C152.3718,78.3978 151.3803,79.3893 151.3773,80.6163 L151.3773,80.6193 C151.3803,81.8448 152.3718,82.8363 153.5973,82.8393" id="Fill-33" fill="#FD9348" sketch:type="MSShapeGroup"></path>
            <path d="M16.27995,67.1718 L16.28445,67.1718 C17.50995,67.1688 18.50145,66.1773 18.50295,64.9518 L18.50295,64.9488 C18.50145,63.7218 17.50995,62.7303 16.28445,62.7288 L16.27995,62.7288 C15.05445,62.7303 14.06295,63.7218 14.05995,64.9488 L14.05995,64.9518 C14.06295,66.1773 15.05445,67.1688 16.27995,67.1718" id="Fill-35" fill="#FD9348" sketch:type="MSShapeGroup"></path>
            <path d="M24.99825,67.1718 L25.00275,67.1718 C26.22825,67.1688 27.21975,66.1773 27.22125,64.9518 L27.22125,64.9488 C27.21975,63.7218 26.22825,62.7303 25.00275,62.7288 L24.99825,62.7288 C23.77275,62.7303 22.78125,63.7218 22.77825,64.9488 L22.77825,64.9518 C22.78125,66.1773 23.77275,67.1688 24.99825,67.1718" id="Fill-37" fill="#FD9348" sketch:type="MSShapeGroup"></path>
            <path d="M16.27995,74.9277 L16.28445,74.9277 C17.50995,74.9247 18.50145,73.9332 18.50295,72.7077 L18.50295,72.7047 C18.50145,71.4777 17.50995,70.4862 16.28445,70.4847 L16.27995,70.4847 C15.05445,70.4862 14.06295,71.4777 14.05995,72.7047 L14.05995,72.7077 C14.06295,73.9332 15.05445,74.9247 16.27995,74.9277" id="Fill-39" fill="#FD9348" sketch:type="MSShapeGroup"></path>
            <path d="M24.99825,74.9277 L25.00275,74.9277 C26.22825,74.9247 27.21975,73.9332 27.22125,72.7077 L27.22125,72.7047 C27.21975,71.4777 26.22825,70.4862 25.00275,70.4847 L24.99825,70.4847 C23.77275,70.4862 22.78125,71.4777 22.77825,72.7047 L22.77825,72.7077 C22.78125,73.9332 23.77275,74.9247 24.99825,74.9277" id="Fill-41" fill="#FD9348" sketch:type="MSShapeGroup"></path>
            <path d="M32.81445,62.7282 L32.80995,62.7282 C31.58445,62.7312 30.59295,63.7227 30.58995,64.9482 L30.58995,64.9512 C30.59295,66.1782 31.58445,67.1697 32.80995,67.1712 L32.81445,67.1712 C34.03995,67.1697 35.03145,66.1782 35.03445,64.9512 L35.03445,64.9482 C35.03145,63.7227 34.03995,62.7312 32.81445,62.7282" id="Fill-43" fill="#FD9348" sketch:type="MSShapeGroup"></path>
            <path d="M32.81445,70.48395 L32.80995,70.48395 C31.58445,70.48695 30.59295,71.47845 30.58995,72.70395 L30.58995,72.70695 C30.59295,73.93395 31.58445,74.92545 32.80995,74.92695 L32.81445,74.92695 C34.03995,74.92545 35.03145,73.93395 35.03445,72.70695 L35.03445,72.70395 C35.03145,71.47845 34.03995,70.48695 32.81445,70.48395" id="Fill-45" fill="#FD9348" sketch:type="MSShapeGroup"></path>
            <path d="M55.02615,67.78065 L55.03065,67.78065 C56.25615,67.77765 57.24765,66.78615 57.24915,65.56065 L57.24915,65.55765 C57.24765,64.33065 56.25615,63.33915 55.03065,63.33765 L55.02615,63.33765 C53.80065,63.33915 52.80915,64.33065 52.80615,65.55765 L52.80615,65.56065 C52.80915,66.78615 53.80065,67.77765 55.02615,67.78065" id="Fill-47" fill="#FD9348" sketch:type="MSShapeGroup"></path>
            <path d="M55.02615,75.08355 L55.03065,75.08355 C56.25615,75.08055 57.24765,74.08905 57.24915,72.86355 L57.24915,72.86055 C57.24765,71.63355 56.25615,70.64205 55.03065,70.64055 L55.02615,70.64055 C53.80065,70.64205 52.80915,71.63355 52.80615,72.86055 L52.80615,72.86355 C52.80915,74.08905 53.80065,75.08055 55.02615,75.08355" id="Fill-49" fill="#FD9348" sketch:type="MSShapeGroup"></path>
            <path d="M63.74445,75.08355 L63.74895,75.08355 C64.97445,75.08055 65.96595,74.08905 65.96745,72.86355 L65.96745,72.86055 C65.96595,71.63355 64.97445,70.64205 63.74895,70.64055 L63.74445,70.64055 C62.51895,70.64205 61.52745,71.63355 61.52445,72.86055 L61.52445,72.86355 C61.52745,74.08905 62.51895,75.08055 63.74445,75.08355" id="Fill-51" fill="#FD9348" sketch:type="MSShapeGroup"></path>
            <path d="M55.02615,82.8393 L55.03065,82.8393 C56.25615,82.8363 57.24765,81.8448 57.24915,80.6193 L57.24915,80.6163 C57.24765,79.3893 56.25615,78.3978 55.03065,78.3963 L55.02615,78.3963 C53.80065,78.3978 52.80915,79.3893 52.80615,80.6163 L52.80615,80.6193 C52.80915,81.8448 53.80065,82.8363 55.02615,82.8393" id="Fill-53" fill="#FD9348" sketch:type="MSShapeGroup"></path>
            <path d="M63.74445,82.8393 L63.74895,82.8393 C64.97445,82.8363 65.96595,81.8448 65.96745,80.6193 L65.96745,80.6163 C65.96595,79.3893 64.97445,78.3978 63.74895,78.3963 L63.74445,78.3963 C62.51895,78.3978 61.52745,79.3893 61.52445,80.6163 L61.52445,80.6193 C61.52745,81.8448 62.51895,82.8363 63.74445,82.8393" id="Fill-55" fill="#FD9348" sketch:type="MSShapeGroup"></path>
            <path d="M41.0319,70.6398 L41.0274,70.6398 C39.8019,70.6428 38.8104,71.6343 38.8074,72.8598 L38.8074,72.8643 C38.8104,74.0898 39.8019,75.0813 41.0274,75.0828 L41.0319,75.0828 C42.2574,75.0813 43.2489,74.0898 43.2519,72.8643 L43.2519,72.8598 C43.2489,71.6343 42.2574,70.6428 41.0319,70.6398" id="Fill-57" fill="#FD9348" sketch:type="MSShapeGroup"></path>
            <path d="M41.0319,78.39555 L41.0274,78.39555 C39.8019,78.39855 38.8104,79.39005 38.8074,80.61555 L38.8074,80.62005 C38.8104,81.84555 39.8019,82.83705 41.0274,82.83855 L41.0319,82.83855 C42.2574,82.83705 43.2489,81.84555 43.2519,80.62005 L43.2519,80.61555 C43.2489,79.39005 42.2574,78.39855 41.0319,78.39555" id="Fill-59" fill="#FD9348" sketch:type="MSShapeGroup"></path>
            <path d="M136.6704,47.96685 C135.4449,47.96985 134.4534,48.96135 134.4504,50.18685 L134.4504,50.18985 C134.4534,51.41685 135.4449,52.40835 136.6704,52.41135 L136.6749,52.41135 C137.9004,52.40835 138.8919,51.41685 138.8934,50.18985 L138.8934,50.18685 C138.8919,48.96135 137.9004,47.96985 136.6749,47.96685 L136.6704,47.96685 Z" id="Fill-61" fill="#FD9348" sketch:type="MSShapeGroup"></path>
            <path d="M145.38855,52.4106 L145.39305,52.4106 C146.61855,52.4076 147.61005,51.4161 147.61155,50.1906 L147.61155,50.1861 C147.61005,48.9606 146.61855,47.9691 145.39305,47.9661 L145.38855,47.9661 C144.16305,47.9691 143.17155,48.9606 143.16855,50.1861 L143.16855,50.1906 C143.17155,51.4161 144.16305,52.4076 145.38855,52.4106" id="Fill-63" fill="#FD9348" sketch:type="MSShapeGroup"></path>
            <path d="M154.10685,52.4106 L154.11135,52.4106 C155.33685,52.4076 156.32835,51.4161 156.32985,50.1906 L156.32985,50.1861 C156.32835,48.9606 155.33685,47.9691 154.11135,47.9661 L154.10685,47.9661 C152.88135,47.9691 151.88985,48.9606 151.88685,50.1861 L151.88685,50.1906 C151.88985,51.4161 152.88135,52.4076 154.10685,52.4106" id="Fill-65" fill="#FD9348" sketch:type="MSShapeGroup"></path>
            <path d="M136.6704,60.1665 L136.6749,60.1665 C137.9004,60.1635 138.8919,59.172 138.8934,57.9465 L138.8934,57.942 C138.8919,56.7165 137.9004,55.725 136.6749,55.722 L136.6704,55.722 C135.4449,55.725 134.4534,56.7165 134.4504,57.942 L134.4504,57.9465 C134.4534,59.172 135.4449,60.1635 136.6704,60.1665" id="Fill-67" fill="#FD9348" sketch:type="MSShapeGroup"></path>
            <path d="M121.7175,63.3369 L121.713,63.3369 C120.4875,63.3399 119.496,64.3314 119.4945,65.5569 L119.4945,65.5599 C119.496,66.7869 120.4875,67.7784 121.713,67.7799 L121.7175,67.7799 C122.943,67.7784 123.9345,66.7869 123.9375,65.5599 L123.9375,65.5569 C123.9345,64.3314 122.943,63.3399 121.7175,63.3369" id="Fill-69" fill="#FD9348" sketch:type="MSShapeGroup"></path>
            <path d="M121.3173,52.4106 L121.3218,52.4106 C122.5473,52.4076 123.5388,51.4161 123.5418,50.1906 L123.5418,50.1861 C123.5388,48.9606 122.5473,47.9691 121.3218,47.9661 L121.3173,47.9661 C120.0918,47.9691 119.1003,48.9606 119.0973,50.1861 L119.0973,50.1906 C119.1003,51.4161 120.0918,52.4076 121.3173,52.4106" id="Fill-71" fill="#FD9348" sketch:type="MSShapeGroup"></path>
            <path d="M121.3173,60.1665 L121.3218,60.1665 C122.5473,60.1635 123.5388,59.172 123.5418,57.9465 L123.5418,57.942 C123.5388,56.7165 122.5473,55.725 121.3218,55.722 L121.3173,55.722 C120.0918,55.725 119.1003,56.7165 119.0973,57.942 L119.0973,57.9465 C119.1003,59.172 120.0918,60.1635 121.3173,60.1665" id="Fill-73" fill="#FD9348" sketch:type="MSShapeGroup"></path>
            <path d="M145.38855,60.1665 L145.39305,60.1665 C146.61855,60.1635 147.61005,59.172 147.61155,57.9465 L147.61155,57.942 C147.61005,56.7165 146.61855,55.725 145.39305,55.722 L145.38855,55.722 C144.16305,55.725 143.17155,56.7165 143.16855,57.942 L143.16855,57.9465 C143.17155,59.172 144.16305,60.1635 145.38855,60.1665" id="Fill-75" fill="#FD9348" sketch:type="MSShapeGroup"></path>
            <path d="M154.10685,60.1665 L154.11135,60.1665 C155.33685,60.1635 156.32835,59.172 156.32985,57.9465 L156.32985,57.942 C156.32835,56.7165 155.33685,55.725 154.11135,55.722 L154.10685,55.722 C152.88135,55.725 151.88985,56.7165 151.88685,57.942 L151.88685,57.9465 C151.88985,59.172 152.88135,60.1635 154.10685,60.1665" id="Fill-77" fill="#FD9348" sketch:type="MSShapeGroup"></path>
            <path d="M103.74375,52.4106 L103.74825,52.4106 C104.97375,52.4076 105.96525,51.4161 105.96675,50.1906 L105.96675,50.1861 C105.96525,48.9606 104.97375,47.9691 103.74825,47.9661 L103.74375,47.9661 C102.51825,47.9691 101.52675,48.9606 101.52375,50.1861 L101.52375,50.1906 C101.52675,51.4161 102.51825,52.4076 103.74375,52.4106" id="Fill-79" fill="#FD9348" sketch:type="MSShapeGroup"></path>
            <path d="M112.4619,52.4106 L112.4664,52.4106 C113.6919,52.4076 114.6834,51.4161 114.6849,50.1906 L114.6849,50.1861 C114.6834,48.9606 113.6919,47.9691 112.4664,47.9661 L112.4619,47.9661 C111.2364,47.9691 110.2449,48.9606 110.2419,50.1861 L110.2419,50.1906 C110.2449,51.4161 111.2364,52.4076 112.4619,52.4106" id="Fill-81" fill="#FD9348" sketch:type="MSShapeGroup"></path>
            <path d="M103.74375,60.1665 L103.74825,60.1665 C104.97375,60.1635 105.96525,59.172 105.96675,57.9465 L105.96675,57.942 C105.96525,56.7165 104.97375,55.725 103.74825,55.722 L103.74375,55.722 C102.51825,55.725 101.52675,56.7165 101.52375,57.942 L101.52375,57.9465 C101.52675,59.172 102.51825,60.1635 103.74375,60.1665" id="Fill-83" fill="#FD9348" sketch:type="MSShapeGroup"></path>
            <path d="M112.4619,60.1665 L112.4664,60.1665 C113.6919,60.1635 114.6834,59.172 114.6849,57.9465 L114.6849,57.942 C114.6834,56.7165 113.6919,55.725 112.4664,55.722 L112.4619,55.722 C111.2364,55.725 110.2449,56.7165 110.2419,57.942 L110.2419,57.9465 C110.2449,59.172 111.2364,60.1635 112.4619,60.1665" id="Fill-85" fill="#FD9348" sketch:type="MSShapeGroup"></path>
        </g>
    </g>
</svg>