<?xml version="1.0" encoding="UTF-8" standalone="no"?>
<svg width="264px" height="264px" viewBox="0 0 264 264" version="1.1" xmlns="http://www.w3.org/2000/svg" xmlns:xlink="http://www.w3.org/1999/xlink" xmlns:sketch="http://www.bohemiancoding.com/sketch/ns">
    <!-- Generator: Sketch Beta 3.4 (14672) - http://www.bohemiancoding.com/sketch -->
    <title>Slice 1</title>
    <desc>Created with Sketch Beta.</desc>
    <defs>
        <path id="path-1" d="M0,0.0785647059 L192.265476,0.0785647059 L192.265476,159 L0,159 L0,0.0785647059 Z"></path>
        <path id="path-3" d="M0,0.0785647059 L192.265476,0.0785647059 L192.265476,159 L0,159"></path>
    </defs>
    <g id="Page-1" stroke="none" stroke-width="1" fill="none" fill-rule="evenodd" sketch:type="MSPage">
        <rect id="Rectangle-112-Copy-7" fill="#FFFFFF" sketch:type="MSShapeGroup" x="0" y="0" width="264" height="264"></rect>
        <g id="Иконка_6" sketch:type="MSLayerGroup" transform="translate(37.000000, 77.000000)">
            <g id="Group-3">
                <mask id="mask-2" sketch:name="Clip 2" fill="white">
                    <use xlink:href="#path-1"></use>
                </mask>
                <g id="Clip-2"></g>
                <path d="M108.297921,118.374565 L104.166222,110.748176 L98.3687272,76.3312235 L98.4998922,75.5324824 L98.5223777,75.2668588 C98.5223777,75.0854118 98.4886495,74.9114471 98.4680379,74.7356118 C98.4998922,74.6925882 98.5186301,74.6402118 98.5579796,74.6009294 C98.7865816,74.3764588 99.0826398,74.2436471 99.4161738,74.2436471 L101.261853,74.2436471 C101.595387,74.2436471 101.891446,74.3764588 102.120048,74.6009294 C102.344902,74.8291412 102.477941,75.1246941 102.477941,75.4576588 L102.539776,75.9028588 L109.965591,102.134118 C110.019931,102.321176 110.104251,102.497012 110.220426,102.654141 L117.878591,113.125694 L108.297921,118.374565 Z M89.3108437,111.260718 L85.1810184,118.937612 L75.596601,113.638235 L83.2603874,103.161071 C83.3746883,103.003941 83.4665039,102.815012 83.5170961,102.627953 L90.9054359,75.7008353 L90.9635233,75.2668588 C90.9635233,74.9338941 91.0965621,74.6383412 91.3232903,74.412 C91.5500184,74.1856588 91.8479505,74.0528471 92.1796107,74.0528471 L94.0271641,74.0528471 C94.3606981,74.0528471 94.6567563,74.1856588 94.8834845,74.412 C94.9378243,74.4643765 94.9659311,74.5335882 95.0090282,74.5953176 C94.9546883,74.8740353 94.9209602,75.1621059 94.9209602,75.4576588 L94.9434456,75.7288941 L95.0446301,76.3368353 L89.3108437,111.260718 Z M12.2007854,138.249565 C16.6154262,128.988282 24.3803971,118.039729 35.3289311,109.247965 C46.2849602,100.450588 60.3870767,93.7875529 77.6596398,92.8990235 C78.6527466,92.8485176 79.4359893,92.0254588 79.4359893,91.0321765 L79.4359893,81.1199294 C81.1917272,82.7941059 82.9624553,84.2793529 84.6188825,85.4877529 C84.6732223,85.5289059 84.7388049,85.5382588 84.7968922,85.5700588 L80.4347175,101.4738 L72.4580087,112.379329 C72.4430184,112.386812 72.4280282,112.384941 72.4130379,112.394294 L8.22461068,149.662024 C8.82047476,146.540012 10.1283777,142.576235 12.2007854,138.249565 L12.2007854,138.249565 Z M71.0545427,59.3649882 L71.0545427,34.5235765 C75.930135,31.4184 79.0912126,25.3539529 79.1005816,18.4327765 C79.1005816,15.3687529 78.4503777,12.4936588 77.3392223,9.94591765 C77.9219699,9.36977647 78.5328243,8.82356471 79.1774068,8.31663529 L79.3816495,8.15950588 C82.9455913,5.43592941 87.3752223,3.81974118 92.1758631,3.81974118 L100.718455,3.81974118 C106.457863,3.81974118 111.668863,6.1374 115.495135,9.88792941 C114.367116,12.4506353 113.705669,15.3444353 113.705669,18.4327765 C113.715038,25.3969765 116.911717,31.4969647 121.839776,34.5853059 L121.839776,59.4903176 C121.858514,63.4428706 119.88729,68.0239412 116.945446,72.1841294 C114.264057,75.9963882 110.808795,79.4382706 107.627106,81.8326235 L105.721465,75.1003765 C105.530339,72.7920706 103.622824,70.9757294 101.261853,70.9701176 L99.4161738,70.9701176 C98.4530476,70.9719882 97.5667466,71.2806353 96.8359699,71.7931765 C96.0658437,71.1721412 95.0970961,70.7830588 94.0271641,70.7793176 L92.1796107,70.7793176 C89.8186398,70.7849294 87.9092515,72.6031412 87.7218728,74.9151882 L85.851834,81.726 C82.711368,79.2886235 79.1418049,75.8261647 76.3198825,72.0232588 C73.1812903,67.8256588 71.0301835,63.2184 71.0545427,59.3649882 L71.0545427,59.3649882 Z M62.2589893,44.2375412 C62.2627369,41.4110824 64.5037854,39.1289647 67.3069699,39.0129882 L67.3069699,49.4620941 C64.5037854,49.3461176 62.2627369,47.064 62.2589893,44.2375412 L62.2589893,44.2375412 Z M74.9276592,12.8284941 C75.4841738,14.5587882 75.8214553,16.4387294 75.8214553,18.4327765 C75.8289505,23.3935765 73.8820864,27.7108941 71.0545427,30.3858353 L71.0545427,24.9050118 C71.0545427,20.4156 72.5029796,16.2591529 74.9276592,12.8284941 L74.9276592,12.8284941 Z M121.839776,30.4681412 C118.963514,27.8006824 116.9773,23.4459529 116.984795,18.4327765 C116.984795,16.3994471 117.335193,14.4858353 117.910446,12.7293529 C120.376349,16.1787176 121.839776,20.3725765 121.839776,24.9050118 L121.839776,30.4681412 Z M130.256824,43.5491647 C130.253077,46.2446824 128.208776,48.4370118 125.587349,48.7344353 L125.587349,38.3620235 C128.208776,38.6594471 130.253077,40.8517765 130.256824,43.5491647 L130.256824,43.5491647 Z M168.032358,118.108941 C173.902931,124.642906 178.334436,131.571565 181.278154,137.742635 C183.35431,142.074918 184.662213,146.046176 185.258077,149.168188 L121.350717,112.319471 L113.042349,100.961259 L108.700785,85.6280471 C108.771989,85.5906353 108.848815,85.5794118 108.916271,85.5326471 C110.604552,84.3429529 112.3453,82.8876353 114.04295,81.2508706 L114.04295,90.5252471 C114.04295,91.5185294 114.828067,92.3415882 115.821174,92.3920941 C138.838766,93.5743059 156.270601,105.033529 168.032358,118.108941 L168.032358,118.108941 Z M160.499737,105.826659 C149.431281,96.9264 135.130543,90.0688235 117.790523,88.7856 L117.790523,77.2309765 C117.790523,77.2272353 117.78865,77.2234941 117.78865,77.2197529 C118.56065,76.2900706 119.310164,75.3304588 120.01096,74.3353059 C123.203892,69.7822941 125.570484,64.6437882 125.587349,59.4903176 L125.587349,52.4774824 C130.281183,52.1688353 134.004397,48.3135529 134.004397,43.5491647 C134.004397,38.7847765 130.281183,34.9276235 125.587349,34.6208471 L125.587349,24.9050118 C125.579853,11.2384941 114.408339,0.0841764706 100.718455,0.0785647059 L92.1758631,0.0785647059 C86.5226495,0.0766941176 81.2835427,1.99030588 77.1012515,5.19088235 L77.0918825,5.19836471 L76.8726495,5.36671765 L76.8651544,5.3742 C71.0601641,9.91972941 67.3069699,16.9961647 67.3069699,24.9050118 L67.3069699,30.4344706 L67.3069699,35.2718118 C62.4313777,35.3840471 58.5114165,39.3440824 58.5114165,44.2375412 C58.5114165,49.131 62.4313777,53.0910353 67.3069699,53.2032706 L67.3069699,59.3649882 C67.3313291,64.5483882 69.9340184,69.6850235 73.3105816,74.2511294 C74.0919505,75.3042706 74.9220379,76.32 75.7764845,77.3020588 C75.7408825,77.4460941 75.6884165,77.5826471 75.6884165,77.7379059 L75.6884165,89.3056235 C52.3635233,91.0340471 34.5850379,102.835588 22.6583874,116.118635 C16.5329796,122.935059 11.9197175,130.140565 8.81860097,136.640859 C5.72310583,143.159859 4.10602816,148.906306 4.08916408,153.137576 C4.08916408,153.805376 4.44893107,154.426412 5.02980485,154.759376 C5.60880485,155.092341 6.32646505,155.090471 6.90546505,154.753765 L73.385533,116.157918 L83.0992417,121.528376 C81.0305816,124.523188 75.8776689,131.386376 68.069601,137.924082 C62.2814748,142.772647 56.5233291,147.196588 52.2154942,150.404647 C50.0625136,152.007741 48.2730476,153.3078 47.0213583,154.205682 C46.3955136,154.654624 45.9064553,155.004424 45.5729214,155.240118 C45.2393874,155.475812 45.066999,155.595529 45.066999,155.595529 C44.2181738,156.186635 44.0101835,157.353882 44.6041738,158.201259 C45.1962903,159.046765 46.3636592,159.2544 47.2124845,158.663294 C47.2387175,158.644588 58.7493874,150.614153 70.4792903,140.789824 C81.3809796,131.648259 87.2609214,122.027824 87.3302515,121.9212 C87.3677272,121.861341 87.369601,121.794 87.3995816,121.7304 L92.3295136,112.570129 C92.4157078,112.409259 92.4737951,112.239035 92.5019019,112.059459 L96.7272903,86.3276471 L100.978912,111.560012 C101.008892,111.737718 101.06698,111.906071 101.153174,112.066941 L106.199281,121.3806 C106.219892,121.419882 106.257368,121.4442 106.281727,121.481612 C106.559048,121.932424 112.298455,131.309682 123.001523,140.282894 C134.729552,150.107224 146.240222,158.137659 146.266455,158.156365 C147.115281,158.747471 148.28265,158.539835 148.87664,157.694329 C149.468756,156.846953 149.26264,155.681576 148.413815,155.0886 C148.413815,155.0886 148.239552,154.968882 147.907892,154.733188 C145.575028,153.083329 135.539028,145.904012 125.411213,137.417153 C120.202086,133.053071 116.197805,128.552435 113.507048,125.155447 C112.161669,123.455082 111.144203,122.031565 110.467766,121.040153 C110.445281,121.008353 110.43029,120.984035 110.407805,120.952235 L119.853562,115.778188 L186.579096,154.250576 C187.158096,154.585412 187.873883,154.585412 188.452883,154.250576 C189.031883,153.915741 189.389776,153.298447 189.389776,152.630647 C189.372912,148.399376 187.755834,142.652929 184.662213,136.133929 C180.007727,126.386294 171.956067,115.035565 160.499737,105.826659 L160.499737,105.826659 Z" id="Fill-1" fill="#FD9348" sketch:type="MSShapeGroup" mask="url(#mask-2)"></path>
            </g>
            <path d="M84.5538621,37.4624576 C87.222134,37.4680694 89.3826097,39.6229871 89.3882311,42.2885753 C89.3826097,44.9541635 87.222134,47.1090812 84.5538621,47.1146929 C81.8837165,47.1090812 79.7251146,44.9541635 79.7194932,42.2885753 C79.7251146,39.6229871 81.8855903,37.4680694 84.5538621,37.4624576 M108.069882,37.4624576 C110.738153,37.4680694 112.898629,39.6229871 112.902377,42.2885753 C112.898629,44.9541635 110.738153,47.1090812 108.069882,47.1146929 C105.399736,47.1090812 103.23926,44.9541635 103.235513,42.2885753 C103.23926,39.6229871 105.399736,37.4680694 108.069882,37.4624576 M84.5538621,50.3882224 C88.7473961,50.3863518 92.1558136,47.20074 92.5830369,43.1284694 C93.5855126,42.4251282 94.8915417,41.9761871 96.3456,41.9761871 C97.6609981,41.9761871 98.8602214,42.3372106 99.8196,42.9264459 C99.8851825,42.9675988 99.9582602,42.9732106 100.02759,43.00314 C100.396726,47.13714 103.83325,50.3863518 108.069882,50.3882224 C112.550105,50.3863518 116.181503,46.7630224 116.181503,42.2885753 C116.181503,37.8141282 112.550105,34.1907988 108.069882,34.1889282 C104.545289,34.1889282 101.579085,36.4429871 100.456687,39.5762224 C99.2124932,39.0187871 97.8183961,38.7045282 96.3456,38.7026576 C94.8484447,38.7045282 93.4393573,39.0431047 92.1801728,39.6192459 C91.0708913,36.4654341 88.0934447,34.1889282 84.5538621,34.1889282 C80.071765,34.1907988 76.4422408,37.8141282 76.440367,42.2885753 C76.4422408,46.7630224 80.071765,50.3863518 84.5538621,50.3882224" id="Fill-4" fill="#FD9348" sketch:type="MSShapeGroup"></path>
            <path d="M138.154272,56.8606447 L138.159893,56.8606447 C139.690777,56.8569035 140.92935,55.6204447 140.933097,54.0921741 L140.933097,54.0884329 C140.92935,52.5582918 139.690777,51.3218329 138.159893,51.3180918 L138.154272,51.3180918 C136.623388,51.3218329 135.384816,52.5582918 135.381068,54.0884329 L135.381068,54.0921741 C135.384816,55.6204447 136.623388,56.8569035 138.154272,56.8606447" id="Fill-6" fill="#FD9348" sketch:type="MSShapeGroup"></path>
            <path d="M151.822982,54.0874976 C151.819234,52.5592271 150.580661,51.3227682 149.049778,51.3190271 L149.044156,51.3190271 C147.513273,51.3227682 146.2747,52.5592271 146.270952,54.0874976 L146.270952,54.0931094 C146.2747,55.62138 147.513273,56.8578388 149.044156,56.8597094 L149.049778,56.8597094 C150.580661,56.8578388 151.819234,55.62138 151.822982,54.0931094 L151.822982,54.0874976 Z" id="Fill-8" fill="#FD9348" sketch:type="MSShapeGroup"></path>
            <path d="M162.713616,54.0874976 C162.709868,52.5592271 161.471295,51.3227682 159.940412,51.3190271 L159.93479,51.3190271 C158.403907,51.3227682 157.165334,52.5592271 157.161586,54.0874976 L157.161586,54.0931094 C157.165334,55.62138 158.403907,56.8578388 159.93479,56.8597094 L159.940412,56.8597094 C161.471295,56.8578388 162.709868,55.62138 162.713616,54.0931094 L162.713616,54.0874976 Z" id="Fill-10" fill="#FD9348" sketch:type="MSShapeGroup"></path>
            <path d="M138.154272,65.9677906 L138.159893,65.9677906 C139.690777,65.9640494 140.92935,64.7275906 140.933097,63.19932 L140.933097,63.1955788 C140.92935,61.6654376 139.690777,60.4289788 138.159893,60.4271082 L138.154272,60.4271082 C136.623388,60.4289788 135.384816,61.6654376 135.381068,63.1955788 L135.381068,63.19932 C135.384816,64.7275906 136.623388,65.9640494 138.154272,65.9677906" id="Fill-12" fill="#FD9348" sketch:type="MSShapeGroup"></path>
            <path d="M151.822982,63.1946435 C151.819234,61.6663729 150.580661,60.4299141 149.049778,60.4261729 L149.044156,60.4261729 C147.513273,60.4299141 146.2747,61.6663729 146.270952,63.1946435 L146.270952,63.2002553 C146.2747,64.7285259 147.513273,65.9649847 149.044156,65.9668553 L149.049778,65.9668553 C150.580661,65.9649847 151.819234,64.7285259 151.822982,63.2002553 L151.822982,63.1946435 Z" id="Fill-14" fill="#FD9348" sketch:type="MSShapeGroup"></path>
            <path d="M162.713616,63.1946435 C162.709868,61.6663729 161.471295,60.4299141 159.940412,60.4261729 L159.93479,60.4261729 C158.403907,60.4299141 157.165334,61.6663729 157.161586,63.1946435 L157.161586,63.2002553 C157.165334,64.7285259 158.403907,65.9649847 159.93479,65.9668553 L159.940412,65.9668553 C161.471295,65.9649847 162.709868,64.7285259 162.713616,63.2002553 L162.713616,63.1946435 Z" id="Fill-16" fill="#FD9348" sketch:type="MSShapeGroup"></path>
            <path d="M138.154272,75.6396671 L138.159893,75.6396671 C139.690777,75.6359259 140.92935,74.3994671 140.933097,72.8711965 L140.933097,72.8674553 C140.92935,71.3373141 139.690777,70.1008553 138.159893,70.0989847 L138.154272,70.0989847 C136.623388,70.1008553 135.384816,71.3373141 135.381068,72.8674553 L135.381068,72.8711965 C135.384816,74.3994671 136.623388,75.6359259 138.154272,75.6396671" id="Fill-18" fill="#FD9348" sketch:type="MSShapeGroup"></path>
            <path d="M138.154272,86.0326553 L138.159893,86.0326553 C139.690777,86.0289141 140.92935,84.7924553 140.933097,83.2641847 L140.933097,83.2585729 C140.92935,81.7303024 139.690777,80.4938435 138.159893,80.4901024 L138.154272,80.4901024 C136.623388,80.4938435 135.384816,81.7303024 135.381068,83.2585729 L135.381068,83.2641847 C135.384816,84.7924553 136.623388,86.0289141 138.154272,86.0326553" id="Fill-20" fill="#FD9348" sketch:type="MSShapeGroup"></path>
            <path d="M151.822982,72.86652 C151.819234,71.3382494 150.580661,70.1017906 149.049778,70.0980494 L149.044156,70.0980494 C147.513273,70.1017906 146.2747,71.3382494 146.270952,72.86652 L146.270952,72.8721318 C146.2747,74.4004024 147.513273,75.6368612 149.044156,75.6387318 L149.049778,75.6387318 C150.580661,75.6368612 151.819234,74.4004024 151.822982,72.8721318 L151.822982,72.86652 Z" id="Fill-22" fill="#FD9348" sketch:type="MSShapeGroup"></path>
            <path d="M162.713616,72.86652 C162.709868,71.3382494 161.471295,70.1017906 159.940412,70.0980494 L159.93479,70.0980494 C158.403907,70.1017906 157.165334,71.3382494 157.161586,72.86652 L157.161586,72.8721318 C157.165334,74.4004024 158.403907,75.6368612 159.93479,75.6387318 L159.940412,75.6387318 C161.471295,75.6368612 162.709868,74.4004024 162.713616,72.8721318 L162.713616,72.86652 Z" id="Fill-24" fill="#FD9348" sketch:type="MSShapeGroup"></path>
            <path d="M169.694969,65.9677906 L169.70059,65.9677906 C171.231474,65.9640494 172.470047,64.7275906 172.47192,63.19932 L172.47192,63.1955788 C172.470047,61.6654376 171.231474,60.4289788 169.70059,60.4271082 L169.694969,60.4271082 C168.164085,60.4289788 166.925513,61.6654376 166.921765,63.1955788 L166.921765,63.19932 C166.925513,64.7275906 168.164085,65.9640494 169.694969,65.9677906" id="Fill-26" fill="#FD9348" sketch:type="MSShapeGroup"></path>
            <path d="M169.694969,75.6396671 L169.70059,75.6396671 C171.231474,75.6359259 172.470047,74.3994671 172.47192,72.8711965 L172.47192,72.8674553 C172.470047,71.3373141 171.231474,70.1008553 169.70059,70.0989847 L169.694969,70.0989847 C168.164085,70.1008553 166.925513,71.3373141 166.921765,72.8674553 L166.921765,72.8711965 C166.925513,74.3994671 168.164085,75.6359259 169.694969,75.6396671" id="Fill-28" fill="#FD9348" sketch:type="MSShapeGroup"></path>
            <path d="M179.727409,75.6396671 L179.73303,75.6396671 C181.263914,75.6359259 182.502486,74.3994671 182.506234,72.8711965 L182.506234,72.8674553 C182.502486,71.3373141 181.263914,70.1008553 179.73303,70.0989847 L179.727409,70.0989847 C178.196525,70.1008553 176.957952,71.3373141 176.954205,72.8674553 L176.954205,72.8711965 C176.957952,74.3994671 178.196525,75.6359259 179.727409,75.6396671" id="Fill-30" fill="#FD9348" sketch:type="MSShapeGroup"></path>
            <path d="M189.491522,70.0980494 L189.485901,70.0980494 C187.955017,70.1017906 186.716445,71.3382494 186.712697,72.86652 L186.712697,72.8702612 C186.716445,74.4004024 187.955017,75.6368612 189.485901,75.6387318 L189.491522,75.6387318 C191.022406,75.6368612 192.260979,74.4004024 192.264726,72.8702612 L192.264726,72.86652 C192.260979,71.3382494 191.022406,70.1017906 189.491522,70.0980494" id="Fill-32" fill="#FD9348" sketch:type="MSShapeGroup"></path>
            <path d="M162.597253,82.8477918 C162.593506,81.3195212 161.354933,80.0830624 159.82405,80.0793212 L159.818428,80.0793212 C158.287545,80.0830624 157.048972,81.3195212 157.045224,82.8477918 L157.045224,82.8534035 C157.048972,84.3816741 158.287545,85.6181329 159.818428,85.6200035 L159.82405,85.6200035 C161.354933,85.6181329 162.593506,84.3816741 162.597253,82.8534035 L162.597253,82.8477918 Z" id="Fill-34" fill="#FD9348" sketch:type="MSShapeGroup"></path>
            <path d="M173.487887,82.8477918 C173.48414,81.3195212 172.245567,80.0830624 170.714683,80.0793212 L170.709062,80.0793212 C169.178179,80.0830624 167.939606,81.3195212 167.935858,82.8477918 L167.935858,82.8534035 C167.939606,84.3816741 169.178179,85.6181329 170.709062,85.6200035 L170.714683,85.6200035 C172.245567,85.6181329 173.48414,84.3816741 173.487887,82.8534035 L173.487887,82.8477918 Z" id="Fill-36" fill="#FD9348" sketch:type="MSShapeGroup"></path>
            <path d="M159.82405,89.1864671 L159.818428,89.1864671 C158.287545,89.1902082 157.048972,90.4266671 157.045224,91.9549376 L157.045224,91.9586788 C157.048972,93.48882 158.287545,94.7252788 159.818428,94.7271494 L159.82405,94.7271494 C161.354933,94.7252788 162.593506,93.48882 162.597253,91.9586788 L162.597253,91.9549376 C162.593506,90.4266671 161.354933,89.1902082 159.82405,89.1864671" id="Fill-38" fill="#FD9348" sketch:type="MSShapeGroup"></path>
            <path d="M173.487887,91.9549376 C173.48414,90.4266671 172.245567,89.1902082 170.714683,89.1864671 L170.709062,89.1864671 C169.178179,89.1902082 167.939606,90.4266671 167.935858,91.9549376 L167.935858,91.9605494 C167.939606,93.48882 169.178179,94.7252788 170.709062,94.7271494 L170.714683,94.7271494 C172.245567,94.7252788 173.48414,93.48882 173.487887,91.9605494 L173.487887,91.9549376 Z" id="Fill-40" fill="#FD9348" sketch:type="MSShapeGroup"></path>
            <path d="M148.874017,80.4448341 L148.868395,80.4448341 C147.337512,80.4485753 146.098939,81.6850341 146.095191,83.2133047 L146.095191,83.2170459 C146.098939,84.7471871 147.337512,85.9836459 148.868395,85.9855165 L148.874017,85.9855165 C150.4049,85.9836459 151.643473,84.7471871 151.64722,83.2170459 L151.64722,83.2133047 C151.643473,81.6850341 150.4049,80.4485753 148.874017,80.4448341" id="Fill-42" fill="#FD9348" sketch:type="MSShapeGroup"></path>
            <path d="M170.714683,98.8583435 L170.709062,98.8583435 C169.178179,98.8620847 167.939606,100.098544 167.935858,101.626814 L167.935858,101.630555 C167.939606,103.160696 169.178179,104.397155 170.709062,104.399026 L170.714683,104.399026 C172.245567,104.397155 173.48414,103.160696 173.487887,101.630555 L173.487887,101.626814 C173.48414,100.098544 172.245567,98.8620847 170.714683,98.8583435" id="Fill-44" fill="#FD9348" sketch:type="MSShapeGroup"></path>
            <path d="M183.246942,91.9549376 C183.243194,90.4266671 182.004621,89.1902082 180.473738,89.1864671 L180.46999,89.1864671 C178.937233,89.1902082 177.69866,90.4266671 177.694913,91.9549376 L177.694913,91.9605494 C177.69866,93.48882 178.937233,94.7252788 180.46999,94.7271494 L180.473738,94.7271494 C182.004621,94.7252788 183.243194,93.48882 183.246942,91.9605494 L183.246942,91.9549376 Z" id="Fill-46" fill="#FD9348" sketch:type="MSShapeGroup"></path>
            <path d="M180.473925,98.8583435 L180.468304,98.8583435 C178.93742,98.8620847 177.698848,100.098544 177.6951,101.626814 L177.6951,101.630555 C177.698848,103.160696 178.93742,104.397155 180.468304,104.399026 L180.473925,104.399026 C182.004809,104.397155 183.243382,103.160696 183.247129,101.630555 L183.247129,101.626814 C183.243382,100.098544 182.004809,98.8620847 180.473925,98.8583435" id="Fill-48" fill="#FD9348" sketch:type="MSShapeGroup"></path>
            <path d="M148.550039,28.5861424 L148.55566,28.5861424 C150.086544,28.5824012 151.325117,27.3459424 151.32699,25.8176718 L151.32699,25.81206 C151.325117,24.2837894 150.086544,23.0473306 148.55566,23.0435894 L148.550039,23.0435894 C147.019155,23.0473306 145.780583,24.2837894 145.776835,25.81206 L145.776835,25.8176718 C145.780583,27.3459424 147.019155,28.5824012 148.550039,28.5861424" id="Fill-50" fill="#FD9348" sketch:type="MSShapeGroup"></path>
            <path d="M148.550039,19.97358 L148.55566,19.97358 C150.086544,19.9698388 151.325117,18.73338 151.32699,17.2051094 L151.32699,17.2013682 C151.325117,15.6712271 150.086544,14.4347682 148.55566,14.4310271 L148.550039,14.4310271 C147.019155,14.4347682 145.780583,15.6712271 145.776835,17.2013682 L145.776835,17.2051094 C145.780583,18.73338 147.019155,19.9698388 148.550039,19.97358" id="Fill-52" fill="#FD9348" sketch:type="MSShapeGroup"></path>
            <path d="M159.440673,28.5861424 L159.446294,28.5861424 C160.977178,28.5824012 162.21575,27.3459424 162.217624,25.8176718 L162.217624,25.81206 C162.21575,24.2837894 160.977178,23.0473306 159.446294,23.0435894 L159.440673,23.0435894 C157.909789,23.0473306 156.671217,24.2837894 156.667469,25.81206 L156.667469,25.8176718 C156.671217,27.3459424 157.909789,28.5824012 159.440673,28.5861424" id="Fill-54" fill="#FD9348" sketch:type="MSShapeGroup"></path>
            <path d="M170.331307,28.5861424 L170.336928,28.5861424 C171.867812,28.5824012 173.106384,27.3459424 173.108258,25.8176718 L173.108258,25.81206 C173.106384,24.2837894 171.867812,23.0473306 170.336928,23.0435894 L170.331307,23.0435894 C168.800423,23.0473306 167.56185,24.2837894 167.558103,25.81206 L167.558103,25.8176718 C167.56185,27.3459424 168.800423,28.5824012 170.331307,28.5861424" id="Fill-56" fill="#FD9348" sketch:type="MSShapeGroup"></path>
            <path d="M148.550039,37.6932882 L148.55566,37.6932882 C150.086544,37.6895471 151.325117,36.4530882 151.32699,34.9248176 L151.32699,34.9210765 C151.325117,33.3909353 150.086544,32.1544765 148.55566,32.1507353 L148.550039,32.1507353 C147.019155,32.1544765 145.780583,33.3909353 145.776835,34.9210765 L145.776835,34.9248176 C145.780583,36.4530882 147.019155,37.6895471 148.550039,37.6932882" id="Fill-58" fill="#FD9348" sketch:type="MSShapeGroup"></path>
            <path d="M159.440673,37.6932882 L159.446294,37.6932882 C160.977178,37.6895471 162.21575,36.4530882 162.217624,34.9248176 L162.217624,34.9210765 C162.21575,33.3909353 160.977178,32.1544765 159.446294,32.1507353 L159.440673,32.1507353 C157.909789,32.1544765 156.671217,33.3909353 156.667469,34.9210765 L156.667469,34.9248176 C156.671217,36.4530882 157.909789,37.6895471 159.440673,37.6932882" id="Fill-60" fill="#FD9348" sketch:type="MSShapeGroup"></path>
            <path d="M170.331307,37.6932882 L170.336928,37.6932882 C171.867812,37.6895471 173.106384,36.4530882 173.108258,34.9248176 L173.108258,34.9210765 C173.106384,33.3909353 171.867812,32.1544765 170.336928,32.1507353 L170.331307,32.1507353 C168.800423,32.1544765 167.56185,33.3909353 167.558103,34.9210765 L167.558103,34.9248176 C167.56185,36.4530882 168.800423,37.6895471 170.331307,37.6932882" id="Fill-62" fill="#FD9348" sketch:type="MSShapeGroup"></path>
            <path d="M148.550039,47.3651647 L148.55566,47.3651647 C150.086544,47.3614235 151.325117,46.1249647 151.32699,44.5966941 L151.32699,44.5929529 C151.325117,43.0628118 150.086544,41.8263529 148.55566,41.8226118 L148.550039,41.8226118 C147.019155,41.8263529 145.780583,43.0628118 145.776835,44.5929529 L145.776835,44.5966941 C145.780583,46.1249647 147.019155,47.3614235 148.550039,47.3651647" id="Fill-64" fill="#FD9348" sketch:type="MSShapeGroup"></path>
            <path d="M159.440673,47.3651647 L159.446294,47.3651647 C160.977178,47.3614235 162.21575,46.1249647 162.217624,44.5966941 L162.217624,44.5929529 C162.21575,43.0628118 160.977178,41.8263529 159.446294,41.8226118 L159.440673,41.8226118 C157.909789,41.8263529 156.671217,43.0628118 156.667469,44.5929529 L156.667469,44.5966941 C156.671217,46.1249647 157.909789,47.3614235 159.440673,47.3651647" id="Fill-66" fill="#FD9348" sketch:type="MSShapeGroup"></path>
            <path d="M170.331307,47.3651647 L170.336928,47.3651647 C171.867812,47.3614235 173.106384,46.1249647 173.108258,44.5966941 L173.108258,44.5929529 C173.106384,43.0628118 171.867812,41.8263529 170.336928,41.8226118 L170.331307,41.8226118 C168.800423,41.8263529 167.56185,43.0628118 167.558103,44.5929529 L167.558103,44.5966941 C167.56185,46.1249647 168.800423,47.3614235 170.331307,47.3651647" id="Fill-68" fill="#FD9348" sketch:type="MSShapeGroup"></path>
            <path d="M127.676995,75.4082753 C128.034888,75.5654047 128.413393,75.6402282 128.784403,75.6402282 C129.850587,75.6402282 130.869927,75.0229341 131.329005,73.9828871 L131.330879,73.9810165 L131.330879,73.9772753 C131.488277,73.6199929 131.563228,73.2421341 131.563228,72.8736282 C131.563228,71.8073929 130.944879,70.7897929 129.903053,70.3314988 L129.884316,70.3240165 L129.895558,70.3277576 L129.899306,70.3296282 C129.539539,70.1724988 129.161034,70.0976753 128.791898,70.0976753 C127.72384,70.0976753 126.7045,70.7149694 126.245422,71.7550165 L126.245422,71.7587576 C126.08615,72.1179106 126.011199,72.4957694 126.013073,72.8642753 C126.011199,73.9305106 126.631422,74.9481106 127.673248,75.4064047 L127.676995,75.4082753 L127.676995,75.4082753 Z" id="Fill-70" fill="#FD9348" sketch:type="MSShapeGroup"></path>
            <path d="M127.665565,75.4030376 L127.67306,75.4067788 L127.669313,75.4049082 L127.665565,75.4030376 Z" id="Fill-72" fill="#FD9348" sketch:type="MSShapeGroup"></path>
            <path d="M54.1057699,56.8606447 L54.1113913,56.8606447 C55.6422748,56.8569035 56.8808476,55.6204447 56.8845951,54.0921741 L56.8845951,54.0884329 C56.8808476,52.5582918 55.6422748,51.3218329 54.1113913,51.3180918 L54.1057699,51.3180918 C52.5748864,51.3218329 51.3363136,52.5582918 51.332566,54.0884329 L51.332566,54.0921741 C51.3363136,55.6204447 52.5748864,56.8569035 54.1057699,56.8606447" id="Fill-74" fill="#FD9348" sketch:type="MSShapeGroup"></path>
            <path d="M43.2149485,56.8606447 L43.2205699,56.8606447 C44.7514534,56.8569035 45.9900262,55.6204447 45.9937738,54.0921741 L45.9937738,54.0884329 C45.9900262,52.5582918 44.7514534,51.3218329 43.2205699,51.3180918 L43.2149485,51.3180918 C41.684065,51.3218329 40.4454922,52.5582918 40.4417447,54.0884329 L40.4417447,54.0921741 C40.4454922,55.6204447 41.684065,56.8569035 43.2149485,56.8606447" id="Fill-76" fill="#FD9348" sketch:type="MSShapeGroup"></path>
            <path d="M32.3243146,56.8606447 L32.3299359,56.8606447 C33.8608194,56.8569035 35.0993922,55.6204447 35.1031398,54.0921741 L35.1031398,54.0884329 C35.0993922,52.5582918 33.8608194,51.3218329 32.3299359,51.3180918 L32.3243146,51.3180918 C30.7934311,51.3218329 29.5548583,52.5582918 29.5511107,54.0884329 L29.5511107,54.0921741 C29.5548583,55.6204447 30.7934311,56.8569035 32.3243146,56.8606447" id="Fill-78" fill="#FD9348" sketch:type="MSShapeGroup"></path>
            <path d="M54.1057699,65.9677906 L54.1113913,65.9677906 C55.6422748,65.9640494 56.8808476,64.7275906 56.8845951,63.19932 L56.8845951,63.1955788 C56.8808476,61.6654376 55.6422748,60.4289788 54.1113913,60.4271082 L54.1057699,60.4271082 C52.5748864,60.4289788 51.3363136,61.6654376 51.332566,63.1955788 L51.332566,63.19932 C51.3363136,64.7275906 52.5748864,65.9640494 54.1057699,65.9677906" id="Fill-80" fill="#FD9348" sketch:type="MSShapeGroup"></path>
            <path d="M43.2149485,65.9677906 L43.2205699,65.9677906 C44.7514534,65.9640494 45.9900262,64.7275906 45.9937738,63.19932 L45.9937738,63.1955788 C45.9900262,61.6654376 44.7514534,60.4289788 43.2205699,60.4271082 L43.2149485,60.4271082 C41.684065,60.4289788 40.4454922,61.6654376 40.4417447,63.1955788 L40.4417447,63.19932 C40.4454922,64.7275906 41.684065,65.9640494 43.2149485,65.9677906" id="Fill-82" fill="#FD9348" sketch:type="MSShapeGroup"></path>
            <path d="M32.3243146,65.9677906 L32.3299359,65.9677906 C33.8608194,65.9640494 35.0993922,64.7275906 35.1031398,63.19932 L35.1031398,63.1955788 C35.0993922,61.6654376 33.8608194,60.4289788 32.3299359,60.4271082 L32.3243146,60.4271082 C30.7934311,60.4289788 29.5548583,61.6654376 29.5511107,63.1955788 L29.5511107,63.19932 C29.5548583,64.7275906 30.7934311,65.9640494 32.3243146,65.9677906" id="Fill-84" fill="#FD9348" sketch:type="MSShapeGroup"></path>
            <path d="M54.1057699,75.6396671 L54.1113913,75.6396671 C55.6422748,75.6359259 56.8808476,74.3994671 56.8845951,72.8711965 L56.8845951,72.8674553 C56.8808476,71.3373141 55.6422748,70.1008553 54.1113913,70.0989847 L54.1057699,70.0989847 C52.5748864,70.1008553 51.3363136,71.3373141 51.332566,72.8674553 L51.332566,72.8711965 C51.3363136,74.3994671 52.5748864,75.6359259 54.1057699,75.6396671" id="Fill-86" fill="#FD9348" sketch:type="MSShapeGroup"></path>
            <path d="M54.1057699,86.0326553 L54.1113913,86.0326553 C55.6422748,86.0289141 56.8808476,84.7924553 56.8845951,83.2641847 L56.8845951,83.2585729 C56.8808476,81.7303024 55.6422748,80.4938435 54.1113913,80.4901024 L54.1057699,80.4901024 C52.5748864,80.4938435 51.3363136,81.7303024 51.332566,83.2585729 L51.332566,83.2641847 C51.3363136,84.7924553 52.5748864,86.0289141 54.1057699,86.0326553" id="Fill-88" fill="#FD9348" sketch:type="MSShapeGroup"></path>
            <path d="M43.2149485,75.6396671 L43.2205699,75.6396671 C44.7514534,75.6359259 45.9900262,74.3994671 45.9937738,72.8711965 L45.9937738,72.8674553 C45.9900262,71.3373141 44.7514534,70.1008553 43.2205699,70.0989847 L43.2149485,70.0989847 C41.684065,70.1008553 40.4454922,71.3373141 40.4417447,72.8674553 L40.4417447,72.8711965 C40.4454922,74.3994671 41.684065,75.6359259 43.2149485,75.6396671" id="Fill-90" fill="#FD9348" sketch:type="MSShapeGroup"></path>
            <path d="M32.3243146,75.6396671 L32.3299359,75.6396671 C33.8608194,75.6359259 35.0993922,74.3994671 35.1031398,72.8711965 L35.1031398,72.8674553 C35.0993922,71.3373141 33.8608194,70.1008553 32.3299359,70.0989847 L32.3243146,70.0989847 C30.7934311,70.1008553 29.5548583,71.3373141 29.5511107,72.8674553 L29.5511107,72.8711965 C29.5548583,74.3994671 30.7934311,75.6359259 32.3243146,75.6396671" id="Fill-92" fill="#FD9348" sketch:type="MSShapeGroup"></path>
            <path d="M25.3429612,63.1946435 C25.3392136,61.6663729 24.1006408,60.4299141 22.5697573,60.4261729 L22.5660097,60.4261729 C21.0332524,60.4299141 19.7946796,61.6663729 19.7928058,63.1946435 L19.7928058,63.2002553 C19.7946796,64.7285259 21.0332524,65.9649847 22.5660097,65.9668553 L22.5697573,65.9668553 C24.1006408,65.9649847 25.3392136,64.7285259 25.3429612,63.2002553 L25.3429612,63.1946435 Z" id="Fill-94" fill="#FD9348" sketch:type="MSShapeGroup"></path>
            <path d="M22.5699447,70.0980494 L22.5643233,70.0980494 C21.0334398,70.1017906 19.794867,71.3382494 19.7911194,72.86652 L19.7911194,72.8702612 C19.794867,74.4004024 21.0334398,75.6368612 22.5643233,75.6387318 L22.5699447,75.6387318 C24.1008282,75.6368612 25.339401,74.4004024 25.3431485,72.8702612 L25.3431485,72.86652 C25.339401,71.3382494 24.1008282,70.1017906 22.5699447,70.0980494" id="Fill-96" fill="#FD9348" sketch:type="MSShapeGroup"></path>
            <path d="M12.5324456,75.6396671 L12.538067,75.6396671 C14.0689505,75.6359259 15.3075233,74.3994671 15.3112709,72.8711965 L15.3112709,72.8674553 C15.3075233,71.3373141 14.0689505,70.1008553 12.538067,70.0989847 L12.5324456,70.0989847 C11.0015621,70.1008553 9.76298932,71.3373141 9.75924175,72.8674553 L9.75924175,72.8711965 C9.76298932,74.3994671 11.0015621,75.6359259 12.5324456,75.6396671" id="Fill-98" fill="#FD9348" sketch:type="MSShapeGroup"></path>
            <g id="Group-102">
                <mask id="mask-4" sketch:name="Clip 101" fill="white">
                    <use xlink:href="#path-3"></use>
                </mask>
                <g id="Clip-101"></g>
                <path d="M5.55109223,72.8711965 L5.55109223,72.8655847 C5.54734466,71.3373141 4.30877184,70.1008553 2.77788835,70.0989847 L2.77414078,70.0989847 C1.2413835,70.1008553 0.00281067961,71.3373141 -0.000936893204,72.8655847 L-0.000936893204,72.8711965 C0.00281067961,74.3994671 1.2413835,75.6359259 2.77414078,75.6396671 L2.77788835,75.6396671 C4.30877184,75.6359259 5.54734466,74.3994671 5.55109223,72.8711965" id="Fill-100" fill="#FD9348" sketch:type="MSShapeGroup" mask="url(#mask-4)"></path>
            </g>
            <g id="Group" transform="translate(8.427948, 14.301587)" fill="#FD9348" sketch:type="MSShapeGroup">
                <path d="M26.7908048,68.5462045 C26.7870573,67.0179339 25.5484844,65.7814751 24.0176009,65.7777339 L24.0119796,65.7777339 C22.4810961,65.7814751 21.2425233,67.0179339 21.2387757,68.5462045 L21.2387757,68.5518162 C21.2425233,70.0800868 22.4810961,71.3165456 24.0119796,71.3184162 L24.0176009,71.3184162 C25.5484844,71.3165456 26.7870573,70.0800868 26.7908048,68.5518162 L26.7908048,68.5462045 Z" id="Fill-103"></path>
                <path d="M13.1220951,71.3193515 L13.1277165,71.3193515 C14.6586,71.3156103 15.8971728,70.0791515 15.9009204,68.5508809 L15.9009204,68.5471398 C15.8971728,67.0169986 14.6586,65.7805398 13.1277165,65.7767986 L13.1220951,65.7767986 C11.5912116,65.7805398 10.3526388,67.0169986 10.3488912,68.5471398 L10.3488912,68.5508809 C10.3526388,70.0791515 11.5912116,71.3156103 13.1220951,71.3193515" id="Fill-105"></path>
                <path d="M24.0176009,74.8848798 L24.0119796,74.8848798 C22.4810961,74.8886209 21.2425233,76.1250798 21.2387757,77.6533503 L21.2387757,77.6570915 C21.2425233,79.1872327 22.4810961,80.4236915 24.0119796,80.4255621 L24.0176009,80.4255621 C25.5484844,80.4236915 26.7870573,79.1872327 26.7908048,77.6570915 L26.7908048,77.6533503 C26.7870573,76.1250798 25.5484844,74.8886209 24.0176009,74.8848798" id="Fill-107"></path>
                <path d="M13.1220951,80.4264974 L13.1277165,80.4264974 C14.6586,80.4227562 15.8971728,79.1862974 15.9009204,77.6580268 L15.9009204,77.6542856 C15.8971728,76.1241445 14.6586,74.8876856 13.1277165,74.8858151 L13.1220951,74.8858151 C11.5912116,74.8876856 10.3526388,76.1241445 10.3488912,77.6542856 L10.3488912,77.6580268 C10.3526388,79.1862974 11.5912116,80.4227562 13.1220951,80.4264974" id="Fill-109"></path>
                <path d="M34.9674466,66.1432468 L34.9618252,66.1432468 C33.4309417,66.146988 32.1923689,67.3834468 32.1886213,68.9117174 L32.1886213,68.9154586 C32.1923689,70.4455998 33.4309417,71.6820586 34.9618252,71.6839292 L34.9674466,71.6839292 C36.4983301,71.6820586 37.7369029,70.4455998 37.7406505,68.9154586 L37.7406505,68.9117174 C37.7369029,67.3834468 36.4983301,66.146988 34.9674466,66.1432468" id="Fill-111"></path>
                <path d="M13.1220951,90.0983739 L13.1277165,90.0983739 C14.6586,90.0946327 15.8971728,88.8581739 15.9009204,87.3299033 L15.9009204,87.3261621 C15.8971728,85.7960209 14.6586,84.5595621 13.1277165,84.5576915 L13.1220951,84.5576915 C11.5912116,84.5595621 10.3526388,85.7960209 10.3488912,87.3261621 L10.3488912,87.3299033 C10.3526388,88.8581739 11.5912116,90.0946327 13.1220951,90.0983739" id="Fill-113"></path>
                <path d="M3.36285337,80.4264974 L3.36847473,80.4264974 C4.89935823,80.4227562 6.13793104,79.1862974 6.13980483,77.6580268 L6.13980483,77.6542856 C6.13793104,76.1241445 4.89935823,74.8876856 3.36847473,74.8858151 L3.36285337,74.8858151 C1.83196988,74.8876856 0.593397062,76.1241445 0.589649489,77.6542856 L0.589649489,77.6580268 C0.593397062,79.1862974 1.83196988,80.4227562 3.36285337,80.4264974" id="Fill-115"></path>
                <path d="M3.36285337,90.0983739 L3.36847473,90.0983739 C4.89935823,90.0946327 6.13793104,88.8581739 6.13980483,87.3299033 L6.13980483,87.3261621 C6.13793104,85.7960209 4.89935823,84.5595621 3.36847473,84.5576915 L3.36285337,84.5576915 C1.83196988,84.5595621 0.593397062,85.7960209 0.589649489,87.3261621 L0.589649489,87.3299033 C0.593397062,88.8581739 1.83196988,90.0946327 3.36285337,90.0983739" id="Fill-117"></path>
                <path d="M35.2820553,14.2845551 L35.2876767,14.2845551 C36.8185602,14.2808139 38.057133,13.0443551 38.0590068,11.5160845 L38.0590068,11.5104727 C38.057133,9.98220211 36.8185602,8.74574329 35.2876767,8.74200211 L35.2820553,8.74200211 C33.7511718,8.74574329 32.512599,9.98220211 32.5088514,11.5104727 L32.5088514,11.5160845 C32.512599,13.0443551 33.7511718,14.2808139 35.2820553,14.2845551" id="Fill-119"></path>
                <path d="M35.2820553,5.6719927 L35.2876767,5.6719927 C36.8185602,5.66825152 38.057133,4.4317927 38.0590068,2.90352211 L38.0590068,2.89978093 C38.057133,1.36963976 36.8185602,0.133180934 35.2876767,0.129439757 L35.2820553,0.129439757 C33.7511718,0.133180934 32.512599,1.36963976 32.5088514,2.89978093 L32.5088514,2.90352211 C32.512599,4.4317927 33.7511718,5.66825152 35.2820553,5.6719927" id="Fill-121"></path>
                <path d="M24.3914213,14.2845551 L24.3970427,14.2845551 C25.9279262,14.2808139 27.166499,13.0443551 27.1683728,11.5160845 L27.1683728,11.5104727 C27.166499,9.98220211 25.9279262,8.74574329 24.3970427,8.74200211 L24.3914213,8.74200211 C22.8605378,8.74574329 21.621965,9.98220211 21.6182175,11.5104727 L21.6182175,11.5160845 C21.621965,13.0443551 22.8605378,14.2808139 24.3914213,14.2845551" id="Fill-123"></path>
                <path d="M13.5007874,14.2845551 L13.5064087,14.2845551 C15.0372922,14.2808139 16.275865,13.0443551 16.2777388,11.5160845 L16.2777388,11.5104727 C16.275865,9.98220211 15.0372922,8.74574329 13.5064087,8.74200211 L13.5007874,8.74200211 C11.9699039,8.74574329 10.731331,9.98220211 10.7275835,11.5104727 L10.7275835,11.5160845 C10.731331,13.0443551 11.9699039,14.2808139 13.5007874,14.2845551" id="Fill-125"></path>
                <path d="M35.2820553,23.3917009 L35.2876767,23.3917009 C36.8185602,23.3879598 38.057133,22.1515009 38.0590068,20.6232303 L38.0590068,20.6194892 C38.057133,19.089348 36.8185602,17.8528892 35.2876767,17.849148 L35.2820553,17.849148 C33.7511718,17.8528892 32.512599,19.089348 32.5088514,20.6194892 L32.5088514,20.6232303 C32.512599,22.1515009 33.7511718,23.3879598 35.2820553,23.3917009" id="Fill-127"></path>
                <path d="M24.3914213,23.3917009 L24.3970427,23.3917009 C25.9279262,23.3879598 27.166499,22.1515009 27.1683728,20.6232303 L27.1683728,20.6194892 C27.166499,19.089348 25.9279262,17.8528892 24.3970427,17.849148 L24.3914213,17.849148 C22.8605378,17.8528892 21.621965,19.089348 21.6182175,20.6194892 L21.6182175,20.6232303 C21.621965,22.1515009 22.8605378,23.3879598 24.3914213,23.3917009" id="Fill-129"></path>
                <path d="M13.5007874,23.3917009 L13.5064087,23.3917009 C15.0372922,23.3879598 16.275865,22.1515009 16.2777388,20.6232303 L16.2777388,20.6194892 C16.275865,19.089348 15.0372922,17.8528892 13.5064087,17.849148 L13.5007874,17.849148 C11.9699039,17.8528892 10.731331,19.089348 10.7275835,20.6194892 L10.7275835,20.6232303 C10.731331,22.1515009 11.9699039,23.3879598 13.5007874,23.3917009" id="Fill-131"></path>
                <path d="M35.2820553,33.0635774 L35.2876767,33.0635774 C36.8185602,33.0598362 38.057133,31.8233774 38.0590068,30.2951068 L38.0590068,30.2913656 C38.057133,28.7612245 36.8185602,27.5247656 35.2876767,27.5210245 L35.2820553,27.5210245 C33.7511718,27.5247656 32.512599,28.7612245 32.5088514,30.2913656 L32.5088514,30.2951068 C32.512599,31.8233774 33.7511718,33.0598362 35.2820553,33.0635774" id="Fill-133"></path>
                <path d="M24.3914213,33.0635774 L24.3970427,33.0635774 C25.9279262,33.0598362 27.166499,31.8233774 27.1683728,30.2951068 L27.1683728,30.2913656 C27.166499,28.7612245 25.9279262,27.5247656 24.3970427,27.5210245 L24.3914213,27.5210245 C22.8605378,27.5247656 21.621965,28.7612245 21.6182175,30.2913656 L21.6182175,30.2951068 C21.621965,31.8233774 22.8605378,33.0598362 24.3914213,33.0635774" id="Fill-135"></path>
                <path d="M13.5007874,33.0635774 L13.5064087,33.0635774 C15.0372922,33.0598362 16.275865,31.8233774 16.2777388,30.2951068 L16.2777388,30.2913656 C16.275865,28.7612245 15.0372922,27.5247656 13.5064087,27.5210245 L13.5007874,27.5210245 C11.9699039,27.5247656 10.731331,28.7612245 10.7275835,30.2913656 L10.7275835,30.2951068 C10.731331,31.8233774 11.9699039,33.0598362 13.5007874,33.0635774" id="Fill-137"></path>
                <path d="M56.1712136,61.1014503 L56.1637184,61.1051915 L56.1637184,61.1051915 L56.1712136,61.1014503 Z" id="Fill-139"></path>
                <path d="M53.9020582,56.0437539 L53.9339126,56.0306598 L53.9339126,56.0306598 L53.9020582,56.0437539 Z" id="Fill-141"></path>
                <path d="M52.2733631,58.5712927 C52.2733631,58.9397986 52.3483145,59.319528 52.5057126,59.6768103 L52.5094602,59.6842927 C52.9666641,60.7205986 53.9860039,61.3378927 55.0521883,61.3378927 C55.423198,61.3378927 55.8017029,61.2630692 56.1595961,61.1059398 L56.1652175,61.1040692 C57.2070427,60.6476456 57.8253922,59.6300456 57.8235184,58.5638103 C57.8253922,58.1934339 57.748567,57.8155751 57.5930427,57.4582927 L57.5911689,57.4564221 C57.1320912,56.4145045 56.1127514,55.7953398 55.0446932,55.7972103 C54.6755573,55.7972103 54.2951786,55.8720339 53.9372854,56.0291633 L53.941033,56.0272927 L53.9372854,56.0291633 L53.9335378,56.0310339 C52.8917126,56.4874574 52.2733631,57.5050574 52.2733631,58.5712927" id="Fill-143"></path>
            </g>
        </g>
    </g>
</svg>