<?xml version="1.0" encoding="UTF-8" standalone="no"?>
<svg width="265px" height="264px" viewBox="0 0 265 264" version="1.1" xmlns="http://www.w3.org/2000/svg" xmlns:xlink="http://www.w3.org/1999/xlink" xmlns:sketch="http://www.bohemiancoding.com/sketch/ns">
    <!-- Generator: Sketch Beta 3.4 (14672) - http://www.bohemiancoding.com/sketch -->
    <title>Slice 1</title>
    <desc>Created with Sketch Beta.</desc>
    <defs>
        <path id="path-1" d="M0,0.0567932125 L263.795926,0.0567932125 L263.795926,184.983607 L0,184.983607 L0,0.0567932125 Z"></path>
        <path id="path-3" d="M0,0.0567932125 L263.795926,0.0567932125 L263.795926,184.983607 L0,184.983607 L0,0.0567932125 Z"></path>
        <path id="path-5" d="M0,0.0567932125 L263.795926,0.0567932125 L263.795926,184.983607 L0,184.983607 L0,0.0567932125 Z"></path>
        <path id="path-7" d="M0,0.0567932125 L263.795926,0.0567932125 L263.795926,184.983607 L0,184.983607 L0,0.0567932125 Z"></path>
    </defs>
    <g id="Page-1" stroke="none" stroke-width="1" fill="none" fill-rule="evenodd" sketch:type="MSPage">
        <rect id="Rectangle-112-Copy-6" fill="#FFFFFF" sketch:type="MSShapeGroup" x="1" y="0" width="264" height="264"></rect>
        <g id="Иконка_5" sketch:type="MSLayerGroup" transform="translate(1.000000, 57.000000)">
            <g id="Group-3">
                <mask id="mask-2" sketch:name="Clip 2" fill="white">
                    <use xlink:href="#path-1"></use>
                </mask>
                <g id="Clip-2"></g>
                <path d="M199.84719,164.960429 L182.015043,164.960429 C180.899117,156.232124 173.474724,149.481845 164.458233,149.480222 C155.441742,149.481845 148.01735,156.232124 146.901423,164.960429 L126.754822,164.960429 L126.754822,127.884197 L178.24292,127.884197 L199.84719,141.344189 L199.84719,164.960429 Z M174.695926,177.489012 C172.070503,180.117726 168.461963,181.737144 164.458233,181.738767 C160.454503,181.737144 156.844344,180.117726 154.21892,177.489012 C151.596736,174.858675 149.980344,171.243381 149.978724,167.232158 C149.980344,163.220934 151.596736,159.604018 154.21892,156.973681 C156.844344,154.346589 160.454503,152.727171 164.458233,152.725549 C168.461963,152.727171 172.070503,154.346589 174.695926,156.973681 C177.31973,159.604018 178.936123,163.220934 178.937742,167.232158 C178.936123,171.243381 177.31973,174.858675 174.695926,177.489012 L174.695926,177.489012 Z M53.1231166,177.489012 C50.4976933,180.117726 46.8875337,181.737144 42.8838037,181.738767 C38.8800736,181.737144 35.2715337,180.117726 32.6461104,177.489012 C30.0239264,174.858675 28.4059141,171.243381 28.4042945,167.232158 C28.4059141,163.220934 30.0239264,159.604018 32.6461104,156.973681 C35.2715337,154.346589 38.8800736,152.727171 42.8838037,152.725549 C46.8875337,152.727171 50.4976933,154.346589 53.1231166,156.973681 C55.7453006,159.604018 57.3633129,163.220934 57.3633129,167.232158 C57.3633129,171.243381 55.7453006,174.858675 53.1231166,177.489012 L53.1231166,177.489012 Z M3.23845399,140.380327 C6.58299387,138.890722 18.550454,133.767974 29.1655215,131.46217 C36.2595092,129.915772 44.1859877,129.015194 50.3211534,128.5073 C53.3887362,128.254165 56.0093006,128.098389 57.8621595,128.004275 C58.7869693,127.95884 59.5206626,127.928009 60.0211288,127.908537 C60.4730061,127.892311 60.7175706,127.884197 60.7645399,127.884197 L123.515558,127.884197 L123.515558,164.960429 L60.4422331,164.960429 C59.3263067,156.232124 51.9002945,149.481845 42.8838037,149.480222 C33.8689325,149.481845 26.4429202,156.232124 25.3269939,164.960429 L3.23845399,164.960429 L3.23845399,140.380327 Z M17.617546,122.730619 C18.735092,122.930207 19.8801718,123.051906 21.0544049,123.051906 C22.1606135,123.051906 23.2376687,122.93832 24.2936687,122.76145 L24.279092,129.326745 C22.0310429,129.931998 19.7991902,130.61514 17.6450798,131.329111 L17.617546,122.730619 Z M4.72365644,103.445267 C4.72365644,97.4689982 7.92890798,92.2634946 12.7100613,89.4011167 C13.1376442,89.1447359 13.4259387,88.7033715 13.4874847,88.2084592 C13.5490307,87.7135469 13.3773497,87.2137666 13.0275092,86.8616487 C11.563362,85.3882705 10.6628466,83.3745455 10.6628466,81.1336476 C10.6628466,78.8878817 11.5666012,76.8692886 13.0339877,75.3959104 C14.5046135,73.9257776 16.5194356,73.0203315 18.7610061,73.0203315 C23.2214724,73.0187088 26.8413497,76.6356251 26.857546,81.1011943 C26.8591656,81.7470143 27.2478773,82.3344183 27.8406626,82.5875538 C28.4334479,82.8423119 29.1250307,82.7157442 29.5931043,82.2711345 C30.8645153,81.0622504 32.5440736,80.322316 34.4163681,80.322316 C36.3599264,80.322316 38.1042699,81.1060623 39.3805399,82.3814756 C40.6519509,83.6585115 41.4342331,85.4061198 41.4358528,87.3533157 C41.4374724,90.4444891 39.4275092,93.0407502 36.6368834,93.9835176 C36.1914847,94.1344253 35.8367853,94.4654485 35.6570061,94.8986996 C35.477227,95.3319507 35.4918037,95.817127 35.6991166,96.2390194 C36.7713129,98.4231241 37.386773,100.857119 37.386773,103.445267 C37.3851534,107.967629 35.5614479,112.048627 32.6023804,115.014856 C29.6416933,117.977839 25.5699387,119.804957 21.0544049,119.80658 C16.5404908,119.804957 12.4671166,117.977839 9.50642945,115.014856 C6.5489816,112.048627 4.72527607,107.967629 4.72365644,103.445267 L4.72365644,103.445267 Z M89.3704785,121.213429 L83.3907975,124.638871 L66.2599509,124.638871 L89.3753374,109.76554 L89.3704785,121.213429 Z M93.9378405,122.334689 L93.9378405,124.638871 L92.6081227,124.638871 L92.6081227,123.097341 L93.9378405,122.334689 Z M104.781276,124.638871 L103.27016,124.638871 L104.778037,123.715576 C104.776417,123.817803 104.773178,123.923277 104.773178,124.014146 C104.773178,124.259168 104.778037,124.45551 104.781276,124.638871 L104.781276,124.638871 Z M107.903926,113.999068 C108.213276,113.823821 108.571215,113.739442 108.836834,113.715102 L109.599681,113.74431 L109.661227,113.745933 L118.05092,113.745933 L122.854748,119.287328 L122.840172,123.808067 L122.838552,124.051467 C122.836933,124.277017 122.843411,124.470114 122.853129,124.638871 L108.02054,124.638871 C108.017301,124.421434 108.012442,124.220224 108.012442,124.014146 C108.012442,123.793464 108.01892,123.546819 108.038356,123.217418 L108.041595,123.118436 L108.041595,120.809386 C108.041595,120.225227 107.724147,119.681635 107.215583,119.394424 C106.705399,119.108835 106.076982,119.120193 105.578135,119.425254 L97.2111166,124.539889 C97.1981595,124.548002 97.191681,124.562606 97.1771043,124.570719 L97.1771043,120.462136 L107.903926,113.999068 Z M110.577939,101.754452 C110.581178,99.3561555 112.519877,97.4154503 114.913693,97.4105823 C117.307509,97.4154503 119.244589,99.3561555 119.249448,101.754452 C119.249448,101.968643 119.231632,102.177967 119.200859,102.382422 C119.15389,102.3808 119.105301,102.367818 119.056712,102.367818 C117.910012,102.366196 116.742258,102.766994 115.80773,103.58157 C115.038405,104.250108 114.546037,105.11661 114.298233,106.035037 C112.19919,105.731599 110.581178,103.941802 110.577939,101.754452 L110.577939,101.754452 Z M133.461718,121.315657 C133.741914,121.640189 133.877963,122.032874 133.879583,122.441785 C133.877963,122.935075 133.678748,123.408892 133.291656,123.746406 C132.96611,124.02875 132.57254,124.163431 132.166012,124.165053 C131.673644,124.163431 131.200712,123.965466 130.863828,123.576027 L125.587067,117.489417 L125.553055,117.450473 L117.761006,108.462541 C117.48081,108.138009 117.344761,107.745324 117.343141,107.336413 C117.34638,106.843124 117.543975,106.369306 117.932687,106.031792 C118.256613,105.749449 118.648564,105.613145 119.056712,105.613145 C119.54908,105.614768 120.022012,105.812732 120.360515,106.202172 L133.461718,121.315657 Z M126.10211,124.638871 C126.089153,124.513926 126.077816,124.354905 126.077816,124.051467 L126.079436,123.848634 L126.079436,123.819426 L126.082675,123.009717 L127.493374,124.638871 L126.10211,124.638871 Z M202.321988,139.06597 L179.561301,124.882271 C179.307018,124.724872 179.005767,124.638871 178.706135,124.638871 L136.592466,124.638871 C136.932589,123.945994 137.118847,123.196323 137.118847,122.441785 C137.120466,121.292939 136.718798,120.122999 135.907362,119.186723 L122.80616,104.07486 C122.636098,103.878518 122.441742,103.722742 122.250626,103.560476 C122.393153,102.97794 122.488712,102.377554 122.488712,101.754452 C122.487092,97.5631126 119.097202,94.1668785 114.913693,94.1652559 C110.728564,94.1668785 107.338675,97.5631126 107.338675,101.754452 C107.338675,105.814355 110.52611,109.098625 114.528221,109.304704 C114.70962,109.726596 114.946086,110.130639 115.250577,110.500606 L109.692,110.500606 L108.827117,110.468153 L108.650577,110.471399 C107.97519,110.521701 107.147558,110.701817 106.306969,111.175634 L106.269718,111.198352 L97.1771043,116.67484 L97.1771043,115.547089 C97.1771043,114.651379 96.4531288,113.924426 95.5574724,113.924426 C94.6634356,113.924426 93.9378405,114.651379 93.9378405,115.547089 L93.9378405,118.596073 L92.6097423,119.357102 L92.6146012,106.796066 C92.6162209,106.200549 92.2939141,105.656957 91.7723926,105.371368 C91.2508712,105.085779 90.6208344,105.108497 90.1203681,105.429784 L60.2413988,124.653475 C57.3940859,124.75408 41.7419632,125.406391 28.4771779,128.289863 C28.1597301,128.359638 27.8390429,128.440771 27.5199755,128.513791 L27.5329325,122.143215 C27.5329325,122.071818 27.5021595,122.011779 27.4940613,121.943627 C35.133865,119.272724 40.6244172,112.011306 40.6260368,103.445267 C40.6260368,100.938252 40.1239509,98.5545599 39.265546,96.3574739 C42.4707975,94.6325829 44.6734969,91.268802 44.6751166,87.3533157 C44.6734969,81.6772397 40.0834601,77.0769895 34.4163681,77.0769895 C32.7173742,77.0753669 31.1171779,77.498882 29.7097178,78.2355711 C28.4302086,73.3692041 24.0215706,69.7750051 18.7610061,69.7750051 C12.4978896,69.7750051 7.42358282,74.8588089 7.42358282,81.1336476 C7.42196319,83.5676424 8.1993865,85.8263896 9.50319018,87.6762257 C4.6604908,91.2379714 1.48439264,96.9578592 1.48439264,103.445267 C1.48601227,111.920437 6.86157055,119.116948 14.3750429,121.854381 L14.4090552,132.43739 C6.81946012,135.139125 0.975828221,137.844104 0.940196319,137.857086 C0.368466258,138.12158 -0.000809815951,138.699248 -0.000809815951,139.330464 L-0.000809815951,166.583092 C-0.000809815951,167.009853 0.172490798,167.4285 0.473742331,167.730315 C0.776613497,168.032131 1.1928589,168.205756 1.61882209,168.205756 L25.2152393,168.205756 C25.7238037,177.553918 33.426773,184.982471 42.8838037,184.984093 C52.342454,184.982471 60.0454233,177.553918 60.5539877,168.205756 L125.13519,168.205756 L125.13519,168.205756 L125.13681,168.205756 L146.788049,168.205756 C147.296613,177.553918 154.999583,184.982471 164.458233,184.984093 C173.916883,184.982471 181.618233,177.553918 182.126798,168.205756 L201.466822,168.205756 C201.892785,168.205756 202.31065,168.032131 202.611902,167.730315 C202.913153,167.4285 203.086454,167.009853 203.086454,166.583092 L203.086454,140.443611 C203.086454,139.883792 202.79492,139.359672 202.321988,139.06597 L202.321988,139.06597 Z" id="Fill-1" fill="#FD9348" sketch:type="MSShapeGroup" mask="url(#mask-2)"></path>
            </g>
            <g id="Group-6">
                <mask id="mask-4" sketch:name="Clip 5" fill="white">
                    <use xlink:href="#path-3"></use>
                </mask>
                <g id="Clip-5"></g>
                <path d="M221.404815,157.406283 C221.404815,157.570172 221.341649,157.712966 221.226655,157.829798 C221.110042,157.945007 220.967514,158.008291 220.803931,158.008291 L215.53041,158.008291 C215.366827,158.008291 215.22268,157.945007 215.107686,157.829798 C214.992692,157.712966 214.929526,157.570172 214.929526,157.406283 L214.863121,118.929693 C215.224299,118.944297 215.580618,118.984863 215.946655,118.984863 C217.81895,118.984863 219.639416,118.780408 221.404815,118.421799 L221.404815,157.406283 Z M191.891882,91.6397428 C191.891882,87.5701035 192.905772,83.7503543 194.680888,80.3881961 C194.897919,79.9776623 194.928692,79.4908633 194.766729,79.0576123 C194.603146,78.6227385 194.259784,78.2787339 193.827342,78.1132223 C188.641281,76.1254598 184.95014,71.1114305 184.95176,65.221163 C184.953379,61.4014138 186.492029,57.9597451 188.989502,55.4543531 C191.490213,52.9538291 194.925453,51.4106764 198.738066,51.4106764 C200.472692,51.4106764 202.124717,51.744945 203.664987,52.3355944 C204.139539,52.5189554 204.667539,52.4686528 205.098361,52.1992907 C205.530802,51.9315513 205.809379,51.4804509 205.857968,50.9725573 C205.950287,49.9859781 206.138164,49.0172481 206.392447,48.0517635 C206.577085,47.345905 206.269355,46.6027253 205.639318,46.2360034 C201.402361,43.7646873 198.551809,39.193645 198.553428,33.9362162 C198.553428,30.0028806 200.140667,26.4557388 202.712643,23.8757043 C205.287858,21.2989151 208.828373,19.7087051 212.754361,19.7087051 C213.973944,19.7087051 215.159514,19.8790848 216.314312,20.1792775 C216.772667,20.2977319 217.269894,20.2068628 217.656987,19.93101 C218.044079,19.6551573 218.293502,19.2170382 218.332373,18.7432205 C219.056348,10.0992936 226.281526,3.29871205 235.098802,3.30195738 C239.753625,3.30195738 243.95333,5.18749203 247.004717,8.24296687 C250.054483,11.3000644 251.936496,15.5076301 251.936496,20.1711642 C251.939735,28.6430888 245.691195,35.6383899 237.568741,36.8375381 C236.95976,36.9284072 236.451195,37.3584129 236.263318,37.945817 C236.073821,38.5315984 236.235784,39.1790411 236.676324,39.6074242 C240.095367,42.9338838 242.221944,47.5617192 242.221944,52.7071843 C242.221944,54.0004469 242.084275,55.2612562 241.826753,56.4847443 C241.648594,57.3317745 242.171735,58.1739367 243.009085,58.3897509 C250.690999,60.3694 256.380766,67.3354932 256.377526,75.6500195 C256.377526,81.7074213 253.366631,87.0394926 248.757158,90.2637244 C246.539882,91.8149905 243.956569,92.8713442 241.161085,93.2802553 C240.438729,93.3857284 239.878336,93.9585286 239.787637,94.6822364 C238.292717,106.550395 228.199171,115.742782 215.946655,115.739537 C209.298066,115.737914 203.29571,113.044293 198.937281,108.680952 C194.580471,104.314365 191.891882,98.2991527 191.891882,91.6397428 L191.891882,91.6397428 Z M242.800152,96.2481064 C245.652324,95.6623249 248.30852,94.5361967 250.611637,92.9265148 C256.050361,89.1262375 259.61841,82.8043416 259.61679,75.6500195 C259.615171,66.3375553 253.585281,58.4676387 245.2296,55.6750353 C245.365649,54.7030601 245.461207,53.7181035 245.461207,52.7071843 C245.462827,47.6817963 243.712005,43.0701875 240.825821,39.4110819 C249.118336,36.9413885 255.17252,29.2840408 255.17576,20.1711642 C255.17576,9.06078913 246.188422,0.0566309462 235.098802,0.0566309462 C225.197993,0.0582536094 216.989698,7.23691567 215.340913,16.6840609 C214.498704,16.5526252 213.641919,16.4633787 212.754361,16.4633787 C203.12079,16.4633787 195.314164,24.2862381 195.314164,33.9362162 C195.314164,39.9546741 198.383367,45.2267069 203.002557,48.3633149 C202.978263,48.4817693 202.94749,48.5953557 202.924815,48.7121875 C201.586999,48.3681829 200.187637,48.1637273 198.738066,48.16535 C189.334483,48.16535 181.714115,55.7999804 181.712496,65.221163 C181.714115,71.8708369 185.52349,77.6101967 191.06425,80.4190267 C189.520741,83.8428461 188.650999,87.639878 188.652618,91.6397428 C188.652618,105.265246 198.608496,116.528151 211.622238,118.608405 L211.690263,157.409528 C211.696741,159.533594 213.407072,161.247127 215.53041,161.253617 L220.803931,161.253617 C222.927269,161.247127 224.6376,159.533594 224.644079,157.406283 L224.644079,117.534202 C234.026606,114.366764 241.102778,106.238844 242.800152,96.2481064 L242.800152,96.2481064 Z" id="Fill-4" fill="#FD9348" sketch:type="MSShapeGroup" mask="url(#mask-4)"></path>
            </g>
            <path d="M161.990076,97.4876588 C161.986837,96.1619429 160.91626,95.0893626 159.593021,95.0861172 L159.589782,95.0861172 C158.264923,95.0893626 157.194346,96.1619429 157.192726,97.4876588 L157.192726,97.4925268 C157.194346,98.8182426 158.264923,99.890823 159.589782,99.8924457 L159.593021,99.8924457 C160.91626,99.890823 161.986837,98.8182426 161.990076,97.4925268 L161.990076,97.4876588 Z" id="Fill-7" fill="#FD9348" sketch:type="MSShapeGroup"></path>
            <path d="M171.403539,97.4876588 C171.400299,96.1619429 170.329723,95.0893626 169.006483,95.0861172 L169.003244,95.0861172 C167.678385,95.0893626 166.607809,96.1619429 166.606189,97.4876588 L166.606189,97.4925268 C166.607809,98.8182426 167.678385,99.890823 169.003244,99.8924457 L169.006483,99.8924457 C170.329723,99.890823 171.400299,98.8182426 171.403539,97.4925268 L171.403539,97.4876588 Z" id="Fill-9" fill="#FD9348" sketch:type="MSShapeGroup"></path>
            <path d="M161.990076,105.387757 C161.986837,104.062041 160.91626,102.989461 159.593021,102.986215 L159.589782,102.986215 C158.264923,102.989461 157.194346,104.062041 157.192726,105.387757 L157.192726,105.392625 C157.194346,106.718341 158.264923,107.790921 159.589782,107.792544 L159.593021,107.792544 C160.91626,107.790921 161.986837,106.718341 161.990076,105.392625 L161.990076,105.387757 Z" id="Fill-11" fill="#FD9348" sketch:type="MSShapeGroup"></path>
            <path d="M171.403539,105.387757 C171.400299,104.062041 170.329723,102.989461 169.006483,102.986215 L169.003244,102.986215 C167.678385,102.989461 166.607809,104.062041 166.606189,105.387757 L166.606189,105.392625 C166.607809,106.718341 167.678385,107.790921 169.003244,107.792544 L169.006483,107.792544 C170.329723,107.790921 171.400299,106.718341 171.403539,105.392625 L171.403539,105.387757 Z" id="Fill-13" fill="#FD9348" sketch:type="MSShapeGroup"></path>
            <path d="M159.593021,111.376196 L159.588162,111.376196 C158.264923,111.379441 157.194346,112.452021 157.192726,113.777737 L157.192726,113.782605 C157.194346,115.108321 158.264923,116.180901 159.588162,116.182524 L159.593021,116.182524 C160.91626,116.180901 161.986837,115.108321 161.990076,113.782605 L161.990076,113.777737 C161.986837,112.452021 160.91626,111.379441 159.593021,111.376196" id="Fill-15" fill="#FD9348" sketch:type="MSShapeGroup"></path>
            <path d="M169.006645,111.376196 L169.001787,111.376196 C167.678547,111.379441 166.607971,112.452021 166.606351,113.777737 L166.606351,113.782605 C166.607971,115.108321 167.678547,116.180901 169.001787,116.182524 L169.006645,116.182524 C170.329885,116.180901 171.400461,115.108321 171.403701,113.782605 L171.403701,113.777737 C171.400461,112.452021 170.329885,111.379441 169.006645,111.376196" id="Fill-17" fill="#FD9348" sketch:type="MSShapeGroup"></path>
            <path d="M177.437963,107.793355 L177.442822,107.793355 C178.766061,107.79011 179.836638,106.717529 179.838258,105.391814 L179.838258,105.388568 C179.836638,104.06123 178.766061,102.988649 177.442822,102.987027 L177.437963,102.987027 C176.114724,102.988649 175.044147,104.06123 175.040908,105.388568 L175.040908,105.391814 C175.044147,106.717529 176.114724,107.79011 177.437963,107.793355" id="Fill-19" fill="#FD9348" sketch:type="MSShapeGroup"></path>
            <path d="M177.437963,116.183335 L177.442822,116.183335 C178.766061,116.18009 179.836638,115.10751 179.838258,113.781794 L179.838258,113.778548 C179.836638,112.45121 178.766061,111.37863 177.442822,111.377007 L177.437963,111.377007 C176.114724,111.37863 175.044147,112.45121 175.040908,113.778548 L175.040908,113.781794 C175.044147,115.10751 176.114724,116.18009 177.437963,116.183335" id="Fill-21" fill="#FD9348" sketch:type="MSShapeGroup"></path>
            <path d="M159.161065,83.2663138 L159.165924,83.2663138 C160.489163,83.2630685 161.55974,82.1904881 161.56136,80.8647723 L161.56136,80.8615269 C161.55974,79.5341884 160.489163,78.4616081 159.165924,78.4599854 L159.161065,78.4599854 C157.837826,78.4616081 156.767249,79.5341884 156.76401,80.8615269 L156.76401,80.8647723 C156.767249,82.1904881 157.837826,83.2630685 159.161065,83.2663138" id="Fill-23" fill="#FD9348" sketch:type="MSShapeGroup"></path>
            <path d="M168.574528,83.2663138 L168.579387,83.2663138 C169.902626,83.2630685 170.973202,82.1904881 170.974822,80.8647723 L170.974822,80.8615269 C170.973202,79.5341884 169.902626,78.4616081 168.579387,78.4599854 L168.574528,78.4599854 C167.251288,78.4616081 166.180712,79.5341884 166.177472,80.8615269 L166.177472,80.8647723 C166.180712,82.1904881 167.251288,83.2630685 168.574528,83.2663138" id="Fill-25" fill="#FD9348" sketch:type="MSShapeGroup"></path>
            <path d="M177.988152,83.2663138 L177.993011,83.2663138 C179.31625,83.2630685 180.386827,82.1904881 180.388447,80.8647723 L180.388447,80.8615269 C180.386827,79.5341884 179.31625,78.4616081 177.993011,78.4599854 L177.988152,78.4599854 C176.664913,78.4616081 175.594336,79.5341884 175.591097,80.8615269 L175.591097,80.8647723 C175.594336,82.1904881 176.664913,83.2630685 177.988152,83.2663138" id="Fill-27" fill="#FD9348" sketch:type="MSShapeGroup"></path>
            <path d="M159.161065,91.656294 L159.165924,91.656294 C160.489163,91.6530487 161.55974,90.5804683 161.56136,89.2547524 L161.56136,89.2515071 C161.55974,87.9241686 160.489163,86.8515882 159.165924,86.8499655 L159.161065,86.8499655 C157.837826,86.8515882 156.767249,87.9241686 156.76401,89.2515071 L156.76401,89.2547524 C156.767249,90.5804683 157.837826,91.6530487 159.161065,91.656294" id="Fill-29" fill="#FD9348" sketch:type="MSShapeGroup"></path>
            <path d="M168.574528,91.656294 L168.579387,91.656294 C169.902626,91.6530487 170.973202,90.5804683 170.974822,89.2547524 L170.974822,89.2515071 C170.973202,87.9241686 169.902626,86.8515882 168.579387,86.8499655 L168.574528,86.8499655 C167.251288,86.8515882 166.180712,87.9241686 166.177472,89.2515071 L166.177472,89.2547524 C166.180712,90.5804683 167.251288,91.6530487 168.574528,91.656294" id="Fill-31" fill="#FD9348" sketch:type="MSShapeGroup"></path>
            <path d="M177.988152,91.656294 L177.993011,91.656294 C179.31625,91.6530487 180.386827,90.5804683 180.388447,89.2547524 L180.388447,89.2515071 C180.386827,87.9241686 179.31625,86.8515882 177.993011,86.8499655 L177.988152,86.8499655 C176.664913,86.8515882 175.594336,87.9241686 175.591097,89.2515071 L175.591097,89.2547524 C175.594336,90.5804683 176.664913,91.6530487 177.988152,91.656294" id="Fill-33" fill="#FD9348" sketch:type="MSShapeGroup"></path>
            <path d="M233.822209,139.792598 L233.81735,139.792598 C232.49411,139.795844 231.423534,140.868424 231.420294,142.19414 L231.420294,142.199008 C231.423534,143.524724 232.49411,144.597304 233.81735,144.600549 L233.822209,144.600549 C235.145448,144.597304 236.216025,143.524724 236.219264,142.199008 L236.219264,142.19414 C236.216025,140.868424 235.145448,139.795844 233.822209,139.792598" id="Fill-35" fill="#FD9348" sketch:type="MSShapeGroup"></path>
            <path d="M243.235671,139.792598 L243.230812,139.792598 C241.907573,139.795844 240.836996,140.868424 240.833757,142.19414 L240.833757,142.199008 C240.836996,143.524724 241.907573,144.597304 243.230812,144.600549 L243.235671,144.600549 C244.55891,144.597304 245.629487,143.524724 245.632726,142.199008 L245.632726,142.19414 C245.629487,140.868424 244.55891,139.795844 243.235671,139.792598" id="Fill-37" fill="#FD9348" sketch:type="MSShapeGroup"></path>
            <path d="M233.822209,147.692859 L233.81735,147.692859 C232.49411,147.696104 231.423534,148.768684 231.420294,150.0944 L231.420294,150.097646 C231.423534,151.424984 232.49411,152.497564 233.81735,152.499187 L233.822209,152.499187 C235.145448,152.497564 236.216025,151.424984 236.219264,150.097646 L236.219264,150.0944 C236.216025,148.768684 235.145448,147.696104 233.822209,147.692859" id="Fill-39" fill="#FD9348" sketch:type="MSShapeGroup"></path>
            <path d="M243.235671,147.692859 L243.230812,147.692859 C241.907573,147.696104 240.836996,148.768684 240.833757,150.0944 L240.833757,150.097646 C240.836996,151.424984 241.907573,152.497564 243.230812,152.499187 L243.235671,152.499187 C244.55891,152.497564 245.629487,151.424984 245.632726,150.097646 L245.632726,150.0944 C245.629487,148.768684 244.55891,147.696104 243.235671,147.692859" id="Fill-41" fill="#FD9348" sketch:type="MSShapeGroup"></path>
            <path d="M233.822209,156.082839 L233.81735,156.082839 C232.49411,156.086084 231.423534,157.158665 231.420294,158.48438 L231.420294,158.489248 C231.423534,159.814964 232.49411,160.887545 233.81735,160.89079 L233.822209,160.89079 C235.145448,160.887545 236.216025,159.814964 236.219264,158.489248 L236.219264,158.48438 C236.216025,157.158665 235.145448,156.086084 233.822209,156.082839" id="Fill-43" fill="#FD9348" sketch:type="MSShapeGroup"></path>
            <path d="M243.235671,156.082839 L243.230812,156.082839 C241.907573,156.086084 240.836996,157.158665 240.833757,158.48438 L240.833757,158.489248 C240.836996,159.814964 241.907573,160.887545 243.230812,160.89079 L243.235671,160.89079 C244.55891,160.887545 245.629487,159.814964 245.632726,158.489248 L245.632726,158.48438 C245.629487,157.158665 244.55891,156.086084 243.235671,156.082839" id="Fill-45" fill="#FD9348" sketch:type="MSShapeGroup"></path>
            <path d="M251.6712,147.692859 L251.666341,147.692859 C250.343102,147.696104 249.272525,148.768684 249.269286,150.0944 L249.269286,150.097646 C249.272525,151.424984 250.343102,152.497564 251.666341,152.499187 L251.6712,152.499187 C252.994439,152.497564 254.065016,151.424984 254.068255,150.097646 L254.068255,150.0944 C254.065016,148.768684 252.994439,147.696104 251.6712,147.692859" id="Fill-47" fill="#FD9348" sketch:type="MSShapeGroup"></path>
            <path d="M251.6712,156.082839 L251.666341,156.082839 C250.343102,156.086084 249.272525,157.158665 249.269286,158.48438 L249.269286,158.489248 C249.272525,159.814964 250.343102,160.887545 251.666341,160.89079 L251.6712,160.89079 C252.994439,160.887545 254.065016,159.814964 254.068255,158.489248 L254.068255,158.48438 C254.065016,157.158665 252.994439,156.086084 251.6712,156.082839" id="Fill-49" fill="#FD9348" sketch:type="MSShapeGroup"></path>
            <path d="M233.394302,123.165655 L233.389443,123.165655 C232.066204,123.1689 230.995627,124.241481 230.992388,125.567197 L230.992388,125.572065 C230.995627,126.897781 232.066204,127.970361 233.389443,127.971984 L233.394302,127.971984 C234.717541,127.970361 235.788118,126.897781 235.791357,125.572065 L235.791357,125.567197 C235.788118,124.241481 234.717541,123.1689 233.394302,123.165655" id="Fill-51" fill="#FD9348" sketch:type="MSShapeGroup"></path>
            <path d="M242.807926,123.165655 L242.803067,123.165655 C241.479828,123.1689 240.409252,124.241481 240.406012,125.567197 L240.406012,125.572065 C240.409252,126.897781 241.479828,127.970361 242.803067,127.971984 L242.807926,127.971984 C244.131166,127.970361 245.201742,126.897781 245.204982,125.572065 L245.204982,125.567197 C245.201742,124.241481 244.131166,123.1689 242.807926,123.165655" id="Fill-53" fill="#FD9348" sketch:type="MSShapeGroup"></path>
            <path d="M252.221389,123.165655 L252.21653,123.165655 C250.893291,123.1689 249.822714,124.241481 249.819475,125.567197 L249.819475,125.572065 C249.822714,126.897781 250.893291,127.970361 252.21653,127.971984 L252.221389,127.971984 C253.544628,127.970361 254.615205,126.897781 254.618444,125.572065 L253.808628,125.572065 L253.808628,125.567197 L254.618444,125.567197 C254.615205,124.241481 253.544628,123.1689 252.221389,123.165655" id="Fill-55" fill="#FD9348" sketch:type="MSShapeGroup"></path>
            <path d="M233.390253,136.362775 L233.395112,136.362775 C234.718351,136.35953 235.788928,135.286949 235.790547,133.961233 L235.790547,133.957988 C235.788928,132.63065 234.718351,131.558069 233.395112,131.556447 L233.390253,131.556447 C232.067013,131.558069 230.996437,132.63065 230.993198,133.957988 L230.993198,133.961233 C230.996437,135.286949 232.067013,136.35953 233.390253,136.362775" id="Fill-57" fill="#FD9348" sketch:type="MSShapeGroup"></path>
            <path d="M242.803715,136.362775 L242.808574,136.362775 C244.131813,136.35953 245.20239,135.286949 245.20401,133.961233 L245.20401,133.957988 C245.20239,132.63065 244.131813,131.558069 242.808574,131.556447 L242.803715,131.556447 C241.480476,131.558069 240.409899,132.63065 240.40666,133.957988 L240.40666,133.961233 C240.409899,135.286949 241.480476,136.35953 242.803715,136.362775" id="Fill-59" fill="#FD9348" sketch:type="MSShapeGroup"></path>
            <path d="M254.618444,133.957339 C254.615205,132.631623 253.544628,131.559043 252.221389,131.555798 L252.21653,131.555798 C250.893291,131.559043 249.822714,132.631623 249.819475,133.957339 L249.819475,133.962207 C249.822714,135.287923 250.893291,136.360503 252.21653,136.362126 L252.221389,136.362126 C253.544628,136.360503 254.615205,135.287923 254.618444,133.962207 L253.808628,133.962207 L253.808628,133.957339 L254.618444,133.957339 Z" id="Fill-61" fill="#FD9348" sketch:type="MSShapeGroup"></path>
            <path d="M245.20482,117.454043 C245.20158,116.128327 244.131004,115.055747 242.807764,115.052501 L242.804525,115.052501 C241.479666,115.055747 240.40909,116.128327 240.40747,117.454043 L241.217286,117.454043 L241.217286,117.458911 L240.40747,117.458911 C240.40909,118.784627 241.479666,119.857207 242.804525,119.85883 L242.807764,119.85883 C244.131004,119.857207 245.20158,118.784627 245.20482,117.458911 L245.20482,117.454043 Z" id="Fill-63" fill="#FD9348" sketch:type="MSShapeGroup"></path>
            <path d="M252.221389,115.052339 L252.21653,115.052339 C250.893291,115.055584 249.822714,116.128165 249.819475,117.453881 L249.819475,117.458749 C249.822714,118.784464 250.893291,119.857045 252.21653,119.858667 L252.221389,119.858667 C253.544628,119.857045 254.615205,118.784464 254.618444,117.458749 L253.808628,117.458749 L253.808628,117.453881 L254.618444,117.453881 C254.615205,116.128165 253.544628,115.055584 252.221389,115.052339" id="Fill-65" fill="#FD9348" sketch:type="MSShapeGroup"></path>
            <g id="Group-69">
                <mask id="mask-6" sketch:name="Clip 68" fill="white">
                    <use xlink:href="#path-5"></use>
                </mask>
                <g id="Clip-68"></g>
                <path d="M258.998091,125.841914 C259.00133,127.167629 260.071907,128.24021 261.395146,128.243455 L261.400005,128.243455 C262.723244,128.24021 263.793821,127.167629 263.79706,125.841914 L262.987244,125.841914 L262.987244,125.837046 L263.79706,125.837046 C263.793821,124.51133 262.723244,123.438749 261.400005,123.435504 L261.395146,123.435504 C260.071907,123.438749 259.00133,124.51133 258.998091,125.837046 L258.998091,125.841914 Z" id="Fill-67" fill="#FD9348" sketch:type="MSShapeGroup" mask="url(#mask-6)"></path>
            </g>
            <g id="Group-72">
                <mask id="mask-8" sketch:name="Clip 71" fill="white">
                    <use xlink:href="#path-7"></use>
                </mask>
                <g id="Clip-71"></g>
                <path d="M263.796412,134.227675 C263.793173,132.901959 262.722596,131.829379 261.399357,131.826133 L261.394498,131.826133 C260.071259,131.829379 259.000682,132.901959 258.997443,134.227675 L258.997443,134.232543 C259.000682,135.558259 260.071259,136.630839 261.394498,136.632462 L261.399357,136.632462 C262.722596,136.630839 263.793173,135.558259 263.796412,134.232543 L262.986596,134.232543 L262.986596,134.227675 L263.796412,134.227675 Z" id="Fill-70" fill="#FD9348" sketch:type="MSShapeGroup" mask="url(#mask-8)"></path>
            </g>
            <path d="M185.854866,116.260412 C187.178106,116.257166 188.248682,115.184586 188.251921,113.85887 L188.251921,113.855625 C188.248682,112.528286 187.178106,111.455706 185.854866,111.454083 L185.850007,111.454083 C184.526768,111.455706 183.456191,112.528286 183.452952,113.855625 L183.452952,113.85887 C183.456191,115.184586 184.526768,116.257166 185.850007,116.260412 L185.854866,116.260412 Z" id="Fill-73" fill="#FD9348" sketch:type="MSShapeGroup"></path>
            <path d="M140.43067,83.3932061 L140.435529,83.3932061 C141.758768,83.3899608 142.829345,82.3173804 142.830964,80.9916645 L142.830964,80.9884192 C142.829345,79.6610807 141.758768,78.5885003 140.435529,78.5868777 L140.43067,78.5868777 C139.107431,78.5885003 138.036854,79.6610807 138.033615,80.9884192 L138.033615,80.9916645 C138.036854,82.3173804 139.107431,83.3899608 140.43067,83.3932061" id="Fill-75" fill="#FD9348" sketch:type="MSShapeGroup"></path>
            <path d="M149.844294,83.3932061 L149.849153,83.3932061 C151.172393,83.3899608 152.242969,82.3173804 152.244589,80.9916645 L152.244589,80.9884192 C152.242969,79.6610807 151.172393,78.5885003 149.849153,78.5868777 L149.844294,78.5868777 C148.521055,78.5885003 147.450479,79.6610807 147.447239,80.9884192 L147.447239,80.9916645 C147.450479,82.3173804 148.521055,83.3899608 149.844294,83.3932061" id="Fill-77" fill="#FD9348" sketch:type="MSShapeGroup"></path>
            <path d="M159.161065,75.4234957 L159.165924,75.4234957 C160.489163,75.4202504 161.55974,74.34767 161.56136,73.0219542 L161.56136,73.0187088 C161.55974,71.6913703 160.489163,70.6187899 159.165924,70.6155446 L159.161065,70.6155446 C157.837826,70.6187899 156.767249,71.6913703 156.76401,73.0187088 L156.76401,73.0219542 C156.767249,74.34767 157.837826,75.4202504 159.161065,75.4234957" id="Fill-79" fill="#FD9348" sketch:type="MSShapeGroup"></path>
            <path d="M149.844294,75.5502257 L149.849153,75.5502257 C151.172393,75.5469804 152.242969,74.4744 152.244589,73.1486842 L152.244589,73.1454388 C152.242969,71.8181003 151.172393,70.7455199 149.849153,70.7438973 L149.844294,70.7438973 C148.521055,70.7455199 147.450479,71.8181003 147.447239,73.1454388 L147.447239,73.1486842 C147.450479,74.4744 148.521055,75.5469804 149.844294,75.5502257" id="Fill-81" fill="#FD9348" sketch:type="MSShapeGroup"></path>
            <path d="M140.43067,91.7831863 L140.435529,91.7831863 C141.758768,91.7799409 142.829345,90.7073605 142.830964,89.3816447 L142.830964,89.3783994 C142.829345,88.0510609 141.758768,86.9784805 140.435529,86.9768578 L140.43067,86.9768578 C139.107431,86.9784805 138.036854,88.0510609 138.033615,89.3783994 L138.033615,89.3816447 C138.036854,90.7073605 139.107431,91.7799409 140.43067,91.7831863" id="Fill-83" fill="#FD9348" sketch:type="MSShapeGroup"></path>
            <path d="M149.844294,91.7831863 L149.849153,91.7831863 C151.172393,91.7799409 152.242969,90.7073605 152.244589,89.3816447 L152.244589,89.3783994 C152.242969,88.0510609 151.172393,86.9784805 149.849153,86.9768578 L149.844294,86.9768578 C148.521055,86.9784805 147.450479,88.0510609 147.447239,89.3783994 L147.447239,89.3816447 C147.450479,90.7073605 148.521055,91.7799409 149.844294,91.7831863" id="Fill-85" fill="#FD9348" sketch:type="MSShapeGroup"></path>
        </g>
    </g>
</svg>