<?xml version="1.0" encoding="UTF-8" standalone="no"?>
<svg width="264px" height="264px" viewBox="0 0 264 264" version="1.1" xmlns="http://www.w3.org/2000/svg" xmlns:xlink="http://www.w3.org/1999/xlink" xmlns:sketch="http://www.bohemiancoding.com/sketch/ns">
    <!-- Generator: Sketch Beta 3.4 (14672) - http://www.bohemiancoding.com/sketch -->
    <title>Slice 1</title>
    <desc>Created with Sketch Beta.</desc>
    <defs>
        <path id="path-1" d="M0,0.917531034 L227.094561,0.917531034 L227.094561,238 L0,238 L0,0.917531034 Z"></path>
    </defs>
    <g id="Page-1" stroke="none" stroke-width="1" fill="none" fill-rule="evenodd" sketch:type="MSPage">
        <rect id="Rectangle-112-Copy" fill="#FFFFFF" sketch:type="MSShapeGroup" x="0" y="0" width="264" height="264"></rect>
        <g id="Иконка_1" sketch:type="MSLayerGroup" transform="translate(17.000000, 14.000000)">
            <path d="M101.497235,187.404811 L101.492314,187.404811 C100.152199,187.408094 99.0679683,188.493046 99.0646878,189.834052 L99.0646878,189.838977 C99.0663281,191.179983 100.152199,192.266577 101.492314,192.268218 L101.497235,192.268218 C102.83735,192.264935 103.92158,191.179983 103.92486,189.838977 L103.92486,189.834052 C103.92158,188.493046 102.83735,187.408094 101.497235,187.404811" id="Fill-1" fill="#FD9348" sketch:type="MSShapeGroup"></path>
            <path d="M111.030751,187.404811 L111.02583,187.404811 C109.685715,187.404811 108.599845,188.491404 108.598204,189.834052 L108.598204,189.838977 C108.599845,191.179983 109.685715,192.266577 111.02583,192.268218 L111.030751,192.268218 C112.372506,192.266577 113.458377,191.179983 113.458377,189.838977 L113.458377,189.834052 C113.458377,188.491404 112.372506,187.404811 111.030751,187.404811" id="Fill-3" fill="#FD9348" sketch:type="MSShapeGroup"></path>
            <path d="M120.564268,187.404811 L120.559347,187.404811 C119.219232,187.408094 118.135001,188.493046 118.133361,189.834052 L118.133361,189.838977 C118.133361,191.179983 119.219232,192.266577 120.559347,192.268218 L120.564268,192.268218 C121.904383,192.264935 122.988613,191.179983 122.991894,189.838977 L122.991894,189.834052 C122.988613,188.493046 121.904383,187.408094 120.564268,187.404811" id="Fill-5" fill="#FD9348" sketch:type="MSShapeGroup"></path>
            <path d="M101.497235,195.39603 L101.492314,195.39603 C100.152199,195.399313 99.0679683,196.484265 99.0646878,197.825272 L99.0646878,197.830196 C99.0663281,199.171203 100.152199,200.257796 101.492314,200.259437 L101.497235,200.259437 C102.83735,200.256154 103.92158,199.171203 103.92486,197.830196 L103.92486,197.825272 C103.92158,196.484265 102.83735,195.399313 101.497235,195.39603" id="Fill-7" fill="#FD9348" sketch:type="MSShapeGroup"></path>
            <path d="M111.030751,195.39603 L111.02583,195.39603 C109.685715,195.399313 108.601485,196.484265 108.598204,197.825272 L108.598204,197.830196 C108.599845,199.171203 109.685715,200.257796 111.02583,200.259437 L111.030751,200.259437 C112.370866,200.256154 113.455096,199.171203 113.458377,197.830196 L113.458377,197.825272 C113.455096,196.484265 112.370866,195.399313 111.030751,195.39603" id="Fill-9" fill="#FD9348" sketch:type="MSShapeGroup"></path>
            <path d="M120.564268,195.39603 L120.559347,195.39603 C119.219232,195.399313 118.135001,196.484265 118.133361,197.825272 L118.133361,197.830196 C118.133361,199.171203 119.219232,200.257796 120.559347,200.259437 L120.564268,200.259437 C121.904383,200.256154 122.988613,199.171203 122.991894,197.830196 L122.991894,197.825272 C122.988613,196.484265 121.904383,195.399313 120.564268,195.39603" id="Fill-11" fill="#FD9348" sketch:type="MSShapeGroup"></path>
            <path d="M101.497235,203.882782 L101.492314,203.882782 C100.152199,203.886065 99.0679683,204.971017 99.0646878,206.312023 L99.0646878,206.316948 C99.0663281,207.657954 100.152199,208.744548 101.492314,208.746189 L101.497235,208.746189 C102.83735,208.742906 103.92158,207.657954 103.92486,206.316948 L103.92486,206.312023 C103.92158,204.971017 102.83735,203.886065 101.497235,203.882782" id="Fill-13" fill="#FD9348" sketch:type="MSShapeGroup"></path>
            <path d="M111.030751,203.882782 L111.02583,203.882782 C109.685715,203.886065 108.601485,204.971017 108.598204,206.312023 L108.598204,206.316948 C108.599845,207.657954 109.685715,208.744548 111.02583,208.746189 L111.030751,208.746189 C112.370866,208.742906 113.455096,207.657954 113.458377,206.316948 L113.458377,206.312023 C113.455096,204.971017 112.370866,203.886065 111.030751,203.882782" id="Fill-15" fill="#FD9348" sketch:type="MSShapeGroup"></path>
            <path d="M120.564268,203.882782 L120.559347,203.882782 C119.219232,203.882782 118.133361,204.969375 118.133361,206.312023 L118.133361,206.316948 C118.133361,207.657954 119.219232,208.744548 120.559347,208.746189 L120.564268,208.746189 C121.906023,208.744548 122.991894,207.657954 122.991894,206.316948 L122.991894,206.312023 C122.991894,204.969375 121.906023,203.882782 120.564268,203.882782" id="Fill-17" fill="#FD9348" sketch:type="MSShapeGroup"></path>
            <path d="M73.9933813,111.970301 C73.9966619,113.311308 75.0808921,114.396259 76.4210072,114.399542 L76.4259281,114.399542 C77.7660432,114.396259 78.8502734,113.311308 78.853554,111.970301 L78.853554,111.965377 C78.8502734,110.62437 77.7660432,109.539418 76.4259281,109.536135 L76.4210072,109.536135 C75.0808921,109.539418 73.9966619,110.62437 73.9933813,111.965377 L73.9933813,111.970301 Z" id="Fill-19" fill="#FD9348" sketch:type="MSShapeGroup"></path>
            <path d="M88.3862504,111.966033 C88.3829698,110.625026 87.2987396,109.540074 85.9586245,109.536792 L85.9553439,109.536792 C84.6135885,109.540074 83.5293583,110.625026 83.527718,111.966033 L83.527718,111.970957 C83.5293583,113.311964 84.6135885,114.396916 85.9553439,114.400199 L85.9586245,114.400199 C87.2987396,114.396916 88.3829698,113.311964 88.3862504,111.970957 L88.3862504,111.966033 Z" id="Fill-21" fill="#FD9348" sketch:type="MSShapeGroup"></path>
            <path d="M97.9197669,111.966033 C97.9164863,110.625026 96.8322561,109.540074 95.492141,109.536792 L95.4888604,109.536792 C94.147105,109.540074 93.0628748,110.625026 93.0612345,111.966033 L93.0612345,111.970957 C93.0628748,113.311964 94.147105,114.396916 95.4888604,114.400199 L95.492141,114.400199 C96.8322561,114.396916 97.9164863,113.311964 97.9197669,111.970957 L97.9197669,111.966033 Z" id="Fill-23" fill="#FD9348" sketch:type="MSShapeGroup"></path>
            <path d="M76.4210072,122.390597 L76.4259281,122.390597 C77.7660432,122.387314 78.8502734,121.302363 78.853554,119.961356 L78.853554,119.956432 C78.8502734,118.615425 77.7660432,117.530473 76.4259281,117.52719 L76.4210072,117.52719 C75.0808921,117.530473 73.9966619,118.615425 73.9933813,119.956432 L73.9933813,119.961356 C73.9966619,121.302363 75.0808921,122.387314 76.4210072,122.390597" id="Fill-25" fill="#FD9348" sketch:type="MSShapeGroup"></path>
            <path d="M88.3862504,119.957252 C88.3829698,118.616246 87.2987396,117.531294 85.9586245,117.528011 L85.9553439,117.528011 C84.6135885,117.531294 83.5293583,118.616246 83.527718,119.957252 L83.527718,119.962177 C83.5293583,121.303183 84.6135885,122.388135 85.9553439,122.391418 L85.9586245,122.391418 C87.2987396,122.388135 88.3829698,121.303183 88.3862504,119.962177 L88.3862504,119.957252 Z" id="Fill-27" fill="#FD9348" sketch:type="MSShapeGroup"></path>
            <path d="M97.9197669,119.957252 C97.9164863,118.616246 96.8322561,117.531294 95.492141,117.528011 L95.4888604,117.528011 C94.147105,117.531294 93.0628748,118.616246 93.0612345,119.957252 L93.0612345,119.962177 C93.0628748,121.303183 94.147105,122.388135 95.4888604,122.391418 L95.492141,122.391418 C96.8322561,122.388135 97.9164863,121.303183 97.9197669,119.962177 L97.9197669,119.957252 Z" id="Fill-29" fill="#FD9348" sketch:type="MSShapeGroup"></path>
            <path d="M73.9933813,128.448272 C73.9966619,129.789279 75.0808921,130.87423 76.4210072,130.877513 L76.4259281,130.877513 C77.7660432,130.87423 78.8502734,129.789279 78.853554,128.448272 L78.853554,128.443348 C78.8502734,127.102341 77.7660432,126.017389 76.4259281,126.014106 L76.4210072,126.014106 C75.0808921,126.017389 73.9966619,127.102341 73.9933813,128.443348 L73.9933813,128.448272 Z" id="Fill-31" fill="#FD9348" sketch:type="MSShapeGroup"></path>
            <path d="M73.9933813,137.567611 C73.9966619,138.908618 75.0808921,139.99357 76.4210072,139.996852 L76.4259281,139.996852 C77.7660432,139.99357 78.8502734,138.908618 78.853554,137.567611 L78.853554,137.562687 C78.8502734,136.22168 77.7660432,135.136728 76.4259281,135.133446 L76.4210072,135.133446 C75.0808921,135.136728 73.9966619,136.22168 73.9933813,137.562687 L73.9933813,137.567611 Z" id="Fill-33" fill="#FD9348" sketch:type="MSShapeGroup"></path>
            <path d="M85.9587885,126.014763 L85.9538676,126.014763 C84.6137525,126.018046 83.5295223,127.102997 83.5262417,128.444004 L83.5262417,128.448928 C83.5295223,129.789935 84.6137525,130.874887 85.9538676,130.87817 L85.9587885,130.87817 C87.2989036,130.874887 88.3831338,129.789935 88.3864144,128.448928 L88.3864144,128.444004 C88.3831338,127.102997 87.2989036,126.018046 85.9587885,126.014763" id="Fill-35" fill="#FD9348" sketch:type="MSShapeGroup"></path>
            <path d="M95.492305,126.014763 L95.4873842,126.014763 C94.1472691,126.018046 93.0630388,127.102997 93.0597583,128.444004 L93.0597583,128.448928 C93.0630388,129.789935 94.1472691,130.874887 95.4873842,130.87817 L95.492305,130.87817 C96.8324201,130.874887 97.9166504,129.789935 97.9199309,128.448928 L97.9199309,128.444004 C97.9166504,127.102997 96.8324201,126.018046 95.492305,126.014763" id="Fill-37" fill="#FD9348" sketch:type="MSShapeGroup"></path>
            <path d="M104.031151,122.390597 L104.036072,122.390597 C105.376187,122.387314 106.460417,121.302363 106.463698,119.961356 L106.463698,119.956432 C106.460417,118.615425 105.376187,117.530473 104.036072,117.52719 L104.031151,117.52719 C102.691036,117.530473 101.606806,118.615425 101.603525,119.956432 L101.603525,119.961356 C101.606806,121.302363 102.691036,122.387314 104.031151,122.390597" id="Fill-39" fill="#FD9348" sketch:type="MSShapeGroup"></path>
            <path d="M104.031151,130.877513 L104.036072,130.877513 C105.376187,130.87423 106.460417,129.789279 106.463698,128.448272 L106.463698,128.443348 C106.460417,127.102341 105.376187,126.017389 104.036072,126.014106 L104.031151,126.014106 C102.691036,126.017389 101.606806,127.102341 101.603525,128.443348 L101.603525,128.448272 C101.606806,129.789279 102.691036,130.87423 104.031151,130.877513" id="Fill-41" fill="#FD9348" sketch:type="MSShapeGroup"></path>
            <path d="M146.485571,119.96152 C146.488852,121.302527 147.573082,122.387479 148.913197,122.390761 L148.918118,122.390761 C150.258233,122.387479 151.342463,121.302527 151.345744,119.96152 L151.345744,119.956596 C151.342463,118.615589 150.258233,117.530637 148.918118,117.527354 L148.913197,117.527354 C147.573082,117.530637 146.488852,118.615589 146.485571,119.956596 L146.485571,119.96152 Z" id="Fill-43" fill="#FD9348" sketch:type="MSShapeGroup"></path>
            <path d="M158.450978,117.528011 L158.446058,117.528011 C157.105942,117.531294 156.021712,118.616246 156.018432,119.957252 L156.018432,119.962177 C156.021712,121.303183 157.105942,122.388135 158.446058,122.391418 L158.450978,122.391418 C159.791094,122.388135 160.875324,121.303183 160.878604,119.962177 L160.878604,119.957252 C160.875324,118.616246 159.791094,117.531294 158.450978,117.528011" id="Fill-45" fill="#FD9348" sketch:type="MSShapeGroup"></path>
            <path d="M148.913197,114.213574 L148.918118,114.213574 C150.258233,114.210291 151.342463,113.125339 151.345744,111.784332 L151.345744,111.779408 C151.342463,110.438401 150.258233,109.35345 148.918118,109.350167 L148.913197,109.350167 C147.573082,109.35345 146.488852,110.438401 146.485571,111.779408 L146.485571,111.784332 C146.488852,113.125339 147.573082,114.210291 148.913197,114.213574" id="Fill-47" fill="#FD9348" sketch:type="MSShapeGroup"></path>
            <path d="M158.450978,109.350988 L158.446058,109.350988 C157.105942,109.35427 156.021712,110.439222 156.018432,111.780229 L156.018432,111.783512 C156.021712,113.12616 157.105942,114.211112 158.446058,114.214394 L158.450978,114.214394 C159.791094,114.211112 160.875324,113.12616 160.878604,111.783512 L160.878604,111.780229 C160.875324,110.439222 159.791094,109.35427 158.450978,109.350988" id="Fill-49" fill="#FD9348" sketch:type="MSShapeGroup"></path>
            <path d="M146.485571,128.448272 C146.488852,129.789279 147.573082,130.87423 148.913197,130.877513 L148.918118,130.877513 C150.258233,130.87423 151.342463,129.789279 151.345744,128.448272 L151.345744,128.443348 C151.342463,127.102341 150.258233,126.017389 148.918118,126.014106 L148.913197,126.014106 C147.573082,126.017389 146.488852,127.102341 146.485571,128.443348 L146.485571,128.448272 Z" id="Fill-51" fill="#FD9348" sketch:type="MSShapeGroup"></path>
            <path d="M139.631465,130.877513 C140.97322,130.877513 142.059091,129.79092 142.059091,128.448272 L142.059091,128.443348 C142.059091,127.102341 140.97322,126.015748 139.631465,126.014106 L139.626544,126.014106 C138.286429,126.015748 137.200558,127.102341 137.198918,128.443348 L137.198918,128.448272 C137.200558,129.79092 138.286429,130.877513 139.626544,130.877513 L139.631465,130.877513 Z" id="Fill-53" fill="#FD9348" sketch:type="MSShapeGroup"></path>
            <path d="M158.450978,126.014763 L158.446058,126.014763 C157.105942,126.018046 156.021712,127.102997 156.018432,128.444004 L156.018432,128.448928 C156.021712,129.789935 157.105942,130.874887 158.446058,130.87817 L158.450978,130.87817 C159.791094,130.874887 160.875324,129.789935 160.878604,128.448928 L160.878604,128.444004 C160.875324,127.102997 159.791094,126.018046 158.450978,126.014763" id="Fill-55" fill="#FD9348" sketch:type="MSShapeGroup"></path>
            <path d="M85.5211597,89.5894372 L85.5260806,89.5894372 C86.8661957,89.5861545 87.9504259,88.5012028 87.9520662,87.1601959 L87.9520662,87.1569131 C87.9504259,85.8142648 86.8661957,84.7293131 85.5260806,84.7260303 L85.5211597,84.7260303 C84.1810446,84.7293131 83.0968144,85.8142648 83.0935338,87.1569131 L83.0935338,87.1601959 C83.0968144,88.5012028 84.1810446,89.5861545 85.5211597,89.5894372" id="Fill-57" fill="#FD9348" sketch:type="MSShapeGroup"></path>
            <path d="M85.5211597,82.0323628 L85.5260806,82.0323628 C86.8661957,82.02908 87.9504259,80.9441283 87.9520662,79.6031214 L87.9520662,79.5981972 C87.9504259,78.2571903 86.8661957,77.1722386 85.5260806,77.1689559 L85.5211597,77.1689559 C84.1810446,77.1722386 83.0968144,78.2571903 83.0935338,79.5981972 L83.0935338,79.6031214 C83.0968144,80.9441283 84.1810446,82.02908 85.5211597,82.0323628" id="Fill-59" fill="#FD9348" sketch:type="MSShapeGroup"></path>
            <path d="M95.0548403,89.5894372 L95.0597612,89.5894372 C96.3998763,89.5861545 97.4841065,88.5012028 97.4857468,87.1601959 L97.4857468,87.1569131 C97.4841065,85.8142648 96.3998763,84.7293131 95.0597612,84.7260303 L95.0548403,84.7260303 C93.7147252,84.7293131 92.630495,85.8142648 92.6272144,87.1569131 L92.6272144,87.1601959 C92.630495,88.5012028 93.7147252,89.5861545 95.0548403,89.5894372" id="Fill-61" fill="#FD9348" sketch:type="MSShapeGroup"></path>
            <path d="M104.588357,89.5894372 L104.593278,89.5894372 C105.933393,89.5861545 107.017623,88.5012028 107.019263,87.1601959 L107.019263,87.1569131 C107.017623,85.8142648 105.933393,84.7293131 104.593278,84.7260303 L104.588357,84.7260303 C103.248242,84.7293131 102.164012,85.8142648 102.160731,87.1569131 L102.160731,87.1601959 C102.164012,88.5012028 103.248242,89.5861545 104.588357,89.5894372" id="Fill-63" fill="#FD9348" sketch:type="MSShapeGroup"></path>
            <path d="M85.5211597,97.5806566 L85.5260806,97.5806566 C86.8661957,97.5773738 87.9504259,96.4924221 87.9520662,95.1514152 L87.9520662,95.146491 C87.9504259,93.8054841 86.8661957,92.7205324 85.5260806,92.7172497 L85.5211597,92.7172497 C84.1810446,92.7205324 83.0968144,93.8054841 83.0935338,95.146491 L83.0935338,95.1514152 C83.0968144,96.4924221 84.1810446,97.5773738 85.5211597,97.5806566" id="Fill-65" fill="#FD9348" sketch:type="MSShapeGroup"></path>
            <path d="M95.0548403,97.5806566 L95.0597612,97.5806566 C96.3998763,97.5773738 97.4841065,96.4924221 97.4857468,95.1514152 L97.4857468,95.146491 C97.4841065,93.8054841 96.3998763,92.7205324 95.0597612,92.7172497 L95.0548403,92.7172497 C93.7147252,92.7205324 92.630495,93.8054841 92.6272144,95.146491 L92.6272144,95.1514152 C92.630495,96.4924221 93.7147252,97.5773738 95.0548403,97.5806566" id="Fill-67" fill="#FD9348" sketch:type="MSShapeGroup"></path>
            <path d="M102.160731,95.1514152 C102.164012,96.4924221 103.248242,97.5773738 104.588357,97.5806566 L104.593278,97.5806566 C105.933393,97.5773738 107.017623,96.4924221 107.020904,95.1514152 L107.020904,95.146491 C107.017623,93.8054841 105.933393,92.7205324 104.593278,92.718891 L104.588357,92.718891 C103.248242,92.7205324 102.164012,93.8054841 102.160731,95.146491 L102.160731,95.1514152 Z" id="Fill-69" fill="#FD9348" sketch:type="MSShapeGroup"></path>
            <path d="M85.5211597,106.067572 L85.5260806,106.067572 C86.8661957,106.06429 87.9504259,104.979338 87.9520662,103.638331 L87.9520662,103.633407 C87.9504259,102.2924 86.8661957,101.207448 85.5260806,101.204166 L85.5211597,101.204166 C84.1810446,101.207448 83.0968144,102.2924 83.0935338,103.633407 L83.0935338,103.638331 C83.0968144,104.979338 84.1810446,106.06429 85.5211597,106.067572" id="Fill-71" fill="#FD9348" sketch:type="MSShapeGroup"></path>
            <path d="M95.0548403,106.067572 L95.0597612,106.067572 C96.3998763,106.06429 97.4841065,104.979338 97.4857468,103.638331 L97.4857468,103.633407 C97.4841065,102.2924 96.3998763,101.207448 95.0597612,101.204166 L95.0548403,101.204166 C93.7147252,101.207448 92.630495,102.2924 92.6272144,103.633407 L92.6272144,103.638331 C92.630495,104.979338 93.7147252,106.06429 95.0548403,106.067572" id="Fill-73" fill="#FD9348" sketch:type="MSShapeGroup"></path>
            <path d="M102.160731,103.638167 C102.164012,104.979174 103.248242,106.064126 104.588357,106.067408 L104.593278,106.067408 C105.933393,106.064126 107.017623,104.979174 107.020904,103.638167 L107.020904,103.633243 C107.017623,102.292236 105.933393,101.207284 104.593278,101.205643 L104.588357,101.205643 C103.248242,101.207284 102.164012,102.292236 102.160731,103.633243 L102.160731,103.638167 Z" id="Fill-75" fill="#FD9348" sketch:type="MSShapeGroup"></path>
            <path d="M82.2517381,148.261854 C87.3251482,146.76984 94.9918532,145.44853 106.213062,145.44853 C107.604026,145.44853 109.047479,145.468226 110.548342,145.510902 C136.858558,146.249523 146.449321,150.223302 149.419882,152.094474 C149.900486,152.391564 150.180976,152.616433 150.367968,152.77893 C150.468026,152.998874 150.610731,153.200764 150.801004,153.358337 C151.4604,153.908199 152.026299,154.56475 152.462616,155.298447 C153.100688,156.370268 153.464832,157.596378 153.466472,158.924254 L153.466472,166.358061 C153.464832,168.357261 152.651249,170.169343 151.327537,171.497219 C150.002184,172.821812 148.191306,173.635937 146.191796,173.635937 L138.762932,173.635937 C136.763422,173.635937 134.952544,172.821812 133.627191,171.497219 C132.303479,170.169343 131.488256,168.357261 131.488256,166.358061 L131.488256,162.707633 C131.488256,162.136433 131.196285,161.612833 130.71076,161.312461 C129.434616,160.516392 123.509896,157.369868 110.451565,157.282874 C110.276055,157.281233 110.102184,157.281233 109.928314,157.281233 C104.925436,157.281233 100.95758,157.785137 97.9902993,158.472874 C96.5058388,158.815923 95.2723424,159.20493 94.2734072,159.608709 C93.2711914,160.017412 92.5117381,160.41955 91.9113928,160.893909 C91.5620115,161.186074 91.4521122,161.432281 91.3635367,161.614474 C91.2257525,161.936185 91.1896662,162.149564 91.1519396,162.358019 C91.0568029,162.955481 91.0666446,163.475799 91.063364,163.521757 L91.063364,166.358061 C91.063364,168.357261 90.2497813,170.169343 88.9260691,171.497219 C87.6007165,172.821812 85.7898388,173.635937 83.7903281,173.635937 L76.3614647,173.635937 C74.361954,173.635937 72.5510763,172.821812 71.2257237,171.497219 C69.9020115,170.169343 69.0867885,168.357261 69.0867885,166.358061 L69.0867885,158.924254 C69.0867885,157.346888 69.5919971,155.894268 70.4531482,154.696061 C70.4744719,154.666516 70.6434216,154.489247 70.8927453,154.282433 C71.7817813,153.527399 73.6517094,152.275026 75.7627597,151.11293 C77.8770906,149.945909 80.2751914,148.839619 82.2517381,148.261854 M69.8429612,150.94715 C69.3935223,151.272143 68.9998532,151.57744 68.6652345,151.867964 C68.3273353,152.165054 68.0534072,152.421109 67.7926014,152.777288 C66.5459827,154.505661 65.8062129,156.636171 65.8062129,158.924254 L65.8062129,166.358061 C65.8127741,172.17675 70.5450043,176.913771 76.3614647,176.918695 L83.7903281,176.918695 C89.6067885,176.913771 94.3390187,172.17675 94.3439396,166.358061 L94.3439396,163.521757 L94.3455799,163.493854 C94.3455799,163.442971 94.3505007,163.324792 94.3587022,163.198406 C94.6342705,163.039192 95.0115367,162.84715 95.5003424,162.651826 C97.9328892,161.665357 102.763537,160.559068 109.928314,160.563992 C110.093983,160.563992 110.261292,160.563992 110.428601,160.565633 C120.878875,160.641137 126.26558,162.724047 128.207681,163.682612 L128.207681,166.358061 C128.214242,172.17675 132.946472,176.913771 138.762932,176.918695 L146.191796,176.918695 C152.008256,176.913771 156.740486,172.17675 156.747047,166.358061 L156.747047,158.924254 C156.747047,156.985785 156.204112,155.167137 155.28063,153.617674 C154.76558,152.751026 154.106184,151.992709 153.379537,151.308254 C153.348371,151.249164 153.34345,151.181868 153.305724,151.126061 C153.159738,150.909399 152.608601,150.211812 151.153666,149.307412 C147.312112,146.933978 137.250587,142.999592 110.641839,142.229785 C109.11145,142.185468 107.635191,142.165771 106.213062,142.165771 C94.7359683,142.165771 86.7559683,143.516626 81.3266158,145.112047 C78.6102993,145.914681 75.6167741,147.386999 73.1120547,148.844543 C71.8621554,149.573316 70.7401986,150.298806 69.8429612,150.94715" id="Fill-77" fill="#FD9348" sketch:type="MSShapeGroup"></path>
            <path d="M45.7927338,136.544539 C45.8649065,136.989353 46.1109496,137.380001 46.483295,137.634415 C51.6141151,141.163381 54.8553237,146.822857 55.4277842,152.945201 C52.9919568,150.708001 50.068964,148.920539 46.7309784,147.810967 C46.1946043,147.633698 45.7533669,147.551629 45.4253094,147.459712 C44.7117842,147.266029 43.9588921,147.572967 43.5832662,148.208181 C40.4388345,153.539381 34.6715827,156.781105 28.5713525,156.779463 C26.7473525,156.779463 24.8938273,156.492222 23.0649065,155.881629 C15.7475827,153.449105 11.1203309,146.629174 11.1186906,139.316829 C11.1186906,137.491615 11.4073813,135.635215 12.0159281,133.801794 C13.4790647,129.404539 16.518518,126.000319 20.2961007,123.960084 C25.3793525,126.564953 31.133482,128.042194 37.2369928,128.043836 C38.7247338,128.043836 40.1845899,127.933863 41.6264029,127.761519 C43.8030647,130.235077 45.2662014,133.281477 45.7927338,136.544539 L45.7927338,136.544539 Z M11.8338561,113.274705 L15.3834388,113.274705 L15.3834388,116.769201 C14.6403885,116.143836 13.913741,115.495491 13.2264604,114.807753 C12.7376547,114.320263 12.2914964,113.791739 11.8338561,113.274705 L11.8338561,113.274705 Z M29.5883309,98.4038083 L31.3713237,96.619629 L34.3090791,96.619629 L36.0920719,98.4038083 L36.0920719,124.701988 C33.8629209,124.628126 31.6878993,124.34745 29.5883309,123.863243 L29.5883309,98.4038083 Z M33.4298849,93.3368703 L31.9651079,93.3368703 L31.5615971,91.7496566 L33.8005899,91.7496566 L33.4298849,93.3368703 Z M18.257223,62.6135324 L18.257223,63.9348428 C16.0034676,64.3533945 14.2975683,66.3214083 14.2959281,68.6981255 C14.2975683,71.0748428 16.0034676,73.0428566 18.257223,73.4614083 L18.257223,76.3321807 C18.2621439,82.9436566 23.6439281,88.3290221 30.2510072,88.3339462 L34.097482,88.3339462 C36.8121583,88.3323048 39.3103165,87.411491 41.3213094,85.8833669 C50.0722446,87.9892566 56.6514388,95.9154772 56.6448777,105.291036 L56.6448777,105.292677 L56.6481583,109.991946 L50.4265468,109.991946 L50.4265468,108.084663 C50.4265468,107.178622 49.6933381,106.443284 48.786259,106.443284 C47.8808201,106.443284 47.1459712,107.178622 47.1459712,108.084663 L47.1459712,123.25265 C44.6642158,124.019174 42.0643597,124.513229 39.3726475,124.683932 L39.3726475,97.7242772 C39.3726475,97.2909531 39.198777,96.8691186 38.8920432,96.5638221 L36.5841583,94.25276 L37.4666331,90.4825117 C37.5798129,89.9966634 37.4633525,89.4779876 37.1549784,89.0873393 C36.844964,88.696691 36.3676403,88.4668979 35.8689928,88.4668979 L29.4489065,88.4668979 C28.9453381,88.4668979 28.4630935,88.7032566 28.1530791,89.1004703 C27.844705,89.4993255 27.7348058,90.0262083 27.8594676,90.5136979 L28.8715252,94.477629 L26.7883597,96.5638221 C26.4816259,96.8691186 26.3077554,97.2909531 26.3077554,97.7242772 L26.3077554,122.929298 C23.5897986,122.00356 21.0227482,120.756112 18.6640144,119.208291 L18.6640144,108.084663 C18.6640144,107.178622 17.9291655,106.443284 17.0237266,106.443284 C16.1182878,106.443284 15.3834388,107.178622 15.3834388,108.084663 L15.3834388,109.991946 L9.23892086,109.991946 C9.05192806,109.721119 8.88297842,109.438801 8.70418705,109.159767 L8.6976259,105.291036 C8.6976259,98.9339738 11.7042734,93.2482359 16.3741727,89.5764703 L16.5726475,89.4221807 C17.2878129,88.8673945 17.419036,87.8366083 16.8629784,87.1193255 C16.3085612,86.4036841 15.2784604,86.2740152 14.5616547,86.8288014 L14.3566187,86.9880152 L14.3500576,86.9945807 C9.50792806,90.7960152 6.21258993,96.48996 5.55647482,102.934015 C4.10810072,99.1572014 3.28139568,95.0718083 3.28139568,90.7812428 C3.2797554,79.0519462 9.22251799,68.7227462 18.257223,62.6135324 L18.257223,62.6135324 Z M23.4388921,46.9662634 C23.8850504,46.36716 24.4476691,45.8862359 25.2694532,45.5169255 C26.0895971,45.1525393 27.1902302,44.9079738 28.6697698,44.9079738 L29.0896835,44.9145393 C30.4051942,44.9539324 31.7157842,45.0015324 33.0066906,45.0015324 C35.6081871,44.9949669 38.1424317,44.7980014 40.4519568,43.8164566 C40.2108345,44.0643048 39.9565899,44.3023048 39.6678993,44.5140428 C38.7362158,45.190291 37.5338849,45.687629 35.7886187,45.7779048 C34.8831799,45.8238634 34.1860576,46.5936703 34.2303453,47.4997117 C34.2762734,48.4041117 35.0455683,49.1016979 35.9493669,49.0573807 C38.3409065,48.9441255 40.2895683,48.1743186 41.7445036,47.0598221 C42.1266906,46.7660152 42.4629496,46.449229 42.7795252,46.1242359 C42.6991511,46.3720841 42.6318993,46.6297807 42.5318417,46.8612152 C42.1611367,47.7377117 41.6723309,48.4796152 41.0539424,49.0294772 C40.4306331,49.5793393 39.6843022,49.9732703 38.6131942,50.1488979 C37.7175971,50.2916979 37.1090504,51.1337255 37.2517554,52.0299186 C37.3961007,52.9244703 38.2359281,53.5334221 39.1315252,53.3906221 C40.7816547,53.1312841 42.1775396,52.4320566 43.2388058,51.4784152 C44.8380863,50.0438497 45.6893957,48.141491 46.1716403,46.306429 C46.2274101,46.0930497 46.2618561,45.8845945 46.3077842,45.6744979 C46.3192662,45.7861117 46.3405899,45.8960841 46.3504317,46.0076979 C46.3914388,46.4787738 46.4226043,47.0023738 46.4226043,47.5555186 C46.4226043,48.5469117 46.3225468,49.6335048 46.027295,50.6774221 C45.5778561,52.2334497 44.7544317,53.6663738 43.0895396,54.8169807 C43.0436115,54.8514497 42.9911223,54.874429 42.9484748,54.9121807 C41.2425755,56.0348841 38.5738273,56.8851186 34.3878129,56.8851186 C34.0154676,56.8851186 33.63,56.8785531 33.2346906,56.8654221 C30.2624892,56.7636566 27.5904604,56.376291 25.6696835,55.6737807 C24.7084748,55.3258083 23.9424604,54.9039738 23.4028058,54.4476703 C22.8598705,53.9880841 22.5350935,53.5219324 22.3513813,52.9737117 C22.241482,52.6437945 22.1840719,52.3007462 22.1840719,51.9248703 C22.1775108,49.9650634 22.5514964,48.1464152 23.4388921,46.9662634 L23.4388921,46.9662634 Z M46.0929065,67.2438634 C46.4012806,67.5311048 46.6013957,67.9332428 46.603036,68.3879048 C46.6013957,68.8425669 46.4012806,69.2430634 46.0929065,69.5303048 L46.0929065,68.9722359 L46.0929065,67.2438634 Z M21.5377986,61.0952566 L21.5377986,58.60036 C21.5377986,58.1292841 21.5870072,57.6729807 21.6591799,57.2232428 C22.9976547,58.2244841 24.6330216,58.8843186 26.4734245,59.3324152 C28.4811367,59.8182634 30.7348921,60.0611876 33.1198705,60.1448979 C33.5529065,60.1613117 33.9761007,60.1678772 34.3878129,60.1678772 C37.5224029,60.1678772 40.0648489,59.7378359 42.1348921,58.968029 C42.3710935,58.8826772 42.5892518,58.7809117 42.8123309,58.6857117 L42.8123309,68.9722359 L42.8123309,76.3321807 C42.8123309,78.7285945 41.8363597,80.9017807 40.2518417,82.4889945 C38.6640432,84.0745669 36.4939424,85.0511876 34.097482,85.052829 L30.2510072,85.052829 C27.8561871,85.0511876 25.6860863,84.0745669 24.0982878,82.4889945 C22.5137698,80.9017807 21.5377986,78.7285945 21.5377986,76.3321807 L21.5377986,61.0952566 Z M18.257223,69.9570634 C17.8553525,69.6714634 17.5781439,69.2266497 17.5765036,68.6981255 C17.5781439,68.1696014 17.8553525,67.7247876 18.257223,67.440829 L18.257223,69.9570634 Z M71.1925899,90.7812428 C71.1909496,98.6779186 68.4811942,105.913119 63.9638417,111.689132 C63.5242446,112.250484 63.4963597,113.026857 63.8965899,113.619394 C64.7249353,114.847146 65.3990935,116.193077 65.8714964,117.66047 C66.3931079,119.282153 66.6407914,120.921891 66.6407914,122.535367 C66.6407914,123.892788 66.4488777,125.225588 66.114259,126.517353 C64.4460863,124.271946 62.335036,122.440167 59.9402158,121.125422 L59.9254532,105.289394 L59.9254532,105.291036 C59.9188921,95.0110772 53.1822302,86.2707324 43.9047626,83.2112014 C45.2760432,81.2596014 46.0912662,78.891091 46.0929065,76.3321807 L46.0929065,73.1167186 C48.2597266,72.6308703 49.8819712,70.7022497 49.8836115,68.3879048 C49.8819712,66.0719186 48.2597266,64.1432979 46.0929065,63.659091 L46.0929065,58.60036 C46.0929065,58.3820566 46.0863453,58.1916566 46.0797842,57.9996152 C60.534,61.8946083 71.1958705,75.0814497 71.1925899,90.7812428 L71.1925899,90.7812428 Z M50.4265468,122.05116 L50.4265468,113.274705 L56.6514388,113.274705 L56.658,119.712194 C56.5251367,119.669519 56.3971942,119.61207 56.2626906,119.571036 C55.8148921,119.434801 55.3277266,119.495532 54.9291367,119.741739 C53.4938849,120.619877 51.9864604,121.386401 50.4265468,122.05116 L50.4265468,122.05116 Z M55.9411942,122.939146 C59.8188345,124.29985 63.138777,127.109891 65.0218273,130.972057 C65.2957554,131.536691 65.8682158,131.894512 66.496446,131.89287 C67.1246763,131.89287 67.6954964,131.53505 67.9710647,130.970415 C69.232446,128.375394 69.9213669,125.494774 69.9213669,122.535367 C69.9213669,120.58705 69.6211942,118.604263 68.9946043,116.654305 C68.5468058,115.264057 67.915295,113.996912 67.2050504,112.798705 C71.7420863,106.632043 74.4731655,99.0324566 74.4731655,90.7812428 C74.4698849,73.78476 63.0944892,59.470291 47.5462014,54.9926083 C47.8463741,54.5756979 48.1170216,54.1505807 48.3401007,53.7139738 C49.4440144,51.5801807 49.6998993,49.3610359 49.7031799,47.5555186 C49.7031799,46.8809117 49.6654532,46.2604703 49.6178849,45.7204566 L47.9841583,45.8632566 L49.6178849,45.7188152 C49.2701439,41.8369531 47.7135108,38.3605117 46.0518993,35.7572841 C45.7107194,35.2238359 45.0923309,34.9333117 44.4641007,35.0137393 C43.8358705,35.0925255 43.3093381,35.527491 43.1125036,36.1298772 C42.6843885,37.431491 42.1430935,38.383491 41.5312662,39.1040566 C40.6110647,40.1775186 39.5087914,40.79796 38.0801007,41.2000979 C36.6579712,41.5956703 34.9291079,41.7204152 33.0066906,41.7187738 C31.7994388,41.7187738 30.5167338,41.6728152 29.1881007,41.6334221 C29.0125899,41.6268566 28.8403597,41.6252152 28.6697698,41.6252152 C26.8326475,41.6252152 25.2596115,41.9288703 23.9358993,42.5181255 C21.9396691,43.3946221 20.5946331,44.9490083 19.864705,46.6461945 C19.123295,48.3466634 18.906777,50.1800841 18.9034964,51.9248703 C18.9034964,52.6208152 19.015036,53.3003462 19.2217122,53.9421255 C18.6115252,55.3783324 18.2555827,56.9491324 18.257223,58.60036 L18.257223,58.7349531 C7.33290647,65.2249669 0.000820143885,77.1446634 0.000820143885,90.7812428 C0.000820143885,103.91556 6.79653237,115.452815 17.0548921,122.088912 C13.360964,124.559188 10.4133669,128.222746 8.90266187,132.766084 C8.18257554,134.934346 7.83811511,137.145284 7.83811511,139.316829 C7.83647482,148.009574 13.338,156.099932 22.0282446,158.996967 C24.1950647,159.719174 26.4012518,160.062222 28.5713525,160.062222 C35.4113525,160.060581 41.8347194,156.621891 45.6926763,150.924663 C45.6926763,150.924663 45.6943165,150.924663 45.6959568,150.926305 C49.8672086,152.314912 53.2937698,154.888594 55.7591223,158.151657 C56.1659137,158.688388 56.8613957,158.923105 57.5093094,158.742553 C58.1588633,158.56036 58.6312662,157.999008 58.7001583,157.329326 C58.7838129,156.506994 58.8264604,155.686305 58.8264604,154.870539 C58.8248201,147.174112 55.1128489,139.919215 48.9010791,135.36767 C48.3204173,132.390208 47.1000432,129.581808 45.3318129,127.136153 C49.1208777,126.282636 52.685223,124.843146 55.9411942,122.939146 L55.9411942,122.939146 Z" id="Fill-79" fill="#FD9348" sketch:type="MSShapeGroup"></path>
            <g id="Group-83">
                <mask id="mask-2" sketch:name="Clip 82" fill="white">
                    <use xlink:href="#path-1"></use>
                </mask>
                <g id="Clip-82"></g>
                <path d="M215.33665,118.446199 C210.094291,123.688764 202.868823,126.927206 194.87242,126.928847 C189.339729,126.927206 184.195787,125.34984 179.793255,122.649771 C179.393024,122.405206 178.905859,122.342833 178.45806,122.479068 C175.216852,123.467178 172.303701,125.425343 170.164765,128.133619 C169.956449,127.193109 169.841629,126.226337 169.841629,125.248074 C169.841629,123.88573 170.049945,122.502047 170.491183,121.131495 C170.889773,119.892254 171.458953,118.754778 172.159355,117.717426 C172.557945,117.12653 172.531701,116.350157 172.090463,115.787164 C168.240708,110.863026 165.931183,104.698006 165.931183,97.9683503 C165.927902,84.3728055 175.295586,72.9652193 187.914319,69.8498814 C190.14183,69.3000193 192.471039,69.0078538 194.87242,69.0078538 C202.868823,69.0078538 210.094291,72.2462952 215.33665,77.4888607 C220.57737,82.7363503 223.812017,89.9649848 223.813658,97.9683503 C223.812017,105.970074 220.57737,113.20035 215.33665,118.446199 L215.33665,118.446199 Z M167.05314,80.0034538 L168.114406,80.0034538 C167.73878,80.5631641 167.394319,81.1442124 167.05314,81.7285434 L167.05314,80.0034538 Z M141.34819,98.2112745 C140.883988,98.1521848 140.414866,98.2966262 140.062204,98.6052055 C136.27314,101.932281 133.6536,106.48875 132.707154,111.567178 C130.227039,108.704612 128.544104,105.111633 128.083183,101.06235 C128.001168,100.340143 127.961801,99.6245021 127.961801,98.9154262 C127.961801,97.7845159 128.061859,96.6716607 128.247212,95.5801434 C128.366953,94.8759917 128.022492,94.1800469 127.390981,93.8484883 C123.638003,91.8853986 120.188478,89.3330538 117.163787,86.27024 L117.162147,80.0034538 L125.793341,80.0034538 L125.793341,90.2702814 C125.793341,91.1779641 126.52819,91.9116607 127.433629,91.9116607 C128.339068,91.9116607 129.073917,91.1779641 129.073917,90.2702814 L129.073917,74.1174676 C129.073917,73.2114262 128.339068,72.4760883 127.433629,72.4760883 C126.52819,72.4760883 125.793341,73.2114262 125.793341,74.1174676 L125.793341,76.7206952 L117.160506,76.7206952 L117.157226,70.7772607 C117.157226,63.0742676 120.800305,56.1837572 126.459298,51.7356193 L126.69878,51.5501434 C127.413945,50.9937159 127.543528,49.9629297 126.989111,49.2472883 C126.434694,48.5300055 125.402953,48.4003366 124.687787,48.9551228 L124.441744,49.1455228 L124.435183,49.1520883 C118.021658,54.18784 113.87665,62.0221434 113.87665,70.7772607 L113.87665,70.7772607 L113.881571,82.4901434 C112.001801,80.0444883 110.350032,77.3657572 109.021399,74.430971 C106.536363,68.9323503 105.361917,63.1858814 105.361917,57.5264055 C105.363557,41.9825434 114.230953,27.1346262 129.229744,20.2162124 L129.229744,21.616309 C126.557715,21.9823366 124.494233,24.2490814 124.494233,27.0230124 C124.494233,29.7969434 126.557715,32.0636883 129.229744,32.4297159 L129.229744,36.1507228 C129.233024,41.1191779 131.842722,45.4852469 135.753168,47.9785021 C135.794176,48.0392331 135.812219,48.1098124 135.861427,48.1656193 L144.776391,58.2617434 C145.097888,58.627771 145.56537,58.8296607 146.052535,58.8165297 C146.53806,58.8017572 146.99406,58.5736055 147.294233,58.1911641 L155.156132,48.2017297 C155.193859,48.1541297 155.203701,48.0966814 155.234866,48.04744 C155.643298,47.7913848 156.038607,47.5172745 156.417514,47.2234676 C167.094147,49.7232883 175.136478,59.3614676 175.129917,70.7772607 L175.129917,70.7936745 L175.14796,72.4744469 C173.517514,73.738309 172.028132,75.1712331 170.668334,76.7206952 L167.05314,76.7206952 L167.05314,74.1174676 C167.05314,73.2114262 166.319931,72.4760883 165.412852,72.4760883 C164.507413,72.4760883 163.772564,73.2114262 163.772564,74.1174676 L163.772564,89.1098262 C163.772564,89.2001021 163.810291,89.2805297 163.825053,89.3675228 C163.310003,91.233771 162.944219,93.1640331 162.771988,95.1501021 C157.48206,97.4513159 151.977255,98.5362676 146.541341,98.5362676 C144.799355,98.5362676 143.065571,98.4262952 141.34819,98.2112745 L141.34819,98.2112745 Z M136.642204,6.49264 L136.745542,6.41221241 C138.559701,5.02196414 140.808535,4.1996331 143.250924,4.1996331 L147.850291,4.1996331 C150.802809,4.1996331 153.479758,5.40440552 155.434981,7.3576469 C157.168765,9.09586759 158.308765,11.408571 158.541686,13.9756883 C158.024996,13.9740469 157.449255,13.9707641 156.929283,13.9674814 L156.889917,13.9674814 C156.709485,13.1254538 156.392909,12.3261021 155.861456,11.6317986 C155.43006,11.0704469 154.862521,10.5911641 154.190003,10.2678124 C153.519125,9.94281931 152.756391,9.77868138 151.960852,9.78032276 L139.24042,9.78032276 C136.597917,9.7852469 134.401571,11.5628607 133.681485,13.9756883 L132.672708,13.952709 L132.669427,13.952709 L132.567729,13.9510676 C132.849859,10.9407779 134.373686,8.27681931 136.642204,6.49264 L136.642204,6.49264 Z M143.250924,50.1812331 L147.850291,50.1812331 C148.412909,50.1812331 148.964046,50.1369159 149.508622,50.0729021 L145.932794,54.6145986 L141.960017,50.1139366 C142.386492,50.1533297 142.814607,50.1812331 143.250924,50.1812331 L143.250924,50.1812331 Z M161.871471,24.6873297 C162.604679,25.043509 163.12137,25.7804883 163.12301,26.6504193 C163.12137,27.5219917 162.604679,28.258971 161.871471,28.6151503 L161.871471,24.6873297 Z M132.510319,17.9314124 L132.510319,17.2338262 L132.600535,17.2338262 L132.597255,17.2338262 L135.011758,17.2896331 C135.456276,17.2994814 135.87783,17.1337021 136.196046,16.82184 C136.514262,16.5116193 136.689773,16.0930676 136.689773,15.6482538 C136.689773,14.9342538 136.976823,14.2941159 137.444305,13.8181159 C137.916708,13.3453986 138.543298,13.0630814 139.24042,13.0630814 L151.960852,13.0630814 C152.320075,13.0630814 152.567758,13.1303779 152.764593,13.2239366 C153.053283,13.3667366 153.274722,13.5833986 153.473197,13.9756883 C153.666751,14.3646952 153.797974,14.9260469 153.796334,15.5940883 C153.793053,15.9814538 153.942319,16.3245021 154.088305,16.5280331 C154.391758,16.9334538 154.598435,16.9958262 154.719816,17.0696883 C154.964219,17.1813021 155.031471,17.1813021 155.098722,17.1993572 L155.272593,17.2272607 L155.393974,17.2354676 C155.503873,17.2387503 155.677744,17.2403917 155.969715,17.2420331 C156.617629,17.2485986 157.703499,17.2551641 158.590895,17.2584469 L158.590895,36.1507228 C158.590895,39.1052055 157.386924,41.7839366 155.434981,43.7388193 C153.479758,45.6937021 150.802809,46.8984745 147.850291,46.8984745 L143.250924,46.8984745 C140.298406,46.8984745 137.621456,45.6937021 135.666233,43.7388193 C133.714291,41.7839366 132.510319,39.1052055 132.510319,36.1507228 L132.510319,17.9314124 Z M129.229744,29.0714538 C128.384996,28.7628745 127.776449,27.973371 127.774809,27.0230124 C127.776449,26.0726538 128.384996,25.281509 129.229744,24.974571 L129.229744,29.0714538 Z M183.802118,40.5709572 C186.287154,46.0679366 187.4616,51.8160469 187.46324,57.4755228 C187.46324,59.4320469 187.322176,61.3787228 187.046607,63.3007779 C186.872737,64.5071917 186.638176,65.7037572 186.359327,66.8871917 C183.524909,67.6635641 180.852881,68.8158124 178.387528,70.2881297 C178.167729,58.199371 170.089312,47.9768607 159.055096,44.5365297 C160.813485,42.19264 161.86983,39.2956055 161.871471,36.1507228 L161.871471,32.0374262 C164.445082,31.5860469 166.401945,29.3554124 166.403586,26.6504193 C166.401945,23.9470676 164.445082,21.7147917 161.871471,21.2650538 L161.871471,19.5120607 C171.27196,23.3413986 179.288046,30.5880883 183.802118,40.5709572 L183.802118,40.5709572 Z M194.87242,65.7250952 C193.176363,65.7250952 191.513111,65.8695366 189.885945,66.1239503 C190.041773,65.3426538 190.179557,64.5564331 190.292737,63.7669297 C190.591269,61.6922262 190.743816,59.5896193 190.743816,57.4755228 C190.743816,51.3613848 189.472593,45.1454814 186.792363,39.2184607 C181.722233,28.0045572 172.553024,19.9273297 161.871471,15.9486262 L161.871471,14.9473848 C161.864909,7.21977103 155.572765,0.92344 147.850291,0.916874483 L143.250924,0.916874483 C140.063845,0.916874483 137.106406,1.99854345 134.749312,3.80570207 L134.742751,3.81226759 L134.62465,3.90418483 L134.616449,3.90910897 C131.347355,6.47622621 129.229744,10.477909 129.229744,14.9473848 L129.229744,16.6330814 C128.86724,16.7857297 128.501456,16.930171 128.140593,17.094309 C111.770521,24.5084193 102.07806,40.6415366 102.081341,57.5264055 C102.079701,63.6405434 103.352564,69.8564469 106.032794,75.7834676 C110.103988,84.7897159 116.850492,91.7229021 124.864938,96.1808883 C124.756679,97.0803641 124.681226,97.9880469 124.681226,98.9154262 C124.681226,99.7459641 124.727154,100.58635 124.823931,101.433302 C125.512852,107.503123 128.549024,112.740764 132.897427,116.351799 C133.381312,116.753937 134.048909,116.844212 134.62137,116.584874 C135.19383,116.327178 135.567816,115.765826 135.585859,115.137178 C135.738406,109.848654 138.057773,105.01315 141.741859,101.543274 C143.331298,101.713978 144.932219,101.819026 146.541341,101.819026 C151.931327,101.819026 157.400046,100.834199 162.683413,98.7480055 C162.845801,105.530185 165.122521,111.780557 168.850895,116.896737 C168.265312,117.904543 167.74206,118.963233 167.368075,120.123688 C166.820219,121.822516 166.561053,123.550888 166.561053,125.248074 C166.561053,127.826681 167.161399,130.33635 168.260391,132.59653 C168.534319,133.161164 169.10678,133.518985 169.73337,133.518985 C170.3616,133.518985 170.93406,133.162806 171.209629,132.598171 C172.782665,129.369578 175.54655,127.012557 178.779557,125.848819 C183.513427,128.594847 189.00019,130.211606 194.87242,130.211606 C212.667902,130.209964 227.092593,115.775674 227.094233,97.9683503 C227.092593,80.1593848 212.667902,65.7250952 194.87242,65.7250952 L194.87242,65.7250952 Z" id="Fill-81" fill="#FD9348" sketch:type="MSShapeGroup" mask="url(#mask-2)"></path>
            </g>
            <path d="M75.3093842,204.968062 L94.4695856,180.930062 L126.591341,180.930062 L147.213039,204.757966 L147.213039,222.32729 L75.3093842,222.32729 L75.3093842,204.968062 Z M99.1509669,176.209455 C99.1509669,175.843428 99.2969525,175.518434 99.5429957,175.268945 C99.7923194,175.022738 100.117096,174.876655 100.48124,174.876655 L101.532665,174.876655 C101.896809,174.876655 102.221586,175.022738 102.470909,175.268945 C102.716953,175.518434 102.862938,175.843428 102.862938,176.209455 L102.862938,177.647303 L99.1509669,177.647303 L99.1509669,176.209455 Z M118.217672,176.209455 C118.217672,175.843428 118.363658,175.518434 118.609701,175.268945 C118.859024,175.022738 119.183801,174.876655 119.549586,174.876655 L120.59937,174.876655 C120.965154,174.876655 121.289931,175.022738 121.537614,175.268945 C121.785298,175.518434 121.929643,175.843428 121.931283,176.209455 L121.931283,177.647303 L118.217672,177.647303 L118.217672,176.209455 Z M155.460406,219.802848 C154.062881,219.074076 152.391427,218.410959 150.493614,217.797083 L150.493614,204.145731 C150.493614,203.7518 150.350909,203.367717 150.093384,203.070628 L128.58101,178.215221 C128.269355,177.855759 127.814996,177.647303 127.340953,177.647303 L125.211859,177.647303 L125.211859,176.209455 C125.205298,173.658752 123.146737,171.600462 120.59937,171.593897 L119.549586,171.593897 C117.002219,171.600462 114.943658,173.658752 114.937096,176.209455 L114.937096,177.647303 L106.143514,177.647303 L106.143514,176.209455 C106.138593,173.658752 104.080032,171.600462 101.532665,171.593897 L100.48124,171.593897 C97.9338734,171.600462 95.8769525,173.658752 95.8703914,176.209455 L95.8703914,177.647303 L93.6789669,177.647303 C93.1819597,177.647303 92.7079165,177.877097 92.3962619,178.266103 L72.3863914,203.369359 C72.1551108,203.661524 72.0288086,204.020986 72.0288086,204.393579 L72.0288086,218.018669 C69.5749381,218.854131 67.527859,219.771662 65.9777871,220.8402 C65.0969525,221.450793 64.3621036,222.112269 63.8076863,222.891924 C63.2565496,223.663372 62.894046,224.594034 62.8973266,225.578862 C62.894046,226.82631 63.4632259,227.952297 64.2702475,228.845207 C65.6989381,230.417648 67.8920029,231.606007 70.7707079,232.70409 C75.0846647,234.329055 80.9716576,235.635593 87.9527223,236.558048 C94.9305065,237.477221 102.992521,237.999179 111.585988,237.999179 C112.491427,237.999179 113.226276,237.265483 113.226276,236.3578 C113.226276,235.451759 112.491427,234.716421 111.585988,234.716421 C98.6982475,234.719703 87.0259597,233.514931 78.6834561,231.601083 C74.5171252,230.650724 71.1791396,229.508324 69.0156,228.331455 C67.9330101,227.748766 67.1555137,227.154586 66.7159165,226.65889 C66.268118,226.148421 66.1795424,225.820145 66.1779022,225.578862 C66.1795424,225.380255 66.2336719,225.150462 66.484636,224.789359 C66.8520604,224.25591 67.6951683,223.540269 68.9795137,222.845966 C69.8177007,222.389662 70.8527223,221.936641 72.0288086,221.49511 L72.0288086,223.968669 C72.0288086,224.401993 72.2043194,224.823828 72.5094129,225.129124 C72.8145065,225.436062 73.2377007,225.610048 73.6690964,225.610048 L148.853327,225.610048 C149.284722,225.610048 149.707917,225.436062 150.01301,225.129124 C150.318104,224.823828 150.493614,224.401993 150.493614,223.968669 L150.493614,221.255469 C152.484924,221.956338 154.080924,222.704807 155.173355,223.435221 C155.890161,223.909579 156.385528,224.37409 156.657816,224.748324 C156.933384,225.130766 156.990794,225.37369 156.994075,225.578862 C156.994075,226.486545 157.728924,227.220241 158.634363,227.220241 C159.539801,227.220241 160.27465,226.486545 160.27465,225.578862 C160.277931,224.556283 159.887542,223.594434 159.298679,222.80329 C158.409643,221.608366 157.105614,220.671138 155.460406,219.802848 L155.460406,219.802848 Z" id="Fill-84" fill="#FD9348" sketch:type="MSShapeGroup"></path>
            <path d="M183.187994,96.5465876 C181.856081,96.5465876 180.776771,97.6266152 180.776771,98.9594152 C180.776771,100.292215 181.856081,101.372243 183.187994,101.372243 C184.519908,101.372243 185.599217,100.292215 185.599217,98.9594152 C185.599217,97.6266152 184.519908,96.5465876 183.187994,96.5465876" id="Fill-86" fill="#FD9348" sketch:type="MSShapeGroup"></path>
            <path d="M194.664104,96.5465876 C193.33219,96.5465876 192.252881,97.6266152 192.252881,98.9594152 C192.252881,100.292215 193.33219,101.372243 194.664104,101.372243 C195.996017,101.372243 197.075327,100.292215 197.075327,98.9594152 C197.075327,97.6266152 195.996017,96.5465876 194.664104,96.5465876" id="Fill-88" fill="#FD9348" sketch:type="MSShapeGroup"></path>
            <path d="M205.777545,96.5465876 C204.445632,96.5465876 203.366322,97.6266152 203.366322,98.9594152 C203.366322,100.292215 204.445632,101.372243 205.777545,101.372243 C207.109459,101.372243 208.188768,100.292215 208.188768,98.9594152 C208.188768,97.6266152 207.109459,96.5465876 205.777545,96.5465876" id="Fill-90" fill="#FD9348" sketch:type="MSShapeGroup"></path>
            <path d="M199.398958,163.910108 C197.137001,166.171928 194.028656,167.565459 190.577491,167.565459 C184.597001,167.568742 179.602325,163.347114 178.390153,157.727032 C178.234325,157.004825 177.615937,156.476301 176.879447,156.435266 C176.648167,156.423777 176.310268,156.377818 175.857548,156.374535 C173.58739,156.374535 171.415649,156.799652 169.407937,157.559611 C171.295908,153.991252 174.576483,151.271487 178.523016,150.13237 C178.956052,150.007625 179.313635,149.715459 179.521951,149.316604 C181.610037,145.32477 185.769807,142.60008 190.577491,142.601721 C194.028656,142.601721 197.137001,143.995252 199.398958,146.257073 C201.659275,148.520535 203.051879,151.630949 203.051879,155.08277 C203.051879,158.536232 201.659275,161.646646 199.398958,163.910108 M190.577491,139.318963 C184.751188,139.318963 179.690901,142.508163 176.971304,147.212356 C170.900599,149.218121 166.230699,154.265363 164.821692,160.591239 C164.675706,161.249432 164.947994,161.932246 165.505692,162.308121 C166.06339,162.685639 166.798239,162.682356 167.352656,162.299914 C169.686786,160.696287 172.486757,159.754135 175.514728,159.683556 C177.481433,166.148949 183.476685,170.844935 190.577491,170.848218 C199.280858,170.848218 206.332455,163.791928 206.332455,155.08277 C206.332455,146.375252 199.280858,139.318963 190.577491,139.318963" id="Fill-92" fill="#FD9348" sketch:type="MSShapeGroup"></path>
        </g>
    </g>
</svg>