<?xml version="1.0" encoding="UTF-8" standalone="no"?>
<svg width="264px" height="264px" viewBox="0 0 264 264" version="1.1" xmlns="http://www.w3.org/2000/svg" xmlns:xlink="http://www.w3.org/1999/xlink" xmlns:sketch="http://www.bohemiancoding.com/sketch/ns">
    <!-- Generator: Sketch Beta 3.4 (14672) - http://www.bohemiancoding.com/sketch -->
    <title>Slice 1</title>
    <desc>Created with Sketch Beta.</desc>
    <defs>
        <path id="path-1" d="M0,0.765564103 L232.223472,0.765564103 L232.223472,146 L0,146 L0,0.765564103 Z"></path>
        <path id="path-3" d="M0,0.765564103 L232.223472,0.765564103 L232.223472,146 L0,146"></path>
    </defs>
    <g id="Page-1" stroke="none" stroke-width="1" fill="none" fill-rule="evenodd" sketch:type="MSPage">
        <rect id="Rectangle-112-Copy-5" fill="#FFFFFF" sketch:type="MSShapeGroup" x="0" y="0" width="264" height="264"></rect>
        <g id="Иконка_4" sketch:type="MSLayerGroup" transform="translate(15.000000, 83.000000)">
            <g id="Group-3">
                <mask id="mask-2" sketch:name="Clip 2" fill="white">
                    <use xlink:href="#path-1"></use>
                </mask>
                <g id="Clip-2"></g>
                <path d="M208.578802,142.563759 L18.4229136,142.563759 L18.4229136,139.43599 L208.578802,139.43599 L208.578802,142.563759 Z M39.2320656,122.548656 L45.4152816,109.550913 L57.2575536,112.613169 C60.4231056,113.423656 62.5553136,116.328682 62.5534416,119.46581 C62.5534416,120.046067 62.4823056,120.63381 62.3306736,121.221554 L62.3306736,121.221554 C61.8982416,122.885579 60.9079536,124.25199 59.5975536,125.187887 C58.4088336,126.037682 56.9655216,126.518733 55.4754096,126.516862 C54.8950896,126.516862 54.3072816,126.445733 53.7194736,126.294118 L41.5159056,123.138272 L39.2320656,122.548656 Z M61.2187056,110.887374 C63.6616656,105.777374 68.8471056,102.224708 74.8917936,102.226579 C79.0869456,102.226579 82.8702576,103.922426 85.6220976,106.670221 C88.3701936,109.421759 90.0662256,113.204656 90.0662256,117.399349 C90.0662256,121.595913 88.3701936,125.37881 85.6220976,128.128477 C82.8702576,130.878144 79.0869456,132.572118 74.8917936,132.57399 C70.7078736,132.572118 66.9339216,130.887503 64.1839536,128.15281 C63.5774256,127.540733 63.2629296,127.143913 62.9035056,126.591733 C64.0997136,125.354477 65.0113776,123.808374 65.4700176,122.032041 L65.4700176,122.032041 L65.4700176,122.032041 C65.6909136,121.176631 65.7976176,120.313733 65.7976176,119.46581 C65.7957456,116.016092 64.0529136,112.79099 61.2187056,110.887374 L61.2187056,110.887374 Z M42.9180336,101.253246 L42.9180336,99.8812205 C42.9161616,98.9621692 43.2287856,98.1498103 43.6537296,97.6238359 C44.0917776,97.0903744 44.5635216,96.8695026 45.0165456,96.8695026 L153.12829,96.8695026 C153.583186,96.8695026 154.05493,97.0903744 154.491106,97.6238359 C154.917922,98.1498103 155.228674,98.9621692 155.226802,99.8812205 L155.226802,136.194041 L42.9180336,136.194041 L42.9180336,126.851913 L52.9088976,129.433118 C53.7644016,129.65399 54.6255216,129.760682 55.4754096,129.760682 C57.1901616,129.760682 58.8393936,129.317067 60.3051696,128.5384 C60.7413456,129.182297 61.2149616,129.781272 61.8963696,130.451374 C65.2229136,133.764451 69.8242896,135.81781 74.8917936,135.815938 C85.0642416,135.815938 93.3085296,127.572554 93.3104016,117.399349 C93.3085296,107.228015 85.0642416,98.9846308 74.8917936,98.982759 C67.5385776,98.9846308 61.2224496,103.312221 58.2721776,109.543426 L58.0681296,109.472297 L46.8342576,106.569144 L47.3771376,105.427349 C47.7084816,104.732913 47.5044336,103.898092 46.8904176,103.435759 C46.0274256,102.784374 45.0727056,102.204118 44.0187696,101.741785 L44.0281296,101.745528 L42.9180336,101.253246 Z M72.1680336,89.7754 L77.9019696,89.7754 L77.9019696,93.0472974 L72.1680336,93.0472974 L72.1680336,89.7754 Z M118.071346,89.9195282 L123.805282,89.9195282 L123.805282,93.1914256 L118.071346,93.1914256 L118.071346,89.9195282 Z M165.180226,132.519708 L165.29629,132.403656 L176.264338,132.403656 L176.380402,132.519708 L176.380402,134.208067 L176.264338,134.324118 L165.29629,134.324118 L165.180226,134.208067 L165.180226,132.519708 Z M166.96237,126.464451 C167.51461,124.684374 168.102418,122.715246 168.298978,121.433067 C168.465586,120.30999 168.53485,119.299221 168.53485,118.393272 C168.536722,116.126528 168.098674,114.552349 167.703682,113.584631 L173.946802,113.584631 C173.521858,114.735785 172.945282,116.888349 172.947154,120.171477 C172.947154,120.491554 172.950898,120.82099 172.964002,121.163528 C172.99957,121.960913 173.20549,122.762041 173.469442,123.682964 C174.032914,125.594067 174.914626,127.832733 175.391986,129.006349 L166.13869,129.006349 C166.338994,128.403631 166.642258,127.486451 166.96237,126.464451 L166.96237,126.464451 Z M169.371634,107.776451 C169.727314,107.409579 170.120434,107.119451 170.438674,106.941631 L170.682034,106.827451 C171.041458,107.025862 171.61429,107.392733 172.10101,107.903733 C172.70941,108.538272 173.183026,109.322554 173.323426,110.34081 L168.143602,110.34081 C168.227842,109.337528 168.71269,108.455913 169.371634,107.776451 L169.371634,107.776451 Z M170.610898,102.767528 L170.691394,102.849887 L170.610898,102.930374 L170.52853,102.849887 L170.610898,102.767528 Z M187.765906,134.260477 L187.88197,134.144426 L194.505106,134.144426 L194.619298,134.260477 L194.619298,135.288092 L194.505106,135.404144 L187.88197,135.404144 L187.765906,135.288092 L187.765906,134.260477 Z M188.990194,128.748041 C189.37957,127.492067 189.793282,126.123785 189.943042,125.156067 C190.060978,124.349323 190.111522,123.617451 190.111522,122.960451 C190.113394,121.730682 189.926194,120.804144 189.710914,120.087246 L192.736066,120.087246 C192.472114,121.006297 192.217522,122.363349 192.219394,124.203323 C192.219394,124.42981 192.223138,124.667528 192.232498,124.912733 C192.26245,125.560374 192.415954,126.133144 192.605026,126.795759 C192.915778,127.849579 193.355698,129.023195 193.696402,129.889836 L188.623282,129.889836 C188.735602,129.547297 188.857282,129.171067 188.990194,128.748041 L188.990194,128.748041 Z M191.283394,114.338964 C191.88805,114.338964 192.378514,114.829374 192.380386,115.435836 C192.378514,116.040426 191.88805,116.530836 191.283394,116.532708 C190.678738,116.530836 190.188274,116.040426 190.186402,115.435836 C190.188274,114.829374 190.678738,114.338964 191.283394,114.338964 L191.283394,114.338964 Z M229.827874,142.756554 L211.822978,142.756554 L211.822978,137.815015 C211.822978,137.388246 211.648882,136.970836 211.34749,136.667605 C211.046098,136.366246 210.62677,136.194041 210.199954,136.194041 L197.723074,136.194041 C197.80357,135.903913 197.863474,135.604426 197.863474,135.288092 L197.863474,134.260477 C197.85973,133.330195 197.483458,132.489759 196.875058,131.883297 C197.131522,131.47899 197.318722,131.026015 197.318722,130.5094 C197.318722,130.294144 197.273794,130.075144 197.189554,129.876733 C197.189554,129.874862 197.084722,129.627785 196.919986,129.219733 C196.672882,128.607656 196.300354,127.653041 195.993346,126.748964 C195.839842,126.297862 195.703186,125.85799 195.609586,125.498605 C195.514114,125.142964 195.471058,124.841605 195.47293,124.802297 L195.47293,124.798554 L195.46357,124.203323 C195.46357,122.724605 195.656386,121.687631 195.832354,121.047477 C195.920338,120.7274 196.002706,120.506528 196.056994,120.379246 L196.111282,120.257579 L196.115026,120.248221 L196.10941,120.246349 C196.24045,120.006759 196.31533,119.740964 196.31533,119.467682 C196.31533,118.574836 195.839842,117.824246 195.158434,117.350682 C195.446722,116.770426 195.62269,116.126528 195.624562,115.435836 C195.62269,113.038067 193.681426,111.097015 191.283394,111.095144 C188.885362,111.097015 186.944098,113.038067 186.942226,115.435836 C186.942226,116.094708 187.101346,116.7124 187.363426,117.272067 C186.616498,117.7344 186.090466,118.524297 186.090466,119.467682 C186.090466,119.797118 186.193426,120.107836 186.378754,120.377374 L186.371266,120.381118 C186.373138,120.390477 186.863602,121.141067 186.867346,122.960451 C186.867346,123.454605 186.829906,124.025503 186.734434,124.682503 C186.667042,125.1804 186.266434,126.608579 185.893906,127.780323 C185.521378,128.970785 185.175058,129.981554 185.175058,129.983426 L185.087074,130.5094 C185.087074,131.0204 185.272402,131.469631 185.525122,131.873938 C184.909234,132.4804 184.525474,133.324579 184.523602,134.260477 L184.523602,135.288092 C184.523602,135.604426 184.581634,135.903913 184.664002,136.194041 L178.960018,136.194041 C179.371858,135.636246 179.622706,134.954913 179.624578,134.208067 L179.624578,132.519708 C179.620834,131.596913 179.250178,130.763964 178.649266,130.157503 C178.754098,129.850528 178.843954,129.536067 178.845826,129.193528 C178.845826,128.978272 178.800898,128.759272 178.716658,128.55899 C178.714786,128.55899 178.561282,128.195862 178.32541,127.608118 C177.967858,126.726503 177.430594,125.350733 176.985058,124.036733 C176.76229,123.381605 176.563858,122.739579 176.423458,122.198631 C176.281186,121.665169 176.206306,121.206579 176.206306,121.051221 C176.195074,120.74799 176.189458,120.454118 176.189458,120.171477 C176.189458,117.994579 176.475874,116.448477 176.74357,115.473272 C176.876482,114.984733 177.00565,114.640323 177.093634,114.430682 L177.189106,114.217297 L177.205954,114.185477 L177.20221,114.181733 C177.335122,113.940272 177.410002,113.672605 177.410002,113.397451 C177.410002,112.607554 177.091762,111.905631 176.601298,111.364682 L176.625634,111.147554 L176.625634,111.14381 L176.629378,110.898605 C176.633122,108.324887 175.318978,106.436246 174.087202,105.311297 C173.838226,105.082938 173.596738,104.897631 173.358994,104.717938 C173.722162,104.186349 173.93557,103.542451 173.93557,102.849887 C173.933698,101.011785 172.44733,99.5255795 170.610898,99.5237077 C168.772594,99.5255795 167.286226,101.011785 167.284354,102.849887 C167.286226,103.574272 167.52397,104.238759 167.91709,104.785323 C167.319922,105.247656 166.733986,105.786733 166.22293,106.501759 C165.453538,107.581785 164.86573,108.996862 164.867602,110.63281 L164.89381,111.239272 L164.910658,111.475118 C164.474482,112.004836 164.176834,112.656221 164.176834,113.397451 C164.176834,113.732503 164.281666,114.048836 164.474482,114.32399 L164.470738,114.325862 L164.493202,114.365169 C164.627986,114.602887 165.28693,115.830785 165.290674,118.393272 C165.290674,119.134503 165.234514,119.986169 165.09037,120.959503 C164.97805,121.771862 164.401474,123.800887 163.866082,125.496733 C163.598386,126.352144 163.338178,127.147656 163.145362,127.727913 C162.954418,128.308169 162.830866,128.667554 162.830866,128.667554 L162.742882,129.193528 C162.742882,129.528579 162.83461,129.835554 162.933826,130.135041 C162.31981,130.743374 161.939794,131.585682 161.93605,132.519708 L161.93605,134.208067 C161.937922,134.954913 162.18877,135.636246 162.598738,136.194041 L158.470978,136.194041 L158.470978,99.8812205 C158.467234,98.2508872 157.943074,96.7459641 157.020178,95.5929385 C156.108514,94.4474 154.721362,93.6256821 153.12829,93.6256821 L127.047586,93.6256821 L127.047586,88.2985538 C127.047586,87.8717846 126.875362,87.4543744 126.57397,87.1511436 C126.270706,86.8497846 125.85325,86.6757077 125.426434,86.6757077 L116.448322,86.6757077 C116.021506,86.6757077 115.60405,86.8497846 115.302658,87.1511436 C114.999394,87.4543744 114.82717,87.8717846 114.82717,88.2985538 L114.82717,93.6256821 L81.1461456,93.6256821 L81.1461456,88.1525538 C81.1461456,87.7257846 80.9739216,87.3083744 80.6725296,87.0070154 C80.3692656,86.7056564 79.9518096,86.5315795 79.5249936,86.5315795 L70.5468816,86.5315795 C70.1200656,86.5315795 69.7026096,86.7056564 69.4012176,87.0070154 C69.0979536,87.3083744 68.9257296,87.7257846 68.9257296,88.1525538 L68.9257296,93.6256821 L45.0165456,93.6256821 C43.4253456,93.6256821 42.0381936,94.4474 41.1246576,95.5929385 C40.2167376,96.7309897 39.6981936,98.2097077 39.6813456,99.8119641 L4.5981936,84.2105538 C3.7782576,83.8455538 2.8197936,84.2142974 2.4566256,85.0322718 C2.0934576,85.8521179 2.4603696,86.8104769 3.2803056,87.1736051 L3.2803056,87.1736051 L42.7083696,104.708579 L42.7177296,104.712323 C43.1089776,104.884528 43.4852496,105.079195 43.8484176,105.294451 L34.3461456,125.268374 C34.1683056,125.202862 33.9754896,125.163554 33.8032656,125.08681 L6.5357136,112.785374 C5.7195216,112.416631 4.7591856,112.779759 4.3904016,113.595862 C4.0234896,114.411964 4.3866576,115.372195 5.2028496,115.740938 L32.4853776,128.049862 L32.5022256,128.059221 C33.2772336,128.398015 34.0522416,128.639477 34.8085296,128.826656 C35.5554576,129.011964 36.3323376,128.643221 36.6618096,127.948785 L37.8130896,125.532297 L39.6757296,126.013349 L39.6757296,136.194041 L16.7998896,136.194041 C16.3730736,136.194041 15.9556176,136.366246 15.6542256,136.667605 C15.3509616,136.970836 15.1787376,137.388246 15.1787376,137.815015 L15.1787376,142.756554 L1.6217136,142.756554 C0.7250256,142.756554 0.0005616,143.48281 0.0005616,144.377528 C0.0005616,145.274118 0.7250256,146.000374 1.6217136,146.000374 L229.827874,146.000374 C230.724562,146.000374 231.450898,145.274118 231.450898,144.377528 C231.450898,143.48281 230.724562,142.756554 229.827874,142.756554 L229.827874,142.756554 Z" id="Fill-1" fill="#FD9348" sketch:type="MSShapeGroup" mask="url(#mask-2)"></path>
            </g>
            <path d="M192.231936,124.914979 L192.231936,124.913108 L192.231936,124.911236 L192.231936,124.914979 Z" id="Fill-4" fill="#FD9348" sketch:type="MSShapeGroup"></path>
            <path d="M112.234637,106.670969 C114.986477,103.923174 118.769789,102.227328 122.964941,102.227328 C127.160093,102.227328 130.945277,103.923174 133.695245,106.670969 C136.443341,109.422508 138.139373,113.205405 138.141245,117.400097 C138.139373,121.59479 136.443341,125.377687 133.695245,128.129226 C130.945277,130.877021 127.160093,132.572867 122.964941,132.572867 C118.769789,132.572867 114.986477,130.877021 112.234637,128.129226 C109.486541,125.377687 107.790509,121.59479 107.790509,117.400097 C107.790509,113.205405 109.486541,109.422508 112.234637,106.670969 M122.964941,135.816687 C133.137389,135.814815 141.383549,127.571431 141.383549,117.400097 C141.383549,107.228764 133.137389,98.9853795 122.964941,98.9835077 C112.792493,98.9853795 104.548205,107.228764 104.546333,117.400097 C104.548205,127.571431 112.792493,135.814815 122.964941,135.816687" id="Fill-6" fill="#FD9348" sketch:type="MSShapeGroup"></path>
            <path d="M74.1673296,118.876944 L81.8425296,118.876944 C82.7373456,118.876944 83.4636816,118.150687 83.4636816,117.255969 C83.4636816,116.359379 82.7373456,115.633123 81.8425296,115.633123 L77.2261776,115.633123 L81.3015216,109.62279 C81.8032176,108.881559 81.6104016,107.872662 80.8690896,107.371021 C80.1277776,106.867508 79.1187696,107.062174 78.6170736,107.803405 L78.6170736,107.803405 L72.8251056,116.344405 C72.4881456,116.842303 72.4525776,117.484328 72.7352496,118.014046 C73.0160496,118.545636 73.5664176,118.876944 74.1673296,118.876944" id="Fill-8" fill="#FD9348" sketch:type="MSShapeGroup"></path>
            <path d="M114.132283,117.718677 L119.710843,117.718677 L116.039851,121.308779 C115.397755,121.933959 115.386523,122.961574 116.013643,123.601728 C116.638891,124.241882 117.666619,124.253113 118.306843,123.627933 L124.823275,117.256344 C125.295019,116.79401 125.441035,116.095831 125.190187,115.485626 C124.941211,114.873549 124.349659,114.474856 123.688843,114.474856 L114.132283,114.474856 C113.235595,114.474856 112.511131,115.201113 112.511131,116.097703 C112.511131,116.992421 113.235595,117.718677 114.132283,117.718677" id="Fill-10" fill="#FD9348" sketch:type="MSShapeGroup"></path>
            <path d="M164.893997,111.240021 L164.893997,111.240021 L164.893997,111.236277 L164.893997,111.240021 Z" id="Fill-12" fill="#FD9348" sketch:type="MSShapeGroup"></path>
            <path d="M175.37027,84.2094308 C174.782462,84.3610462 174.194654,84.4340462 173.614334,84.4340462 C170.476862,84.4359179 167.571518,82.3039436 166.760942,79.1368667 C166.60931,78.5491231 166.536302,77.9613795 166.536302,77.3811231 C166.53443,74.2458667 168.666638,71.340841 171.834062,70.5284821 L183.674462,67.4680974 L189.857678,80.4639692 L175.37027,84.2094308 Z M167.783054,51.2602256 L167.69507,50.6537641 C167.69507,49.7347128 168.295982,48.8774308 169.226366,48.6060205 L169.832894,48.5180462 C170.752046,48.5180462 171.609422,49.1188923 171.880862,50.0491744 L171.968846,50.6556359 C171.968846,51.5746872 171.367934,52.4319692 170.43755,52.7033795 L169.831022,52.7913538 C168.91187,52.7913538 168.054494,52.1905077 167.783054,51.2602256 L167.783054,51.2602256 Z M174.215246,55.4193538 C174.204014,55.6271231 174.194654,55.8573538 174.194654,56.1194051 C174.194654,57.5363538 174.421166,59.7469436 175.38899,62.6519692 C175.643582,63.3894564 176.051678,64.0707897 176.544014,64.8475846 C176.744318,65.1583026 176.983934,65.4727641 177.20483,65.7909692 L171.39227,67.2921487 C171.386654,66.0998154 171.360446,64.9823538 171.246254,64.1550205 C170.725838,60.4020718 169.467854,58.2139436 168.582398,57.0833795 L174.215246,55.4193538 Z M229.950302,67.8387128 L195.28835,83.0021231 C195.114254,83.0788667 194.921438,83.1181744 194.743598,83.1836872 L185.241326,63.2116359 C185.604494,62.9963795 185.980766,62.799841 186.372014,62.6295077 L231.251342,42.9943795 C232.071278,42.6349949 232.445678,41.6803795 232.086254,40.8586615 C231.72683,40.0388154 230.770238,39.6644564 229.950302,40.023841 L229.950302,40.023841 L185.072846,59.6570974 C184.017038,60.1194308 183.062318,60.701559 182.201198,61.3510718 C181.587182,61.8152769 181.383134,62.6482256 181.712606,63.3426615 L182.255486,64.4844564 L180.550094,64.9262 C180.095198,64.3066359 179.642174,63.6683538 179.271518,63.091841 C178.840958,62.4367128 178.520846,61.8171487 178.466558,61.6280974 C177.60731,59.0450205 177.43883,57.1938154 177.43883,56.1194051 C177.43883,55.7057385 177.463166,55.4081231 177.48563,55.226559 L177.511838,55.0449949 L177.511838,55.0412513 C177.577358,54.7642256 177.56987,54.477841 177.489374,54.2064308 C177.13931,53.0346872 176.13779,52.2672513 174.997742,52.1137641 C175.130654,51.6439436 175.213022,51.1572769 175.213022,50.6556359 C175.213022,50.1502513 175.141886,49.6373795 174.992126,49.1319949 L173.436494,49.5905846 L174.992126,49.1301231 C174.297614,46.7903795 172.15979,45.2723538 169.832894,45.2742256 C169.327454,45.2742256 168.812654,45.3453538 168.309086,45.4950974 C165.967214,46.1895333 164.449022,48.3271231 164.450894,50.6537641 C164.450894,51.1591487 164.523902,51.6738923 164.67179,52.1792769 C164.96195,53.1526103 165.508574,53.9724564 166.20683,54.6107385 C165.456158,55.1741487 164.995646,56.0576359 164.997518,57.0066359 C164.997518,57.2911487 165.03683,57.5794051 165.12107,57.8601744 C165.21467,58.1802513 165.405614,58.4535333 165.665822,58.6613026 L165.662078,58.6650462 L165.92603,58.9439436 C166.427726,59.5447897 167.543438,61.1676359 168.035774,64.6098667 C168.11627,65.1508154 168.157454,66.3787128 168.15371,67.6272 C168.15371,67.9678667 168.151838,68.3104051 168.148094,68.6492 C165.15851,70.5266103 163.293998,73.8265846 163.292126,77.3811231 C163.292126,78.2309179 163.39883,79.0938154 163.619726,79.9492256 C164.827166,84.5894051 169.022318,87.6741231 173.614334,87.6759949 C174.464222,87.6759949 175.327214,87.5711744 176.182718,87.3503026 L191.276654,83.4476103 L192.427934,85.8659692 C192.757406,86.5585333 193.534286,86.9272769 194.281214,86.743841 C195.037502,86.5566615 195.81251,86.3133282 196.587518,85.9745333 L231.251342,70.8092513 C232.071278,70.4498667 232.445678,69.4933795 232.086254,68.6735333 C231.72683,67.8536872 230.770238,67.4793282 229.950302,67.8387128 L229.950302,67.8387128 Z" id="Fill-14" fill="#FD9348" sketch:type="MSShapeGroup"></path>
            <path d="M105.453317,43.2208667 L105.458933,43.2208667 C106.988357,43.2171231 108.225749,41.9798667 108.227621,40.4506103 L108.227621,40.4449949 C108.225749,38.9157385 106.988357,37.6784821 105.458933,37.6747385 L105.453317,37.6747385 C103.923893,37.6784821 102.686501,38.9157385 102.682757,40.4449949 L102.682757,40.4506103 C102.686501,41.9798667 103.923893,43.2171231 105.453317,43.2208667" id="Fill-16" fill="#FD9348" sketch:type="MSShapeGroup"></path>
            <path d="M119.108808,40.4457436 C119.105064,38.9164872 117.867672,37.6792308 116.338248,37.6754872 L116.334504,37.6754872 C114.803208,37.6792308 113.565816,38.9164872 113.562072,40.4457436 L113.562072,40.451359 C113.565816,41.9806154 114.803208,43.2178718 116.334504,43.2216154 L116.338248,43.2216154 C117.867672,43.2178718 119.105064,41.9806154 119.108808,40.451359 L119.108808,40.4457436 Z" id="Fill-18" fill="#FD9348" sketch:type="MSShapeGroup"></path>
            <path d="M129.989059,40.4457436 C129.985315,38.9164872 128.747923,37.6792308 127.218499,37.6754872 L127.214755,37.6754872 C125.683459,37.6792308 124.446067,38.9164872 124.444195,40.4457436 L124.444195,40.451359 C124.446067,41.9806154 125.683459,43.2178718 127.214755,43.2216154 L127.218499,43.2216154 C128.747923,43.2178718 129.985315,41.9806154 129.989059,40.451359 L129.989059,40.4457436 Z" id="Fill-20" fill="#FD9348" sketch:type="MSShapeGroup"></path>
            <path d="M105.453317,52.3338872 L105.458933,52.3338872 C106.988357,52.3301436 108.225749,51.0928872 108.227621,49.5636308 L108.227621,49.5598872 C108.225749,48.028759 106.988357,46.7915026 105.458933,46.787759 L105.453317,46.787759 C103.923893,46.7915026 102.686501,48.028759 102.682757,49.5598872 L102.682757,49.5636308 C102.686501,51.0928872 103.923893,52.3301436 105.453317,52.3338872" id="Fill-22" fill="#FD9348" sketch:type="MSShapeGroup"></path>
            <path d="M119.108808,49.5589513 C119.105064,48.0296949 117.867672,46.7924385 116.338248,46.7886949 L116.334504,46.7886949 C114.803208,46.7924385 113.565816,48.0296949 113.562072,49.5589513 L113.562072,49.5645667 C113.565816,51.0938231 114.803208,52.3310795 116.334504,52.3329513 L116.338248,52.3329513 C117.867672,52.3310795 119.105064,51.0938231 119.108808,49.5645667 L119.108808,49.5589513 Z" id="Fill-24" fill="#FD9348" sketch:type="MSShapeGroup"></path>
            <path d="M129.989059,49.5589513 C129.985315,48.0296949 128.747923,46.7924385 127.218499,46.7886949 L127.214755,46.7886949 C125.683459,46.7924385 124.446067,48.0296949 124.444195,49.5589513 L124.444195,49.5645667 C124.446067,51.0938231 125.683459,52.3310795 127.214755,52.3329513 L127.218499,52.3329513 C128.747923,52.3310795 129.985315,51.0938231 129.989059,49.5645667 L129.989059,49.5589513 Z" id="Fill-26" fill="#FD9348" sketch:type="MSShapeGroup"></path>
            <path d="M105.453317,62.0120026 L105.458933,62.0120026 C106.988357,62.008259 108.225749,60.7710026 108.227621,59.2417462 L108.227621,59.2361308 C108.225749,57.7068744 106.988357,56.4696179 105.458933,56.4658744 L105.453317,56.4658744 C103.923893,56.4696179 102.686501,57.7068744 102.682757,59.2361308 L102.682757,59.2417462 C102.686501,60.7710026 103.923893,62.008259 105.453317,62.0120026" id="Fill-28" fill="#FD9348" sketch:type="MSShapeGroup"></path>
            <path d="M105.662794,66.4861538 L105.657178,66.4861538 C104.127754,66.4898974 102.890362,67.7271538 102.886618,69.2564103 L102.886618,69.2620256 C102.890362,70.7912821 104.127754,72.0285385 105.657178,72.0304103 L105.662794,72.0304103 C107.192218,72.0285385 108.42961,70.7912821 108.433354,69.2620256 L108.433354,69.2564103 C108.42961,67.7271538 107.192218,66.4898974 105.662794,66.4861538" id="Fill-30" fill="#FD9348" sketch:type="MSShapeGroup"></path>
            <path d="M119.108808,59.2370667 C119.105064,57.7078103 117.867672,56.4705538 116.338248,56.4668103 L116.334504,56.4668103 C114.803208,56.4705538 113.565816,57.7078103 113.562072,59.2370667 L113.562072,59.2426821 C113.565816,60.7719385 114.803208,62.0091949 116.334504,62.0129385 L116.338248,62.0129385 C117.867672,62.0091949 119.105064,60.7719385 119.108808,59.2426821 L119.108808,59.2370667 Z" id="Fill-32" fill="#FD9348" sketch:type="MSShapeGroup"></path>
            <path d="M129.989059,59.2370667 C129.985315,57.7078103 128.747923,56.4705538 127.218499,56.4668103 L127.214755,56.4668103 C125.683459,56.4705538 124.446067,57.7078103 124.444195,59.2370667 L124.444195,59.2426821 C124.446067,60.7719385 125.683459,62.0091949 127.214755,62.0129385 L127.218499,62.0129385 C128.747923,62.0091949 129.985315,60.7719385 129.989059,59.2426821 L129.989059,59.2370667 Z" id="Fill-34" fill="#FD9348" sketch:type="MSShapeGroup"></path>
            <path d="M136.963757,52.3338872 L136.969373,52.3338872 C138.498797,52.3301436 139.736189,51.0928872 139.738061,49.5636308 L139.738061,49.5598872 C139.736189,48.028759 138.498797,46.7915026 136.969373,46.787759 L136.963757,46.787759 C135.434333,46.7915026 134.196941,48.028759 134.193197,49.5598872 L134.193197,49.5636308 C134.196941,51.0928872 135.434333,52.3301436 136.963757,52.3338872" id="Fill-36" fill="#FD9348" sketch:type="MSShapeGroup"></path>
            <path d="M136.963757,62.0120026 L136.969373,62.0120026 C138.498797,62.008259 139.736189,60.7710026 139.738061,59.2417462 L139.738061,59.2361308 C139.736189,57.7068744 138.498797,56.4696179 136.969373,56.4658744 L136.963757,56.4658744 C135.434333,56.4696179 134.196941,57.7068744 134.193197,59.2361308 L134.193197,59.2417462 C134.196941,60.7710026 135.434333,62.008259 136.963757,62.0120026" id="Fill-38" fill="#FD9348" sketch:type="MSShapeGroup"></path>
            <path d="M146.987006,62.0120026 L146.992622,62.0120026 C148.522046,62.008259 149.759438,60.7710026 149.76131,59.2417462 L149.76131,59.2361308 C149.759438,57.7068744 148.522046,56.4696179 146.992622,56.4658744 L146.987006,56.4658744 C145.457582,56.4696179 144.22019,57.7068744 144.216446,59.2361308 L144.216446,59.2417462 C144.22019,60.7710026 145.457582,62.008259 146.987006,62.0120026" id="Fill-40" fill="#FD9348" sketch:type="MSShapeGroup"></path>
            <path d="M156.736757,62.0120026 L156.742373,62.0120026 C158.271797,62.008259 159.509189,60.7710026 159.511061,59.2417462 L159.511061,59.2361308 C159.509189,57.7068744 158.271797,56.4696179 156.742373,56.4658744 L156.736757,56.4658744 C155.207333,56.4696179 153.969941,57.7068744 153.966197,59.2361308 L153.966197,59.2417462 C153.969941,60.7710026 155.207333,62.008259 156.736757,62.0120026" id="Fill-42" fill="#FD9348" sketch:type="MSShapeGroup"></path>
            <path d="M129.872808,69.2245897 C129.869064,67.6953333 128.631672,66.4580769 127.102248,66.4543333 L127.098504,66.4543333 C125.567208,66.4580769 124.329816,67.6953333 124.326072,69.2245897 L124.326072,69.2302051 C124.329816,70.7594615 125.567208,71.9967179 127.098504,72.0004615 L127.102248,72.0004615 C128.631672,71.9967179 129.869064,70.7594615 129.872808,69.2302051 L129.872808,69.2245897 Z" id="Fill-44" fill="#FD9348" sketch:type="MSShapeGroup"></path>
            <path d="M140.753059,69.2245897 C140.749315,67.6953333 139.511923,66.4580769 137.982499,66.4543333 L137.978755,66.4543333 C136.447459,66.4580769 135.210067,67.6953333 135.208195,69.2245897 L135.208195,69.2302051 C135.210067,70.7594615 136.447459,71.9967179 137.978755,72.0004615 L137.982499,72.0004615 C139.511923,71.9967179 140.749315,70.7594615 140.753059,69.2302051 L140.753059,69.2245897 Z" id="Fill-46" fill="#FD9348" sketch:type="MSShapeGroup"></path>
            <path d="M127.102248,75.5673538 L127.096632,75.5673538 C125.567208,75.5710974 124.329816,76.8083538 124.326072,78.3376103 L124.326072,78.3432256 C124.329816,79.8724821 125.567208,81.1097385 127.096632,81.1134821 L127.102248,81.1134821 C128.631672,81.1097385 129.869064,79.8724821 129.872808,78.3432256 L129.872808,78.3376103 C129.869064,76.8083538 128.631672,75.5710974 127.102248,75.5673538" id="Fill-48" fill="#FD9348" sketch:type="MSShapeGroup"></path>
            <path d="M140.753059,78.3376103 C140.749315,76.8083538 139.511923,75.5710974 137.982499,75.5673538 L137.978755,75.5673538 C136.447459,75.5710974 135.210067,76.8083538 135.208195,78.3376103 L135.208195,78.3432256 C135.210067,79.8724821 136.447459,81.1097385 137.978755,81.1134821 L137.982499,81.1134821 C139.511923,81.1097385 140.749315,79.8724821 140.753059,78.3432256 L140.753059,78.3376103 Z" id="Fill-50" fill="#FD9348" sketch:type="MSShapeGroup"></path>
            <path d="M116.162842,66.8200821 L116.157226,66.8200821 C114.627802,66.8238256 113.39041,68.0610821 113.386666,69.5903385 L113.386666,69.5959538 C113.39041,71.1252103 114.627802,72.3624667 116.157226,72.3662103 L116.162842,72.3662103 C117.692266,72.3624667 118.929658,71.1252103 118.933402,69.5959538 L118.933402,69.5903385 C118.929658,68.0610821 117.692266,66.8238256 116.162842,66.8200821" id="Fill-52" fill="#FD9348" sketch:type="MSShapeGroup"></path>
            <path d="M137.982686,85.2456564 L137.97707,85.2456564 C136.447646,85.2494 135.210254,86.4866564 135.20651,88.0159128 L135.20651,88.0215282 C135.210254,89.5507846 136.447646,90.788041 137.97707,90.7917846 L137.982686,90.7917846 C139.51211,90.788041 140.749502,89.5507846 140.753246,88.0215282 L140.753246,88.0159128 C140.749502,86.4866564 139.51211,85.2494 137.982686,85.2456564" id="Fill-54" fill="#FD9348" sketch:type="MSShapeGroup"></path>
            <path d="M150.502997,78.3376103 C150.499253,76.8083538 149.261861,75.5710974 147.732437,75.5673538 L147.728693,75.5673538 C146.197397,75.5710974 144.960005,76.8083538 144.958133,78.3376103 L144.958133,78.3432256 C144.960005,79.8724821 146.197397,81.1097385 147.728693,81.1134821 L147.732437,81.1134821 C149.261861,81.1097385 150.499253,79.8724821 150.502997,78.3432256 L150.502997,78.3376103 Z" id="Fill-56" fill="#FD9348" sketch:type="MSShapeGroup"></path>
            <path d="M147.732437,85.2456564 L147.726821,85.2456564 C146.197397,85.2494 144.960005,86.4866564 144.958133,88.0159128 L144.958133,88.0215282 C144.960005,89.5507846 146.197397,90.788041 147.726821,90.7917846 L147.732437,90.7917846 C149.261861,90.788041 150.499253,89.5507846 150.502997,88.0215282 L150.502997,88.0159128 C150.499253,86.4866564 149.261861,85.2494 147.732437,85.2456564" id="Fill-58" fill="#FD9348" sketch:type="MSShapeGroup"></path>
            <path d="M115.838986,14.9281256 L115.844602,14.9281256 C117.374026,14.9243821 118.611418,13.6871256 118.61329,12.1578692 L118.61329,12.1522538 C118.611418,10.6229974 117.374026,9.38574103 115.844602,9.38199744 L115.838986,9.38199744 C114.309562,9.38574103 113.07217,10.6229974 113.068426,12.1522538 L113.068426,12.1578692 C113.07217,13.6871256 114.309562,14.9243821 115.838986,14.9281256" id="Fill-60" fill="#FD9348" sketch:type="MSShapeGroup"></path>
            <g id="Group-64">
                <mask id="mask-4" sketch:name="Clip 63" fill="white">
                    <use xlink:href="#path-3"></use>
                </mask>
                <g id="Clip-63"></g>
                <path d="M115.838986,6.31000769 L115.844602,6.31000769 C117.374026,6.3062641 118.611418,5.06900769 118.61329,3.53975128 L118.61329,3.5341359 C118.611418,2.00487949 117.374026,0.767623077 115.844602,0.763879487 L115.838986,0.763879487 C114.309562,0.767623077 113.07217,2.00487949 113.068426,3.5341359 L113.068426,3.53975128 C113.07217,5.06900769 114.309562,6.3062641 115.838986,6.31000769" id="Fill-62" fill="#FD9348" sketch:type="MSShapeGroup" mask="url(#mask-4)"></path>
            </g>
            <path d="M126.719424,14.9281256 L126.72504,14.9281256 C128.254464,14.9243821 129.491856,13.6871256 129.493728,12.1578692 L129.493728,12.1522538 C129.491856,10.6229974 128.254464,9.38574103 126.72504,9.38199744 L126.719424,9.38199744 C125.19,9.38574103 123.952608,10.6229974 123.948864,12.1522538 L123.948864,12.1578692 C123.952608,13.6871256 125.19,14.9243821 126.719424,14.9281256" id="Fill-65" fill="#FD9348" sketch:type="MSShapeGroup"></path>
            <path d="M137.599675,14.9281256 L137.605291,14.9281256 C139.134715,14.9243821 140.372107,13.6871256 140.373979,12.1578692 L140.373979,12.1522538 C140.372107,10.6229974 139.134715,9.38574103 137.605291,9.38199744 L137.599675,9.38199744 C136.070251,9.38574103 134.832859,10.6229974 134.829115,12.1522538 L134.829115,12.1578692 C134.832859,13.6871256 136.070251,14.9243821 137.599675,14.9281256" id="Fill-67" fill="#FD9348" sketch:type="MSShapeGroup"></path>
            <path d="M115.838986,24.0411462 L115.844602,24.0411462 C117.374026,24.0374026 118.611418,22.8001462 118.61329,21.2708897 L118.61329,21.2652744 C118.611418,19.7360179 117.374026,18.4987615 115.844602,18.4950179 L115.838986,18.4950179 C114.309562,18.4987615 113.07217,19.7360179 113.068426,21.2652744 L113.068426,21.2708897 C113.07217,22.8001462 114.309562,24.0374026 115.838986,24.0411462" id="Fill-69" fill="#FD9348" sketch:type="MSShapeGroup"></path>
            <path d="M126.719424,24.0411462 L126.72504,24.0411462 C128.254464,24.0374026 129.491856,22.8001462 129.493728,21.2708897 L129.493728,21.2652744 C129.491856,19.7360179 128.254464,18.4987615 126.72504,18.4950179 L126.719424,18.4950179 C125.19,18.4987615 123.952608,19.7360179 123.948864,21.2652744 L123.948864,21.2708897 C123.952608,22.8001462 125.19,24.0374026 126.719424,24.0411462" id="Fill-71" fill="#FD9348" sketch:type="MSShapeGroup"></path>
            <path d="M137.599675,24.0411462 L137.605291,24.0411462 C139.134715,24.0374026 140.372107,22.8001462 140.373979,21.2708897 L140.373979,21.2652744 C140.372107,19.7360179 139.134715,18.4987615 137.605291,18.4950179 L137.599675,18.4950179 C136.070251,18.4987615 134.832859,19.7360179 134.829115,21.2652744 L134.829115,21.2708897 C134.832859,22.8001462 136.070251,24.0374026 137.599675,24.0411462" id="Fill-73" fill="#FD9348" sketch:type="MSShapeGroup"></path>
            <path d="M115.838986,33.7192615 L115.844602,33.7192615 C117.374026,33.7155179 118.611418,32.4782615 118.61329,30.9490051 L118.61329,30.9433897 C118.611418,29.4141333 117.374026,28.1768769 115.844602,28.1731333 L115.838986,28.1731333 C114.309562,28.1768769 113.07217,29.4141333 113.068426,30.9433897 L113.068426,30.9490051 C113.07217,32.4782615 114.309562,33.7155179 115.838986,33.7192615" id="Fill-75" fill="#FD9348" sketch:type="MSShapeGroup"></path>
            <path d="M126.719424,33.7192615 L126.72504,33.7192615 C128.254464,33.7155179 129.491856,32.4782615 129.493728,30.9490051 L129.493728,30.9433897 C129.491856,29.4141333 128.254464,28.1768769 126.72504,28.1731333 L126.719424,28.1731333 C125.19,28.1768769 123.952608,29.4141333 123.948864,30.9433897 L123.948864,30.9490051 C123.952608,32.4782615 125.19,33.7155179 126.719424,33.7192615" id="Fill-77" fill="#FD9348" sketch:type="MSShapeGroup"></path>
            <path d="M137.599675,33.7192615 L137.605291,33.7192615 C139.134715,33.7155179 140.372107,32.4782615 140.373979,30.9490051 L140.373979,30.9433897 C140.372107,29.4141333 139.134715,28.1768769 137.605291,28.1731333 L137.599675,28.1731333 C136.070251,28.1768769 134.832859,29.4141333 134.829115,30.9433897 L134.829115,30.9490051 C134.832859,32.4782615 136.070251,33.7155179 137.599675,33.7192615" id="Fill-79" fill="#FD9348" sketch:type="MSShapeGroup"></path>
            <path d="M94.5133488,61.1056795 C94.8709008,61.2629103 95.2490448,61.3377821 95.6197008,61.3377821 C96.4714608,61.3377821 97.2782928,60.9297308 97.8080688,60.2390385 L97.9185168,60.2390385 L98.1637488,59.6775 C98.3191248,59.3199872 98.3940048,58.9437564 98.3940048,58.573141 C98.3940048,57.5062179 97.7762448,56.4879615 96.7354128,56.0293718 L96.3610128,56.8866538 L96.7354128,56.0293718 C96.3778608,55.8740128 95.9997168,55.7972692 95.6290608,55.799141 C94.5620208,55.7972692 93.5436528,56.4168333 93.0868848,57.4575513 C92.9296368,57.8150641 92.8547568,58.1931667 92.8547568,58.5619103 C92.8547568,59.6288333 93.4725168,60.6470897 94.5133488,61.1056795" id="Fill-81" fill="#FD9348" sketch:type="MSShapeGroup"></path>
            <path d="M94.5133488,52.2438538 C94.8709008,52.4010846 95.2490448,52.4759564 95.6197008,52.4759564 C96.4714608,52.4759564 97.2782928,52.0679051 97.8080688,51.3772128 L97.9185168,51.3772128 L98.1618768,50.8156744 C98.3191248,50.4581615 98.3940048,50.0819308 98.3940048,49.7113154 C98.3940048,48.6443923 97.7762448,47.6261359 96.7354128,47.1675462 C96.3778608,47.0121872 95.9997168,46.9354436 95.6290608,46.9373154 C94.5620208,46.9354436 93.5436528,47.5550077 93.0868848,48.5957256 C92.9296368,48.9532385 92.8547568,49.331341 92.8547568,49.7000846 C92.8547568,50.7670077 93.4725168,51.7852641 94.5133488,52.2438538" id="Fill-83" fill="#FD9348" sketch:type="MSShapeGroup"></path>
            <path d="M87.6571488,49.8037821 C87.6534048,48.2745256 86.4160128,47.0372692 84.8865888,47.0335256 L84.8828448,47.0335256 C83.3515488,47.0372692 82.1141568,48.2745256 82.1122848,49.8037821 L82.1122848,49.8093974 C82.1141568,51.3386538 83.3515488,52.5759103 84.8828448,52.5796538 L84.8865888,52.5796538 C86.4160128,52.5759103 87.6534048,51.3386538 87.6571488,49.8093974 L87.6571488,49.8037821 Z" id="Fill-85" fill="#FD9348" sketch:type="MSShapeGroup"></path>
            <path d="M74.0016576,52.5789051 L74.0072736,52.5789051 C75.5366976,52.5751615 76.7740896,51.3379051 76.7759616,49.8086487 L76.7759616,49.8030333 C76.7740896,48.2737769 75.5366976,47.0365205 74.0072736,47.0327769 L74.0016576,47.0327769 C72.4722336,47.0365205 71.2348416,48.2737769 71.2310976,49.8030333 L71.2310976,49.8086487 C71.2348416,51.3379051 72.4722336,52.5751615 74.0016576,52.5789051" id="Fill-87" fill="#FD9348" sketch:type="MSShapeGroup"></path>
            <path d="M63.1214064,52.5789051 L63.1270224,52.5789051 C64.6564464,52.5751615 65.8938384,51.3379051 65.8957104,49.8086487 L65.8957104,49.8030333 C65.8938384,48.2737769 64.6564464,47.0365205 63.1270224,47.0327769 L63.1214064,47.0327769 C61.5919824,47.0365205 60.3545904,48.2737769 60.3508464,49.8030333 L60.3508464,49.8086487 C60.3545904,51.3379051 61.5919824,52.5751615 63.1214064,52.5789051" id="Fill-89" fill="#FD9348" sketch:type="MSShapeGroup"></path>
            <path d="M87.6571488,58.9168026 C87.6534048,57.3875462 86.4160128,56.1502897 84.8865888,56.1465462 L84.8828448,56.1465462 C83.3515488,56.1502897 82.1141568,57.3875462 82.1122848,58.9168026 L82.1122848,58.9224179 C82.1141568,60.4516744 83.3515488,61.6889308 84.8828448,61.6926744 L84.8865888,61.6926744 C86.4160128,61.6889308 87.6534048,60.4516744 87.6571488,58.9224179 L87.6571488,58.9168026 Z" id="Fill-91" fill="#FD9348" sketch:type="MSShapeGroup"></path>
            <path d="M74.0016576,61.6919256 L74.0072736,61.6919256 C75.5366976,61.6881821 76.7740896,60.4509256 76.7759616,58.9216692 L76.7759616,58.9160538 C76.7740896,57.3867974 75.5366976,56.149541 74.0072736,56.1457974 L74.0016576,56.1457974 C72.4722336,56.149541 71.2348416,57.3867974 71.2310976,58.9160538 L71.2310976,58.9216692 C71.2348416,60.4509256 72.4722336,61.6881821 74.0016576,61.6919256" id="Fill-93" fill="#FD9348" sketch:type="MSShapeGroup"></path>
            <path d="M63.1214064,61.6919256 L63.1270224,61.6919256 C64.6564464,61.6881821 65.8938384,60.4509256 65.8957104,58.9216692 L65.8957104,58.9160538 C65.8938384,57.3867974 64.6564464,56.149541 63.1270224,56.1457974 L63.1214064,56.1457974 C61.5919824,56.149541 60.3545904,57.3867974 60.3508464,58.9160538 L60.3508464,58.9216692 C60.3545904,60.4509256 61.5919824,61.6881821 63.1214064,61.6919256" id="Fill-95" fill="#FD9348" sketch:type="MSShapeGroup"></path>
            <path d="M87.6571488,68.5951051 C87.6534048,67.0658487 86.4160128,65.8285923 84.8865888,65.8248487 L84.8828448,65.8248487 C83.3515488,65.8285923 82.1141568,67.0658487 82.1122848,68.5951051 L82.1122848,68.6007205 C82.1141568,70.1299769 83.3515488,71.3672333 84.8828448,71.3709769 L84.8865888,71.3709769 C86.4160128,71.3672333 87.6534048,70.1299769 87.6571488,68.6007205 L87.6571488,68.5951051 Z" id="Fill-97" fill="#FD9348" sketch:type="MSShapeGroup"></path>
            <path d="M84.886776,76.224541 L84.88116,76.224541 C83.351736,76.2282846 82.114344,77.465541 82.1106,78.9947974 L82.1106,79.0004128 C82.114344,80.5296692 83.351736,81.7669256 84.88116,81.7687974 L84.886776,81.7687974 C86.4162,81.7669256 87.653592,80.5296692 87.657336,79.0004128 L87.657336,78.9947974 C87.653592,77.465541 86.4162,76.2282846 84.886776,76.224541" id="Fill-99" fill="#FD9348" sketch:type="MSShapeGroup"></path>
            <path d="M74.0016576,71.370041 L74.0072736,71.370041 C75.5366976,71.3662974 76.7740896,70.129041 76.7759616,68.5997846 L76.7759616,68.5941692 C76.7740896,67.0649128 75.5366976,65.8276564 74.0072736,65.8239128 L74.0016576,65.8239128 C72.4722336,65.8276564 71.2348416,67.0649128 71.2310976,68.5941692 L71.2310976,68.5997846 C71.2348416,70.129041 72.4722336,71.3662974 74.0016576,71.370041" id="Fill-101" fill="#FD9348" sketch:type="MSShapeGroup"></path>
            <path d="M63.1214064,71.370041 L63.1270224,71.370041 C64.6564464,71.3662974 65.8938384,70.129041 65.8957104,68.5997846 L65.8957104,68.5941692 C65.8938384,67.0649128 64.6564464,65.8276564 63.1270224,65.8239128 L63.1214064,65.8239128 C61.5919824,65.8276564 60.3545904,67.0649128 60.3508464,68.5941692 L60.3508464,68.5997846 C60.3545904,70.129041 61.5919824,71.3662974 63.1214064,71.370041" id="Fill-103" fill="#FD9348" sketch:type="MSShapeGroup"></path>
            <path d="M56.1467088,58.9168026 C56.1429648,57.3875462 54.9055728,56.1502897 53.3761488,56.1465462 L53.3724048,56.1465462 C51.8411088,56.1502897 50.6037168,57.3875462 50.6018448,58.9168026 L50.6018448,58.9224179 C50.6037168,60.4516744 51.8411088,61.6889308 53.3724048,61.6926744 L53.3761488,61.6926744 C54.9055728,61.6889308 56.1429648,60.4516744 56.1467088,58.9224179 L56.1467088,58.9168026 Z" id="Fill-105" fill="#FD9348" sketch:type="MSShapeGroup"></path>
            <path d="M53.376336,65.8248487 L53.37072,65.8248487 C51.841296,65.8285923 50.603904,67.0658487 50.60016,68.5951051 L50.60016,68.6007205 C50.603904,70.1299769 51.841296,71.3672333 53.37072,71.3709769 L53.376336,71.3709769 C54.90576,71.3672333 56.143152,70.1299769 56.146896,68.6007205 L56.146896,68.5951051 C56.143152,67.0658487 54.90576,65.8285923 53.376336,65.8248487" id="Fill-107" fill="#FD9348" sketch:type="MSShapeGroup"></path>
            <path d="M43.3484064,71.370041 L43.3540224,71.370041 C44.8834464,71.3662974 46.1208384,70.129041 46.1227104,68.5997846 L46.1227104,68.5941692 C46.1208384,67.0649128 44.8834464,65.8276564 43.3540224,65.8239128 L43.3484064,65.8239128 C41.8189824,65.8276564 40.5815904,67.0649128 40.5778464,68.5941692 L40.5778464,68.5997846 C40.5815904,70.129041 41.8189824,71.3662974 43.3484064,71.370041" id="Fill-109" fill="#FD9348" sketch:type="MSShapeGroup"></path>
            <path d="M33.5984688,71.370041 L33.6040848,71.370041 C35.1335088,71.3662974 36.3709008,70.129041 36.3727728,68.5997846 L36.3727728,68.5941692 C36.3709008,67.0649128 35.1335088,65.8276564 33.6040848,65.8239128 L33.5984688,65.8239128 C32.0690448,65.8276564 30.8316528,67.0649128 30.8279088,68.5941692 L30.8279088,68.5997846 C30.8316528,70.129041 32.0690448,71.3662974 33.5984688,71.370041" id="Fill-111" fill="#FD9348" sketch:type="MSShapeGroup"></path>
            <path d="M66.0128976,78.5826282 C66.0091536,77.0533718 64.7717616,75.8161154 63.2423376,75.8123718 L63.2385936,75.8123718 C61.7072976,75.8161154 60.4699056,77.0533718 60.4680336,78.5826282 L60.4680336,78.5882436 C60.4699056,80.1175 61.7072976,81.3547564 63.2385936,81.3585 L63.2423376,81.3585 C64.7717616,81.3547564 66.0091536,80.1175 66.0128976,78.5882436 L66.0128976,78.5826282 Z" id="Fill-113" fill="#FD9348" sketch:type="MSShapeGroup"></path>
            <path d="M52.3574064,81.3577513 L52.3630224,81.3577513 C53.8924464,81.3540077 55.1298384,80.1167513 55.1317104,78.5874949 L55.1317104,78.5818795 C55.1298384,77.0526231 53.8924464,75.8153667 52.3630224,75.8116231 L52.3574064,75.8116231 C50.8279824,75.8153667 49.5905904,77.0526231 49.5868464,78.5818795 L49.5868464,78.5874949 C49.5905904,80.1167513 50.8279824,81.3540077 52.3574064,81.3577513" id="Fill-115" fill="#FD9348" sketch:type="MSShapeGroup"></path>
            <path d="M63.2425248,84.9255795 L63.2369088,84.9255795 C61.7074848,84.9293231 60.4700928,86.1665795 60.4663488,87.6958359 L60.4663488,87.7014513 C60.4700928,89.2307077 61.7074848,90.4679641 63.2369088,90.4717077 L63.2425248,90.4717077 C64.7719488,90.4679641 66.0093408,89.2307077 66.0130848,87.7014513 L66.0130848,87.6958359 C66.0093408,86.1665795 64.7719488,84.9293231 63.2425248,84.9255795" id="Fill-117" fill="#FD9348" sketch:type="MSShapeGroup"></path>
            <path d="M52.3574064,90.4707718 L52.3630224,90.4707718 C53.8924464,90.4670282 55.1298384,89.2297718 55.1317104,87.7005154 L55.1317104,87.6949 C55.1298384,86.1656436 53.8924464,84.9283872 52.3630224,84.9246436 L52.3574064,84.9246436 C50.8279824,84.9283872 49.5905904,86.1656436 49.5868464,87.6949 L49.5868464,87.7005154 C49.5905904,89.2297718 50.8279824,90.4670282 52.3574064,90.4707718" id="Fill-119" fill="#FD9348" sketch:type="MSShapeGroup"></path>
            <path d="M74.1819312,76.1781205 L74.1763152,76.1781205 C72.6468912,76.1818641 71.4094992,77.4191205 71.4057552,78.9483769 L71.4057552,78.9539923 C71.4094992,80.4832487 72.6468912,81.7205051 74.1763152,81.7242487 L74.1819312,81.7242487 C75.7113552,81.7205051 76.9487472,80.4832487 76.9524912,78.9539923 L76.9524912,78.9483769 C76.9487472,77.4191205 75.7113552,76.1818641 74.1819312,76.1781205" id="Fill-121" fill="#FD9348" sketch:type="MSShapeGroup"></path>
            <path d="M42.6074688,90.4707718 L42.6130848,90.4707718 C44.1425088,90.4670282 45.3799008,89.2297718 45.3817728,87.7005154 L45.3817728,87.6949 C45.3799008,86.1656436 44.1425088,84.9283872 42.6130848,84.9246436 L42.6074688,84.9246436 C41.0780448,84.9283872 39.8406528,86.1656436 39.8369088,87.6949 L39.8369088,87.7005154 C39.8406528,89.2297718 41.0780448,90.4670282 42.6074688,90.4707718" id="Fill-123" fill="#FD9348" sketch:type="MSShapeGroup"></path>
            <path d="M74.49624,24.2861641 L74.501856,24.2861641 C76.03128,24.2824205 77.268672,23.0451641 77.270544,21.5159077 L77.270544,21.5102923 C77.268672,19.9810359 76.03128,18.7437795 74.501856,18.7400359 L74.49624,18.7400359 C72.966816,18.7437795 71.729424,19.9810359 71.72568,21.5102923 L71.72568,21.5159077 C71.729424,23.0451641 72.966816,24.2824205 74.49624,24.2861641" id="Fill-125" fill="#FD9348" sketch:type="MSShapeGroup"></path>
            <path d="M74.49624,15.6680462 L74.501856,15.6680462 C76.03128,15.6643026 77.268672,14.4270462 77.270544,12.8977897 L77.270544,12.8921744 C77.268672,11.3629179 76.03128,10.1256615 74.501856,10.1219179 L74.49624,10.1219179 C72.966816,10.1256615 71.729424,11.3629179 71.72568,12.8921744 L71.72568,12.8977897 C71.729424,14.4270462 72.966816,15.6643026 74.49624,15.6680462" id="Fill-127" fill="#FD9348" sketch:type="MSShapeGroup"></path>
            <path d="M63.6159888,24.2861641 L63.6216048,24.2861641 C65.1510288,24.2824205 66.3884208,23.0451641 66.3902928,21.5159077 L66.3902928,21.5102923 C66.3884208,19.9810359 65.1510288,18.7437795 63.6216048,18.7400359 L63.6159888,18.7400359 C62.0865648,18.7437795 60.8491728,19.9810359 60.8454288,21.5102923 L60.8454288,21.5159077 C60.8491728,23.0451641 62.0865648,24.2824205 63.6159888,24.2861641" id="Fill-129" fill="#FD9348" sketch:type="MSShapeGroup"></path>
            <path d="M52.7357376,24.2861641 L52.7413536,24.2861641 C54.2707776,24.2824205 55.5081696,23.0451641 55.5100416,21.5159077 L55.5100416,21.5102923 C55.5081696,19.9810359 54.2707776,18.7437795 52.7413536,18.7400359 L52.7357376,18.7400359 C51.2063136,18.7437795 49.9689216,19.9810359 49.9651776,21.5102923 L49.9651776,21.5159077 C49.9689216,23.0451641 51.2063136,24.2824205 52.7357376,24.2861641" id="Fill-131" fill="#FD9348" sketch:type="MSShapeGroup"></path>
            <path d="M74.49624,33.3991846 L74.501856,33.3991846 C76.03128,33.395441 77.268672,32.1581846 77.270544,30.6289282 L77.270544,30.6233128 C77.268672,29.0940564 76.03128,27.8568 74.501856,27.8530564 L74.49624,27.8530564 C72.966816,27.8568 71.729424,29.0940564 71.72568,30.6233128 L71.72568,30.6289282 C71.729424,32.1581846 72.966816,33.395441 74.49624,33.3991846" id="Fill-133" fill="#FD9348" sketch:type="MSShapeGroup"></path>
            <path d="M63.6159888,33.3991846 L63.6216048,33.3991846 C65.1510288,33.395441 66.3884208,32.1581846 66.3902928,30.6289282 L66.3902928,30.6233128 C66.3884208,29.0940564 65.1510288,27.8568 63.6216048,27.8530564 L63.6159888,27.8530564 C62.0865648,27.8568 60.8491728,29.0940564 60.8454288,30.6233128 L60.8454288,30.6289282 C60.8491728,32.1581846 62.0865648,33.395441 63.6159888,33.3991846" id="Fill-135" fill="#FD9348" sketch:type="MSShapeGroup"></path>
            <path d="M52.7357376,33.3991846 L52.7413536,33.3991846 C54.2707776,33.395441 55.5081696,32.1581846 55.5100416,30.6289282 L55.5100416,30.6233128 C55.5081696,29.0940564 54.2707776,27.8568 52.7413536,27.8530564 L52.7357376,27.8530564 C51.2063136,27.8568 49.9689216,29.0940564 49.9651776,30.6233128 L49.9651776,30.6289282 C49.9689216,32.1581846 51.2063136,33.395441 52.7357376,33.3991846" id="Fill-137" fill="#FD9348" sketch:type="MSShapeGroup"></path>
            <path d="M74.49624,43.0773 L74.501856,43.0773 C76.03128,43.0735564 77.268672,41.8363 77.270544,40.3070436 L77.270544,40.3014282 C77.268672,38.7721718 76.03128,37.5349154 74.501856,37.5311718 L74.49624,37.5311718 C72.966816,37.5349154 71.729424,38.7721718 71.72568,40.3014282 L71.72568,40.3070436 C71.729424,41.8363 72.966816,43.0735564 74.49624,43.0773" id="Fill-139" fill="#FD9348" sketch:type="MSShapeGroup"></path>
            <path d="M63.6159888,43.0773 L63.6216048,43.0773 C65.1510288,43.0735564 66.3884208,41.8363 66.3902928,40.3070436 L66.3902928,40.3014282 C66.3884208,38.7721718 65.1510288,37.5349154 63.6216048,37.5311718 L63.6159888,37.5311718 C62.0865648,37.5349154 60.8491728,38.7721718 60.8454288,40.3014282 L60.8454288,40.3070436 C60.8491728,41.8363 62.0865648,43.0735564 63.6159888,43.0773" id="Fill-141" fill="#FD9348" sketch:type="MSShapeGroup"></path>
            <path d="M52.7357376,43.0773 L52.7413536,43.0773 C54.2707776,43.0735564 55.5081696,41.8363 55.5100416,40.3070436 L55.5100416,40.3014282 C55.5081696,38.7721718 54.2707776,37.5349154 52.7413536,37.5311718 L52.7357376,37.5311718 C51.2063136,37.5349154 49.9689216,38.7721718 49.9651776,40.3014282 L49.9651776,40.3070436 C49.9689216,41.8363 51.2063136,43.0735564 52.7357376,43.0773" id="Fill-143" fill="#FD9348" sketch:type="MSShapeGroup"></path>
            <path d="M95.7520512,33.3991846 L95.7576672,33.3991846 C97.2870912,33.395441 98.5244832,32.1581846 98.5263552,30.6289282 L98.5263552,30.6233128 C98.5244832,29.0940564 97.2870912,27.8568 95.7576672,27.8530564 L95.7520512,27.8530564 C94.2226272,27.8568 92.9852352,29.0940564 92.9814912,30.6233128 L92.9814912,30.6289282 C92.9852352,32.1581846 94.2226272,33.395441 95.7520512,33.3991846" id="Fill-145" fill="#FD9348" sketch:type="MSShapeGroup"></path>
            <path d="M84.8718,33.3991846 L84.877416,33.3991846 C86.40684,33.395441 87.644232,32.1581846 87.646104,30.6289282 L87.646104,30.6233128 C87.644232,29.0940564 86.40684,27.8568 84.877416,27.8530564 L84.8718,27.8530564 C83.342376,27.8568 82.104984,29.0940564 82.10124,30.6233128 L82.10124,30.6289282 C82.104984,32.1581846 83.342376,33.395441 84.8718,33.3991846" id="Fill-147" fill="#FD9348" sketch:type="MSShapeGroup"></path>
            <path d="M95.7520512,43.0773 L95.7576672,43.0773 C97.2870912,43.0735564 98.5244832,41.8363 98.5263552,40.3070436 L98.5263552,40.3014282 C98.5244832,38.7721718 97.2870912,37.5349154 95.7576672,37.5311718 L95.7520512,37.5311718 C94.2226272,37.5349154 92.9852352,38.7721718 92.9814912,40.3014282 L92.9814912,40.3070436 C92.9852352,41.8363 94.2226272,43.0735564 95.7520512,43.0773" id="Fill-149" fill="#FD9348" sketch:type="MSShapeGroup"></path>
            <path d="M84.8718,43.0773 L84.877416,43.0773 C86.40684,43.0735564 87.644232,41.8363 87.646104,40.3070436 L87.646104,40.3014282 C87.644232,38.7721718 86.40684,37.5349154 84.877416,37.5311718 L84.8718,37.5311718 C83.342376,37.5349154 82.104984,38.7721718 82.10124,40.3014282 L82.10124,40.3070436 C82.104984,41.8363 83.342376,43.0735564 84.8718,43.0773" id="Fill-151" fill="#FD9348" sketch:type="MSShapeGroup"></path>
            <path d="M92.7611568,69.7183692 L92.7574128,69.7108821 C93.2160528,70.7516 94.2344208,71.3692923 95.3014608,71.3692923 C95.6721168,71.3692923 96.0483888,71.2944205 96.4059408,71.1390615 L96.4096848,71.1371897 C97.4523888,70.6786 98.0701488,69.6603436 98.0701488,68.5934205 C98.0701488,68.2265487 97.9952688,67.8540615 97.8417648,67.5002923 L97.8436368,67.5002923 L97.8417648,67.4946769 L97.8380208,67.4871897 L97.8361488,67.4834462 C97.3775088,66.4427282 96.3610128,65.8250359 95.2939728,65.8250359 C94.9251888,65.8250359 94.5470448,65.8999077 94.1894928,66.0552667 L94.1894928,66.0552667 L94.1857488,66.0571385 C93.1430448,66.5157282 92.5234128,67.5339846 92.5234128,68.6009077 C92.5234128,68.9715231 92.5982928,69.3496256 92.7555408,69.7071385 L92.7611568,69.7183692 Z" id="Fill-153" fill="#FD9348" sketch:type="MSShapeGroup"></path>
        </g>
    </g>
</svg>