<?xml version="1.0" encoding="UTF-8" standalone="no"?>
<svg width="264px" height="264px" viewBox="0 0 264 264" version="1.1" xmlns="http://www.w3.org/2000/svg" xmlns:xlink="http://www.w3.org/1999/xlink" xmlns:sketch="http://www.bohemiancoding.com/sketch/ns">
    <!-- Generator: Sketch Beta 3.4 (14672) - http://www.bohemiancoding.com/sketch -->
    <title>Slice 1</title>
    <desc>Created with Sketch Beta.</desc>
    <defs>
        <path id="path-1" d="M0,0.089 L221.485364,0.089 L221.485364,178 L0,178 L0,0.089 Z"></path>
    </defs>
    <g id="Page-1" stroke="none" stroke-width="1" fill="none" fill-rule="evenodd" sketch:type="MSPage">
        <rect id="Rectangle-112-Copy-4" fill="#FFFFFF" sketch:type="MSShapeGroup" x="0" y="0" width="264" height="264"></rect>
        <g id="Иконка_3" sketch:type="MSLayerGroup" transform="translate(22.000000, 53.000000)">
            <mask id="mask-2" sketch:name="Clip 2" fill="white">
                <use xlink:href="#path-1"></use>
            </mask>
            <g id="Clip-2"></g>
            <path d="M79.0538636,168.162981 L81.2469545,168.162981 L81.2469545,174.641509 L79.0538636,174.641509 L79.0538636,168.162981 Z M81.2486364,125.125604 L81.2486364,131.191038 L79.0538636,131.191038 L79.0538636,125.123925 C79.2556818,125.024849 79.6710909,124.883792 80.1520909,124.897226 C80.6297273,124.892189 81.0485,125.016453 81.2486364,125.125604 L81.2486364,125.125604 Z M79.0538636,160.087491 L81.2469545,160.087491 L81.2469545,164.804491 L79.0538636,164.804491 L79.0538636,160.087491 Z M81.2486364,139.783736 L79.0555455,139.783736 L79.0555455,134.549528 L81.2486364,134.549528 L81.2486364,139.783736 Z M79.0538636,151.494792 L81.2469545,151.494792 L81.2469545,156.729 L79.0538636,156.729 L79.0538636,151.494792 Z M79.0538636,143.142226 L81.2469545,143.142226 L81.2469545,148.137981 L79.0538636,148.137981 L79.0538636,143.142226 Z M82.3065,121.921604 C81.6455455,121.668038 80.9206818,121.540415 80.1520909,121.538736 C79.1261818,121.543774 78.1793182,121.762075 77.3585909,122.220509 C76.9482273,122.455604 76.5630909,122.754509 76.2452273,123.177679 C75.9290455,123.592453 75.6885455,124.168434 75.6902273,124.794792 L75.6902273,176.320755 C75.6902273,176.762396 75.8701818,177.195642 76.183,177.507981 C76.4975,177.820321 76.9297273,178 77.3720455,178 L82.9304545,178 C83.3727727,178 83.8066818,177.820321 84.1195,177.507981 C84.4323182,177.195642 84.6122727,176.762396 84.6122727,176.320755 L84.6122727,124.794792 C84.6139545,124.168434 84.3734545,123.592453 84.0572727,123.177679 C83.5762727,122.546283 82.9624091,122.178528 82.3065,121.921604 L82.3065,121.921604 Z" id="Fill-1" fill="#FD9348" sketch:type="MSShapeGroup" mask="url(#mask-2)"></path>
            <path d="M129.229227,168.162981 L131.422318,168.162981 L131.422318,174.641509 L129.229227,174.641509 L129.229227,168.162981 Z M131.422318,125.125604 L131.422318,131.191038 L129.229227,131.191038 L129.229227,125.123925 C129.429364,125.024849 129.846455,124.883792 130.325773,124.897226 C130.805091,124.892189 131.222182,125.016453 131.422318,125.125604 L131.422318,125.125604 Z M129.229227,160.087491 L131.422318,160.087491 L131.422318,164.804491 L129.229227,164.804491 L129.229227,160.087491 Z M131.422318,139.783736 L129.229227,139.783736 L129.229227,134.549528 L131.422318,134.549528 L131.422318,139.783736 Z M129.229227,151.494792 L131.422318,151.494792 L131.422318,156.729 L129.229227,156.729 L129.229227,151.494792 Z M129.229227,143.142226 L131.422318,143.142226 L131.422318,148.137981 L129.229227,148.137981 L129.229227,143.142226 Z M132.480182,121.921604 C131.820909,121.668038 131.094364,121.540415 130.325773,121.538736 C129.299864,121.543774 128.353,121.762075 127.532273,122.220509 C127.123591,122.455604 126.736773,122.754509 126.418909,123.177679 C126.102727,123.592453 125.862227,124.168434 125.865591,124.794792 L125.865591,176.320755 C125.865591,176.762396 126.043864,177.195642 126.358364,177.507981 C126.671182,177.820321 127.103409,178 127.547409,178 L133.104136,178 C133.546455,178 133.980364,177.820321 134.293182,177.507981 C134.606,177.195642 134.785955,176.762396 134.785955,176.320755 L134.785955,124.794792 C134.789318,124.168434 134.548818,123.592453 134.232636,123.177679 C133.749955,122.546283 133.136091,122.178528 132.480182,121.921604 L132.480182,121.921604 Z" id="Fill-3" fill="#FD9348" sketch:type="MSShapeGroup" mask="url(#mask-2)"></path>
            <path d="M178.422409,168.162981 L180.6155,168.162981 L180.6155,174.641509 L178.422409,174.641509 L178.422409,168.162981 Z M180.6155,125.125604 L180.6155,131.191038 L178.422409,131.191038 L178.422409,125.123925 C178.622545,125.024849 179.039636,124.883792 179.518955,124.897226 C179.998273,124.892189 180.415364,125.016453 180.6155,125.125604 L180.6155,125.125604 Z M178.422409,160.087491 L180.6155,160.087491 L180.6155,164.804491 L178.422409,164.804491 L178.422409,160.087491 Z M180.6155,139.783736 L178.422409,139.783736 L178.422409,134.549528 L180.6155,134.549528 L180.6155,139.783736 Z M178.422409,151.494792 L180.6155,151.494792 L180.6155,156.729 L178.422409,156.729 L178.422409,151.494792 Z M178.422409,143.142226 L180.6155,143.142226 L180.6155,148.137981 L178.422409,148.137981 L178.422409,143.142226 Z M181.673364,121.921604 C181.014091,121.668038 180.287545,121.540415 179.518955,121.538736 C178.493045,121.543774 177.546182,121.762075 176.725455,122.220509 C176.316773,122.455604 175.929955,122.754509 175.612091,123.177679 C175.295909,123.592453 175.055409,124.168434 175.058773,124.794792 L175.058773,176.320755 C175.058773,176.762396 175.237045,177.195642 175.551545,177.507981 C175.864364,177.820321 176.296591,178 176.740591,178 L182.297318,178 C182.739636,178 183.173545,177.820321 183.486364,177.507981 C183.799182,177.195642 183.979136,176.762396 183.979136,176.320755 L183.979136,124.794792 C183.9825,124.168434 183.742,123.592453 183.425818,123.177679 C182.943136,122.546283 182.329273,122.178528 181.673364,121.921604 L181.673364,121.921604 Z" id="Fill-4" fill="#FD9348" sketch:type="MSShapeGroup" mask="url(#mask-2)"></path>
            <path d="M217.455559,63.4108208 C217.137695,63.9229906 216.681923,64.4385189 215.957059,64.8986321 C215.232195,65.3553868 214.219741,65.7617642 212.761605,65.9649528 L212.640514,65.9699906 C212.295741,65.9750283 211.486786,65.8625189 210.593741,65.6694057 C209.239877,65.3822547 207.618605,64.9355755 206.352195,64.562783 C205.71815,64.3763868 205.169877,64.2084623 204.783059,64.0875566 C204.396241,63.9666509 204.174241,63.8944434 204.172559,63.8944434 C203.930377,63.8155189 203.686514,63.7936887 203.432559,63.8272736 L203.271105,63.8474245 C202.49915,63.9414623 199.056468,64.3327264 195.348059,64.3327264 C193.583832,64.3327264 191.760741,64.2420472 190.164695,64.0035943 C188.570332,63.7735377 187.204695,63.3654811 186.420968,62.885217 C183.560195,61.1690283 181.891832,59.3520849 180.933195,57.996934 C180.455559,57.3185189 180.154514,56.7559717 179.979605,56.3798208 C179.89215,56.1917453 179.83665,56.0506887 179.804695,55.9650472 L179.774423,55.8810849 L179.771059,55.8726887 L179.769377,55.8726887 C179.500286,54.9927642 178.575286,54.4889906 177.688968,54.7475943 C176.797605,55.0095566 176.286332,55.9415377 176.548695,56.8315377 C176.612605,57.0834245 177.842014,60.9037075 182.811786,64.5174434 L159.629605,85.1234623 C159.520286,85.2191792 159.456377,85.3400849 159.379014,85.4542736 L151.669559,86.2871792 C150.744559,86.3862547 150.076877,87.2158019 150.177786,88.1377075 C150.277014,89.0596132 151.107832,89.7262736 152.03115,89.6271981 L189.323786,85.5970094 L189.394423,85.586934 C191.230968,85.3081792 192.60165,85.1620849 193.556923,85.1637642 C194.317105,85.1620849 194.791377,85.2561226 195.053741,85.3652736 C195.30265,85.4727453 195.418695,85.5651038 195.59865,85.7951604 L208.666377,108.701745 L208.67815,108.723575 C209.152423,109.531292 209.273514,110.124066 209.275195,110.590896 C209.273514,111.215575 209.041423,111.714311 208.71515,112.159311 C208.553695,112.377613 208.373741,112.567368 208.210605,112.721858 C208.044105,112.879708 207.911241,112.983821 207.780059,113.094651 C207.324286,113.482557 206.136923,114.285236 204.722514,115.168519 C202.586605,116.508557 199.857014,118.110557 197.668968,119.373349 C196.706968,119.929179 195.859332,120.414481 195.200059,120.788953 L191.185559,114.681538 L202.156059,111.522877 C202.722832,111.359991 203.16515,110.908274 203.314832,110.33733 C203.466195,109.768066 203.304741,109.156821 202.892695,108.73533 L192.125695,97.7211604 C191.71365,97.2996698 191.111559,97.1250283 190.538059,97.2593679 L150.367832,106.691689 C150.174423,106.737028 149.987741,106.817632 149.821241,106.928462 C146.553468,109.099726 142.644923,110.367557 138.423559,110.369236 C133.312514,110.367557 128.660605,108.505274 125.054786,105.428896 C124.708332,105.133349 124.252559,104.988934 123.798468,105.032594 C118.060105,105.590104 111.926514,105.900764 105.537286,105.900764 C102.392286,105.900764 99.3364227,105.810085 96.3394227,105.667349 L105.579332,95.8857453 C120.897332,94.3374811 132.617923,81.6558208 133.45715,65.986783 C133.674105,65.9548774 133.887695,65.8809906 134.087832,65.7600849 L134.087832,65.7600849 L181.76065,36.8115755 C182.091968,36.610066 182.349286,36.2910094 182.477105,35.924934 L185.462332,27.2801792 L218.055968,61.8155377 C217.98365,62.2336698 217.827241,62.8180472 217.455559,63.4108208 L217.455559,63.4108208 Z M91.4789682,106.564066 L91.3730136,114.693292 L85.8801955,107.679085 L104.346559,82.3812547 C104.844377,81.6961226 104.755241,80.7456698 104.138014,80.1680094 L103.500605,79.5701981 L103.374468,79.4627264 L79.7499682,61.3319151 C79.5178773,61.0800283 79.2471045,60.6484623 79.0553773,60.1010283 C78.8485136,59.5250472 78.7240591,58.8415943 78.7240591,58.168217 C78.7240591,57.7148208 78.7795591,57.2664623 78.8922409,56.8500094 L78.9124227,56.7559717 C78.9208318,56.7207075 79.0604227,56.4486698 79.2286045,56.1951038 C79.40015,55.9281038 79.5918773,55.662783 79.7482864,55.4310472 L79.7970591,55.3538019 L79.8391045,55.2832736 L79.9046955,55.1724434 L79.9131045,55.1606887 L96.7951955,26.2642358 C96.9129227,26.1030283 96.9953318,25.9838019 97.0541955,25.9199906 L97.0895136,25.8830472 L97.0945591,25.8780094 L97.0911955,25.8746509 C97.2038773,25.8242736 97.3199227,25.7772547 97.41915,25.7033679 C97.4309227,25.6949717 97.4645591,25.6664245 97.6344227,25.6345189 C97.7975591,25.6042925 98.0750591,25.5908585 98.4265591,25.5925377 L98.7847864,25.5925377 L115.823286,25.5925377 C115.930923,25.6278019 116.395105,25.8897642 116.847514,26.3078962 C117.34365,26.7478585 117.871741,27.3389528 118.26865,27.9216509 L118.302286,27.9686698 L135.542605,51.3857453 C135.569514,51.4210094 135.606514,51.4378019 135.635105,51.4697075 C134.928741,52.561217 134.282923,53.6829528 133.694286,54.8365943 C133.048468,54.8097264 132.429559,54.5141792 132.027605,53.9667453 L117.308332,33.9770094 C116.795377,33.2784434 115.828332,33.0870094 115.084968,33.5336887 C114.684695,33.7906132 114.555195,33.9820472 114.40215,34.1583679 C114.193605,34.4203302 114.037195,34.6655 113.887514,34.8921981 C113.741195,35.1155377 113.604968,35.3187264 113.53265,35.4110849 L113.505741,35.4480283 L112.227559,37.2011604 L103.408105,29.7671415 C102.698377,29.1693302 101.63715,29.2583302 101.036741,29.9669717 C100.438014,30.6756132 100.52715,31.735217 101.238559,32.3330283 L111.495968,40.9794623 C111.507741,40.9895377 111.514468,41.0029717 111.527923,41.0130472 C111.532968,41.0180849 111.541377,41.0180849 111.546423,41.0214434 L111.60865,41.0735 L128.798514,55.5620283 C129.488059,56.1413679 129.834514,56.9608396 129.834514,57.7467264 C129.832832,58.3344623 129.64615,58.880217 129.267741,59.3302547 L129.25765,59.3420094 L129.254286,59.3470472 C128.780014,59.9079151 128.088786,60.2051415 127.326923,60.2085 C126.679423,60.2085 126.011741,59.9851604 125.455059,59.5166509 L97.8951045,36.2876509 C97.1853773,35.6898396 96.12415,35.7788396 95.5254227,36.4874811 C94.9250136,37.1961226 95.0158318,38.2557264 95.7255591,38.8535377 L105.861877,47.3975377 L97.71515,59.4394057 C97.2694682,60.0976698 97.3485136,60.9826321 97.9068773,61.5518962 L101.487468,65.2126509 C101.596786,65.3705 101.724605,65.5031604 101.881014,65.6139906 L112.60765,76.577783 L113.413241,77.5164811 L113.451923,77.5618208 L113.890877,78.0370472 L114.173423,78.5878396 L114.316377,78.8178962 C114.709923,79.3653302 114.788968,79.7162925 114.795695,80.062217 C114.805786,80.5424811 114.545105,81.2108208 113.956468,82.0185377 L113.953105,82.0235755 L113.647014,82.4501038 L103.551059,93.1385 C103.507332,93.1821604 103.465286,93.220783 103.426605,93.2694811 L91.9364227,105.433934 C91.6454682,105.741236 91.4840136,106.140896 91.4789682,106.564066 L91.4789682,106.564066 Z M43.4243773,127.98284 C43.2427409,128.113821 43.0880136,128.281745 42.9719682,128.4715 C42.9702864,128.474858 42.4657409,129.304406 41.6483773,130.627651 C40.4240136,132.614198 38.5050591,135.698972 36.57265,138.703142 C34.6452864,141.703953 32.68765,144.642632 31.4548773,146.251349 C31.0007864,146.84916 30.1649227,147.801292 29.1659227,148.877689 C26.1521045,152.127028 21.5943773,156.61733 19.9125591,158.262991 C19.7443773,158.427557 19.6199227,158.613953 19.5307864,158.830575 L15.2942864,169.25533 L6.91210455,164.991726 L12.5293773,158.451066 C12.7732409,158.341915 12.9952409,158.184066 13.1651045,157.965764 C14.5744682,156.158896 17.1375591,152.849104 19.6619682,149.468783 C22.1914227,146.081745 24.6636955,142.659443 25.9704682,140.4865 C27.2436045,138.362255 29.19115,134.419387 31.0512409,130.530255 C32.9062864,126.649519 34.6452864,122.862821 35.4054682,121.197009 L35.4761045,120.978708 L35.5820591,120.793991 L35.6526955,120.654613 C35.6779227,120.600877 35.6930591,120.567292 35.7132409,120.523632 C35.7300591,120.498443 35.7603318,120.48333 35.7754682,120.456462 L47.2017409,100.495274 C47.5162409,99.9461604 47.4943773,99.2694245 47.1479227,98.7404623 C45.0237864,95.5028774 43.7826045,91.6523679 43.7826045,87.4945566 C43.7792409,81.8573302 45.6090591,76.502217 48.7675136,72.5627075 C49.5159227,71.6340849 50.3383318,70.7894245 51.2212864,70.0270472 C51.42815,69.8641604 51.6383773,69.7012736 51.8385136,69.5333491 C54.5781955,67.3704811 57.9014682,66.0287642 61.7461045,65.8625189 L63.4127864,65.9531981 L63.5052864,65.9565566 L70.8800591,65.9565566 C71.4485136,79.1386321 79.8391045,90.0688396 91.5260591,94.2434434 L83.85865,104.747123 C81.7092864,104.500274 79.6204682,104.21816 77.6090136,103.900783 C77.1717409,103.831934 76.7260591,103.937726 76.36615,104.19633 C76.1088318,104.379368 43.4260591,127.98116 43.4243773,127.98284 L43.4243773,127.98284 Z M41.8871955,71.3889151 C37.68265,72.9825189 32.6893318,73.9161792 27.3327409,73.9145 C21.97615,73.9161792 16.9828318,72.9825189 12.7782864,71.3889151 C10.1765136,70.4031981 7.88251364,69.1622358 5.98542273,67.7533491 L48.6800591,67.7533491 C46.7829682,69.1622358 44.4889682,70.4031981 41.8871955,71.3889151 L41.8871955,71.3889151 Z M93.5997409,91.4004811 C82.7419227,87.9496321 74.8289682,78.0706321 74.2436955,65.9565566 L80.2561955,65.9565566 L100.71215,81.6558208 L93.5997409,91.4004811 Z M130.81165,62.4452547 C130.798195,62.4973113 130.779695,62.5460094 130.767923,62.598066 L130.549286,62.598066 C130.635059,62.5426509 130.729241,62.5057075 130.81165,62.4452547 L130.81165,62.4452547 Z M115.949423,37.8023302 L120.872105,44.4857264 L114.804105,39.3724245 L115.949423,37.8023302 Z M123.285514,62.0825377 C123.517605,62.2790094 123.768195,62.440217 124.020468,62.598066 L103.631786,62.598066 L101.270514,60.1849906 L108.446832,49.5755189 L123.285514,62.0825377 Z M116.171423,84.6717453 L116.314377,84.4971038 L116.687741,83.9798962 L116.684377,83.9832547 C117.456332,82.9085377 118.150923,81.6289528 118.159332,80.062217 C118.166059,79.0361981 117.807832,77.9765943 117.150241,77.0244623 L116.780241,76.3023868 L116.519559,75.9295943 L115.947741,75.3099528 L115.125332,74.3511038 L115.051332,74.2705 L106.916377,65.9565566 L130.093514,65.9565566 C129.35015,78.4954811 120.920877,88.7758208 109.442468,91.7951038 L116.171423,84.6717453 Z M148.435423,42.9005189 C155.761423,37.6646321 165.188014,34.4975755 175.492514,34.4992547 C176.856468,34.500934 177.786514,34.5529906 178.829241,34.6604623 L134.570514,61.5351038 C136.864514,54.1682547 141.753559,47.6779717 148.435423,42.9005189 L148.435423,42.9005189 Z M221.483514,61.1656698 C221.471741,60.755934 221.308605,60.3629906 221.027741,60.0657642 L186.002195,22.9561226 C185.596877,22.5279151 185.001514,22.3431981 184.42465,22.4674623 C183.847786,22.5900472 183.380241,23.0048208 183.188514,23.5606509 L180.457241,31.4698962 C178.78215,31.2616698 177.46865,31.1390849 175.492514,31.1407642 C164.496786,31.1407642 154.390741,34.5160472 146.477786,40.170066 C143.099014,42.5848208 140.147423,45.4395377 137.671786,48.6082736 L121.011695,25.9804434 L121.010014,25.9821226 C120.367559,25.0551792 119.593923,24.2138774 118.791695,23.547217 C118.381332,23.2096887 117.964241,22.9158208 117.516877,22.6790472 C117.06615,22.4506698 116.593559,22.2458019 115.91915,22.2340472 L115.885514,22.2357264 L115.885514,22.2357264 L98.7847864,22.2357264 L98.4265591,22.2340472 C98.0313318,22.2357264 97.5738773,22.2374057 97.0508318,22.3264057 C96.6404682,22.3986132 96.1779682,22.5732547 95.7289227,22.835217 C95.1352409,23.0753491 94.7669227,23.4363868 94.5196955,23.7134623 C94.2573318,24.0157264 94.0841045,24.2860849 94.05215,24.3213491 L93.9310591,24.5010283 L77.0102864,53.4629717 L76.9514227,53.5637264 L76.9362864,53.5872358 C76.8084682,53.7753113 76.5545136,54.1279528 76.3039227,54.5292925 C76.1710591,54.7408774 76.0381955,54.9675755 75.9171045,55.2194623 C75.8178773,55.4344057 75.7236955,55.6745377 75.6530591,55.9768019 L75.64465,55.9751226 C75.6345591,56.018783 75.6311955,56.0624434 75.6194227,56.1061038 C75.6160591,56.1228962 75.6110136,56.1346509 75.60765,56.1531226 L75.6110136,56.1531226 C75.4445136,56.8265 75.3621045,57.5032358 75.3604227,58.168217 C75.3621045,59.2446132 75.5504682,60.2823868 75.8868318,61.2261226 C76.0600591,61.7114245 76.2753318,62.1698585 76.5292864,62.598066 L63.5506955,62.598066 L61.8217864,62.5023491 L61.6636955,62.5023491 C58.7221955,62.6131792 56.01615,63.3436509 53.5775136,64.5174434 C53.38915,64.4452358 53.1923773,64.3948585 52.9838318,64.3948585 L1.68165,64.3948585 C1.02237727,64.3948585 0.427013636,64.7760472 0.152877273,65.3755377 C-0.121259091,65.9733491 -0.0220318182,66.6735943 0.410195455,67.1723302 C3.09774091,70.272217 6.96760455,72.7759717 11.5858773,74.5291038 C16.2058318,76.2788774 21.5859682,77.2729906 27.3327409,77.2729906 C33.0795136,77.2729906 38.45965,76.2788774 43.0796045,74.5291038 C43.2679682,74.4568962 43.4462409,74.3762925 43.6312409,74.3040849 C41.5474682,78.2234434 40.42065,82.7792358 40.4189682,87.4945566 C40.4189682,91.9495943 41.6635136,96.1158019 43.7910136,99.6858774 L33.0156045,118.508538 C32.9130136,118.627764 32.8221955,118.757066 32.7549227,118.90316 C32.7549227,118.90316 32.6994227,119.027425 32.6220591,119.195349 L32.4488318,119.499292 C32.3697864,119.636991 32.3243773,119.779726 32.2873773,119.930858 C31.5070136,121.638651 29.8151045,125.317877 28.0155591,129.082745 C26.1823773,132.924858 24.21465,136.88284 23.08615,138.760236 C21.9307409,140.688009 19.4635136,144.120387 16.9660136,147.460406 C14.66865,150.535104 12.3410136,153.549349 10.8896045,155.414991 C10.6978773,155.514066 10.5179227,155.636651 10.3716045,155.806255 L2.96655909,164.425821 C2.63019545,164.817085 2.49396818,165.33933 2.59319545,165.846462 C2.69410455,166.351915 3.02037727,166.781802 3.48119545,167.016896 L15.4002409,173.077292 C15.8173318,173.290557 16.3117864,173.317425 16.7507409,173.154538 C17.1896955,172.991651 17.5445591,172.645726 17.72115,172.212481 L22.5160136,160.417462 C23.7252409,159.231915 25.9637409,157.025387 28.2039227,154.739934 C29.4030591,153.517443 30.5988318,152.276481 31.63315,151.159783 C32.6708318,150.039726 33.53865,149.060726 34.1289682,148.289953 C35.9402864,145.917179 38.8346955,141.44367 41.3204227,137.50584 C43.3924227,134.222915 45.1431955,131.368198 45.6696045,130.506745 C46.3053318,130.046632 48.0729227,128.772085 50.5065136,127.013915 C58.8146955,121.013972 74.6473318,109.579991 77.7788773,107.319726 C79.1932864,107.536349 80.6463773,107.7345 82.1230136,107.915858 C82.1600136,108.211406 82.2558773,108.501915 82.4492864,108.748764 L91.6673318,120.523632 C92.1079682,121.087858 92.8513318,121.309519 93.5291045,121.081142 C94.2085591,120.852764 94.6643318,120.226406 94.6744227,119.511047 L94.81065,108.956991 C98.2987409,109.153462 101.870923,109.259255 105.537286,109.259255 C111.788605,109.259255 117.792695,108.960349 123.446968,108.433066 C127.545559,111.726066 132.749105,113.727726 138.423559,113.727726 C143.204968,113.727726 147.661786,112.310443 151.400468,109.899047 L190.38165,100.745481 L198.52165,109.072858 L188.062423,112.085425 C187.549468,112.233198 187.137423,112.616066 186.950741,113.116481 C186.765741,113.616896 186.82965,114.174406 187.122286,114.621085 L193.252514,123.945934 C193.736877,124.683123 194.712332,124.921575 195.482605,124.490009 C195.48765,124.486651 198.437559,122.830915 201.700286,120.914896 C203.333332,119.956047 205.043741,118.933387 206.511968,118.01316 C207.988605,117.084538 209.184377,116.296972 209.944559,115.665575 C210.021923,115.600085 210.255695,115.412009 210.521423,115.161802 C210.923377,114.780613 211.438014,114.226462 211.868559,113.467443 C212.299105,112.711783 212.640514,111.727745 212.638832,110.590896 C212.642195,109.480915 212.309195,108.265142 211.587695,107.040972 L211.589377,107.039292 L198.454377,84.0168396 L198.360195,83.8707453 C197.870786,83.1721792 197.145923,82.5743679 196.306695,82.2469151 C195.465786,81.9127453 194.566014,81.8069528 193.556923,81.8052736 C192.292195,81.8069528 190.815559,81.9782358 188.933605,82.2603491 L164.997968,84.848066 L185.828968,66.3327075 C186.994468,66.8196887 188.294514,67.1169151 189.668559,67.3251415 C191.505105,67.5988585 193.47115,67.6895377 195.348059,67.691217 C199.080014,67.6895377 202.423468,67.3285 203.489741,67.2025566 C204.085105,67.3906321 205.361605,67.786934 206.816377,68.1882736 C207.815377,68.4636698 208.891741,68.7407453 209.894105,68.9540094 C210.908241,69.1655943 211.809695,69.3234434 212.640514,69.3284811 C212.828877,69.3284811 213.017241,69.3200849 213.222423,69.2915377 C215.084195,69.0346132 216.582695,68.478783 217.754923,67.7365566 C219.524195,66.6248962 220.494605,65.1118962 220.968877,63.8608585 C221.449877,62.6031038 221.483514,61.5955566 221.485195,61.2613868 L221.483514,61.1656698 Z" id="Fill-5" fill="#FD9348" sketch:type="MSShapeGroup" mask="url(#mask-2)"></path>
            <path d="M102.829895,5.43000755 C104.062668,4.20247925 105.74785,3.44681887 107.624759,3.44681887 C109.50335,3.44681887 111.188532,4.20247925 112.421305,5.43000755 C113.650714,6.66089434 114.40585,8.34349811 114.407532,10.2175358 C114.40585,12.0932528 113.650714,13.7758566 112.421305,15.0067434 C111.188532,16.2342717 109.50335,16.9882528 107.624759,16.9899321 C105.74785,16.9882528 104.062668,16.2342717 102.829895,15.0067434 C101.600486,13.7758566 100.843668,12.0932528 100.843668,10.2175358 C100.843668,8.34349811 101.600486,6.66089434 102.829895,5.43000755 M107.624759,20.3467434 C113.228577,20.3467434 117.769486,15.8127811 117.769486,10.2175358 C117.769486,4.62229057 113.228577,0.0900075472 107.624759,0.0883283019 C102.020941,0.0900075472 97.4817136,4.62229057 97.4800318,10.2175358 C97.4817136,15.8127811 102.020941,20.3467434 107.624759,20.3467434" id="Fill-6" fill="#FD9348" sketch:type="MSShapeGroup" mask="url(#mask-2)"></path>
            <path id="Fill-7" fill="#FD9348" sketch:type="MSShapeGroup" mask="url(#mask-2)"></path>
            <path d="M47.4546864,38.1919151 L47.4597318,38.1919151 C48.8337773,38.1885566 49.9454591,37.0785755 49.9471409,35.7066321 L49.9471409,35.7032736 C49.9454591,34.3296509 48.8337773,33.2196698 47.4597318,33.2163113 L47.4546864,33.2163113 C46.0806409,33.2196698 44.9689591,34.3296509 44.9655955,35.7032736 L44.9655955,35.7066321 C44.9689591,37.0785755 46.0806409,38.1885566 47.4546864,38.1919151" id="Fill-8" fill="#FD9348" sketch:type="MSShapeGroup" mask="url(#mask-2)"></path>
            <path d="M47.4546864,30.460334 L47.4597318,30.460334 C48.8337773,30.4569755 49.9454591,29.3469943 49.9471409,27.9750509 L49.9471409,27.9716925 C49.9454591,26.5980698 48.8337773,25.4880887 47.4597318,25.4864094 L47.4546864,25.4864094 C46.0806409,25.4880887 44.9689591,26.5980698 44.9655955,27.9716925 L44.9655955,27.9750509 C44.9689591,29.3469943 46.0806409,30.4569755 47.4546864,30.460334" id="Fill-9" fill="#FD9348" sketch:type="MSShapeGroup" mask="url(#mask-2)"></path>
            <path d="M57.2295818,38.1919151 L57.2346273,38.1919151 C58.6086727,38.1885566 59.7203545,37.0785755 59.7220364,35.7066321 L59.7220364,35.7032736 C59.7203545,34.3296509 58.6086727,33.2196698 57.2346273,33.2163113 L57.2295818,33.2163113 C55.8555364,33.2196698 54.7438545,34.3296509 54.7404909,35.7032736 L54.7404909,35.7066321 C54.7438545,37.0785755 55.8555364,38.1885566 57.2295818,38.1919151" id="Fill-10" fill="#FD9348" sketch:type="MSShapeGroup" mask="url(#mask-2)"></path>
            <path d="M67.0044773,38.1919151 L67.0095227,38.1919151 C68.3835682,38.1885566 69.49525,37.0785755 69.4969318,35.7066321 L69.4969318,35.7032736 C69.49525,34.3296509 68.3835682,33.2196698 67.0095227,33.2163113 L67.0044773,33.2163113 C65.6304318,33.2196698 64.51875,34.3296509 64.5153864,35.7032736 L64.5153864,35.7066321 C64.51875,37.0785755 65.6304318,38.1885566 67.0044773,38.1919151" id="Fill-11" fill="#FD9348" sketch:type="MSShapeGroup" mask="url(#mask-2)"></path>
            <path d="M47.4546864,46.3674887 L47.4597318,46.3674887 C48.8337773,46.3641302 49.9454591,45.2541491 49.9471409,43.8822057 L49.9471409,43.8788472 C49.9454591,42.5052245 48.8337773,41.3952434 47.4597318,41.3935642 L47.4546864,41.3935642 C46.0806409,41.3952434 44.9689591,42.5052245 44.9655955,43.8788472 L44.9655955,43.8822057 C44.9689591,45.2541491 46.0806409,46.3641302 47.4546864,46.3674887" id="Fill-12" fill="#FD9348" sketch:type="MSShapeGroup" mask="url(#mask-2)"></path>
            <path d="M57.2295818,46.3674887 L57.2346273,46.3674887 C58.6086727,46.3641302 59.7203545,45.2541491 59.7220364,43.8822057 L59.7220364,43.8788472 C59.7203545,42.5052245 58.6086727,41.3952434 57.2346273,41.3935642 L57.2295818,41.3935642 C55.8555364,41.3952434 54.7438545,42.5052245 54.7404909,43.8788472 L54.7404909,43.8822057 C54.7438545,45.2541491 55.8555364,46.3641302 57.2295818,46.3674887" id="Fill-13" fill="#FD9348" sketch:type="MSShapeGroup" mask="url(#mask-2)"></path>
            <path d="M67.0044773,46.3674887 L67.0095227,46.3674887 C68.3835682,46.3641302 69.49525,45.2541491 69.4969318,43.8822057 L69.4969318,43.8788472 C69.49525,42.5052245 68.3835682,41.3952434 67.0095227,41.3935642 L67.0044773,41.3935642 C65.6304318,41.3952434 64.51875,42.5052245 64.5153864,43.8788472 L64.5153864,43.8822057 C64.51875,45.2541491 65.6304318,46.3641302 67.0044773,46.3674887" id="Fill-14" fill="#FD9348" sketch:type="MSShapeGroup" mask="url(#mask-2)"></path>
            <path d="M133.822609,26.5283811 L133.822609,26.5300604 L133.825973,26.5300604 L133.837745,26.5334189 C134.005927,26.568683 134.177473,26.5854755 134.347336,26.5854755 C135.502745,26.5854755 136.5337,25.7844755 136.784291,24.6123623 L136.785973,24.6056453 C136.821291,24.4377208 136.838109,24.268117 136.838109,24.0985132 C136.836427,22.9448717 136.0342,21.9154943 134.861973,21.6652868 L134.8687,21.666966 L134.865336,21.6652868 L134.858609,21.6636075 C134.687064,21.6266642 134.513836,21.6098717 134.345655,21.6098717 C133.190245,21.6115509 132.159291,22.4125509 131.9087,23.5846642 L131.9087,23.5913811 C131.8717,23.7576264 131.854882,23.9305887 131.854882,24.0985132 C131.856564,25.2487962 132.653745,26.2748151 133.822609,26.5283811" id="Fill-15" fill="#FD9348" sketch:type="MSShapeGroup" mask="url(#mask-2)"></path>
            <path d="M125.098177,26.5283811 L125.098177,26.5300604 L125.101541,26.5300604 L125.113314,26.5334189 C125.281495,26.568683 125.453041,26.5854755 125.622905,26.5854755 C126.778314,26.5854755 127.809268,25.7844755 128.059859,24.6123623 L128.061541,24.6056453 C128.096859,24.4377208 128.113677,24.268117 128.113677,24.0985132 C128.111995,22.9448717 127.309768,21.9154943 126.137541,21.6652868 L126.144268,21.666966 L126.140905,21.6652868 L126.134177,21.6636075 C125.962632,21.6266642 125.789405,21.6098717 125.621223,21.6098717 C124.465814,21.6115509 123.434859,22.4125509 123.184268,23.5846642 L123.184268,23.5913811 C123.147268,23.7576264 123.13045,23.9305887 123.13045,24.0985132 C123.132132,25.2487962 123.929314,26.2748151 125.098177,26.5283811" id="Fill-16" fill="#FD9348" sketch:type="MSShapeGroup" mask="url(#mask-2)"></path>
            <path d="M125.098177,18.7093113 L125.098177,18.7109906 L125.101541,18.7109906 L125.113314,18.7143491 C125.281495,18.7496132 125.453041,18.7664057 125.622905,18.7664057 C126.778314,18.7664057 127.809268,17.9654057 128.059859,16.7932925 L128.061541,16.7865755 C128.096859,16.6186509 128.113677,16.4490472 128.113677,16.2794434 C128.111995,15.1258019 127.309768,14.0964245 126.137541,13.846217 L126.144268,13.8478962 L126.140905,13.846217 L126.134177,13.8445377 C125.962632,13.8075943 125.789405,13.7908019 125.621223,13.7908019 C124.465814,13.7924811 123.434859,14.5934811 123.184268,15.7655943 L123.184268,15.7723113 C123.147268,15.9385566 123.13045,16.1115189 123.13045,16.2794434 C123.132132,17.4297264 123.929314,18.4557453 125.098177,18.7093113" id="Fill-17" fill="#FD9348" sketch:type="MSShapeGroup" mask="url(#mask-2)"></path>
            <path d="M144.119373,26.5856434 L144.124418,26.5856434 C145.498464,26.5822849 146.610145,25.4723038 146.611827,24.1003604 L146.611827,24.0970019 C146.610145,22.7233792 145.498464,21.6133981 144.124418,21.6117189 L144.119373,21.6117189 C142.745327,21.6133981 141.633645,22.7233792 141.630282,24.0970019 L141.630282,24.1003604 C141.633645,25.4723038 142.745327,26.5822849 144.119373,26.5856434" id="Fill-18" fill="#FD9348" sketch:type="MSShapeGroup" mask="url(#mask-2)"></path>
            <path d="M134.348682,29.7864528 L134.343636,29.7864528 C132.969591,29.7898113 131.857909,30.8997925 131.854545,32.2717358 L131.854545,32.2767736 C131.857909,33.648717 132.969591,34.7586981 134.343636,34.7603774 L134.348682,34.7603774 C135.722727,34.7586981 136.834409,33.648717 136.837773,32.2767736 L136.837773,32.2717358 C136.834409,30.8997925 135.722727,29.7898113 134.348682,29.7864528" id="Fill-19" fill="#FD9348" sketch:type="MSShapeGroup" mask="url(#mask-2)"></path>
            <path d="M144.119373,34.761217 L144.124418,34.761217 C145.498464,34.7578585 146.610145,33.6478774 146.611827,32.275934 L146.611827,32.2725755 C146.610145,30.8989528 145.498464,29.7889717 144.124418,29.7872925 L144.119373,29.7872925 C142.745327,29.7889717 141.633645,30.8989528 141.630282,32.2725755 L141.630282,32.275934 C141.633645,33.6478774 142.745327,34.7578585 144.119373,34.761217" id="Fill-20" fill="#FD9348" sketch:type="MSShapeGroup" mask="url(#mask-2)"></path>
            <path d="M47.4546864,55.0500264 L47.4597318,55.0500264 C48.8337773,55.0466679 49.9454591,53.9366868 49.9471409,52.5647434 L49.9471409,52.5613849 C49.9454591,51.1877623 48.8337773,50.0777811 47.4597318,50.0761019 L47.4546864,50.0761019 C46.0806409,50.0777811 44.9689591,51.1877623 44.9655955,52.5613849 L44.9655955,52.5647434 C44.9689591,53.9366868 46.0806409,55.0466679 47.4546864,55.0500264" id="Fill-21" fill="#FD9348" sketch:type="MSShapeGroup" mask="url(#mask-2)"></path>
            <path d="M57.2295818,55.0500264 L57.2346273,55.0500264 C58.6086727,55.0466679 59.7203545,53.9366868 59.7220364,52.5647434 L59.7220364,52.5613849 C59.7203545,51.1877623 58.6086727,50.0777811 57.2346273,50.0761019 L57.2295818,50.0761019 C55.8555364,50.0777811 54.7438545,51.1877623 54.7404909,52.5613849 L54.7404909,52.5647434 C54.7438545,53.9366868 55.8555364,55.0466679 57.2295818,55.0500264" id="Fill-22" fill="#FD9348" sketch:type="MSShapeGroup" mask="url(#mask-2)"></path>
            <path d="M67.0044773,55.0500264 L67.0095227,55.0500264 C68.3835682,55.0466679 69.49525,53.9366868 69.4969318,52.5647434 L69.4969318,52.5613849 C69.49525,51.1877623 68.3835682,50.0777811 67.0095227,50.0761019 L67.0044773,50.0761019 C65.6304318,50.0777811 64.51875,51.1877623 64.5153864,52.5613849 L64.5153864,52.5647434 C64.51875,53.9366868 65.6304318,55.0466679 67.0044773,55.0500264" id="Fill-23" fill="#FD9348" sketch:type="MSShapeGroup" mask="url(#mask-2)"></path>
            <path d="M27.3773091,46.3674887 L27.3823545,46.3674887 C28.7564,46.3641302 29.8680818,45.2541491 29.8697636,43.8822057 L29.8697636,43.8788472 C29.8680818,42.5052245 28.7564,41.3952434 27.3823545,41.3935642 L27.3773091,41.3935642 C26.0032636,41.3952434 24.8915818,42.5052245 24.8882182,43.8788472 L24.8882182,43.8822057 C24.8915818,45.2541491 26.0032636,46.3641302 27.3773091,46.3674887" id="Fill-24" fill="#FD9348" sketch:type="MSShapeGroup" mask="url(#mask-2)"></path>
            <path d="M37.1522045,46.3674887 L37.15725,46.3674887 C38.5312955,46.3641302 39.6429773,45.2541491 39.6446591,43.8822057 L39.6446591,43.8788472 C39.6429773,42.5052245 38.5312955,41.3952434 37.15725,41.3935642 L37.1522045,41.3935642 C35.7781591,41.3952434 34.6664773,42.5052245 34.6631136,43.8788472 L34.6631136,43.8822057 C34.6664773,45.2541491 35.7781591,46.3641302 37.1522045,46.3674887" id="Fill-25" fill="#FD9348" sketch:type="MSShapeGroup" mask="url(#mask-2)"></path>
            <path d="M27.3773091,55.0500264 L27.3823545,55.0500264 C28.7564,55.0466679 29.8680818,53.9366868 29.8697636,52.5647434 L29.8697636,52.5613849 C29.8680818,51.1877623 28.7564,50.0777811 27.3823545,50.0761019 L27.3773091,50.0761019 C26.0032636,50.0777811 24.8915818,51.1877623 24.8882182,52.5613849 L24.8882182,52.5647434 C24.8915818,53.9366868 26.0032636,55.0466679 27.3773091,55.0500264" id="Fill-26" fill="#FD9348" sketch:type="MSShapeGroup" mask="url(#mask-2)"></path>
            <path d="M37.1522045,55.0500264 L37.15725,55.0500264 C38.5312955,55.0466679 39.6429773,53.9366868 39.6446591,52.5647434 L39.6446591,52.5613849 C39.6429773,51.1877623 38.5312955,50.0777811 37.15725,50.0761019 L37.1522045,50.0761019 C35.7781591,50.0777811 34.6664773,51.1877623 34.6631136,52.5613849 L34.6631136,52.5647434 C34.6664773,53.9366868 35.7781591,55.0466679 37.1522045,55.0500264" id="Fill-27" fill="#FD9348" sketch:type="MSShapeGroup" mask="url(#mask-2)"></path>
        </g>
    </g>
</svg>