<?xml version="1.0" encoding="UTF-8"?>
<svg width="58px" height="50px" viewBox="0 0 58 50" version="1.1" xmlns="http://www.w3.org/2000/svg" xmlns:xlink="http://www.w3.org/1999/xlink">
    <!-- Generator: Sketch 42 (36781) - http://www.bohemiancoding.com/sketch -->
    <title>Логотип</title>
    <desc>Created with Sketch.</desc>
    <defs></defs>
    <g id="Page-1" stroke="none" stroke-width="1" fill="none" fill-rule="evenodd">
        <g id="Artboard" transform="translate(-1.000000, -1.000000)" fill="#1F4FDA">
            <g id="Логотип" transform="translate(1.000000, 1.000000)">
                <polygon id="Shape" points="24.3552846 26.6901408 33.6447154 26.6901408 33.6447154 32.4647887 31.3813008 32.4647887 31.3813008 37.1596244 41.6845528 37.1596244 41.6845528 32.4647887 39.3504065 32.4647887 39.3504065 17.7464789 41.6845528 17.7464789 41.6845528 13.0516432 31.3813008 13.0516432 31.3813008 17.7464789 33.6447154 17.7464789 33.6447154 22.2769953 24.3552846 22.2769953 24.3552846 17.7464789 26.6186992 17.7464789 26.6186992 13.0516432 16.3154472 13.0516432 16.3154472 17.7464789 18.6495935 17.7464789 18.6495935 32.4647887 16.3154472 32.4647887 16.3154472 37.1596244 26.6186992 37.1596244 26.6186992 32.4647887 24.3552846 32.4647887"></polygon>
                <path d="M4.64471545,25.1173709 C7.89837398,32.1361502 11.9536585,39.084507 16.4333333,45.399061 C24.7796748,46.0798122 33.2439024,46.0798122 41.5902439,45.399061 C46.0463415,39.084507 50.101626,32.1361502 53.3788618,25.1173709 C50.1252033,18.0985915 46.0699187,11.1737089 41.5902439,4.83568075 C33.2439024,4.15492958 24.7796748,4.15492958 16.4333333,4.83568075 C11.9536585,11.1502347 7.89837398,18.0985915 4.64471545,25.1173709 M14.1699187,0.938967136 C24.0252033,-0.0234741784 33.9747967,-0.0234741784 43.8300813,0.938967136 C49.3471545,8.61502347 53.9447154,16.4788732 57.8821138,25.0938967 C54.0861789,33.3802817 49.7243902,41.0798122 44.395935,48.4976526 L43.8536585,49.2488263 C33.9747967,50.2112676 24.0487805,50.2112676 14.1934959,49.2488263 C8.55853659,41.4788732 4.12601626,33.8262911 0.117886179,25.1173709 C4.07886179,16.4553991 8.60569106,8.66197183 14.1699187,0.938967136" id="Shape" fill-rule="nonzero"></path>
            </g>
        </g>
    </g>
</svg>